<?xml version="1.0" standalone="no"?>
 <!DOCTYPE svg PUBLIC "-//W3C//DTD SVG 1.1//EN" 
 "http://www.w3.org/Graphics/SVG/1.1/DTD/svg11.dtd"> 
<svg xmlns="http://www.w3.org/2000/svg" version="1.1" 
    width="29.7002cm" height="21.0007cm" viewBox="0 0 116930 82680 ">
<title>SVG Picture created as pidroponic_uHAT_homeproto-F_Cu.svg date 2020/04/23 14:39:38 </title>
  <desc>Picture generated by PCBNEW </desc>
<g style="fill:#000000; fill-opacity:1;stroke:#000000; stroke-opacity:1;
stroke-linecap:round; stroke-linejoin:round; "
 transform="translate(0 0) scale(1 1)">
</g>
<g style="fill:#000000; fill-opacity:0.0; 
stroke:#000000; stroke-width:-0.000393701; stroke-opacity:1; 
stroke-linecap:round; stroke-linejoin:round;">
</g>
<g style="fill:#000000; fill-opacity:0.0; 
stroke:#000000; stroke-width:59.0551; stroke-opacity:1; 
stroke-linecap:round; stroke-linejoin:round;">
<path d="M69279 47664
L69476 47664
" />
<path d="M46444 47664
L46248 47664
" />
<path d="M45067 37034
L45067 46483
" />
<path d="M69476 35853
L46248 35853
" />
<path d="M70657 46483
L70657 37034
" />
<path d="M70657.6 37034.6 A1181.1 1181.1 0.0 0 0 69476.5 35853.5 " />
<path d="M69476.5 47664.6 A1181.1 1181.1 0.0 0 0 70657.6 46483.5 " />
<path d="M45067 46483.5 A1181.1 1181.1 0.0 0 0 46248.1 47664.6 " />
<path d="M46248.1 35853.5 A1181.1 1181.1 0.0 0 0 45067 37034.6 " />
<path d="M69279 47664
L46444 47664
" />
<g >
</g>
<g style="fill:#000000; fill-opacity:0.0; 
stroke:#000000; stroke-width:472.441; stroke-opacity:1; 
stroke-linecap:round; stroke-linejoin:round;">
<path d="M49317 46223
L49317 46439
" />
<path d="M50104 46223
L50104 46439
" />
<path d="M50892 46223
L50892 46439
" />
</g>
<g style="fill:#000000; fill-opacity:0.0; 
stroke:#000000; stroke-width:0; stroke-opacity:1; 
stroke-linecap:round; stroke-linejoin:round;">
</g>
<g style="fill:#000000; fill-opacity:1.0; 
stroke:#000000; stroke-width:0; stroke-opacity:1; 
stroke-linecap:round; stroke-linejoin:round;">
<path style="fill:#000000; fill-opacity:1.0; 
stroke:#000000; stroke-width:0; stroke-opacity:1; 
stroke-linecap:round; stroke-linejoin:round;fill-rule:evenodd;"
d="M 51532,45987
51522,45988
51513,45991
51504,45994
51495,45998
51487,46003
51479,46009
51472,46015
51465,46022
51459,46030
51454,46038
51450,46047
51447,46056
51445,46066
51443,46075
51443,46085
51443,46577
51443,46587
51445,46596
51447,46606
51450,46615
51454,46624
51459,46632
51465,46640
51472,46647
51479,46653
51487,46659
51495,46664
51504,46668
51513,46671
51522,46674
51532,46675
51541,46675
51817,46675
51827,46675
51836,46674
51846,46671
51855,46668
51863,46664
51872,46659
51879,46653
51887,46647
51893,46640
51899,46632
51904,46624
51908,46615
51911,46606
51913,46596
51915,46587
51915,46577
51915,46085
51915,46075
51913,46066
51911,46056
51908,46047
51904,46038
51899,46030
51893,46022
51887,46015
51879,46009
51872,46003
51863,45998
51855,45994
51846,45991
51836,45988
51827,45987
51817,45987
51541,45987
51532,45987
Z" /> 
</g>
<g >
</g>
<g style="fill:#000000; fill-opacity:1.0; 
stroke:#000000; stroke-width:0; stroke-opacity:1; 
stroke-linecap:round; stroke-linejoin:round;">
<path style="fill:#000000; fill-opacity:1.0; 
stroke:#000000; stroke-width:0; stroke-opacity:1; 
stroke-linecap:round; stroke-linejoin:round;fill-rule:evenodd;"
d="M 51532,43687
51522,43688
51513,43691
51504,43694
51495,43698
51487,43703
51479,43709
51472,43715
51465,43722
51459,43730
51454,43738
51450,43747
51447,43756
51445,43766
51443,43775
51443,43785
51443,44277
51443,44287
51445,44296
51447,44306
51450,44315
51454,44324
51459,44332
51465,44340
51472,44347
51479,44353
51487,44359
51495,44364
51504,44368
51513,44371
51522,44374
51532,44375
51541,44375
51817,44375
51827,44375
51836,44374
51846,44371
51855,44368
51863,44364
51872,44359
51879,44353
51887,44347
51893,44340
51899,44332
51904,44324
51908,44315
51911,44306
51913,44296
51915,44287
51915,44277
51915,43785
51915,43775
51913,43766
51911,43756
51908,43747
51904,43738
51899,43730
51893,43722
51887,43715
51879,43709
51872,43703
51863,43698
51855,43694
51846,43691
51836,43688
51827,43687
51817,43687
51541,43687
51532,43687
Z" /> 
</g>
<g style="fill:#000000; fill-opacity:1.0; 
stroke:#000000; stroke-width:472.441; stroke-opacity:1; 
stroke-linecap:round; stroke-linejoin:round;">
</g>
<g style="fill:#000000; fill-opacity:0.0; 
stroke:#000000; stroke-width:472.441; stroke-opacity:1; 
stroke-linecap:round; stroke-linejoin:round;">
<path d="M50892 43923
L50892 44139
" />
<path d="M50104 43923
L50104 44139
" />
<path d="M49317 43923
L49317 44139
" />
</g>
<g >
</g>
<g style="fill:#000000; fill-opacity:0.0; 
stroke:#000000; stroke-width:472.441; stroke-opacity:1; 
stroke-linecap:round; stroke-linejoin:round;">
</g>
<g style="fill:#000000; fill-opacity:0.0; 
stroke:#000000; stroke-width:0; stroke-opacity:1; 
stroke-linecap:round; stroke-linejoin:round;">
</g>
<g style="fill:#000000; fill-opacity:1.0; 
stroke:#000000; stroke-width:0; stroke-opacity:1; 
stroke-linecap:round; stroke-linejoin:round;">
<path style="fill:#000000; fill-opacity:1.0; 
stroke:#000000; stroke-width:0; stroke-opacity:1; 
stroke-linecap:round; stroke-linejoin:round;fill-rule:evenodd;"
d="M 65263,43865
65263,44180
65618,44180
65618,43865
65263,43865
Z" /> 
<path style="fill:#000000; fill-opacity:1.0; 
stroke:#000000; stroke-width:0; stroke-opacity:1; 
stroke-linecap:round; stroke-linejoin:round;fill-rule:evenodd;"
d="M 64476,43491
64476,43806
64830,43806
64830,43491
64476,43491
Z" /> 
<path style="fill:#000000; fill-opacity:1.0; 
stroke:#000000; stroke-width:0; stroke-opacity:1; 
stroke-linecap:round; stroke-linejoin:round;fill-rule:evenodd;"
d="M 64476,44239
64476,44554
64830,44554
64830,44239
64476,44239
Z" /> 
</g>
<g >
</g>
<g style="fill:#000000; fill-opacity:1.0; 
stroke:#000000; stroke-width:0; stroke-opacity:1; 
stroke-linecap:round; stroke-linejoin:round;">
</g>
<g style="fill:#000000; fill-opacity:1.0; 
stroke:#000000; stroke-width:472.441; stroke-opacity:1; 
stroke-linecap:round; stroke-linejoin:round;">
</g>
<g style="fill:#000000; fill-opacity:0.0; 
stroke:#000000; stroke-width:472.441; stroke-opacity:1; 
stroke-linecap:round; stroke-linejoin:round;">
<path d="M50587 39669
L50371 39669
" />
<path d="M50587 40456
L50371 40456
" />
<path d="M50587 41244
L50371 41244
" />
</g>
<g style="fill:#000000; fill-opacity:0.0; 
stroke:#000000; stroke-width:0; stroke-opacity:1; 
stroke-linecap:round; stroke-linejoin:round;">
</g>
<g style="fill:#000000; fill-opacity:1.0; 
stroke:#000000; stroke-width:0; stroke-opacity:1; 
stroke-linecap:round; stroke-linejoin:round;">
<path style="fill:#000000; fill-opacity:1.0; 
stroke:#000000; stroke-width:0; stroke-opacity:1; 
stroke-linecap:round; stroke-linejoin:round;fill-rule:evenodd;"
d="M 50223,41795
50214,41797
50204,41799
50195,41802
50187,41806
50178,41811
50171,41817
50163,41824
50157,41831
50151,41839
50146,41847
50142,41856
50139,41865
50137,41874
50135,41884
50135,41893
50135,42169
50135,42178
50137,42188
50139,42197
50142,42206
50146,42215
50151,42223
50157,42231
50163,42238
50171,42245
50178,42251
50187,42256
50195,42260
50204,42263
50214,42265
50223,42267
50233,42267
50725,42267
50735,42267
50744,42265
50754,42263
50763,42260
50772,42256
50780,42251
50788,42245
50795,42238
50801,42231
50807,42223
50812,42215
50816,42206
50819,42197
50822,42188
50823,42178
50824,42169
50824,41893
50823,41884
50822,41874
50819,41865
50816,41856
50812,41847
50807,41839
50801,41831
50795,41824
50788,41817
50780,41811
50772,41806
50763,41802
50754,41799
50744,41797
50735,41795
50725,41795
50233,41795
50223,41795
Z" /> 
</g>
<g >
</g>
<g style="fill:#000000; fill-opacity:1.0; 
stroke:#000000; stroke-width:0; stroke-opacity:1; 
stroke-linecap:round; stroke-linejoin:round;">
</g>
<g style="fill:#000000; fill-opacity:1.0; 
stroke:#000000; stroke-width:472.441; stroke-opacity:1; 
stroke-linecap:round; stroke-linejoin:round;">
</g>
<g style="fill:#000000; fill-opacity:0.0; 
stroke:#000000; stroke-width:472.441; stroke-opacity:1; 
stroke-linecap:round; stroke-linejoin:round;">
<path d="M56187 39669
L55971 39669
" />
<path d="M56187 40456
L55971 40456
" />
<path d="M56187 41244
L55971 41244
" />
</g>
<g style="fill:#000000; fill-opacity:0.0; 
stroke:#000000; stroke-width:0; stroke-opacity:1; 
stroke-linecap:round; stroke-linejoin:round;">
</g>
<g style="fill:#000000; fill-opacity:1.0; 
stroke:#000000; stroke-width:0; stroke-opacity:1; 
stroke-linecap:round; stroke-linejoin:round;">
<path style="fill:#000000; fill-opacity:1.0; 
stroke:#000000; stroke-width:0; stroke-opacity:1; 
stroke-linecap:round; stroke-linejoin:round;fill-rule:evenodd;"
d="M 55823,41795
55814,41797
55804,41799
55795,41802
55787,41806
55778,41811
55771,41817
55763,41824
55757,41831
55751,41839
55746,41847
55742,41856
55739,41865
55737,41874
55735,41884
55735,41893
55735,42169
55735,42178
55737,42188
55739,42197
55742,42206
55746,42215
55751,42223
55757,42231
55763,42238
55771,42245
55778,42251
55787,42256
55795,42260
55804,42263
55814,42265
55823,42267
55833,42267
56325,42267
56335,42267
56344,42265
56354,42263
56363,42260
56372,42256
56380,42251
56388,42245
56395,42238
56401,42231
56407,42223
56412,42215
56416,42206
56419,42197
56422,42188
56423,42178
56424,42169
56424,41893
56423,41884
56422,41874
56419,41865
56416,41856
56412,41847
56407,41839
56401,41831
56395,41824
56388,41817
56380,41811
56372,41806
56363,41802
56354,41799
56344,41797
56335,41795
56325,41795
55833,41795
55823,41795
Z" /> 
</g>
<g >
</g>
<g style="fill:#000000; fill-opacity:1.0; 
stroke:#000000; stroke-width:0; stroke-opacity:1; 
stroke-linecap:round; stroke-linejoin:round;">
</g>
<g style="fill:#000000; fill-opacity:1.0; 
stroke:#000000; stroke-width:472.441; stroke-opacity:1; 
stroke-linecap:round; stroke-linejoin:round;">
</g>
<g style="fill:#000000; fill-opacity:0.0; 
stroke:#000000; stroke-width:472.441; stroke-opacity:1; 
stroke-linecap:round; stroke-linejoin:round;">
<path d="M46687 39856
L46471 39856
" />
<path d="M46687 40644
L46471 40644
" />
<path d="M46687 41431
L46471 41431
" />
<path d="M46687 42218
L46471 42218
" />
<path d="M46687 43006
L46471 43006
" />
</g>
<g style="fill:#000000; fill-opacity:0.0; 
stroke:#000000; stroke-width:0; stroke-opacity:1; 
stroke-linecap:round; stroke-linejoin:round;">
</g>
<g style="fill:#000000; fill-opacity:1.0; 
stroke:#000000; stroke-width:0; stroke-opacity:1; 
stroke-linecap:round; stroke-linejoin:round;">
<path style="fill:#000000; fill-opacity:1.0; 
stroke:#000000; stroke-width:0; stroke-opacity:1; 
stroke-linecap:round; stroke-linejoin:round;fill-rule:evenodd;"
d="M 46323,43557
46314,43559
46304,43561
46295,43564
46287,43569
46278,43574
46271,43579
46263,43586
46257,43593
46251,43601
46246,43609
46242,43618
46239,43627
46237,43636
46235,43646
46235,43655
46235,43931
46235,43941
46237,43950
46239,43960
46242,43969
46246,43977
46251,43986
46257,43993
46263,44001
46271,44007
46278,44013
46287,44018
46295,44022
46304,44025
46314,44028
46323,44029
46333,44029
46825,44029
46835,44029
46844,44028
46854,44025
46863,44022
46872,44018
46880,44013
46888,44007
46895,44001
46901,43993
46907,43986
46912,43977
46916,43969
46919,43960
46922,43950
46923,43941
46924,43931
46924,43655
46923,43646
46922,43636
46919,43627
46916,43618
46912,43609
46907,43601
46901,43593
46895,43586
46888,43579
46880,43574
46872,43569
46863,43564
46854,43561
46844,43559
46835,43557
46825,43557
46333,43557
46323,43557
Z" /> 
</g>
<g >
</g>
<g style="fill:#000000; fill-opacity:1.0; 
stroke:#000000; stroke-width:0; stroke-opacity:1; 
stroke-linecap:round; stroke-linejoin:round;">
</g>
<g style="fill:#000000; fill-opacity:1.0; 
stroke:#000000; stroke-width:472.441; stroke-opacity:1; 
stroke-linecap:round; stroke-linejoin:round;">
</g>
<g style="fill:#000000; fill-opacity:0.0; 
stroke:#000000; stroke-width:472.441; stroke-opacity:1; 
stroke-linecap:round; stroke-linejoin:round;">
<path d="M53387 39669
L53171 39669
" />
<path d="M53387 40456
L53171 40456
" />
<path d="M53387 41244
L53171 41244
" />
</g>
<g style="fill:#000000; fill-opacity:0.0; 
stroke:#000000; stroke-width:0; stroke-opacity:1; 
stroke-linecap:round; stroke-linejoin:round;">
</g>
<g style="fill:#000000; fill-opacity:1.0; 
stroke:#000000; stroke-width:0; stroke-opacity:1; 
stroke-linecap:round; stroke-linejoin:round;">
<path style="fill:#000000; fill-opacity:1.0; 
stroke:#000000; stroke-width:0; stroke-opacity:1; 
stroke-linecap:round; stroke-linejoin:round;fill-rule:evenodd;"
d="M 53023,41795
53014,41797
53004,41799
52995,41802
52987,41806
52978,41811
52971,41817
52963,41824
52957,41831
52951,41839
52946,41847
52942,41856
52939,41865
52937,41874
52935,41884
52935,41893
52935,42169
52935,42178
52937,42188
52939,42197
52942,42206
52946,42215
52951,42223
52957,42231
52963,42238
52971,42245
52978,42251
52987,42256
52995,42260
53004,42263
53014,42265
53023,42267
53033,42267
53525,42267
53535,42267
53544,42265
53554,42263
53563,42260
53572,42256
53580,42251
53588,42245
53595,42238
53601,42231
53607,42223
53612,42215
53616,42206
53619,42197
53622,42188
53623,42178
53624,42169
53624,41893
53623,41884
53622,41874
53619,41865
53616,41856
53612,41847
53607,41839
53601,41831
53595,41824
53588,41817
53580,41811
53572,41806
53563,41802
53554,41799
53544,41797
53535,41795
53525,41795
53033,41795
53023,41795
Z" /> 
</g>
<g >
</g>
<g style="fill:#000000; fill-opacity:1.0; 
stroke:#000000; stroke-width:0; stroke-opacity:1; 
stroke-linecap:round; stroke-linejoin:round;">
<path style="fill:#000000; fill-opacity:1.0; 
stroke:#000000; stroke-width:0; stroke-opacity:1; 
stroke-linecap:round; stroke-linejoin:round;fill-rule:evenodd;"
d="M 64919,46259
65175,46259
65175,45841
64919,45841
64919,46259
Z" /> 
<path style="fill:#000000; fill-opacity:1.0; 
stroke:#000000; stroke-width:0; stroke-opacity:1; 
stroke-linecap:round; stroke-linejoin:round;fill-rule:evenodd;"
d="M 65293,46259
65549,46259
65549,45841
65293,45841
65293,46259
Z" /> 
<path style="fill:#000000; fill-opacity:1.0; 
stroke:#000000; stroke-width:0; stroke-opacity:1; 
stroke-linecap:round; stroke-linejoin:round;fill-rule:evenodd;"
d="M 64545,46259
64801,46259
64801,45841
64545,45841
64545,46259
Z" /> 
<path style="fill:#000000; fill-opacity:1.0; 
stroke:#000000; stroke-width:0; stroke-opacity:1; 
stroke-linecap:round; stroke-linejoin:round;fill-rule:evenodd;"
d="M 64545,47125
64801,47125
64801,46707
64545,46707
64545,47125
Z" /> 
<path style="fill:#000000; fill-opacity:1.0; 
stroke:#000000; stroke-width:0; stroke-opacity:1; 
stroke-linecap:round; stroke-linejoin:round;fill-rule:evenodd;"
d="M 64919,47125
65175,47125
65175,46707
64919,46707
64919,47125
Z" /> 
<path style="fill:#000000; fill-opacity:1.0; 
stroke:#000000; stroke-width:0; stroke-opacity:1; 
stroke-linecap:round; stroke-linejoin:round;fill-rule:evenodd;"
d="M 65293,47125
65549,47125
65549,46707
65293,46707
65293,47125
Z" /> 
</g>
<g >
</g>
<g style="fill:#000000; fill-opacity:1.0; 
stroke:#000000; stroke-width:0; stroke-opacity:1; 
stroke-linecap:round; stroke-linejoin:round;">
</g>
<g style="fill:#000000; fill-opacity:1.0; 
stroke:#000000; stroke-width:669.291; stroke-opacity:1; 
stroke-linecap:round; stroke-linejoin:round;">
</g>
<g style="fill:#000000; fill-opacity:0.0; 
stroke:#000000; stroke-width:669.291; stroke-opacity:1; 
stroke-linecap:round; stroke-linejoin:round;">
<path d="M54385 46778
L54385 46778
" />
<path d="M55385 46778
L55385 46778
" />
<path d="M56385 46778
L56385 46778
" />
<path d="M57385 46778
L57385 46778
" />
<path d="M58385 46778
L58385 46778
" />
<path d="M59385 46778
L59385 46778
" />
<path d="M60385 46778
L60385 46778
" />
<path d="M61385 46778
L61385 46778
" />
<path d="M62385 46778
L62385 46778
" />
</g>
<g style="fill:#000000; fill-opacity:0.0; 
stroke:#000000; stroke-width:0; stroke-opacity:1; 
stroke-linecap:round; stroke-linejoin:round;">
</g>
<g style="fill:#000000; fill-opacity:1.0; 
stroke:#000000; stroke-width:0; stroke-opacity:1; 
stroke-linecap:round; stroke-linejoin:round;">
<path style="fill:#000000; fill-opacity:1.0; 
stroke:#000000; stroke-width:0; stroke-opacity:1; 
stroke-linecap:round; stroke-linejoin:round;fill-rule:evenodd;"
d="M 63051,47113
63720,47113
63720,46444
63051,46444
63051,47113
Z" /> 
</g>
<g >
</g>
<g style="fill:#000000; fill-opacity:1.0; 
stroke:#000000; stroke-width:0; stroke-opacity:1; 
stroke-linecap:round; stroke-linejoin:round;">
</g>
<g style="fill:#000000; fill-opacity:1.0; 
stroke:#000000; stroke-width:750; stroke-opacity:1; 
stroke-linecap:round; stroke-linejoin:round;">
</g>
<g style="fill:#000000; fill-opacity:0.0; 
stroke:#000000; stroke-width:750; stroke-opacity:1; 
stroke-linecap:round; stroke-linejoin:round;">
<path d="M66542 44286
L66505 44286
" />
<path d="M66542 45286
L66505 45286
" />
</g>
<g style="fill:#000000; fill-opacity:0.0; 
stroke:#000000; stroke-width:0; stroke-opacity:1; 
stroke-linecap:round; stroke-linejoin:round;">
</g>
<g style="fill:#000000; fill-opacity:1.0; 
stroke:#000000; stroke-width:0; stroke-opacity:1; 
stroke-linecap:round; stroke-linejoin:round;">
<path style="fill:#000000; fill-opacity:1.0; 
stroke:#000000; stroke-width:0; stroke-opacity:1; 
stroke-linecap:round; stroke-linejoin:round;fill-rule:evenodd;"
d="M 66130,46661
66917,46661
66917,45911
66130,45911
66130,46661
Z" /> 
</g>
<g >
</g>
<g style="fill:#000000; fill-opacity:1.0; 
stroke:#000000; stroke-width:0; stroke-opacity:1; 
stroke-linecap:round; stroke-linejoin:round;">
<path style="fill:#000000; fill-opacity:1.0; 
stroke:#000000; stroke-width:0; stroke-opacity:1; 
stroke-linecap:round; stroke-linejoin:round;fill-rule:evenodd;"
d="M 67696,37396
67027,37396
67027,38066
67696,38066
67696,37396
Z" /> 
</g>
<g style="fill:#000000; fill-opacity:1.0; 
stroke:#000000; stroke-width:669.291; stroke-opacity:1; 
stroke-linecap:round; stroke-linejoin:round;">
</g>
<g style="fill:#000000; fill-opacity:0.0; 
stroke:#000000; stroke-width:669.291; stroke-opacity:1; 
stroke-linecap:round; stroke-linejoin:round;">
<path d="M67362 36731
L67362 36731
" />
<path d="M66362 37731
L66362 37731
" />
<path d="M66362 36731
L66362 36731
" />
<path d="M65362 37731
L65362 37731
" />
<path d="M65362 36731
L65362 36731
" />
<path d="M64362 37731
L64362 37731
" />
<path d="M64362 36731
L64362 36731
" />
<path d="M63362 37731
L63362 37731
" />
<path d="M63362 36731
L63362 36731
" />
<path d="M62362 37731
L62362 37731
" />
<path d="M62362 36731
L62362 36731
" />
<path d="M61362 37731
L61362 37731
" />
<path d="M61362 36731
L61362 36731
" />
<path d="M60362 37731
L60362 37731
" />
<path d="M60362 36731
L60362 36731
" />
<path d="M59362 37731
L59362 37731
" />
<path d="M59362 36731
L59362 36731
" />
<path d="M58362 37731
L58362 37731
" />
<path d="M58362 36731
L58362 36731
" />
<path d="M57362 37731
L57362 37731
" />
<path d="M57362 36731
L57362 36731
" />
<path d="M56362 37731
L56362 37731
" />
<path d="M56362 36731
L56362 36731
" />
<path d="M55362 37731
L55362 37731
" />
<path d="M55362 36731
L55362 36731
" />
<path d="M54362 37731
L54362 37731
" />
<path d="M54362 36731
L54362 36731
" />
<path d="M53362 37731
L53362 37731
" />
<path d="M53362 36731
L53362 36731
" />
<path d="M52362 37731
L52362 37731
" />
<path d="M52362 36731
L52362 36731
" />
<path d="M51362 37731
L51362 37731
" />
<path d="M51362 36731
L51362 36731
" />
<path d="M50362 37731
L50362 37731
" />
<path d="M50362 36731
L50362 36731
" />
<path d="M49362 37731
L49362 37731
" />
<path d="M49362 36731
L49362 36731
" />
<path d="M48362 37731
L48362 37731
" />
<path d="M48362 36731
L48362 36731
" />
</g>
<g >
</g>
<g style="fill:#000000; fill-opacity:0.0; 
stroke:#000000; stroke-width:669.291; stroke-opacity:1; 
stroke-linecap:round; stroke-linejoin:round;">
</g>
<g style="fill:#000000; fill-opacity:1.0; 
stroke:#000000; stroke-width:0; stroke-opacity:1; 
stroke-linecap:round; stroke-linejoin:round;">
<circle cx="69378" cy="40873.2" r="452.756" /> 
</g>
<g style="fill:#000000; fill-opacity:1.0; 
stroke:#000000; stroke-width:9.84252; stroke-opacity:1; 
stroke-linecap:round; stroke-linejoin:round;">
</g>
<g style="fill:#000000; fill-opacity:1.0; 
stroke:#000000; stroke-width:0; stroke-opacity:1; 
stroke-linecap:round; stroke-linejoin:round;">
<path style="fill:#000000; fill-opacity:1.0; 
stroke:#000000; stroke-width:0; stroke-opacity:1; 
stroke-linecap:round; stroke-linejoin:round;fill-rule:evenodd;"
d="M 68925,43294
69830,43294
69830,42388
68925,42388
68925,43294
Z" /> 
</g>
<g >
</g>
<g >
</g>
<g >
</g>
<g >
</g>
<g >
</g>
<g >
</g>
<g >
</g>
<g >
</g>
<g >
</g>
<g >
</g>
<g >
</g>
<g style="fill:#000000; fill-opacity:1.0; 
stroke:#000000; stroke-width:0; stroke-opacity:1; 
stroke-linecap:round; stroke-linejoin:round;">
<path style="fill:#000000; fill-opacity:1.0; 
stroke:#000000; stroke-width:0; stroke-opacity:1; 
stroke-linecap:round; stroke-linejoin:round;fill-rule:evenodd;"
d="M 67811,41912
67801,41913
67792,41915
67783,41918
67775,41922
67767,41927
67759,41933
67752,41939
67746,41946
67740,41954
67735,41962
67731,41970
67728,41979
67726,41988
67724,41998
67724,42007
67724,42199
67724,42208
67726,42218
67728,42227
67731,42236
67735,42244
67740,42252
67746,42260
67752,42267
67759,42273
67767,42279
67775,42284
67783,42288
67792,42291
67801,42293
67811,42295
67820,42295
68179,42295
68189,42295
68198,42293
68207,42291
68216,42288
68224,42284
68233,42279
68240,42273
68247,42267
68253,42260
68259,42252
68264,42244
68268,42236
68271,42227
68273,42218
68275,42208
68275,42199
68275,42007
68275,41998
68273,41988
68271,41979
68268,41970
68264,41962
68259,41954
68253,41946
68247,41939
68240,41933
68233,41927
68224,41922
68216,41918
68207,41915
68198,41913
68189,41912
68179,41911
67820,41911
67811,41912
Z" /> 
<path style="fill:#000000; fill-opacity:1.0; 
stroke:#000000; stroke-width:0; stroke-opacity:1; 
stroke-linecap:round; stroke-linejoin:round;fill-rule:evenodd;"
d="M 67811,42650
67801,42651
67792,42653
67783,42657
67775,42661
67767,42665
67759,42671
67752,42677
67746,42684
67740,42692
67735,42700
67731,42709
67728,42717
67726,42727
67724,42736
67724,42745
67724,42937
67724,42947
67726,42956
67728,42965
67731,42974
67735,42982
67740,42991
67746,42998
67752,43005
67759,43011
67767,43017
67775,43022
67783,43026
67792,43029
67801,43031
67811,43033
67820,43033
68179,43033
68189,43033
68198,43031
68207,43029
68216,43026
68224,43022
68233,43017
68240,43011
68247,43005
68253,42998
68259,42991
68264,42982
68268,42974
68271,42965
68273,42956
68275,42947
68275,42937
68275,42745
68275,42736
68273,42727
68271,42717
68268,42709
68264,42700
68259,42692
68253,42684
68247,42677
68240,42671
68233,42665
68224,42661
68216,42657
68207,42653
68198,42651
68189,42650
68179,42649
67820,42649
67811,42650
Z" /> 
</g>
<g >
</g>
<g style="fill:#000000; fill-opacity:1.0; 
stroke:#000000; stroke-width:0; stroke-opacity:1; 
stroke-linecap:round; stroke-linejoin:round;">
<path style="fill:#000000; fill-opacity:1.0; 
stroke:#000000; stroke-width:0; stroke-opacity:1; 
stroke-linecap:round; stroke-linejoin:round;fill-rule:evenodd;"
d="M 67811,41247
67801,41249
67792,41251
67783,41254
67775,41258
67767,41263
67759,41269
67752,41275
67746,41282
67740,41289
67735,41297
67731,41306
67728,41315
67726,41324
67724,41333
67724,41343
67724,41535
67724,41544
67726,41553
67728,41562
67731,41571
67735,41580
67740,41588
67746,41596
67752,41602
67759,41609
67767,41614
67775,41619
67783,41623
67792,41626
67801,41629
67811,41630
67820,41631
68179,41631
68189,41630
68198,41629
68207,41626
68216,41623
68224,41619
68233,41614
68240,41609
68247,41602
68253,41596
68259,41588
68264,41580
68268,41571
68271,41562
68273,41553
68275,41544
68275,41535
68275,41343
68275,41333
68273,41324
68271,41315
68268,41306
68264,41297
68259,41289
68253,41282
68247,41275
68240,41269
68233,41263
68224,41258
68216,41254
68207,41251
68198,41249
68189,41247
68179,41247
67820,41247
67811,41247
Z" /> 
<path style="fill:#000000; fill-opacity:1.0; 
stroke:#000000; stroke-width:0; stroke-opacity:1; 
stroke-linecap:round; stroke-linejoin:round;fill-rule:evenodd;"
d="M 67811,40509
67801,40510
67792,40513
67783,40516
67775,40520
67767,40525
67759,40530
67752,40537
67746,40544
67740,40551
67735,40559
67731,40568
67728,40577
67726,40586
67724,40595
67724,40605
67724,40796
67724,40806
67726,40815
67728,40824
67731,40833
67735,40842
67740,40850
67746,40857
67752,40864
67759,40871
67767,40876
67775,40881
67783,40885
67792,40888
67801,40891
67811,40892
67820,40892
68179,40892
68189,40892
68198,40891
68207,40888
68216,40885
68224,40881
68233,40876
68240,40871
68247,40864
68253,40857
68259,40850
68264,40842
68268,40833
68271,40824
68273,40815
68275,40806
68275,40796
68275,40605
68275,40595
68273,40586
68271,40577
68268,40568
68264,40559
68259,40551
68253,40544
68247,40537
68240,40530
68233,40525
68224,40520
68216,40516
68207,40513
68198,40510
68189,40509
68179,40509
67820,40509
67811,40509
Z" /> 
</g>
<g >
</g>
<g >
</g>
<g >
</g>
<g >
</g>
<g >
</g>
<g style="fill:#000000; fill-opacity:1.0; 
stroke:#000000; stroke-width:0; stroke-opacity:1; 
stroke-linecap:round; stroke-linejoin:round;">
<circle cx="62479.6" cy="41931.5" r="236.22" /> 
</g>
<g style="fill:#000000; fill-opacity:1.0; 
stroke:#000000; stroke-width:9.84252; stroke-opacity:1; 
stroke-linecap:round; stroke-linejoin:round;">
</g>
<g style="fill:#000000; fill-opacity:1.0; 
stroke:#000000; stroke-width:0; stroke-opacity:1; 
stroke-linecap:round; stroke-linejoin:round;">
<circle cx="60579.6" cy="39631.5" r="236.22" /> 
</g>
<g style="fill:#000000; fill-opacity:1.0; 
stroke:#000000; stroke-width:9.84252; stroke-opacity:1; 
stroke-linecap:round; stroke-linejoin:round;">
</g>
<g style="fill:#000000; fill-opacity:1.0; 
stroke:#000000; stroke-width:0; stroke-opacity:1; 
stroke-linecap:round; stroke-linejoin:round;">
<circle cx="64679.6" cy="45231.5" r="236.22" /> 
</g>
<g style="fill:#000000; fill-opacity:1.0; 
stroke:#000000; stroke-width:9.84252; stroke-opacity:1; 
stroke-linecap:round; stroke-linejoin:round;">
</g>
<g style="fill:#000000; fill-opacity:1.0; 
stroke:#000000; stroke-width:0; stroke-opacity:1; 
stroke-linecap:round; stroke-linejoin:round;">
<circle cx="63188.3" cy="43640.2" r="236.22" /> 
</g>
<g style="fill:#000000; fill-opacity:1.0; 
stroke:#000000; stroke-width:9.84252; stroke-opacity:1; 
stroke-linecap:round; stroke-linejoin:round;">
</g>
<g style="fill:#000000; fill-opacity:1.0; 
stroke:#000000; stroke-width:0; stroke-opacity:1; 
stroke-linecap:round; stroke-linejoin:round;">
<circle cx="57079.6" cy="43431.5" r="236.22" /> 
</g>
<g style="fill:#000000; fill-opacity:1.0; 
stroke:#000000; stroke-width:9.84252; stroke-opacity:1; 
stroke-linecap:round; stroke-linejoin:round;">
</g>
<g style="fill:#000000; fill-opacity:1.0; 
stroke:#000000; stroke-width:0; stroke-opacity:1; 
stroke-linecap:round; stroke-linejoin:round;">
<circle cx="64079.6" cy="44431.5" r="236.22" /> 
</g>
<g style="fill:#000000; fill-opacity:1.0; 
stroke:#000000; stroke-width:9.84252; stroke-opacity:1; 
stroke-linecap:round; stroke-linejoin:round;">
</g>
<g style="fill:#000000; fill-opacity:1.0; 
stroke:#000000; stroke-width:0; stroke-opacity:1; 
stroke-linecap:round; stroke-linejoin:round;">
<circle cx="63629.6" cy="45781.5" r="236.22" /> 
</g>
<g style="fill:#000000; fill-opacity:1.0; 
stroke:#000000; stroke-width:9.84252; stroke-opacity:1; 
stroke-linecap:round; stroke-linejoin:round;">
</g>
<g style="fill:#000000; fill-opacity:1.0; 
stroke:#000000; stroke-width:0; stroke-opacity:1; 
stroke-linecap:round; stroke-linejoin:round;">
<circle cx="57829.6" cy="42131.5" r="236.22" /> 
</g>
<g style="fill:#000000; fill-opacity:1.0; 
stroke:#000000; stroke-width:9.84252; stroke-opacity:1; 
stroke-linecap:round; stroke-linejoin:round;">
</g>
<g style="fill:#000000; fill-opacity:1.0; 
stroke:#000000; stroke-width:0; stroke-opacity:1; 
stroke-linecap:round; stroke-linejoin:round;">
<circle cx="59579.6" cy="44731.5" r="236.22" /> 
</g>
<g style="fill:#000000; fill-opacity:1.0; 
stroke:#000000; stroke-width:9.84252; stroke-opacity:1; 
stroke-linecap:round; stroke-linejoin:round;">
</g>
<g >
</g>
<g style="fill:#000000; fill-opacity:1.0; 
stroke:#000000; stroke-width:9.84252; stroke-opacity:1; 
stroke-linecap:round; stroke-linejoin:round;">
</g>
<g style="fill:#000000; fill-opacity:1.0; 
stroke:#000000; stroke-width:236.22; stroke-opacity:1; 
stroke-linecap:round; stroke-linejoin:round;">
</g>
<g style="fill:#000000; fill-opacity:0.0; 
stroke:#000000; stroke-width:236.22; stroke-opacity:1; 
stroke-linecap:round; stroke-linejoin:round;">
<path d="M60579 38948
L60579 39408
" />
<path d="M60579 39408
L60579 39631
" />
<path d="M59362 37731
L60579 38948
" />
<path d="M67362 37731
L67362 38302
" />
<path d="M63733 41931
L62702 41931
" />
<path d="M62702 41931
L62479 41931
" />
<path d="M67362 38302
L63733 41931
" />
<path d="M62479 42154
L62479 41931
" />
<path d="M62479 45481
L62479 42154
" />
<path d="M63379 46381
L62479 45481
" />
<path d="M63385 46778
L63379 46772
" />
<path d="M63379 46772
L63379 46381
" />
<path d="M63092 47418
L52766 47418
" />
<path d="M52766 47418
L51943 46595
" />
<path d="M63385 46778
L63385 47125
" />
<path d="M51943 46595
L51679 46331
" />
<path d="M63385 47125
L63092 47418
" />
<path d="M51679 44031
L51679 46331
" />
<path d="M66362 36731
L67362 36731
" />
<path d="M64837 45388
L64679 45231
" />
<path d="M65047 46050
L65047 45599
" />
<path d="M65047 45599
L64837 45388
" />
<path d="M50292 39856
L50479 39669
" />
<path d="M46579 39856
L50292 39856
" />
<path d="M51060 39669
L53279 39669
" />
<path d="M50479 39669
L51060 39669
" />
<path d="M56187 39669
L57079 40561
" />
<path d="M57079 40561
L57079 43208
" />
<path d="M57079 43208
L57079 43431
" />
<path d="M56079 39669
L56187 39669
" />
<path d="M64633 43648
L64589 43648
" />
<path d="M54779 40531
L53917 39669
" />
<path d="M53917 39669
L53279 39669
" />
<path d="M57079 43431
L57079 43431
" />
<path d="M54779 42031
L54779 40531
" />
<path d="M56179 43431
L54779 42031
" />
<path d="M64653 43648
L63179 43648
" />
<path d="M63337 43491
L63188 43640
" />
<path d="M67941 38887
L63337 43491
" />
<path d="M63179 43648
L63179 43648
" />
<path d="M67941 37310
L67941 38887
" />
<path d="M67362 36731
L67941 37310
" />
<path d="M64679 45231
L64679 45231
" />
<path d="M63188 43640
L63179 43648
" />
<path d="M57079 43431
L56179 43431
" />
<path d="M68000 42103
L68000 41439
" />
<path d="M68812 41439
L69378 40873
" />
<path d="M68000 41439
L68812 41439
" />
</g>
<g style="fill:#000000; fill-opacity:0.0; 
stroke:#000000; stroke-width:98.4252; stroke-opacity:1; 
stroke-linecap:round; stroke-linejoin:round;">
<path d="M52379 37748
L52362 37731
" />
<path d="M50362 36731
L50362 36731
" />
<path d="M66467 44342
L66523 44286
" />
</g>
<g style="fill:#000000; fill-opacity:0.0; 
stroke:#000000; stroke-width:236.22; stroke-opacity:1; 
stroke-linecap:round; stroke-linejoin:round;">
<path d="M65441 43629
L65441 44022
" />
<path d="M65441 42639
L65441 43629
" />
<path d="M68000 40700
L67930 40631
" />
<path d="M67449 40631
L65441 42639
" />
<path d="M67930 40631
L67449 40631
" />
<path d="M66259 44022
L66523 44286
" />
<path d="M65441 44022
L66259 44022
" />
<path d="M65421 45388
L65421 46050
" />
<path d="M66523 44286
L65421 45388
" />
</g>
<g style="fill:#000000; fill-opacity:0.0; 
stroke:#000000; stroke-width:157.48; stroke-opacity:1; 
stroke-linecap:round; stroke-linejoin:round;">
<path d="M64618 44431
L64653 44396
" />
<path d="M64079 44431
L64618 44431
" />
<path d="M64129 44901
L64129 45531
" />
<path d="M64129 45531
L64648 46050
" />
<path d="M64653 44396
L64633 44396
" />
<path d="M64648 46050
L64673 46050
" />
<path d="M64633 44396
L64129 44901
" />
<path d="M65421 46916
L65047 46916
" />
<path d="M65047 46916
L64673 46916
" />
<path d="M64764 46916
L63865 46017
" />
<path d="M63865 46017
L63629 45781
" />
<path d="M65421 46916
L64764 46916
" />
<path d="M62362 38848
L62362 38204
" />
<path d="M62362 38204
L62362 37731
" />
<path d="M59079 42131
L62362 38848
" />
<path d="M57829 42131
L59079 42131
" />
<path d="M55329 40181
L55604 40456
" />
<path d="M55329 39331
L55329 40181
" />
<path d="M56870 37223
L56870 38185
" />
<path d="M55604 40456
L56079 40456
" />
<path d="M56074 38981
L55679 38981
" />
<path d="M57362 36731
L56870 37223
" />
<path d="M56870 38185
L56074 38981
" />
<path d="M55679 38981
L55329 39331
" />
</g>
<g style="fill:#000000; fill-opacity:0.0; 
stroke:#000000; stroke-width:236.22; stroke-opacity:1; 
stroke-linecap:round; stroke-linejoin:round;">
<path d="M68000 43073
L68000 42841
" />
<path d="M68000 44908
L68000 43073
" />
<path d="M66523 46286
L66622 46286
" />
<path d="M66622 46286
L68000 44908
" />
</g>
<g style="fill:#000000; fill-opacity:0.0; 
stroke:#000000; stroke-width:157.48; stroke-opacity:1; 
stroke-linecap:round; stroke-linejoin:round;">
<path d="M60385 42925
L60385 46305
" />
<path d="M62088 41217
L62066 41245
" />
<path d="M62111 41116
L62111 41151
" />
<path d="M62088 41049
L62103 41081
" />
<path d="M62007 40958
L62029 40985
" />
<path d="M61984 40856
L61984 40891
" />
<path d="M62066 41245
L60385 42925
" />
<path d="M62007 40790
L61992 40822
" />
<path d="M62088 40725
L62056 40740
" />
<path d="M61992 40926
L62007 40958
" />
<path d="M62123 40717
L62088 40725
" />
<path d="M62158 40717
L62123 40717
" />
<path d="M62192 40725
L62158 40717
" />
<path d="M62548 41059
L62252 40762
" />
<path d="M62641 41104
L62607 41096
" />
<path d="M62743 41080
L62711 41096
" />
<path d="M62770 41059
L62743 41080
" />
<path d="M60385 46305
L60385 46778
" />
<path d="M62792 41031
L62770 41059
" />
<path d="M62808 40999
L62792 41031
" />
<path d="M62815 40930
L62815 40965
" />
<path d="M62607 41096
L62575 41080
" />
<path d="M63188 40635
L63156 40650
" />
<path d="M62429 40446
L62437 40480
" />
<path d="M63238 40586
L63216 40613
" />
<path d="M62103 41185
L62088 41217
" />
<path d="M63261 40519
L63253 40554
" />
<path d="M63238 40418
L63253 40450
" />
<path d="M63134 40260
L63142 40294
" />
<path d="M63253 40554
L63238 40586
" />
<path d="M63261 40484
L63261 40519
" />
<path d="M63134 40225
L63134 40260
" />
<path d="M63179 40354
L63216 40390
" />
<path d="M62066 41022
L62088 41049
" />
<path d="M63253 40450
L63261 40484
" />
<path d="M63216 40613
L63188 40635
" />
<path d="M62622 40688
L62770 40836
" />
<path d="M63216 40390
L63238 40418
" />
<path d="M63179 40131
L63157 40159
" />
<path d="M63052 40650
L63021 40635
" />
<path d="M63329 39981
L63179 40131
" />
<path d="M62224 40740
L62192 40725
" />
<path d="M63156 40650
L63122 40658
" />
<path d="M62056 40740
L62029 40762
" />
<path d="M62677 41104
L62641 41104
" />
<path d="M64679 39981
L63329 39981
" />
<path d="M66362 38298
L64679 39981
" />
<path d="M62697 40317
L62669 40295
" />
<path d="M62103 41081
L62111 41116
" />
<path d="M63142 40294
L63157 40326
" />
<path d="M62815 40965
L62808 40999
" />
<path d="M62474 40317
L62452 40345
" />
<path d="M61984 40891
L61992 40926
" />
<path d="M62770 40836
L62792 40863
" />
<path d="M61992 40822
L61984 40856
" />
<path d="M63142 40190
L63134 40225
" />
<path d="M63157 40326
L63179 40354
" />
<path d="M62252 40762
L62224 40740
" />
<path d="M62638 40280
L62603 40272
" />
<path d="M66362 37731
L66362 38298
" />
<path d="M63021 40635
L62993 40613
" />
<path d="M62111 41151
L62103 41185
" />
<path d="M63157 40159
L63142 40190
" />
<path d="M62993 40613
L62956 40576
" />
<path d="M62029 40985
L62066 41022
" />
<path d="M62575 41080
L62548 41059
" />
<path d="M62956 40576
L62697 40317
" />
<path d="M62669 40295
L62638 40280
" />
<path d="M62603 40272
L62568 40272
" />
<path d="M62534 40280
L62502 40295
" />
<path d="M62568 40272
L62534 40280
" />
<path d="M62474 40540
L62622 40688
" />
<path d="M62029 40762
L62007 40790
" />
<path d="M62437 40376
L62429 40411
" />
<path d="M62452 40345
L62437 40376
" />
<path d="M62452 40512
L62474 40540
" />
<path d="M62711 41096
L62677 41104
" />
<path d="M63122 40658
L63087 40658
" />
<path d="M62429 40411
L62429 40446
" />
<path d="M63087 40658
L63052 40650
" />
<path d="M62437 40480
L62452 40512
" />
<path d="M62502 40295
L62474 40317
" />
<path d="M62808 40895
L62815 40930
" />
<path d="M62792 40863
L62808 40895
" />
<path d="M59579 43589
L59579 44731
" />
<path d="M60338 41872
L59579 42631
" />
<path d="M60432 41827
L60398 41835
" />
<path d="M60561 41872
L60561 41872
" />
<path d="M60589 41894
L60561 41872
" />
<path d="M60398 41835
L60366 41850
" />
<path d="M60621 41909
L60589 41894
" />
<path d="M60366 41850
L60338 41872
" />
<path d="M60655 41917
L60621 41909
" />
<path d="M60690 41917
L60655 41917
" />
<path d="M60756 41894
L60725 41909
" />
<path d="M60784 41872
L60756 41894
" />
<path d="M60533 41850
L60502 41835
" />
<path d="M60806 41845
L60784 41872
" />
<path d="M60829 41778
L60821 41813
" />
<path d="M60467 41827
L60432 41827
" />
<path d="M61170 41464
L61136 41472
" />
<path d="M61006 41426
L60783 41203
" />
<path d="M61229 41427
L61202 41449
" />
<path d="M61275 41298
L61275 41333
" />
<path d="M61251 41232
L61267 41263
" />
<path d="M61251 41399
L61229 41427
" />
<path d="M61229 41204
L61229 41204
" />
<path d="M61229 41204
L61251 41232
" />
<path d="M64285 39281
L62929 39281
" />
<path d="M61207 41176
L61229 41204
" />
<path d="M65362 37731
L65362 38204
" />
<path d="M61275 41333
L61267 41367
" />
<path d="M61207 41009
L61192 41040
" />
<path d="M61267 41367
L61251 41399
" />
<path d="M61184 41075
L61184 41110
" />
<path d="M60620 41166
L60588 41181
" />
<path d="M60516 41332
L60523 41367
" />
<path d="M61184 41110
L61192 41144
" />
<path d="M60821 41813
L60806 41845
" />
<path d="M61192 41040
L61184 41075
" />
<path d="M60502 41835
L60467 41827
" />
<path d="M60539 41399
L60561 41426
" />
<path d="M61192 41144
L61207 41176
" />
<path d="M61100 41472
L61066 41464
" />
<path d="M59579 42631
L59579 43589
" />
<path d="M60539 41231
L60523 41263
" />
<path d="M61034 41449
L61007 41427
" />
<path d="M61267 41263
L61275 41298
" />
<path d="M60783 41203
L60756 41181
" />
<path d="M60756 41181
L60724 41166
" />
<path d="M65362 38204
L64285 39281
" />
<path d="M61229 40981
L61207 41009
" />
<path d="M60561 41426
L60784 41649
" />
<path d="M60725 41909
L60690 41917
" />
<path d="M61136 41472
L61100 41472
" />
<path d="M60724 41166
L60690 41158
" />
<path d="M60690 41158
L60654 41158
" />
<path d="M61066 41464
L61034 41449
" />
<path d="M61007 41427
L61006 41426
" />
<path d="M60654 41158
L60620 41166
" />
<path d="M60588 41181
L60561 41203
" />
<path d="M60523 41263
L60516 41297
" />
<path d="M60516 41297
L60516 41332
" />
<path d="M62929 39281
L61229 40981
" />
<path d="M60829 41743
L60829 41778
" />
<path d="M60523 41367
L60539 41399
" />
<path d="M60561 41872
L60533 41850
" />
<path d="M60561 41203
L60539 41231
" />
<path d="M60784 41649
L60806 41677
" />
<path d="M60806 41677
L60821 41709
" />
<path d="M61202 41449
L61170 41464
" />
<path d="M60821 41709
L60829 41743
" />
</g>
<g >
</g>
<g style="fill:#000000; fill-opacity:0.0; 
stroke:#000000; stroke-width:157.48; stroke-opacity:1; 
stroke-linecap:round; stroke-linejoin:round;">
</g>
<g style="fill:#000000; fill-opacity:1.0; 
stroke:#000000; stroke-width:98.4252; stroke-opacity:1; 
stroke-linecap:round; stroke-linejoin:round;">
<path style="fill:#000000; fill-opacity:1.0; 
stroke:#000000; stroke-width:98.4252; stroke-opacity:1; 
stroke-linecap:round; stroke-linejoin:round;fill-rule:evenodd;"
d="M 47254,36245
47431,36422
47570,36630
47665,36861
47714,37106
47714,37356
47665,37601
47570,37832
47431,38040
47254,38217
47046,38356
46815,38452
46570,38501
46319,38501
46074,38452
45843,38356
45635,38217
45458,38040
45342,37867
45342,45651
45458,45477
45635,45300
45843,45161
46074,45065
46319,45016
46570,45016
46815,45065
47046,45161
47254,45300
47431,45477
47570,45685
47665,45916
47714,46161
47714,46411
47665,46656
47570,46888
47431,47095
47254,47272
47080,47388
52222,47388
51756,46923
51541,46923
51474,46916
51409,46896
51349,46865
51297,46822
51254,46769
51250,46763
51234,46782
51161,46842
51077,46887
50986,46915
50892,46924
50797,46915
50706,46887
50622,46842
50549,46782
50498,46720
50447,46782
50374,46842
50290,46887
50199,46915
50104,46924
50010,46915
49919,46887
49835,46842
49762,46782
49712,46722
49692,46751
49624,46818
49544,46871
49456,46907
49443,46908
49368,46859
49368,46382
49266,46382
49266,46859
49191,46908
49178,46907
49089,46871
49010,46818
48941,46751
48888,46672
48851,46584
48831,46490
48831,46382
49266,46382
49368,46382
49376,46382
49376,46280
49368,46280
49368,45803
49266,45803
49266,46280
48831,46280
48831,46172
48851,46078
48888,45990
48941,45911
49010,45844
49089,45791
49178,45755
49191,45754
49266,45803
49368,45803
49443,45754
49456,45755
49544,45791
49624,45844
49692,45911
49712,45940
49762,45880
49835,45820
49919,45775
50010,45747
50104,45738
50199,45747
50290,45775
50374,45820
50447,45880
50498,45942
50549,45880
50622,45820
50706,45775
50797,45747
50892,45738
50986,45747
51077,45775
51161,45820
51234,45880
51250,45899
51254,45893
51297,45840
51315,45826
51315,44536
51297,44522
51254,44469
51250,44463
51234,44482
51161,44542
51077,44587
50986,44615
50892,44624
50797,44615
50706,44587
50622,44542
50549,44482
50498,44420
50447,44482
50374,44542
50290,44587
50199,44615
50104,44624
50010,44615
49919,44587
49835,44542
49762,44482
49712,44422
49692,44451
49624,44518
49544,44571
49456,44607
49443,44608
49368,44559
49368,44082
49266,44082
49266,44559
49191,44608
49178,44607
49089,44571
49010,44518
48941,44451
48888,44372
48851,44284
48831,44190
48831,44082
49266,44082
49368,44082
49376,44082
49376,44029
47174,44029
47169,44078
47155,44125
47132,44169
47101,44206
47063,44238
47019,44261
46972,44275
46924,44280
46692,44279
46630,44216
46630,43844
46528,43844
46528,44216
46466,44279
46235,44280
46186,44275
46139,44261
46095,44238
46058,44206
46026,44169
46003,44125
45989,44078
45984,44029
45985,43906
46048,43844
46528,43844
46630,43844
47111,43844
47173,43906
47174,44029
49376,44029
49376,43980
49368,43980
49368,43503
49266,43503
49266,43980
48831,43980
48831,43872
48851,43778
48888,43690
48941,43611
49010,43544
49089,43491
49178,43455
49191,43454
49266,43503
49368,43503
49443,43454
49456,43455
49544,43491
49624,43544
49692,43611
49712,43640
49762,43580
49835,43520
49919,43475
50010,43447
50104,43438
50199,43447
50290,43475
50374,43520
50447,43580
50498,43642
50549,43580
50622,43520
50706,43475
50797,43447
50892,43438
50986,43447
51077,43475
51161,43520
51234,43580
51250,43599
51254,43593
51297,43540
51349,43497
51409,43466
51474,43446
51541,43439
51817,43439
51884,43446
51949,43466
52009,43497
52061,43540
52104,43593
52136,43653
52156,43717
52163,43785
52163,44277
52156,44345
52136,44409
52104,44469
52061,44522
52043,44536
52043,45826
52061,45840
52104,45893
52136,45953
52156,46017
52163,46085
52163,46299
52917,47054
53874,47054
53846,47002
53813,46892
53802,46778
53813,46664
53846,46555
53900,46454
53973,46366
54061,46293
54162,46239
54272,46206
54357,46198
54414,46198
54499,46206
54609,46239
54710,46293
54798,46366
54871,46454
54885,46482
54900,46454
54973,46366
55061,46293
55162,46239
55272,46206
55357,46198
55414,46198
55499,46206
55609,46239
55710,46293
55798,46366
55871,46454
55885,46482
55900,46454
55973,46366
56061,46293
56162,46239
56272,46206
56357,46198
56414,46198
56499,46206
56609,46239
56710,46293
56798,46366
56871,46454
56885,46482
56900,46454
56973,46366
57061,46293
57162,46239
57272,46206
57357,46198
57414,46198
57499,46206
57609,46239
57710,46293
57798,46366
57871,46454
57885,46482
57900,46454
57973,46366
58061,46293
58162,46239
58272,46206
58357,46198
58414,46198
58499,46206
58609,46239
58710,46293
58798,46366
58871,46454
58886,46482
58916,46431
58993,46346
59085,46278
59188,46229
59244,46212
59335,46259
59335,46727
59327,46727
59327,46829
59335,46829
59335,46837
59436,46837
59436,46829
59444,46829
59444,46727
59436,46727
59436,46259
59527,46212
59583,46229
59686,46278
59778,46346
59855,46431
59885,46482
59900,46454
59973,46366
60061,46294
60061,44782
60043,44872
60007,44959
59954,45038
59887,45106
59808,45158
59720,45195
59627,45213
59532,45213
59438,45195
59351,45158
59272,45106
59204,45038
59152,44959
59115,44872
59097,44778
59097,44683
59115,44590
59152,44503
59204,44424
59254,44374
59254,42647
59253,42631
59254,42615
59254,42615
59258,42573
59259,42567
59265,42549
59278,42506
59308,42450
59348,42400
59361,42390
60088,41663
60089,41661
60110,41641
60120,41631
60122,41629
60123,41628
60134,41619
60157,41600
60158,41600
60170,41589
60193,41575
60216,41560
60235,41552
60246,41547
60248,41546
60241,41529
60236,41518
60225,41500
60217,41474
60211,41458
59320,42349
59310,42362
59260,42402
59224,42422
59204,42433
59143,42451
59079,42457
59063,42456
58186,42456
58137,42506
58058,42558
57970,42595
57877,42613
57782,42613
57688,42595
57601,42558
57522,42506
57454,42438
57443,42422
57443,43113
57454,43124
57507,43203
57543,43290
57561,43383
57561,43478
57543,43572
57507,43659
57454,43738
57387,43806
57308,43858
57220,43895
57127,43913
57032,43913
56938,43895
56851,43858
56772,43806
56761,43795
56197,43795
56179,43797
56161,43795
56161,43795
56108,43790
56039,43769
55976,43735
55920,43690
55909,43676
54534,42301
54520,42290
54502,42267
53874,42267
53869,42316
53855,42363
53832,42406
53801,42444
53763,42475
53719,42499
53672,42513
53624,42518
53392,42516
53330,42454
53330,42082
53228,42082
53228,42454
53166,42516
52935,42518
52886,42513
52839,42499
52795,42475
52758,42444
52726,42406
52703,42363
52689,42316
52684,42267
51074,42267
51069,42316
51055,42363
51032,42406
51001,42444
50963,42475
50919,42499
50872,42513
50824,42518
50592,42516
50530,42454
50530,42082
50428,42082
50428,42454
50366,42516
50135,42518
50086,42513
50039,42499
49995,42475
49958,42444
49926,42406
49903,42363
49889,42316
49884,42267
49885,42144
49948,42082
50428,42082
50530,42082
51011,42082
51073,42144
51074,42267
52684,42267
52685,42144
52748,42082
53228,42082
53330,42082
53811,42082
53873,42144
53874,42267
54502,42267
54475,42234
54441,42171
54420,42102
54415,42049
54415,42049
54413,42031
54415,42013
54415,40682
53766,40033
53704,40033
53668,40062
53730,40114
53790,40187
53835,40271
53863,40362
53872,40456
53863,40551
53835,40642
53790,40725
53730,40799
53668,40850
53730,40901
53790,40974
53835,41058
53863,41149
53872,41244
53863,41338
53835,41429
53790,41513
53740,41574
53763,41587
53801,41618
53832,41656
53855,41699
53869,41746
53874,41795
53873,41918
53811,41980
53330,41980
53330,41972
53228,41972
53228,41980
52748,41980
52685,41918
52684,41795
52689,41746
52703,41699
52726,41656
52758,41618
52795,41587
52818,41574
52768,41513
52723,41429
52696,41338
52686,41244
52696,41149
52723,41058
52768,40974
52828,40901
52890,40850
52828,40799
52768,40725
52723,40642
52696,40551
52686,40456
52696,40362
52723,40271
52768,40187
52828,40114
52890,40062
52854,40033
50904,40033
50868,40062
50930,40114
50990,40187
51035,40271
51063,40362
51072,40456
51063,40551
51035,40642
50990,40725
50930,40799
50868,40850
50930,40901
50990,40974
51035,41058
51063,41149
51072,41244
51063,41338
51035,41429
50990,41513
50940,41574
50963,41587
51001,41618
51032,41656
51055,41699
51069,41746
51074,41795
51073,41918
51011,41980
50530,41980
50530,41972
50428,41972
50428,41980
49948,41980
49885,41918
49884,41795
49889,41746
49903,41699
49926,41656
49958,41618
49995,41587
50018,41574
49968,41513
49923,41429
49896,41338
49886,41244
49896,41149
49923,41058
49968,40974
50028,40901
50090,40850
50028,40799
49968,40725
49923,40642
49896,40551
49886,40456
49896,40362
49923,40271
49950,40220
47004,40220
46968,40250
47030,40301
47090,40374
47135,40458
47163,40549
47172,40644
47163,40738
47135,40829
47090,40913
47030,40986
46968,41037
47030,41088
47090,41162
47135,41246
47163,41336
47172,41431
47163,41526
47135,41616
47090,41700
47030,41774
46968,41825
47030,41876
47090,41949
47135,42033
47163,42124
47172,42218
47163,42313
47135,42404
47090,42488
47030,42561
46968,42612
47030,42663
47090,42737
47135,42820
47163,42911
47172,43006
47163,43100
47135,43191
47090,43275
47040,43337
47063,43349
47101,43380
47132,43418
47155,43461
47169,43508
47174,43557
47173,43680
47111,43742
46630,43742
46630,43735
46528,43735
46528,43742
46048,43742
45985,43680
45984,43557
45989,43508
46003,43461
46026,43418
46058,43380
46095,43349
46118,43337
46068,43275
46023,43191
45996,43100
45986,43006
45996,42911
46023,42820
46068,42737
46128,42663
46190,42612
46128,42561
46068,42488
46023,42404
45996,42313
45986,42218
45996,42124
46023,42033
46068,41949
46128,41876
46190,41825
46128,41774
46068,41700
46023,41616
45996,41526
45986,41431
45996,41336
46023,41246
46068,41162
46128,41088
46190,41037
46128,40986
46068,40913
46023,40829
45996,40738
45986,40644
45996,40549
46023,40458
46068,40374
46128,40301
46190,40250
46128,40199
46068,40125
46023,40042
45996,39951
45986,39856
45996,39762
46023,39671
46068,39587
46128,39514
46202,39453
46285,39408
46376,39381
46447,39374
46711,39374
46782,39381
46873,39408
46957,39453
47004,39492
49920,39492
49923,39483
49968,39400
50028,39326
50102,39266
50185,39221
50276,39193
50347,39187
50611,39187
50682,39193
50773,39221
50857,39266
50904,39305
52854,39305
52902,39266
52985,39221
53076,39193
53147,39187
53411,39187
53482,39193
53573,39221
53657,39266
53704,39305
53899,39305
53917,39303
53935,39305
53935,39305
53988,39310
54057,39331
54120,39365
54176,39410
54187,39424
55010,40246
55009,40245
55007,40225
55004,40197
55004,40197
55003,40181
55004,40165
55004,39347
55003,39331
55004,39315
55004,39315
55009,39267
55028,39206
55058,39150
55098,39100
55111,39090
55438,38763
55448,38750
55498,38710
55554,38679
55615,38661
55663,38656
55663,38656
55679,38655
55695,38656
55939,38656
56288,38307
56248,38303
56138,38270
56038,38216
55949,38144
55877,38055
55862,38027
55847,38055
55774,38144
55686,38216
55585,38270
55476,38303
55390,38312
55333,38312
55248,38303
55138,38270
55038,38216
54949,38144
54877,38055
54862,38027
54847,38055
54774,38144
54686,38216
54585,38270
54476,38303
54390,38312
54333,38312
54248,38303
54138,38270
54038,38216
53949,38144
53877,38055
53862,38027
53847,38055
53774,38144
53686,38216
53585,38270
53476,38303
53390,38312
53333,38312
53248,38303
53138,38270
53038,38216
52949,38144
52877,38055
52862,38027
52847,38055
52774,38144
52686,38216
52585,38270
52476,38303
52390,38312
52333,38312
52248,38303
52138,38270
52038,38216
51949,38144
51877,38055
51862,38027
51847,38055
51774,38144
51686,38216
51585,38270
51476,38303
51390,38312
51333,38312
51248,38303
51138,38270
51038,38216
50949,38144
50877,38055
50862,38027
50847,38055
50774,38144
50686,38216
50585,38270
50476,38303
50390,38312
50333,38312
50248,38303
50138,38270
50038,38216
49949,38144
49877,38055
49862,38027
49847,38055
49774,38144
49686,38216
49585,38270
49476,38303
49390,38312
49333,38312
49248,38303
49138,38270
49038,38216
48949,38144
48877,38055
48862,38027
48847,38055
48774,38144
48686,38216
48585,38270
48476,38303
48390,38312
48333,38312
48248,38303
48138,38270
48038,38216
47949,38144
47877,38055
47823,37954
47789,37845
47778,37731
47789,37617
47823,37508
47877,37407
47949,37318
48038,37246
48065,37231
48038,37216
47949,37144
47877,37055
47823,36954
47789,36845
47778,36731
47789,36617
47823,36508
47877,36407
47949,36318
48038,36246
48138,36192
48248,36159
48333,36150
48390,36150
48476,36159
48585,36192
48686,36246
48774,36318
48847,36407
48862,36435
48877,36407
48949,36318
49038,36246
49138,36192
49248,36159
49333,36150
49390,36150
49476,36159
49585,36192
49686,36246
49774,36318
49847,36407
49862,36435
49877,36407
49949,36318
50038,36246
50138,36192
50248,36159
50333,36150
50390,36150
50476,36159
50585,36192
50686,36246
50774,36318
50847,36407
50862,36435
50892,36384
50969,36299
51061,36231
51164,36182
51221,36164
51311,36212
51311,36680
51303,36680
51303,36782
51311,36782
51311,36790
51413,36790
51413,36782
51420,36782
51420,36680
51413,36680
51413,36212
51503,36164
51559,36182
51663,36231
51754,36299
51831,36384
51862,36435
51877,36407
51949,36318
52038,36246
52138,36192
52248,36159
52333,36150
52390,36150
52476,36159
52585,36192
52686,36246
52774,36318
52847,36407
52862,36435
52877,36407
52949,36318
53038,36246
53138,36192
53248,36159
53333,36150
53390,36150
53476,36159
53585,36192
53686,36246
53774,36318
53847,36407
53862,36435
53877,36407
53949,36318
54038,36246
54138,36192
54248,36159
54333,36150
54390,36150
54476,36159
54585,36192
54686,36246
54774,36318
54847,36407
54862,36435
54877,36407
54949,36318
55038,36246
55138,36192
55248,36159
55333,36150
55390,36150
55476,36159
55585,36192
55686,36246
55774,36318
55847,36407
55862,36435
55877,36407
55949,36318
56038,36246
56138,36192
56248,36159
56333,36150
56390,36150
56476,36159
56585,36192
56686,36246
56774,36318
56847,36407
56862,36435
56877,36407
56949,36318
57038,36246
57138,36192
57248,36159
57333,36150
57390,36150
57476,36159
57585,36192
57686,36246
57774,36318
57847,36407
57862,36435
57892,36384
57969,36299
58061,36231
58164,36182
58221,36164
58311,36212
58311,36680
58303,36680
58303,36782
58311,36782
58311,36790
58413,36790
58413,36782
58420,36782
58420,36680
58413,36680
58413,36212
58503,36164
58559,36182
58663,36231
58754,36299
58831,36384
58862,36435
58877,36407
58949,36318
59038,36246
59138,36192
59248,36159
59333,36150
59390,36150
59476,36159
59585,36192
59686,36246
59774,36318
59847,36407
59862,36435
59877,36407
59949,36318
60038,36246
60138,36192
60248,36159
60333,36150
60390,36150
60476,36159
60585,36192
60686,36246
60774,36318
60847,36407
60862,36435
60892,36384
60969,36299
61061,36231
61164,36182
61221,36164
61311,36212
61311,36680
61303,36680
61303,36782
61311,36782
61311,36790
61413,36790
61413,36782
61420,36782
61420,36680
61413,36680
61413,36212
61503,36164
61559,36182
61663,36231
61754,36299
61831,36384
61862,36435
61877,36407
61949,36318
62038,36246
62138,36192
62248,36159
62333,36150
62390,36150
62476,36159
62585,36192
62686,36246
62774,36318
62847,36407
62862,36435
62877,36407
62949,36318
63038,36246
63138,36192
63248,36159
63333,36150
63390,36150
63476,36159
63585,36192
63686,36246
63774,36318
63847,36407
63862,36435
63877,36407
63949,36318
64038,36246
64138,36192
64248,36159
64333,36150
64390,36150
64476,36159
64585,36192
64686,36246
64774,36318
64847,36407
64862,36435
64892,36384
64969,36299
65061,36231
65164,36182
65221,36164
65311,36212
65311,36680
65303,36680
65303,36782
65311,36782
65311,36790
65413,36790
65413,36782
65420,36782
65420,36680
65413,36680
65413,36212
65503,36164
65559,36182
65663,36231
65754,36299
65831,36384
65862,36435
65877,36407
65949,36318
66038,36246
66138,36192
66248,36159
66333,36150
66390,36150
66476,36159
66585,36192
66686,36246
66774,36318
66814,36367
66909,36367
66949,36318
67038,36246
67138,36192
67248,36159
67333,36150
67390,36150
67476,36159
67585,36192
67686,36246
67774,36318
67847,36407
67901,36508
67934,36617
67945,36731
67939,36793
68050,36904
68058,36861
68154,36630
68293,36422
68470,36245
68644,36129
47080,36129
47254,36245
Z" /> 
<path style="fill:#000000; fill-opacity:1.0; 
stroke:#000000; stroke-width:98.4252; stroke-opacity:1; 
stroke-linecap:round; stroke-linejoin:round;fill-rule:evenodd;"
d="M 70265,38040
70088,38217
69881,38356
69649,38452
69404,38501
69154,38501
68909,38452
68678,38356
68470,38217
68305,38052
68305,38869
68306,38887
68299,38958
68279,39027
68245,39090
68211,39132
68211,39132
68199,39146
68185,39157
64058,43284
64341,43284
64381,43262
64428,43248
64476,43244
64830,43244
64879,43248
64925,43262
64968,43285
65005,43316
65036,43353
65059,43396
65073,43443
65076,43479
65076,42657
65075,42639
65076,42621
65076,42621
65082,42568
65102,42499
65136,42436
65155,42413
65170,42394
65170,42394
65182,42381
65196,42369
67179,40386
67190,40372
67245,40327
67309,40293
67377,40272
67431,40267
67431,40267
67449,40265
67467,40267
67482,40267
67484,40262
67488,40254
67494,40246
67502,40240
67510,40236
67520,40233
67529,40232
68529,40232
68539,40233
68548,40236
68556,40240
68564,40246
68570,40254
68575,40262
68577,40271
68578,40281
68578,43181
68577,43191
68575,43200
68570,43208
68564,43216
68556,43222
68548,43226
68539,43229
68529,43230
68364,43230
68364,44890
68366,44908
68364,44926
68364,44926
68358,44980
68338,45048
68304,45111
68258,45167
68244,45178
67164,46259
67164,46661
67159,46709
67145,46756
67122,46798
67092,46836
67054,46867
67012,46890
66965,46904
66917,46908
66130,46908
66081,46904
66035,46890
65992,46867
65955,46836
65924,46798
65901,46756
65887,46709
65882,46661
65882,45911
65887,45863
65901,45816
65924,45774
65955,45736
65992,45706
66029,45686
65982,45626
65925,45518
65898,45434
65905,45420
65785,45539
65785,45772
65791,45793
65796,45841
65796,46259
65791,46307
65777,46353
65754,46396
65724,46433
65686,46464
65651,46483
65686,46502
65724,46533
65754,46570
65777,46613
65791,46659
65796,46707
65796,47125
65791,47173
65777,47219
65754,47262
65724,47300
65686,47330
65643,47353
65597,47367
65549,47372
65293,47372
65245,47367
65234,47364
65223,47367
65175,47372
64919,47372
64871,47367
64860,47364
64849,47367
64801,47372
64545,47372
64497,47367
64450,47353
64407,47330
64370,47300
64339,47262
64316,47219
64302,47173
64298,47125
64298,46909
63967,46579
63967,47113
63963,47161
63948,47208
63926,47250
63895,47288
63857,47318
63815,47341
63768,47355
63720,47360
63663,47360
63656,47370
63656,47370
63644,47383
63638,47388
68644,47388
68470,47272
68293,47095
68154,46888
68058,46656
68009,46411
68009,46161
68058,45916
68154,45685
68293,45477
68470,45300
68678,45161
68909,45065
69154,45016
69404,45016
69649,45065
69881,45161
70088,45300
70265,45477
70381,45651
70381,42388
70078,42388
70078,43294
70073,43342
70059,43389
70036,43431
70005,43469
69968,43500
69925,43522
69879,43536
69830,43541
68925,43541
68877,43536
68830,43522
68787,43500
68750,43469
68719,43431
68696,43389
68682,43342
68678,43294
68678,42388
68682,42340
68696,42294
68719,42251
68750,42214
68787,42183
68830,42160
68877,42146
68925,42141
69830,42141
69879,42146
69925,42160
69968,42183
70005,42214
70036,42251
70059,42294
70073,42340
70078,42388
70381,42388
70381,41362
69795,41362
69750,41472
69626,41533
69492,41569
69354,41578
69217,41560
69086,41515
69005,41472
68960,41362
69378,40945
69795,41362
70381,41362
70381,40896
70083,40896
70064,41033
70020,41164
69977,41245
69867,41290
69449,40873
69306,40873
68888,41290
68779,41245
68717,41121
68682,40988
68673,40850
68691,40713
68735,40582
68779,40500
68888,40455
69306,40873
69449,40873
69867,40455
69977,40500
70038,40624
70073,40758
70083,40896
70381,40896
70381,40384
69795,40384
69378,40801
68960,40384
69005,40274
69129,40213
69263,40177
69401,40168
69538,40186
69669,40230
69750,40274
69795,40384
70381,40384
70381,37867
70265,38040
Z" /> 
<path style="fill:#000000; fill-opacity:1.0; 
stroke:#000000; stroke-width:98.4252; stroke-opacity:1; 
stroke-linecap:round; stroke-linejoin:round;fill-rule:evenodd;"
d="M 60710,43059
60710,46289
60710,46289
60710,46294
60798,46366
60871,46454
60885,46482
60900,46454
60973,46366
61061,46293
61162,46239
61272,46206
61357,46198
61414,46198
61499,46206
61609,46239
61710,46293
61798,46366
61871,46454
61886,46482
61916,46431
61993,46346
62085,46278
62188,46229
62244,46212
62335,46259
62335,46727
62327,46727
62327,46829
62335,46829
62335,46837
62436,46837
62436,46829
62444,46829
62444,46727
62436,46727
62436,46259
62527,46212
62583,46229
62686,46278
62778,46346
62812,46384
62822,46349
62826,46343
62234,45751
62220,45740
62208,45725
62175,45684
62141,45621
62120,45552
62119,45540
62115,45499
62115,45499
62113,45481
62115,45463
62115,42249
62104,42238
62052,42159
62015,42072
61997,41978
61997,41883
62015,41790
62041,41728
60710,43059
Z" /> 
<path style="fill:#000000; fill-opacity:1.0; 
stroke:#000000; stroke-width:98.4252; stroke-opacity:1; 
stroke-linecap:round; stroke-linejoin:round;fill-rule:evenodd;"
d="M 66472,45235
66465,45235
66465,45337
66472,45337
66472,45345
66574,45345
66574,45337
66582,45337
66582,45235
66574,45235
66574,45227
66472,45227
66472,45235
Z" /> 
<path style="fill:#000000; fill-opacity:1.0; 
stroke:#000000; stroke-width:98.4252; stroke-opacity:1; 
stroke-linecap:round; stroke-linejoin:round;fill-rule:evenodd;"
d="M 55138,40460
55145,40531
55143,40549
55143,41880
55485,42222
55485,42144
55548,42082
56028,42082
56028,42454
55966,42516
55781,42517
56330,43067
56715,43067
56715,42267
56674,42267
56669,42316
56655,42363
56632,42406
56601,42444
56563,42475
56519,42499
56472,42513
56424,42518
56192,42516
56130,42454
56130,42082
56611,42082
56673,42144
56674,42267
56715,42267
56715,40711
56637,40634
56635,40642
56590,40725
56530,40799
56468,40850
56530,40901
56590,40974
56635,41058
56663,41149
56672,41244
56663,41338
56635,41429
56590,41513
56540,41574
56563,41587
56601,41618
56632,41656
56655,41699
56669,41746
56674,41795
56673,41918
56611,41980
56130,41980
56130,41972
56028,41972
56028,41980
55548,41980
55485,41918
55484,41795
55489,41746
55503,41699
55526,41656
55558,41618
55595,41587
55618,41574
55568,41513
55523,41429
55496,41338
55486,41244
55496,41149
55523,41058
55568,40974
55628,40901
55690,40850
55628,40799
55614,40782
55604,40783
55588,40781
55588,40781
55541,40776
55479,40758
55423,40728
55374,40687
55363,40675
55133,40445
55138,40460
Z" /> 
<path style="fill:#000000; fill-opacity:1.0; 
stroke:#000000; stroke-width:98.4252; stroke-opacity:1; 
stroke-linecap:round; stroke-linejoin:round;fill-rule:evenodd;"
d="M 63311,37680
63303,37680
63303,37782
63311,37782
63311,38250
63221,38298
63164,38280
63061,38231
62969,38163
62892,38078
62862,38027
62847,38055
62774,38144
62687,38216
62687,38220
62687,38220
62687,38832
62688,38848
62687,38864
62687,38864
62682,38912
62663,38973
62633,39030
62593,39079
62580,39089
60816,40854
60831,40859
60857,40868
60875,40878
60886,40884
60903,40891
60904,40889
60910,40878
60917,40859
60932,40836
60946,40812
60957,40800
60958,40800
60977,40777
60985,40766
60987,40764
60988,40763
60998,40753
61019,40732
61020,40730
62688,39063
62698,39050
62748,39010
62804,38979
62865,38961
62913,38956
62913,38956
62929,38955
62945,38956
64151,38956
64957,38150
64949,38144
64877,38055
64862,38027
64847,38055
64774,38144
64686,38216
64585,38270
64476,38303
64390,38312
64333,38312
64248,38303
64138,38270
64038,38216
63949,38144
63877,38055
63862,38027
63831,38078
63754,38163
63663,38231
63559,38280
63503,38298
63413,38250
63413,37782
63420,37782
63420,37680
63413,37680
63413,37672
63311,37672
63311,37680
Z" /> 
</g>
</g>
<g style="fill:#FFFFFF; fill-opacity:1.0; 
stroke:#FFFFFF; stroke-width:98.4252; stroke-opacity:1; 
stroke-linecap:round; stroke-linejoin:round;">
</g>
<g style="fill:#FFFFFF; fill-opacity:1.0; 
stroke:#FFFFFF; stroke-width:0; stroke-opacity:1; 
stroke-linecap:round; stroke-linejoin:round;">
<circle cx="62479.6" cy="41931.5" r="68.8976" /> 
</g>
<g style="fill:#FFFFFF; fill-opacity:1.0; 
stroke:#FFFFFF; stroke-width:9.84252; stroke-opacity:1; 
stroke-linecap:round; stroke-linejoin:round;">
</g>
<g style="fill:#FFFFFF; fill-opacity:1.0; 
stroke:#FFFFFF; stroke-width:0; stroke-opacity:1; 
stroke-linecap:round; stroke-linejoin:round;">
<circle cx="60579.6" cy="39631.5" r="68.8976" /> 
</g>
<g style="fill:#FFFFFF; fill-opacity:1.0; 
stroke:#FFFFFF; stroke-width:9.84252; stroke-opacity:1; 
stroke-linecap:round; stroke-linejoin:round;">
</g>
<g style="fill:#FFFFFF; fill-opacity:1.0; 
stroke:#FFFFFF; stroke-width:0; stroke-opacity:1; 
stroke-linecap:round; stroke-linejoin:round;">
<circle cx="64679.6" cy="45231.5" r="68.8976" /> 
</g>
<g style="fill:#FFFFFF; fill-opacity:1.0; 
stroke:#FFFFFF; stroke-width:9.84252; stroke-opacity:1; 
stroke-linecap:round; stroke-linejoin:round;">
</g>
<g style="fill:#FFFFFF; fill-opacity:1.0; 
stroke:#FFFFFF; stroke-width:0; stroke-opacity:1; 
stroke-linecap:round; stroke-linejoin:round;">
<circle cx="63188.3" cy="43640.2" r="68.8976" /> 
</g>
<g style="fill:#FFFFFF; fill-opacity:1.0; 
stroke:#FFFFFF; stroke-width:9.84252; stroke-opacity:1; 
stroke-linecap:round; stroke-linejoin:round;">
</g>
<g style="fill:#FFFFFF; fill-opacity:1.0; 
stroke:#FFFFFF; stroke-width:0; stroke-opacity:1; 
stroke-linecap:round; stroke-linejoin:round;">
<circle cx="57079.6" cy="43431.5" r="68.8976" /> 
</g>
<g style="fill:#FFFFFF; fill-opacity:1.0; 
stroke:#FFFFFF; stroke-width:9.84252; stroke-opacity:1; 
stroke-linecap:round; stroke-linejoin:round;">
</g>
<g style="fill:#FFFFFF; fill-opacity:1.0; 
stroke:#FFFFFF; stroke-width:0; stroke-opacity:1; 
stroke-linecap:round; stroke-linejoin:round;">
<circle cx="64079.6" cy="44431.5" r="68.8976" /> 
</g>
<g style="fill:#FFFFFF; fill-opacity:1.0; 
stroke:#FFFFFF; stroke-width:9.84252; stroke-opacity:1; 
stroke-linecap:round; stroke-linejoin:round;">
</g>
<g style="fill:#FFFFFF; fill-opacity:1.0; 
stroke:#FFFFFF; stroke-width:0; stroke-opacity:1; 
stroke-linecap:round; stroke-linejoin:round;">
<circle cx="63629.6" cy="45781.5" r="68.8976" /> 
</g>
<g style="fill:#FFFFFF; fill-opacity:1.0; 
stroke:#FFFFFF; stroke-width:9.84252; stroke-opacity:1; 
stroke-linecap:round; stroke-linejoin:round;">
</g>
<g style="fill:#FFFFFF; fill-opacity:1.0; 
stroke:#FFFFFF; stroke-width:0; stroke-opacity:1; 
stroke-linecap:round; stroke-linejoin:round;">
<circle cx="57829.6" cy="42131.5" r="68.8976" /> 
</g>
<g style="fill:#FFFFFF; fill-opacity:1.0; 
stroke:#FFFFFF; stroke-width:9.84252; stroke-opacity:1; 
stroke-linecap:round; stroke-linejoin:round;">
</g>
<g style="fill:#FFFFFF; fill-opacity:1.0; 
stroke:#FFFFFF; stroke-width:0; stroke-opacity:1; 
stroke-linecap:round; stroke-linejoin:round;">
<circle cx="59579.6" cy="44731.5" r="68.8976" /> 
</g>
<g style="fill:#FFFFFF; fill-opacity:1.0; 
stroke:#FFFFFF; stroke-width:9.84252; stroke-opacity:1; 
stroke-linecap:round; stroke-linejoin:round;">
</g>
<g style="fill:#FFFFFF; fill-opacity:1.0; 
stroke:#FFFFFF; stroke-width:0; stroke-opacity:1; 
stroke-linecap:round; stroke-linejoin:round;">
<circle cx="49317.4" cy="46331.5" r="68.8976" /> 
</g>
<g style="fill:#FFFFFF; fill-opacity:1.0; 
stroke:#FFFFFF; stroke-width:9.84252; stroke-opacity:1; 
stroke-linecap:round; stroke-linejoin:round;">
</g>
<g style="fill:#FFFFFF; fill-opacity:1.0; 
stroke:#FFFFFF; stroke-width:0; stroke-opacity:1; 
stroke-linecap:round; stroke-linejoin:round;">
<circle cx="50104.8" cy="46331.5" r="68.8976" /> 
</g>
<g style="fill:#FFFFFF; fill-opacity:1.0; 
stroke:#FFFFFF; stroke-width:9.84252; stroke-opacity:1; 
stroke-linecap:round; stroke-linejoin:round;">
</g>
<g style="fill:#FFFFFF; fill-opacity:1.0; 
stroke:#FFFFFF; stroke-width:0; stroke-opacity:1; 
stroke-linecap:round; stroke-linejoin:round;">
<circle cx="50892.2" cy="46331.5" r="68.8976" /> 
</g>
<g style="fill:#FFFFFF; fill-opacity:1.0; 
stroke:#FFFFFF; stroke-width:9.84252; stroke-opacity:1; 
stroke-linecap:round; stroke-linejoin:round;">
</g>
<g style="fill:#FFFFFF; fill-opacity:1.0; 
stroke:#FFFFFF; stroke-width:0; stroke-opacity:1; 
stroke-linecap:round; stroke-linejoin:round;">
<circle cx="51679.6" cy="46331.5" r="68.8976" /> 
</g>
<g style="fill:#FFFFFF; fill-opacity:1.0; 
stroke:#FFFFFF; stroke-width:9.84252; stroke-opacity:1; 
stroke-linecap:round; stroke-linejoin:round;">
</g>
<g style="fill:#FFFFFF; fill-opacity:1.0; 
stroke:#FFFFFF; stroke-width:0; stroke-opacity:1; 
stroke-linecap:round; stroke-linejoin:round;">
<circle cx="51679.6" cy="44031.5" r="68.8976" /> 
</g>
<g style="fill:#FFFFFF; fill-opacity:1.0; 
stroke:#FFFFFF; stroke-width:9.84252; stroke-opacity:1; 
stroke-linecap:round; stroke-linejoin:round;">
</g>
<g style="fill:#FFFFFF; fill-opacity:1.0; 
stroke:#FFFFFF; stroke-width:0; stroke-opacity:1; 
stroke-linecap:round; stroke-linejoin:round;">
<circle cx="50892.2" cy="44031.5" r="68.8976" /> 
</g>
<g style="fill:#FFFFFF; fill-opacity:1.0; 
stroke:#FFFFFF; stroke-width:9.84252; stroke-opacity:1; 
stroke-linecap:round; stroke-linejoin:round;">
</g>
<g style="fill:#FFFFFF; fill-opacity:1.0; 
stroke:#FFFFFF; stroke-width:0; stroke-opacity:1; 
stroke-linecap:round; stroke-linejoin:round;">
<circle cx="50104.8" cy="44031.5" r="68.8976" /> 
</g>
<g style="fill:#FFFFFF; fill-opacity:1.0; 
stroke:#FFFFFF; stroke-width:9.84252; stroke-opacity:1; 
stroke-linecap:round; stroke-linejoin:round;">
</g>
<g style="fill:#FFFFFF; fill-opacity:1.0; 
stroke:#FFFFFF; stroke-width:0; stroke-opacity:1; 
stroke-linecap:round; stroke-linejoin:round;">
<circle cx="49317.4" cy="44031.5" r="68.8976" /> 
</g>
<g style="fill:#FFFFFF; fill-opacity:1.0; 
stroke:#FFFFFF; stroke-width:9.84252; stroke-opacity:1; 
stroke-linecap:round; stroke-linejoin:round;">
</g>
<g style="fill:#FFFFFF; fill-opacity:1.0; 
stroke:#FFFFFF; stroke-width:0; stroke-opacity:1; 
stroke-linecap:round; stroke-linejoin:round;">
<circle cx="50479.6" cy="39669.3" r="68.8976" /> 
</g>
<g style="fill:#FFFFFF; fill-opacity:1.0; 
stroke:#FFFFFF; stroke-width:9.84252; stroke-opacity:1; 
stroke-linecap:round; stroke-linejoin:round;">
</g>
<g style="fill:#FFFFFF; fill-opacity:1.0; 
stroke:#FFFFFF; stroke-width:0; stroke-opacity:1; 
stroke-linecap:round; stroke-linejoin:round;">
<circle cx="50479.6" cy="40456.7" r="68.8976" /> 
</g>
<g style="fill:#FFFFFF; fill-opacity:1.0; 
stroke:#FFFFFF; stroke-width:9.84252; stroke-opacity:1; 
stroke-linecap:round; stroke-linejoin:round;">
</g>
<g style="fill:#FFFFFF; fill-opacity:1.0; 
stroke:#FFFFFF; stroke-width:0; stroke-opacity:1; 
stroke-linecap:round; stroke-linejoin:round;">
<circle cx="50479.6" cy="41244.1" r="68.8976" /> 
</g>
<g style="fill:#FFFFFF; fill-opacity:1.0; 
stroke:#FFFFFF; stroke-width:9.84252; stroke-opacity:1; 
stroke-linecap:round; stroke-linejoin:round;">
</g>
<g style="fill:#FFFFFF; fill-opacity:1.0; 
stroke:#FFFFFF; stroke-width:0; stroke-opacity:1; 
stroke-linecap:round; stroke-linejoin:round;">
<circle cx="50479.6" cy="42031.5" r="68.8976" /> 
</g>
<g style="fill:#FFFFFF; fill-opacity:1.0; 
stroke:#FFFFFF; stroke-width:9.84252; stroke-opacity:1; 
stroke-linecap:round; stroke-linejoin:round;">
</g>
<g style="fill:#FFFFFF; fill-opacity:1.0; 
stroke:#FFFFFF; stroke-width:0; stroke-opacity:1; 
stroke-linecap:round; stroke-linejoin:round;">
<circle cx="56079.6" cy="39669.3" r="68.8976" /> 
</g>
<g style="fill:#FFFFFF; fill-opacity:1.0; 
stroke:#FFFFFF; stroke-width:9.84252; stroke-opacity:1; 
stroke-linecap:round; stroke-linejoin:round;">
</g>
<g style="fill:#FFFFFF; fill-opacity:1.0; 
stroke:#FFFFFF; stroke-width:0; stroke-opacity:1; 
stroke-linecap:round; stroke-linejoin:round;">
<circle cx="56079.6" cy="40456.7" r="68.8976" /> 
</g>
<g style="fill:#FFFFFF; fill-opacity:1.0; 
stroke:#FFFFFF; stroke-width:9.84252; stroke-opacity:1; 
stroke-linecap:round; stroke-linejoin:round;">
</g>
<g style="fill:#FFFFFF; fill-opacity:1.0; 
stroke:#FFFFFF; stroke-width:0; stroke-opacity:1; 
stroke-linecap:round; stroke-linejoin:round;">
<circle cx="56079.6" cy="41244.1" r="68.8976" /> 
</g>
<g style="fill:#FFFFFF; fill-opacity:1.0; 
stroke:#FFFFFF; stroke-width:9.84252; stroke-opacity:1; 
stroke-linecap:round; stroke-linejoin:round;">
</g>
<g style="fill:#FFFFFF; fill-opacity:1.0; 
stroke:#FFFFFF; stroke-width:0; stroke-opacity:1; 
stroke-linecap:round; stroke-linejoin:round;">
<circle cx="56079.6" cy="42031.5" r="68.8976" /> 
</g>
<g style="fill:#FFFFFF; fill-opacity:1.0; 
stroke:#FFFFFF; stroke-width:9.84252; stroke-opacity:1; 
stroke-linecap:round; stroke-linejoin:round;">
</g>
<g style="fill:#FFFFFF; fill-opacity:1.0; 
stroke:#FFFFFF; stroke-width:0; stroke-opacity:1; 
stroke-linecap:round; stroke-linejoin:round;">
<circle cx="46579.6" cy="39856.7" r="68.8976" /> 
</g>
<g style="fill:#FFFFFF; fill-opacity:1.0; 
stroke:#FFFFFF; stroke-width:9.84252; stroke-opacity:1; 
stroke-linecap:round; stroke-linejoin:round;">
</g>
<g style="fill:#FFFFFF; fill-opacity:1.0; 
stroke:#FFFFFF; stroke-width:0; stroke-opacity:1; 
stroke-linecap:round; stroke-linejoin:round;">
<circle cx="46579.6" cy="40644.1" r="68.8976" /> 
</g>
<g style="fill:#FFFFFF; fill-opacity:1.0; 
stroke:#FFFFFF; stroke-width:9.84252; stroke-opacity:1; 
stroke-linecap:round; stroke-linejoin:round;">
</g>
<g style="fill:#FFFFFF; fill-opacity:1.0; 
stroke:#FFFFFF; stroke-width:0; stroke-opacity:1; 
stroke-linecap:round; stroke-linejoin:round;">
<circle cx="46579.6" cy="41431.5" r="68.8976" /> 
</g>
<g style="fill:#FFFFFF; fill-opacity:1.0; 
stroke:#FFFFFF; stroke-width:9.84252; stroke-opacity:1; 
stroke-linecap:round; stroke-linejoin:round;">
</g>
<g style="fill:#FFFFFF; fill-opacity:1.0; 
stroke:#FFFFFF; stroke-width:0; stroke-opacity:1; 
stroke-linecap:round; stroke-linejoin:round;">
<circle cx="46579.6" cy="42218.9" r="68.8976" /> 
</g>
<g style="fill:#FFFFFF; fill-opacity:1.0; 
stroke:#FFFFFF; stroke-width:9.84252; stroke-opacity:1; 
stroke-linecap:round; stroke-linejoin:round;">
</g>
<g style="fill:#FFFFFF; fill-opacity:1.0; 
stroke:#FFFFFF; stroke-width:0; stroke-opacity:1; 
stroke-linecap:round; stroke-linejoin:round;">
<circle cx="46579.6" cy="43006.3" r="68.8976" /> 
</g>
<g style="fill:#FFFFFF; fill-opacity:1.0; 
stroke:#FFFFFF; stroke-width:9.84252; stroke-opacity:1; 
stroke-linecap:round; stroke-linejoin:round;">
</g>
<g style="fill:#FFFFFF; fill-opacity:1.0; 
stroke:#FFFFFF; stroke-width:0; stroke-opacity:1; 
stroke-linecap:round; stroke-linejoin:round;">
<circle cx="46579.6" cy="43793.7" r="68.8976" /> 
</g>
<g style="fill:#FFFFFF; fill-opacity:1.0; 
stroke:#FFFFFF; stroke-width:9.84252; stroke-opacity:1; 
stroke-linecap:round; stroke-linejoin:round;">
</g>
<g style="fill:#FFFFFF; fill-opacity:1.0; 
stroke:#FFFFFF; stroke-width:0; stroke-opacity:1; 
stroke-linecap:round; stroke-linejoin:round;">
<circle cx="53279.6" cy="39669.3" r="68.8976" /> 
</g>
<g style="fill:#FFFFFF; fill-opacity:1.0; 
stroke:#FFFFFF; stroke-width:9.84252; stroke-opacity:1; 
stroke-linecap:round; stroke-linejoin:round;">
</g>
<g style="fill:#FFFFFF; fill-opacity:1.0; 
stroke:#FFFFFF; stroke-width:0; stroke-opacity:1; 
stroke-linecap:round; stroke-linejoin:round;">
<circle cx="53279.6" cy="40456.7" r="68.8976" /> 
</g>
<g style="fill:#FFFFFF; fill-opacity:1.0; 
stroke:#FFFFFF; stroke-width:9.84252; stroke-opacity:1; 
stroke-linecap:round; stroke-linejoin:round;">
</g>
<g style="fill:#FFFFFF; fill-opacity:1.0; 
stroke:#FFFFFF; stroke-width:0; stroke-opacity:1; 
stroke-linecap:round; stroke-linejoin:round;">
<circle cx="53279.6" cy="41244.1" r="68.8976" /> 
</g>
<g style="fill:#FFFFFF; fill-opacity:1.0; 
stroke:#FFFFFF; stroke-width:9.84252; stroke-opacity:1; 
stroke-linecap:round; stroke-linejoin:round;">
</g>
<g style="fill:#FFFFFF; fill-opacity:1.0; 
stroke:#FFFFFF; stroke-width:0; stroke-opacity:1; 
stroke-linecap:round; stroke-linejoin:round;">
<circle cx="53279.6" cy="42031.5" r="68.8976" /> 
</g>
<g style="fill:#FFFFFF; fill-opacity:1.0; 
stroke:#FFFFFF; stroke-width:9.84252; stroke-opacity:1; 
stroke-linecap:round; stroke-linejoin:round;">
</g>
<g style="fill:#FFFFFF; fill-opacity:1.0; 
stroke:#FFFFFF; stroke-width:0; stroke-opacity:1; 
stroke-linecap:round; stroke-linejoin:round;">
<circle cx="54385.9" cy="46778.7" r="68.8976" /> 
</g>
<g style="fill:#FFFFFF; fill-opacity:1.0; 
stroke:#FFFFFF; stroke-width:9.84252; stroke-opacity:1; 
stroke-linecap:round; stroke-linejoin:round;">
</g>
<g style="fill:#FFFFFF; fill-opacity:1.0; 
stroke:#FFFFFF; stroke-width:0; stroke-opacity:1; 
stroke-linecap:round; stroke-linejoin:round;">
<circle cx="55385.9" cy="46778.7" r="68.8976" /> 
</g>
<g style="fill:#FFFFFF; fill-opacity:1.0; 
stroke:#FFFFFF; stroke-width:9.84252; stroke-opacity:1; 
stroke-linecap:round; stroke-linejoin:round;">
</g>
<g style="fill:#FFFFFF; fill-opacity:1.0; 
stroke:#FFFFFF; stroke-width:0; stroke-opacity:1; 
stroke-linecap:round; stroke-linejoin:round;">
<circle cx="56385.9" cy="46778.7" r="68.8976" /> 
</g>
<g style="fill:#FFFFFF; fill-opacity:1.0; 
stroke:#FFFFFF; stroke-width:9.84252; stroke-opacity:1; 
stroke-linecap:round; stroke-linejoin:round;">
</g>
<g style="fill:#FFFFFF; fill-opacity:1.0; 
stroke:#FFFFFF; stroke-width:0; stroke-opacity:1; 
stroke-linecap:round; stroke-linejoin:round;">
<circle cx="57385.9" cy="46778.7" r="68.8976" /> 
</g>
<g style="fill:#FFFFFF; fill-opacity:1.0; 
stroke:#FFFFFF; stroke-width:9.84252; stroke-opacity:1; 
stroke-linecap:round; stroke-linejoin:round;">
</g>
<g style="fill:#FFFFFF; fill-opacity:1.0; 
stroke:#FFFFFF; stroke-width:0; stroke-opacity:1; 
stroke-linecap:round; stroke-linejoin:round;">
<circle cx="58385.9" cy="46778.7" r="68.8976" /> 
</g>
<g style="fill:#FFFFFF; fill-opacity:1.0; 
stroke:#FFFFFF; stroke-width:9.84252; stroke-opacity:1; 
stroke-linecap:round; stroke-linejoin:round;">
</g>
<g style="fill:#FFFFFF; fill-opacity:1.0; 
stroke:#FFFFFF; stroke-width:0; stroke-opacity:1; 
stroke-linecap:round; stroke-linejoin:round;">
<circle cx="59385.9" cy="46778.7" r="68.8976" /> 
</g>
<g style="fill:#FFFFFF; fill-opacity:1.0; 
stroke:#FFFFFF; stroke-width:9.84252; stroke-opacity:1; 
stroke-linecap:round; stroke-linejoin:round;">
</g>
<g style="fill:#FFFFFF; fill-opacity:1.0; 
stroke:#FFFFFF; stroke-width:0; stroke-opacity:1; 
stroke-linecap:round; stroke-linejoin:round;">
<circle cx="60385.9" cy="46778.7" r="68.8976" /> 
</g>
<g style="fill:#FFFFFF; fill-opacity:1.0; 
stroke:#FFFFFF; stroke-width:9.84252; stroke-opacity:1; 
stroke-linecap:round; stroke-linejoin:round;">
</g>
<g style="fill:#FFFFFF; fill-opacity:1.0; 
stroke:#FFFFFF; stroke-width:0; stroke-opacity:1; 
stroke-linecap:round; stroke-linejoin:round;">
<circle cx="61385.9" cy="46778.7" r="68.8976" /> 
</g>
<g style="fill:#FFFFFF; fill-opacity:1.0; 
stroke:#FFFFFF; stroke-width:9.84252; stroke-opacity:1; 
stroke-linecap:round; stroke-linejoin:round;">
</g>
<g style="fill:#FFFFFF; fill-opacity:1.0; 
stroke:#FFFFFF; stroke-width:0; stroke-opacity:1; 
stroke-linecap:round; stroke-linejoin:round;">
<circle cx="62385.9" cy="46778.7" r="68.8976" /> 
</g>
<g style="fill:#FFFFFF; fill-opacity:1.0; 
stroke:#FFFFFF; stroke-width:9.84252; stroke-opacity:1; 
stroke-linecap:round; stroke-linejoin:round;">
</g>
<g style="fill:#FFFFFF; fill-opacity:1.0; 
stroke:#FFFFFF; stroke-width:0; stroke-opacity:1; 
stroke-linecap:round; stroke-linejoin:round;">
<circle cx="63385.9" cy="46778.7" r="68.8976" /> 
</g>
<g style="fill:#FFFFFF; fill-opacity:1.0; 
stroke:#FFFFFF; stroke-width:9.84252; stroke-opacity:1; 
stroke-linecap:round; stroke-linejoin:round;">
</g>
<g style="fill:#FFFFFF; fill-opacity:1.0; 
stroke:#FFFFFF; stroke-width:0; stroke-opacity:1; 
stroke-linecap:round; stroke-linejoin:round;">
<circle cx="66523.7" cy="44286.6" r="68.8976" /> 
</g>
<g style="fill:#FFFFFF; fill-opacity:1.0; 
stroke:#FFFFFF; stroke-width:9.84252; stroke-opacity:1; 
stroke-linecap:round; stroke-linejoin:round;">
</g>
<g style="fill:#FFFFFF; fill-opacity:1.0; 
stroke:#FFFFFF; stroke-width:0; stroke-opacity:1; 
stroke-linecap:round; stroke-linejoin:round;">
<circle cx="66523.7" cy="45286.6" r="68.8976" /> 
</g>
<g style="fill:#FFFFFF; fill-opacity:1.0; 
stroke:#FFFFFF; stroke-width:9.84252; stroke-opacity:1; 
stroke-linecap:round; stroke-linejoin:round;">
</g>
<g style="fill:#FFFFFF; fill-opacity:1.0; 
stroke:#FFFFFF; stroke-width:0; stroke-opacity:1; 
stroke-linecap:round; stroke-linejoin:round;">
<circle cx="66523.7" cy="46286.6" r="68.8976" /> 
</g>
<g style="fill:#FFFFFF; fill-opacity:1.0; 
stroke:#FFFFFF; stroke-width:9.84252; stroke-opacity:1; 
stroke-linecap:round; stroke-linejoin:round;">
</g>
<g style="fill:#FFFFFF; fill-opacity:1.0; 
stroke:#FFFFFF; stroke-width:0; stroke-opacity:1; 
stroke-linecap:round; stroke-linejoin:round;">
<circle cx="67362.3" cy="37731.5" r="68.8976" /> 
</g>
<g style="fill:#FFFFFF; fill-opacity:1.0; 
stroke:#FFFFFF; stroke-width:9.84252; stroke-opacity:1; 
stroke-linecap:round; stroke-linejoin:round;">
</g>
<g style="fill:#FFFFFF; fill-opacity:1.0; 
stroke:#FFFFFF; stroke-width:0; stroke-opacity:1; 
stroke-linecap:round; stroke-linejoin:round;">
<circle cx="67362.3" cy="36731.5" r="68.8976" /> 
</g>
<g style="fill:#FFFFFF; fill-opacity:1.0; 
stroke:#FFFFFF; stroke-width:9.84252; stroke-opacity:1; 
stroke-linecap:round; stroke-linejoin:round;">
</g>
<g style="fill:#FFFFFF; fill-opacity:1.0; 
stroke:#FFFFFF; stroke-width:0; stroke-opacity:1; 
stroke-linecap:round; stroke-linejoin:round;">
<circle cx="66362.3" cy="37731.5" r="68.8976" /> 
</g>
<g style="fill:#FFFFFF; fill-opacity:1.0; 
stroke:#FFFFFF; stroke-width:9.84252; stroke-opacity:1; 
stroke-linecap:round; stroke-linejoin:round;">
</g>
<g style="fill:#FFFFFF; fill-opacity:1.0; 
stroke:#FFFFFF; stroke-width:0; stroke-opacity:1; 
stroke-linecap:round; stroke-linejoin:round;">
<circle cx="66362.3" cy="36731.5" r="68.8976" /> 
</g>
<g style="fill:#FFFFFF; fill-opacity:1.0; 
stroke:#FFFFFF; stroke-width:9.84252; stroke-opacity:1; 
stroke-linecap:round; stroke-linejoin:round;">
</g>
<g style="fill:#FFFFFF; fill-opacity:1.0; 
stroke:#FFFFFF; stroke-width:0; stroke-opacity:1; 
stroke-linecap:round; stroke-linejoin:round;">
<circle cx="65362.3" cy="37731.5" r="68.8976" /> 
</g>
<g style="fill:#FFFFFF; fill-opacity:1.0; 
stroke:#FFFFFF; stroke-width:9.84252; stroke-opacity:1; 
stroke-linecap:round; stroke-linejoin:round;">
</g>
<g style="fill:#FFFFFF; fill-opacity:1.0; 
stroke:#FFFFFF; stroke-width:0; stroke-opacity:1; 
stroke-linecap:round; stroke-linejoin:round;">
<circle cx="65362.3" cy="36731.5" r="68.8976" /> 
</g>
<g style="fill:#FFFFFF; fill-opacity:1.0; 
stroke:#FFFFFF; stroke-width:9.84252; stroke-opacity:1; 
stroke-linecap:round; stroke-linejoin:round;">
</g>
<g style="fill:#FFFFFF; fill-opacity:1.0; 
stroke:#FFFFFF; stroke-width:0; stroke-opacity:1; 
stroke-linecap:round; stroke-linejoin:round;">
<circle cx="64362.3" cy="37731.5" r="68.8976" /> 
</g>
<g style="fill:#FFFFFF; fill-opacity:1.0; 
stroke:#FFFFFF; stroke-width:9.84252; stroke-opacity:1; 
stroke-linecap:round; stroke-linejoin:round;">
</g>
<g style="fill:#FFFFFF; fill-opacity:1.0; 
stroke:#FFFFFF; stroke-width:0; stroke-opacity:1; 
stroke-linecap:round; stroke-linejoin:round;">
<circle cx="64362.3" cy="36731.5" r="68.8976" /> 
</g>
<g style="fill:#FFFFFF; fill-opacity:1.0; 
stroke:#FFFFFF; stroke-width:9.84252; stroke-opacity:1; 
stroke-linecap:round; stroke-linejoin:round;">
</g>
<g style="fill:#FFFFFF; fill-opacity:1.0; 
stroke:#FFFFFF; stroke-width:0; stroke-opacity:1; 
stroke-linecap:round; stroke-linejoin:round;">
<circle cx="63362.3" cy="37731.5" r="68.8976" /> 
</g>
<g style="fill:#FFFFFF; fill-opacity:1.0; 
stroke:#FFFFFF; stroke-width:9.84252; stroke-opacity:1; 
stroke-linecap:round; stroke-linejoin:round;">
</g>
<g style="fill:#FFFFFF; fill-opacity:1.0; 
stroke:#FFFFFF; stroke-width:0; stroke-opacity:1; 
stroke-linecap:round; stroke-linejoin:round;">
<circle cx="63362.3" cy="36731.5" r="68.8976" /> 
</g>
<g style="fill:#FFFFFF; fill-opacity:1.0; 
stroke:#FFFFFF; stroke-width:9.84252; stroke-opacity:1; 
stroke-linecap:round; stroke-linejoin:round;">
</g>
<g style="fill:#FFFFFF; fill-opacity:1.0; 
stroke:#FFFFFF; stroke-width:0; stroke-opacity:1; 
stroke-linecap:round; stroke-linejoin:round;">
<circle cx="62362.3" cy="37731.5" r="68.8976" /> 
</g>
<g style="fill:#FFFFFF; fill-opacity:1.0; 
stroke:#FFFFFF; stroke-width:9.84252; stroke-opacity:1; 
stroke-linecap:round; stroke-linejoin:round;">
</g>
<g style="fill:#FFFFFF; fill-opacity:1.0; 
stroke:#FFFFFF; stroke-width:0; stroke-opacity:1; 
stroke-linecap:round; stroke-linejoin:round;">
<circle cx="62362.3" cy="36731.5" r="68.8976" /> 
</g>
<g style="fill:#FFFFFF; fill-opacity:1.0; 
stroke:#FFFFFF; stroke-width:9.84252; stroke-opacity:1; 
stroke-linecap:round; stroke-linejoin:round;">
</g>
<g style="fill:#FFFFFF; fill-opacity:1.0; 
stroke:#FFFFFF; stroke-width:0; stroke-opacity:1; 
stroke-linecap:round; stroke-linejoin:round;">
<circle cx="61362.3" cy="37731.5" r="68.8976" /> 
</g>
<g style="fill:#FFFFFF; fill-opacity:1.0; 
stroke:#FFFFFF; stroke-width:9.84252; stroke-opacity:1; 
stroke-linecap:round; stroke-linejoin:round;">
</g>
<g style="fill:#FFFFFF; fill-opacity:1.0; 
stroke:#FFFFFF; stroke-width:0; stroke-opacity:1; 
stroke-linecap:round; stroke-linejoin:round;">
<circle cx="61362.3" cy="36731.5" r="68.8976" /> 
</g>
<g style="fill:#FFFFFF; fill-opacity:1.0; 
stroke:#FFFFFF; stroke-width:9.84252; stroke-opacity:1; 
stroke-linecap:round; stroke-linejoin:round;">
</g>
<g style="fill:#FFFFFF; fill-opacity:1.0; 
stroke:#FFFFFF; stroke-width:0; stroke-opacity:1; 
stroke-linecap:round; stroke-linejoin:round;">
<circle cx="60362.3" cy="37731.5" r="68.8976" /> 
</g>
<g style="fill:#FFFFFF; fill-opacity:1.0; 
stroke:#FFFFFF; stroke-width:9.84252; stroke-opacity:1; 
stroke-linecap:round; stroke-linejoin:round;">
</g>
<g style="fill:#FFFFFF; fill-opacity:1.0; 
stroke:#FFFFFF; stroke-width:0; stroke-opacity:1; 
stroke-linecap:round; stroke-linejoin:round;">
<circle cx="60362.3" cy="36731.5" r="68.8976" /> 
</g>
<g style="fill:#FFFFFF; fill-opacity:1.0; 
stroke:#FFFFFF; stroke-width:9.84252; stroke-opacity:1; 
stroke-linecap:round; stroke-linejoin:round;">
</g>
<g style="fill:#FFFFFF; fill-opacity:1.0; 
stroke:#FFFFFF; stroke-width:0; stroke-opacity:1; 
stroke-linecap:round; stroke-linejoin:round;">
<circle cx="59362.3" cy="37731.5" r="68.8976" /> 
</g>
<g style="fill:#FFFFFF; fill-opacity:1.0; 
stroke:#FFFFFF; stroke-width:9.84252; stroke-opacity:1; 
stroke-linecap:round; stroke-linejoin:round;">
</g>
<g style="fill:#FFFFFF; fill-opacity:1.0; 
stroke:#FFFFFF; stroke-width:0; stroke-opacity:1; 
stroke-linecap:round; stroke-linejoin:round;">
<circle cx="59362.3" cy="36731.5" r="68.8976" /> 
</g>
<g style="fill:#FFFFFF; fill-opacity:1.0; 
stroke:#FFFFFF; stroke-width:9.84252; stroke-opacity:1; 
stroke-linecap:round; stroke-linejoin:round;">
</g>
<g style="fill:#FFFFFF; fill-opacity:1.0; 
stroke:#FFFFFF; stroke-width:0; stroke-opacity:1; 
stroke-linecap:round; stroke-linejoin:round;">
<circle cx="58362.3" cy="37731.5" r="68.8976" /> 
</g>
<g style="fill:#FFFFFF; fill-opacity:1.0; 
stroke:#FFFFFF; stroke-width:9.84252; stroke-opacity:1; 
stroke-linecap:round; stroke-linejoin:round;">
</g>
<g style="fill:#FFFFFF; fill-opacity:1.0; 
stroke:#FFFFFF; stroke-width:0; stroke-opacity:1; 
stroke-linecap:round; stroke-linejoin:round;">
<circle cx="58362.3" cy="36731.5" r="68.8976" /> 
</g>
<g style="fill:#FFFFFF; fill-opacity:1.0; 
stroke:#FFFFFF; stroke-width:9.84252; stroke-opacity:1; 
stroke-linecap:round; stroke-linejoin:round;">
</g>
<g style="fill:#FFFFFF; fill-opacity:1.0; 
stroke:#FFFFFF; stroke-width:0; stroke-opacity:1; 
stroke-linecap:round; stroke-linejoin:round;">
<circle cx="57362.3" cy="37731.5" r="68.8976" /> 
</g>
<g style="fill:#FFFFFF; fill-opacity:1.0; 
stroke:#FFFFFF; stroke-width:9.84252; stroke-opacity:1; 
stroke-linecap:round; stroke-linejoin:round;">
</g>
<g style="fill:#FFFFFF; fill-opacity:1.0; 
stroke:#FFFFFF; stroke-width:0; stroke-opacity:1; 
stroke-linecap:round; stroke-linejoin:round;">
<circle cx="57362.3" cy="36731.5" r="68.8976" /> 
</g>
<g style="fill:#FFFFFF; fill-opacity:1.0; 
stroke:#FFFFFF; stroke-width:9.84252; stroke-opacity:1; 
stroke-linecap:round; stroke-linejoin:round;">
</g>
<g style="fill:#FFFFFF; fill-opacity:1.0; 
stroke:#FFFFFF; stroke-width:0; stroke-opacity:1; 
stroke-linecap:round; stroke-linejoin:round;">
<circle cx="56362.3" cy="37731.5" r="68.8976" /> 
</g>
<g style="fill:#FFFFFF; fill-opacity:1.0; 
stroke:#FFFFFF; stroke-width:9.84252; stroke-opacity:1; 
stroke-linecap:round; stroke-linejoin:round;">
</g>
<g style="fill:#FFFFFF; fill-opacity:1.0; 
stroke:#FFFFFF; stroke-width:0; stroke-opacity:1; 
stroke-linecap:round; stroke-linejoin:round;">
<circle cx="56362.3" cy="36731.5" r="68.8976" /> 
</g>
<g style="fill:#FFFFFF; fill-opacity:1.0; 
stroke:#FFFFFF; stroke-width:9.84252; stroke-opacity:1; 
stroke-linecap:round; stroke-linejoin:round;">
</g>
<g style="fill:#FFFFFF; fill-opacity:1.0; 
stroke:#FFFFFF; stroke-width:0; stroke-opacity:1; 
stroke-linecap:round; stroke-linejoin:round;">
<circle cx="55362.3" cy="37731.5" r="68.8976" /> 
</g>
<g style="fill:#FFFFFF; fill-opacity:1.0; 
stroke:#FFFFFF; stroke-width:9.84252; stroke-opacity:1; 
stroke-linecap:round; stroke-linejoin:round;">
</g>
<g style="fill:#FFFFFF; fill-opacity:1.0; 
stroke:#FFFFFF; stroke-width:0; stroke-opacity:1; 
stroke-linecap:round; stroke-linejoin:round;">
<circle cx="55362.3" cy="36731.5" r="68.8976" /> 
</g>
<g style="fill:#FFFFFF; fill-opacity:1.0; 
stroke:#FFFFFF; stroke-width:9.84252; stroke-opacity:1; 
stroke-linecap:round; stroke-linejoin:round;">
</g>
<g style="fill:#FFFFFF; fill-opacity:1.0; 
stroke:#FFFFFF; stroke-width:0; stroke-opacity:1; 
stroke-linecap:round; stroke-linejoin:round;">
<circle cx="54362.3" cy="37731.5" r="68.8976" /> 
</g>
<g style="fill:#FFFFFF; fill-opacity:1.0; 
stroke:#FFFFFF; stroke-width:9.84252; stroke-opacity:1; 
stroke-linecap:round; stroke-linejoin:round;">
</g>
<g style="fill:#FFFFFF; fill-opacity:1.0; 
stroke:#FFFFFF; stroke-width:0; stroke-opacity:1; 
stroke-linecap:round; stroke-linejoin:round;">
<circle cx="54362.3" cy="36731.5" r="68.8976" /> 
</g>
<g style="fill:#FFFFFF; fill-opacity:1.0; 
stroke:#FFFFFF; stroke-width:9.84252; stroke-opacity:1; 
stroke-linecap:round; stroke-linejoin:round;">
</g>
<g style="fill:#FFFFFF; fill-opacity:1.0; 
stroke:#FFFFFF; stroke-width:0; stroke-opacity:1; 
stroke-linecap:round; stroke-linejoin:round;">
<circle cx="53362.3" cy="37731.5" r="68.8976" /> 
</g>
<g style="fill:#FFFFFF; fill-opacity:1.0; 
stroke:#FFFFFF; stroke-width:9.84252; stroke-opacity:1; 
stroke-linecap:round; stroke-linejoin:round;">
</g>
<g style="fill:#FFFFFF; fill-opacity:1.0; 
stroke:#FFFFFF; stroke-width:0; stroke-opacity:1; 
stroke-linecap:round; stroke-linejoin:round;">
<circle cx="53362.3" cy="36731.5" r="68.8976" /> 
</g>
<g style="fill:#FFFFFF; fill-opacity:1.0; 
stroke:#FFFFFF; stroke-width:9.84252; stroke-opacity:1; 
stroke-linecap:round; stroke-linejoin:round;">
</g>
<g style="fill:#FFFFFF; fill-opacity:1.0; 
stroke:#FFFFFF; stroke-width:0; stroke-opacity:1; 
stroke-linecap:round; stroke-linejoin:round;">
<circle cx="52362.3" cy="37731.5" r="68.8976" /> 
</g>
<g style="fill:#FFFFFF; fill-opacity:1.0; 
stroke:#FFFFFF; stroke-width:9.84252; stroke-opacity:1; 
stroke-linecap:round; stroke-linejoin:round;">
</g>
<g style="fill:#FFFFFF; fill-opacity:1.0; 
stroke:#FFFFFF; stroke-width:0; stroke-opacity:1; 
stroke-linecap:round; stroke-linejoin:round;">
<circle cx="52362.3" cy="36731.5" r="68.8976" /> 
</g>
<g style="fill:#FFFFFF; fill-opacity:1.0; 
stroke:#FFFFFF; stroke-width:9.84252; stroke-opacity:1; 
stroke-linecap:round; stroke-linejoin:round;">
</g>
<g style="fill:#FFFFFF; fill-opacity:1.0; 
stroke:#FFFFFF; stroke-width:0; stroke-opacity:1; 
stroke-linecap:round; stroke-linejoin:round;">
<circle cx="51362.3" cy="37731.5" r="68.8976" /> 
</g>
<g style="fill:#FFFFFF; fill-opacity:1.0; 
stroke:#FFFFFF; stroke-width:9.84252; stroke-opacity:1; 
stroke-linecap:round; stroke-linejoin:round;">
</g>
<g style="fill:#FFFFFF; fill-opacity:1.0; 
stroke:#FFFFFF; stroke-width:0; stroke-opacity:1; 
stroke-linecap:round; stroke-linejoin:round;">
<circle cx="51362.3" cy="36731.5" r="68.8976" /> 
</g>
<g style="fill:#FFFFFF; fill-opacity:1.0; 
stroke:#FFFFFF; stroke-width:9.84252; stroke-opacity:1; 
stroke-linecap:round; stroke-linejoin:round;">
</g>
<g style="fill:#FFFFFF; fill-opacity:1.0; 
stroke:#FFFFFF; stroke-width:0; stroke-opacity:1; 
stroke-linecap:round; stroke-linejoin:round;">
<circle cx="50362.3" cy="37731.5" r="68.8976" /> 
</g>
<g style="fill:#FFFFFF; fill-opacity:1.0; 
stroke:#FFFFFF; stroke-width:9.84252; stroke-opacity:1; 
stroke-linecap:round; stroke-linejoin:round;">
</g>
<g style="fill:#FFFFFF; fill-opacity:1.0; 
stroke:#FFFFFF; stroke-width:0; stroke-opacity:1; 
stroke-linecap:round; stroke-linejoin:round;">
<circle cx="50362.3" cy="36731.5" r="68.8976" /> 
</g>
<g style="fill:#FFFFFF; fill-opacity:1.0; 
stroke:#FFFFFF; stroke-width:9.84252; stroke-opacity:1; 
stroke-linecap:round; stroke-linejoin:round;">
</g>
<g style="fill:#FFFFFF; fill-opacity:1.0; 
stroke:#FFFFFF; stroke-width:0; stroke-opacity:1; 
stroke-linecap:round; stroke-linejoin:round;">
<circle cx="49362.3" cy="37731.5" r="68.8976" /> 
</g>
<g style="fill:#FFFFFF; fill-opacity:1.0; 
stroke:#FFFFFF; stroke-width:9.84252; stroke-opacity:1; 
stroke-linecap:round; stroke-linejoin:round;">
</g>
<g style="fill:#FFFFFF; fill-opacity:1.0; 
stroke:#FFFFFF; stroke-width:0; stroke-opacity:1; 
stroke-linecap:round; stroke-linejoin:round;">
<circle cx="49362.3" cy="36731.5" r="68.8976" /> 
</g>
<g style="fill:#FFFFFF; fill-opacity:1.0; 
stroke:#FFFFFF; stroke-width:9.84252; stroke-opacity:1; 
stroke-linecap:round; stroke-linejoin:round;">
</g>
<g style="fill:#FFFFFF; fill-opacity:1.0; 
stroke:#FFFFFF; stroke-width:0; stroke-opacity:1; 
stroke-linecap:round; stroke-linejoin:round;">
<circle cx="48362.3" cy="37731.5" r="68.8976" /> 
</g>
<g style="fill:#FFFFFF; fill-opacity:1.0; 
stroke:#FFFFFF; stroke-width:9.84252; stroke-opacity:1; 
stroke-linecap:round; stroke-linejoin:round;">
</g>
<g style="fill:#FFFFFF; fill-opacity:1.0; 
stroke:#FFFFFF; stroke-width:0; stroke-opacity:1; 
stroke-linecap:round; stroke-linejoin:round;">
<circle cx="48362.3" cy="36731.5" r="68.8976" /> 
</g>
<g style="fill:#FFFFFF; fill-opacity:1.0; 
stroke:#FFFFFF; stroke-width:9.84252; stroke-opacity:1; 
stroke-linecap:round; stroke-linejoin:round;">
</g>
<g style="fill:#FFFFFF; fill-opacity:1.0; 
stroke:#FFFFFF; stroke-width:0; stroke-opacity:1; 
stroke-linecap:round; stroke-linejoin:round;">
<circle cx="69378" cy="40873.2" r="68.8976" /> 
</g>
<g style="fill:#FFFFFF; fill-opacity:1.0; 
stroke:#FFFFFF; stroke-width:9.84252; stroke-opacity:1; 
stroke-linecap:round; stroke-linejoin:round;">
</g>
<g style="fill:#FFFFFF; fill-opacity:1.0; 
stroke:#FFFFFF; stroke-width:0; stroke-opacity:1; 
stroke-linecap:round; stroke-linejoin:round;">
<circle cx="69378" cy="42841.7" r="68.8976" /> 
</g>
<g style="fill:#FFFFFF; fill-opacity:1.0; 
stroke:#FFFFFF; stroke-width:9.84252; stroke-opacity:1; 
stroke-linecap:round; stroke-linejoin:round;">
</g>
<g style="fill:#FFFFFF; fill-opacity:1.0; 
stroke:#FFFFFF; stroke-width:0; stroke-opacity:1; 
stroke-linecap:round; stroke-linejoin:round;">
<circle cx="69279.6" cy="37231.5" r="68.8976" /> 
</g>
<g style="fill:#FFFFFF; fill-opacity:1.0; 
stroke:#FFFFFF; stroke-width:9.84252; stroke-opacity:1; 
stroke-linecap:round; stroke-linejoin:round;">
</g>
<g style="fill:#FFFFFF; fill-opacity:1.0; 
stroke:#FFFFFF; stroke-width:0; stroke-opacity:1; 
stroke-linecap:round; stroke-linejoin:round;">
<circle cx="46445" cy="37231.5" r="68.8976" /> 
</g>
<g style="fill:#FFFFFF; fill-opacity:1.0; 
stroke:#FFFFFF; stroke-width:9.84252; stroke-opacity:1; 
stroke-linecap:round; stroke-linejoin:round;">
</g>
<g style="fill:#FFFFFF; fill-opacity:1.0; 
stroke:#FFFFFF; stroke-width:0; stroke-opacity:1; 
stroke-linecap:round; stroke-linejoin:round;">
<circle cx="46445" cy="46286.6" r="68.8976" /> 
</g>
<g style="fill:#FFFFFF; fill-opacity:1.0; 
stroke:#FFFFFF; stroke-width:9.84252; stroke-opacity:1; 
stroke-linecap:round; stroke-linejoin:round;">
</g>
<g style="fill:#FFFFFF; fill-opacity:1.0; 
stroke:#FFFFFF; stroke-width:0; stroke-opacity:1; 
stroke-linecap:round; stroke-linejoin:round;">
<circle cx="69279.6" cy="46286.6" r="68.8976" /> 
</g>
<g style="fill:#FFFFFF; fill-opacity:1.0; 
stroke:#FFFFFF; stroke-width:9.84252; stroke-opacity:1; 
stroke-linecap:round; stroke-linejoin:round;">
</g>
<g style="fill:#000000; fill-opacity:1.0; 
stroke:#000000; stroke-width:9.84252; stroke-opacity:1; 
stroke-linecap:round; stroke-linejoin:round;">
</g> 
</svg>
