M48
INCH,TZ
T1C0.0157
T2C0.0295
T3C0.0394
T4C0.0512
T5C0.1063
%
G90
G05
T1
X53650Y-43406
X55200Y-45531
X58675Y-42681
X59850Y-43406
T2
X60950Y-45444
X60950Y-46231
X70350Y-39857
X70350Y-40644
X70350Y-41431
X70350Y-42219
X70350Y-43006
X70350Y-43794
X63250Y-45444
X63250Y-46231
X65550Y-45444
X65550Y-46231
X60850Y-39669
X60850Y-40457
X60850Y-41244
X60850Y-42031
X66450Y-39669
X66450Y-40457
X66450Y-41244
X66450Y-42031
X67850Y-44657
X67850Y-45444
X67850Y-46231
X63650Y-39669
X63650Y-40457
X63650Y-41244
X63650Y-42031
T3
X49568Y-36731
X49568Y-37731
X50568Y-36731
X50568Y-37731
X51568Y-36731
X51568Y-37731
X52568Y-36731
X52568Y-37731
X53568Y-36731
X53568Y-37731
X54568Y-36731
X54568Y-37731
X55568Y-36731
X55568Y-37731
X56568Y-36731
X56568Y-37731
X57568Y-36731
X57568Y-37731
X58568Y-36731
X58568Y-37731
X59568Y-36731
X59568Y-37731
X60568Y-36731
X60568Y-37731
X61568Y-36731
X61568Y-37731
X62568Y-36731
X62568Y-37731
X63568Y-36731
X63568Y-37731
X64568Y-36731
X64568Y-37731
X65568Y-36731
X65568Y-37731
X66568Y-36731
X66568Y-37731
X67568Y-36731
X67568Y-37731
X68568Y-36731
X68568Y-37731
X50150Y-46779
X51150Y-46779
X52150Y-46779
X53150Y-46779
X54150Y-46779
X55150Y-46779
X56150Y-46779
X57150Y-46779
X58150Y-46779
X59150Y-46779
T4
X48050Y-39863
X48050Y-41831
T5
X70485Y-46287
X47650Y-37231
X70485Y-37231
X47650Y-46287
T0
M30
