G04 #@! TF.GenerationSoftware,KiCad,Pcbnew,5.1.5+dfsg1-2build2*
G04 #@! TF.CreationDate,2020-05-27T11:23:31-04:00*
G04 #@! TF.ProjectId,pidroponic_uHAT,70696472-6f70-46f6-9e69-635f75484154,1.0*
G04 #@! TF.SameCoordinates,Original*
G04 #@! TF.FileFunction,Soldermask,Bot*
G04 #@! TF.FilePolarity,Negative*
%FSLAX46Y46*%
G04 Gerber Fmt 4.6, Leading zero omitted, Abs format (unit mm)*
G04 Created by KiCad (PCBNEW 5.1.5+dfsg1-2build2) date 2020-05-27 11:23:31*
%MOMM*%
%LPD*%
G04 APERTURE LIST*
%ADD10C,0.050000*%
G04 APERTURE END LIST*
D10*
G36*
X150342013Y-117919242D02*
G01*
X150504812Y-117951624D01*
X150668784Y-118019544D01*
X150816354Y-118118147D01*
X150941853Y-118243646D01*
X151040456Y-118391216D01*
X151108376Y-118555188D01*
X151143000Y-118729259D01*
X151143000Y-118906741D01*
X151108376Y-119080812D01*
X151040456Y-119244784D01*
X150941853Y-119392354D01*
X150816354Y-119517853D01*
X150668784Y-119616456D01*
X150504812Y-119684376D01*
X150355512Y-119714073D01*
X150330742Y-119719000D01*
X150153258Y-119719000D01*
X150128488Y-119714073D01*
X149979188Y-119684376D01*
X149815216Y-119616456D01*
X149667646Y-119517853D01*
X149542147Y-119392354D01*
X149443544Y-119244784D01*
X149375624Y-119080812D01*
X149341000Y-118906741D01*
X149341000Y-118729259D01*
X149375624Y-118555188D01*
X149443544Y-118391216D01*
X149542147Y-118243646D01*
X149667646Y-118118147D01*
X149815216Y-118019544D01*
X149979188Y-117951624D01*
X150141987Y-117919242D01*
X150153258Y-117917000D01*
X150330742Y-117917000D01*
X150342013Y-117919242D01*
G37*
G36*
X147802013Y-117919242D02*
G01*
X147964812Y-117951624D01*
X148128784Y-118019544D01*
X148276354Y-118118147D01*
X148401853Y-118243646D01*
X148500456Y-118391216D01*
X148568376Y-118555188D01*
X148603000Y-118729259D01*
X148603000Y-118906741D01*
X148568376Y-119080812D01*
X148500456Y-119244784D01*
X148401853Y-119392354D01*
X148276354Y-119517853D01*
X148128784Y-119616456D01*
X147964812Y-119684376D01*
X147815512Y-119714073D01*
X147790742Y-119719000D01*
X147613258Y-119719000D01*
X147588488Y-119714073D01*
X147439188Y-119684376D01*
X147275216Y-119616456D01*
X147127646Y-119517853D01*
X147002147Y-119392354D01*
X146903544Y-119244784D01*
X146835624Y-119080812D01*
X146801000Y-118906741D01*
X146801000Y-118729259D01*
X146835624Y-118555188D01*
X146903544Y-118391216D01*
X147002147Y-118243646D01*
X147127646Y-118118147D01*
X147275216Y-118019544D01*
X147439188Y-117951624D01*
X147601987Y-117919242D01*
X147613258Y-117917000D01*
X147790742Y-117917000D01*
X147802013Y-117919242D01*
G37*
G36*
X128283000Y-119719000D02*
G01*
X126481000Y-119719000D01*
X126481000Y-117917000D01*
X128283000Y-117917000D01*
X128283000Y-119719000D01*
G37*
G36*
X130022013Y-117919242D02*
G01*
X130184812Y-117951624D01*
X130348784Y-118019544D01*
X130496354Y-118118147D01*
X130621853Y-118243646D01*
X130720456Y-118391216D01*
X130788376Y-118555188D01*
X130823000Y-118729259D01*
X130823000Y-118906741D01*
X130788376Y-119080812D01*
X130720456Y-119244784D01*
X130621853Y-119392354D01*
X130496354Y-119517853D01*
X130348784Y-119616456D01*
X130184812Y-119684376D01*
X130035512Y-119714073D01*
X130010742Y-119719000D01*
X129833258Y-119719000D01*
X129808488Y-119714073D01*
X129659188Y-119684376D01*
X129495216Y-119616456D01*
X129347646Y-119517853D01*
X129222147Y-119392354D01*
X129123544Y-119244784D01*
X129055624Y-119080812D01*
X129021000Y-118906741D01*
X129021000Y-118729259D01*
X129055624Y-118555188D01*
X129123544Y-118391216D01*
X129222147Y-118243646D01*
X129347646Y-118118147D01*
X129495216Y-118019544D01*
X129659188Y-117951624D01*
X129821987Y-117919242D01*
X129833258Y-117917000D01*
X130010742Y-117917000D01*
X130022013Y-117919242D01*
G37*
G36*
X132562013Y-117919242D02*
G01*
X132724812Y-117951624D01*
X132888784Y-118019544D01*
X133036354Y-118118147D01*
X133161853Y-118243646D01*
X133260456Y-118391216D01*
X133328376Y-118555188D01*
X133363000Y-118729259D01*
X133363000Y-118906741D01*
X133328376Y-119080812D01*
X133260456Y-119244784D01*
X133161853Y-119392354D01*
X133036354Y-119517853D01*
X132888784Y-119616456D01*
X132724812Y-119684376D01*
X132575512Y-119714073D01*
X132550742Y-119719000D01*
X132373258Y-119719000D01*
X132348488Y-119714073D01*
X132199188Y-119684376D01*
X132035216Y-119616456D01*
X131887646Y-119517853D01*
X131762147Y-119392354D01*
X131663544Y-119244784D01*
X131595624Y-119080812D01*
X131561000Y-118906741D01*
X131561000Y-118729259D01*
X131595624Y-118555188D01*
X131663544Y-118391216D01*
X131762147Y-118243646D01*
X131887646Y-118118147D01*
X132035216Y-118019544D01*
X132199188Y-117951624D01*
X132361987Y-117919242D01*
X132373258Y-117917000D01*
X132550742Y-117917000D01*
X132562013Y-117919242D01*
G37*
G36*
X135102013Y-117919242D02*
G01*
X135264812Y-117951624D01*
X135428784Y-118019544D01*
X135576354Y-118118147D01*
X135701853Y-118243646D01*
X135800456Y-118391216D01*
X135868376Y-118555188D01*
X135903000Y-118729259D01*
X135903000Y-118906741D01*
X135868376Y-119080812D01*
X135800456Y-119244784D01*
X135701853Y-119392354D01*
X135576354Y-119517853D01*
X135428784Y-119616456D01*
X135264812Y-119684376D01*
X135115512Y-119714073D01*
X135090742Y-119719000D01*
X134913258Y-119719000D01*
X134888488Y-119714073D01*
X134739188Y-119684376D01*
X134575216Y-119616456D01*
X134427646Y-119517853D01*
X134302147Y-119392354D01*
X134203544Y-119244784D01*
X134135624Y-119080812D01*
X134101000Y-118906741D01*
X134101000Y-118729259D01*
X134135624Y-118555188D01*
X134203544Y-118391216D01*
X134302147Y-118243646D01*
X134427646Y-118118147D01*
X134575216Y-118019544D01*
X134739188Y-117951624D01*
X134901987Y-117919242D01*
X134913258Y-117917000D01*
X135090742Y-117917000D01*
X135102013Y-117919242D01*
G37*
G36*
X140182013Y-117919242D02*
G01*
X140344812Y-117951624D01*
X140508784Y-118019544D01*
X140656354Y-118118147D01*
X140781853Y-118243646D01*
X140880456Y-118391216D01*
X140948376Y-118555188D01*
X140983000Y-118729259D01*
X140983000Y-118906741D01*
X140948376Y-119080812D01*
X140880456Y-119244784D01*
X140781853Y-119392354D01*
X140656354Y-119517853D01*
X140508784Y-119616456D01*
X140344812Y-119684376D01*
X140195512Y-119714073D01*
X140170742Y-119719000D01*
X139993258Y-119719000D01*
X139968488Y-119714073D01*
X139819188Y-119684376D01*
X139655216Y-119616456D01*
X139507646Y-119517853D01*
X139382147Y-119392354D01*
X139283544Y-119244784D01*
X139215624Y-119080812D01*
X139181000Y-118906741D01*
X139181000Y-118729259D01*
X139215624Y-118555188D01*
X139283544Y-118391216D01*
X139382147Y-118243646D01*
X139507646Y-118118147D01*
X139655216Y-118019544D01*
X139819188Y-117951624D01*
X139981987Y-117919242D01*
X139993258Y-117917000D01*
X140170742Y-117917000D01*
X140182013Y-117919242D01*
G37*
G36*
X137642013Y-117919242D02*
G01*
X137804812Y-117951624D01*
X137968784Y-118019544D01*
X138116354Y-118118147D01*
X138241853Y-118243646D01*
X138340456Y-118391216D01*
X138408376Y-118555188D01*
X138443000Y-118729259D01*
X138443000Y-118906741D01*
X138408376Y-119080812D01*
X138340456Y-119244784D01*
X138241853Y-119392354D01*
X138116354Y-119517853D01*
X137968784Y-119616456D01*
X137804812Y-119684376D01*
X137655512Y-119714073D01*
X137630742Y-119719000D01*
X137453258Y-119719000D01*
X137428488Y-119714073D01*
X137279188Y-119684376D01*
X137115216Y-119616456D01*
X136967646Y-119517853D01*
X136842147Y-119392354D01*
X136743544Y-119244784D01*
X136675624Y-119080812D01*
X136641000Y-118906741D01*
X136641000Y-118729259D01*
X136675624Y-118555188D01*
X136743544Y-118391216D01*
X136842147Y-118243646D01*
X136967646Y-118118147D01*
X137115216Y-118019544D01*
X137279188Y-117951624D01*
X137441987Y-117919242D01*
X137453258Y-117917000D01*
X137630742Y-117917000D01*
X137642013Y-117919242D01*
G37*
G36*
X145262013Y-117919242D02*
G01*
X145424812Y-117951624D01*
X145588784Y-118019544D01*
X145736354Y-118118147D01*
X145861853Y-118243646D01*
X145960456Y-118391216D01*
X146028376Y-118555188D01*
X146063000Y-118729259D01*
X146063000Y-118906741D01*
X146028376Y-119080812D01*
X145960456Y-119244784D01*
X145861853Y-119392354D01*
X145736354Y-119517853D01*
X145588784Y-119616456D01*
X145424812Y-119684376D01*
X145275512Y-119714073D01*
X145250742Y-119719000D01*
X145073258Y-119719000D01*
X145048488Y-119714073D01*
X144899188Y-119684376D01*
X144735216Y-119616456D01*
X144587646Y-119517853D01*
X144462147Y-119392354D01*
X144363544Y-119244784D01*
X144295624Y-119080812D01*
X144261000Y-118906741D01*
X144261000Y-118729259D01*
X144295624Y-118555188D01*
X144363544Y-118391216D01*
X144462147Y-118243646D01*
X144587646Y-118118147D01*
X144735216Y-118019544D01*
X144899188Y-117951624D01*
X145061987Y-117919242D01*
X145073258Y-117917000D01*
X145250742Y-117917000D01*
X145262013Y-117919242D01*
G37*
G36*
X142722013Y-117919242D02*
G01*
X142884812Y-117951624D01*
X143048784Y-118019544D01*
X143196354Y-118118147D01*
X143321853Y-118243646D01*
X143420456Y-118391216D01*
X143488376Y-118555188D01*
X143523000Y-118729259D01*
X143523000Y-118906741D01*
X143488376Y-119080812D01*
X143420456Y-119244784D01*
X143321853Y-119392354D01*
X143196354Y-119517853D01*
X143048784Y-119616456D01*
X142884812Y-119684376D01*
X142735512Y-119714073D01*
X142710742Y-119719000D01*
X142533258Y-119719000D01*
X142508488Y-119714073D01*
X142359188Y-119684376D01*
X142195216Y-119616456D01*
X142047646Y-119517853D01*
X141922147Y-119392354D01*
X141823544Y-119244784D01*
X141755624Y-119080812D01*
X141721000Y-118906741D01*
X141721000Y-118729259D01*
X141755624Y-118555188D01*
X141823544Y-118391216D01*
X141922147Y-118243646D01*
X142047646Y-118118147D01*
X142195216Y-118019544D01*
X142359188Y-117951624D01*
X142521987Y-117919242D01*
X142533258Y-117917000D01*
X142710742Y-117917000D01*
X142722013Y-117919242D01*
G37*
G36*
X179350433Y-116202893D02*
G01*
X179440657Y-116220839D01*
X179546267Y-116264585D01*
X179695621Y-116326449D01*
X179695622Y-116326450D01*
X179925086Y-116479772D01*
X180120228Y-116674914D01*
X180188439Y-116777000D01*
X180273551Y-116904379D01*
X180333144Y-117048249D01*
X180379161Y-117159343D01*
X180433000Y-117430014D01*
X180433000Y-117705986D01*
X180379161Y-117976657D01*
X180369677Y-117999553D01*
X180273551Y-118231621D01*
X180273550Y-118231622D01*
X180120228Y-118461086D01*
X179925086Y-118656228D01*
X179771763Y-118758675D01*
X179695621Y-118809551D01*
X179546267Y-118871415D01*
X179440657Y-118915161D01*
X179350433Y-118933107D01*
X179169988Y-118969000D01*
X178894012Y-118969000D01*
X178713567Y-118933107D01*
X178623343Y-118915161D01*
X178517733Y-118871415D01*
X178368379Y-118809551D01*
X178292237Y-118758675D01*
X178138914Y-118656228D01*
X177943772Y-118461086D01*
X177790450Y-118231622D01*
X177790449Y-118231621D01*
X177694323Y-117999553D01*
X177684839Y-117976657D01*
X177631000Y-117705986D01*
X177631000Y-117430014D01*
X177684839Y-117159343D01*
X177730856Y-117048249D01*
X177790449Y-116904379D01*
X177875561Y-116777000D01*
X177943772Y-116674914D01*
X178138914Y-116479772D01*
X178368378Y-116326450D01*
X178368379Y-116326449D01*
X178517733Y-116264585D01*
X178623343Y-116220839D01*
X178713567Y-116202893D01*
X178894012Y-116167000D01*
X179169988Y-116167000D01*
X179350433Y-116202893D01*
G37*
G36*
X121350433Y-116202893D02*
G01*
X121440657Y-116220839D01*
X121546267Y-116264585D01*
X121695621Y-116326449D01*
X121695622Y-116326450D01*
X121925086Y-116479772D01*
X122120228Y-116674914D01*
X122188439Y-116777000D01*
X122273551Y-116904379D01*
X122333144Y-117048249D01*
X122379161Y-117159343D01*
X122433000Y-117430014D01*
X122433000Y-117705986D01*
X122379161Y-117976657D01*
X122369677Y-117999553D01*
X122273551Y-118231621D01*
X122273550Y-118231622D01*
X122120228Y-118461086D01*
X121925086Y-118656228D01*
X121771763Y-118758675D01*
X121695621Y-118809551D01*
X121546267Y-118871415D01*
X121440657Y-118915161D01*
X121350433Y-118933107D01*
X121169988Y-118969000D01*
X120894012Y-118969000D01*
X120713567Y-118933107D01*
X120623343Y-118915161D01*
X120517733Y-118871415D01*
X120368379Y-118809551D01*
X120292237Y-118758675D01*
X120138914Y-118656228D01*
X119943772Y-118461086D01*
X119790450Y-118231622D01*
X119790449Y-118231621D01*
X119694323Y-117999553D01*
X119684839Y-117976657D01*
X119631000Y-117705986D01*
X119631000Y-117430014D01*
X119684839Y-117159343D01*
X119730856Y-117048249D01*
X119790449Y-116904379D01*
X119875561Y-116777000D01*
X119943772Y-116674914D01*
X120138914Y-116479772D01*
X120368378Y-116326450D01*
X120368379Y-116326449D01*
X120517733Y-116264585D01*
X120623343Y-116220839D01*
X120713567Y-116202893D01*
X120894012Y-116167000D01*
X121169988Y-116167000D01*
X121350433Y-116202893D01*
G37*
G36*
X173106242Y-116781404D02*
G01*
X173143337Y-116792657D01*
X173177515Y-116810925D01*
X173207481Y-116835519D01*
X173232075Y-116865485D01*
X173250343Y-116899663D01*
X173261596Y-116936758D01*
X173266000Y-116981474D01*
X173266000Y-117874526D01*
X173261596Y-117919242D01*
X173250343Y-117956337D01*
X173232075Y-117990515D01*
X173207481Y-118020481D01*
X173177515Y-118045075D01*
X173143337Y-118063343D01*
X173106242Y-118074596D01*
X173061526Y-118079000D01*
X171618474Y-118079000D01*
X171573758Y-118074596D01*
X171536663Y-118063343D01*
X171502485Y-118045075D01*
X171472519Y-118020481D01*
X171447925Y-117990515D01*
X171429657Y-117956337D01*
X171418404Y-117919242D01*
X171414000Y-117874526D01*
X171414000Y-116981474D01*
X171418404Y-116936758D01*
X171429657Y-116899663D01*
X171447925Y-116865485D01*
X171472519Y-116835519D01*
X171502485Y-116810925D01*
X171536663Y-116792657D01*
X171573758Y-116781404D01*
X171618474Y-116777000D01*
X173061526Y-116777000D01*
X173106242Y-116781404D01*
G37*
G36*
X167264242Y-116781404D02*
G01*
X167301337Y-116792657D01*
X167335515Y-116810925D01*
X167365481Y-116835519D01*
X167390075Y-116865485D01*
X167408343Y-116899663D01*
X167419596Y-116936758D01*
X167424000Y-116981474D01*
X167424000Y-117874526D01*
X167419596Y-117919242D01*
X167408343Y-117956337D01*
X167390075Y-117990515D01*
X167365481Y-118020481D01*
X167335515Y-118045075D01*
X167301337Y-118063343D01*
X167264242Y-118074596D01*
X167219526Y-118079000D01*
X165776474Y-118079000D01*
X165731758Y-118074596D01*
X165694663Y-118063343D01*
X165660485Y-118045075D01*
X165630519Y-118020481D01*
X165605925Y-117990515D01*
X165587657Y-117956337D01*
X165576404Y-117919242D01*
X165572000Y-117874526D01*
X165572000Y-116981474D01*
X165576404Y-116936758D01*
X165587657Y-116899663D01*
X165605925Y-116865485D01*
X165630519Y-116835519D01*
X165660485Y-116810925D01*
X165694663Y-116792657D01*
X165731758Y-116781404D01*
X165776474Y-116777000D01*
X167219526Y-116777000D01*
X167264242Y-116781404D01*
G37*
G36*
X161422242Y-116781404D02*
G01*
X161459337Y-116792657D01*
X161493515Y-116810925D01*
X161523481Y-116835519D01*
X161548075Y-116865485D01*
X161566343Y-116899663D01*
X161577596Y-116936758D01*
X161582000Y-116981474D01*
X161582000Y-117874526D01*
X161577596Y-117919242D01*
X161566343Y-117956337D01*
X161548075Y-117990515D01*
X161523481Y-118020481D01*
X161493515Y-118045075D01*
X161459337Y-118063343D01*
X161422242Y-118074596D01*
X161377526Y-118079000D01*
X159934474Y-118079000D01*
X159889758Y-118074596D01*
X159852663Y-118063343D01*
X159818485Y-118045075D01*
X159788519Y-118020481D01*
X159763925Y-117990515D01*
X159745657Y-117956337D01*
X159734404Y-117919242D01*
X159730000Y-117874526D01*
X159730000Y-116981474D01*
X159734404Y-116936758D01*
X159745657Y-116899663D01*
X159763925Y-116865485D01*
X159788519Y-116835519D01*
X159818485Y-116810925D01*
X159852663Y-116792657D01*
X159889758Y-116781404D01*
X159934474Y-116777000D01*
X161377526Y-116777000D01*
X161422242Y-116781404D01*
G37*
G36*
X155580242Y-116781404D02*
G01*
X155617337Y-116792657D01*
X155651515Y-116810925D01*
X155681481Y-116835519D01*
X155706075Y-116865485D01*
X155724343Y-116899663D01*
X155735596Y-116936758D01*
X155740000Y-116981474D01*
X155740000Y-117874526D01*
X155735596Y-117919242D01*
X155724343Y-117956337D01*
X155706075Y-117990515D01*
X155681481Y-118020481D01*
X155651515Y-118045075D01*
X155617337Y-118063343D01*
X155580242Y-118074596D01*
X155535526Y-118079000D01*
X154092474Y-118079000D01*
X154047758Y-118074596D01*
X154010663Y-118063343D01*
X153976485Y-118045075D01*
X153946519Y-118020481D01*
X153921925Y-117990515D01*
X153903657Y-117956337D01*
X153892404Y-117919242D01*
X153888000Y-117874526D01*
X153888000Y-116981474D01*
X153892404Y-116936758D01*
X153903657Y-116899663D01*
X153921925Y-116865485D01*
X153946519Y-116835519D01*
X153976485Y-116810925D01*
X154010663Y-116792657D01*
X154047758Y-116781404D01*
X154092474Y-116777000D01*
X155535526Y-116777000D01*
X155580242Y-116781404D01*
G37*
G36*
X150826468Y-115418565D02*
G01*
X150865138Y-115430296D01*
X150900777Y-115449346D01*
X150932017Y-115474983D01*
X150957654Y-115506223D01*
X150976704Y-115541862D01*
X150988435Y-115580532D01*
X150993000Y-115626888D01*
X150993000Y-116278112D01*
X150988435Y-116324468D01*
X150976704Y-116363138D01*
X150957654Y-116398777D01*
X150932017Y-116430017D01*
X150900777Y-116455654D01*
X150865138Y-116474704D01*
X150826468Y-116486435D01*
X150780112Y-116491000D01*
X149703888Y-116491000D01*
X149657532Y-116486435D01*
X149618862Y-116474704D01*
X149583223Y-116455654D01*
X149551983Y-116430017D01*
X149526346Y-116398777D01*
X149507296Y-116363138D01*
X149495565Y-116324468D01*
X149491000Y-116278112D01*
X149491000Y-115626888D01*
X149495565Y-115580532D01*
X149507296Y-115541862D01*
X149526346Y-115506223D01*
X149551983Y-115474983D01*
X149583223Y-115449346D01*
X149618862Y-115430296D01*
X149657532Y-115418565D01*
X149703888Y-115414000D01*
X150780112Y-115414000D01*
X150826468Y-115418565D01*
G37*
G36*
X145746468Y-115418565D02*
G01*
X145785138Y-115430296D01*
X145820777Y-115449346D01*
X145852017Y-115474983D01*
X145877654Y-115506223D01*
X145896704Y-115541862D01*
X145908435Y-115580532D01*
X145913000Y-115626888D01*
X145913000Y-116278112D01*
X145908435Y-116324468D01*
X145896704Y-116363138D01*
X145877654Y-116398777D01*
X145852017Y-116430017D01*
X145820777Y-116455654D01*
X145785138Y-116474704D01*
X145746468Y-116486435D01*
X145700112Y-116491000D01*
X144623888Y-116491000D01*
X144577532Y-116486435D01*
X144538862Y-116474704D01*
X144503223Y-116455654D01*
X144471983Y-116430017D01*
X144446346Y-116398777D01*
X144427296Y-116363138D01*
X144415565Y-116324468D01*
X144411000Y-116278112D01*
X144411000Y-115626888D01*
X144415565Y-115580532D01*
X144427296Y-115541862D01*
X144446346Y-115506223D01*
X144471983Y-115474983D01*
X144503223Y-115449346D01*
X144538862Y-115430296D01*
X144577532Y-115418565D01*
X144623888Y-115414000D01*
X145700112Y-115414000D01*
X145746468Y-115418565D01*
G37*
G36*
X148286468Y-115418565D02*
G01*
X148325138Y-115430296D01*
X148360777Y-115449346D01*
X148392017Y-115474983D01*
X148417654Y-115506223D01*
X148436704Y-115541862D01*
X148448435Y-115580532D01*
X148453000Y-115626888D01*
X148453000Y-116278112D01*
X148448435Y-116324468D01*
X148436704Y-116363138D01*
X148417654Y-116398777D01*
X148392017Y-116430017D01*
X148360777Y-116455654D01*
X148325138Y-116474704D01*
X148286468Y-116486435D01*
X148240112Y-116491000D01*
X147163888Y-116491000D01*
X147117532Y-116486435D01*
X147078862Y-116474704D01*
X147043223Y-116455654D01*
X147011983Y-116430017D01*
X146986346Y-116398777D01*
X146967296Y-116363138D01*
X146955565Y-116324468D01*
X146951000Y-116278112D01*
X146951000Y-115626888D01*
X146955565Y-115580532D01*
X146967296Y-115541862D01*
X146986346Y-115506223D01*
X147011983Y-115474983D01*
X147043223Y-115449346D01*
X147078862Y-115430296D01*
X147117532Y-115418565D01*
X147163888Y-115414000D01*
X148240112Y-115414000D01*
X148286468Y-115418565D01*
G37*
G36*
X160994855Y-114780140D02*
G01*
X161058618Y-114786420D01*
X161149404Y-114813960D01*
X161181336Y-114823646D01*
X161294425Y-114884094D01*
X161393554Y-114965446D01*
X161474906Y-115064575D01*
X161535354Y-115177664D01*
X161535355Y-115177668D01*
X161572580Y-115300382D01*
X161585149Y-115428000D01*
X161572580Y-115555618D01*
X161565119Y-115580212D01*
X161535354Y-115678336D01*
X161474906Y-115791425D01*
X161393554Y-115890554D01*
X161294425Y-115971906D01*
X161181336Y-116032354D01*
X161149404Y-116042040D01*
X161058618Y-116069580D01*
X160994855Y-116075860D01*
X160962974Y-116079000D01*
X160349026Y-116079000D01*
X160317145Y-116075860D01*
X160253382Y-116069580D01*
X160162596Y-116042040D01*
X160130664Y-116032354D01*
X160017575Y-115971906D01*
X159918446Y-115890554D01*
X159837094Y-115791425D01*
X159776646Y-115678336D01*
X159746881Y-115580212D01*
X159739420Y-115555618D01*
X159726851Y-115428000D01*
X159739420Y-115300382D01*
X159776645Y-115177668D01*
X159776646Y-115177664D01*
X159837094Y-115064575D01*
X159918446Y-114965446D01*
X160017575Y-114884094D01*
X160130664Y-114823646D01*
X160162596Y-114813960D01*
X160253382Y-114786420D01*
X160317145Y-114780140D01*
X160349026Y-114777000D01*
X160962974Y-114777000D01*
X160994855Y-114780140D01*
G37*
G36*
X166836855Y-114780140D02*
G01*
X166900618Y-114786420D01*
X166991404Y-114813960D01*
X167023336Y-114823646D01*
X167136425Y-114884094D01*
X167235554Y-114965446D01*
X167316906Y-115064575D01*
X167377354Y-115177664D01*
X167377355Y-115177668D01*
X167414580Y-115300382D01*
X167427149Y-115428000D01*
X167414580Y-115555618D01*
X167407119Y-115580212D01*
X167377354Y-115678336D01*
X167316906Y-115791425D01*
X167235554Y-115890554D01*
X167136425Y-115971906D01*
X167023336Y-116032354D01*
X166991404Y-116042040D01*
X166900618Y-116069580D01*
X166836855Y-116075860D01*
X166804974Y-116079000D01*
X166191026Y-116079000D01*
X166159145Y-116075860D01*
X166095382Y-116069580D01*
X166004596Y-116042040D01*
X165972664Y-116032354D01*
X165859575Y-115971906D01*
X165760446Y-115890554D01*
X165679094Y-115791425D01*
X165618646Y-115678336D01*
X165588881Y-115580212D01*
X165581420Y-115555618D01*
X165568851Y-115428000D01*
X165581420Y-115300382D01*
X165618645Y-115177668D01*
X165618646Y-115177664D01*
X165679094Y-115064575D01*
X165760446Y-114965446D01*
X165859575Y-114884094D01*
X165972664Y-114823646D01*
X166004596Y-114813960D01*
X166095382Y-114786420D01*
X166159145Y-114780140D01*
X166191026Y-114777000D01*
X166804974Y-114777000D01*
X166836855Y-114780140D01*
G37*
G36*
X172678855Y-114780140D02*
G01*
X172742618Y-114786420D01*
X172833404Y-114813960D01*
X172865336Y-114823646D01*
X172978425Y-114884094D01*
X173077554Y-114965446D01*
X173158906Y-115064575D01*
X173219354Y-115177664D01*
X173219355Y-115177668D01*
X173256580Y-115300382D01*
X173269149Y-115428000D01*
X173256580Y-115555618D01*
X173249119Y-115580212D01*
X173219354Y-115678336D01*
X173158906Y-115791425D01*
X173077554Y-115890554D01*
X172978425Y-115971906D01*
X172865336Y-116032354D01*
X172833404Y-116042040D01*
X172742618Y-116069580D01*
X172678855Y-116075860D01*
X172646974Y-116079000D01*
X172033026Y-116079000D01*
X172001145Y-116075860D01*
X171937382Y-116069580D01*
X171846596Y-116042040D01*
X171814664Y-116032354D01*
X171701575Y-115971906D01*
X171602446Y-115890554D01*
X171521094Y-115791425D01*
X171460646Y-115678336D01*
X171430881Y-115580212D01*
X171423420Y-115555618D01*
X171410851Y-115428000D01*
X171423420Y-115300382D01*
X171460645Y-115177668D01*
X171460646Y-115177664D01*
X171521094Y-115064575D01*
X171602446Y-114965446D01*
X171701575Y-114884094D01*
X171814664Y-114823646D01*
X171846596Y-114813960D01*
X171937382Y-114786420D01*
X172001145Y-114780140D01*
X172033026Y-114777000D01*
X172646974Y-114777000D01*
X172678855Y-114780140D01*
G37*
G36*
X155152855Y-114780140D02*
G01*
X155216618Y-114786420D01*
X155307404Y-114813960D01*
X155339336Y-114823646D01*
X155452425Y-114884094D01*
X155551554Y-114965446D01*
X155632906Y-115064575D01*
X155693354Y-115177664D01*
X155693355Y-115177668D01*
X155730580Y-115300382D01*
X155743149Y-115428000D01*
X155730580Y-115555618D01*
X155723119Y-115580212D01*
X155693354Y-115678336D01*
X155632906Y-115791425D01*
X155551554Y-115890554D01*
X155452425Y-115971906D01*
X155339336Y-116032354D01*
X155307404Y-116042040D01*
X155216618Y-116069580D01*
X155152855Y-116075860D01*
X155120974Y-116079000D01*
X154507026Y-116079000D01*
X154475145Y-116075860D01*
X154411382Y-116069580D01*
X154320596Y-116042040D01*
X154288664Y-116032354D01*
X154175575Y-115971906D01*
X154076446Y-115890554D01*
X153995094Y-115791425D01*
X153934646Y-115678336D01*
X153904881Y-115580212D01*
X153897420Y-115555618D01*
X153884851Y-115428000D01*
X153897420Y-115300382D01*
X153934645Y-115177668D01*
X153934646Y-115177664D01*
X153995094Y-115064575D01*
X154076446Y-114965446D01*
X154175575Y-114884094D01*
X154288664Y-114823646D01*
X154320596Y-114813960D01*
X154411382Y-114786420D01*
X154475145Y-114780140D01*
X154507026Y-114777000D01*
X155120974Y-114777000D01*
X155152855Y-114780140D01*
G37*
G36*
X148286468Y-113543565D02*
G01*
X148325138Y-113555296D01*
X148360777Y-113574346D01*
X148392017Y-113599983D01*
X148417654Y-113631223D01*
X148436704Y-113666862D01*
X148448435Y-113705532D01*
X148453000Y-113751888D01*
X148453000Y-114403112D01*
X148448435Y-114449468D01*
X148436704Y-114488138D01*
X148417654Y-114523777D01*
X148392017Y-114555017D01*
X148360777Y-114580654D01*
X148325138Y-114599704D01*
X148286468Y-114611435D01*
X148240112Y-114616000D01*
X147163888Y-114616000D01*
X147117532Y-114611435D01*
X147078862Y-114599704D01*
X147043223Y-114580654D01*
X147011983Y-114555017D01*
X146986346Y-114523777D01*
X146967296Y-114488138D01*
X146955565Y-114449468D01*
X146951000Y-114403112D01*
X146951000Y-113751888D01*
X146955565Y-113705532D01*
X146967296Y-113666862D01*
X146986346Y-113631223D01*
X147011983Y-113599983D01*
X147043223Y-113574346D01*
X147078862Y-113555296D01*
X147117532Y-113543565D01*
X147163888Y-113539000D01*
X148240112Y-113539000D01*
X148286468Y-113543565D01*
G37*
G36*
X150826468Y-113543565D02*
G01*
X150865138Y-113555296D01*
X150900777Y-113574346D01*
X150932017Y-113599983D01*
X150957654Y-113631223D01*
X150976704Y-113666862D01*
X150988435Y-113705532D01*
X150993000Y-113751888D01*
X150993000Y-114403112D01*
X150988435Y-114449468D01*
X150976704Y-114488138D01*
X150957654Y-114523777D01*
X150932017Y-114555017D01*
X150900777Y-114580654D01*
X150865138Y-114599704D01*
X150826468Y-114611435D01*
X150780112Y-114616000D01*
X149703888Y-114616000D01*
X149657532Y-114611435D01*
X149618862Y-114599704D01*
X149583223Y-114580654D01*
X149551983Y-114555017D01*
X149526346Y-114523777D01*
X149507296Y-114488138D01*
X149495565Y-114449468D01*
X149491000Y-114403112D01*
X149491000Y-113751888D01*
X149495565Y-113705532D01*
X149507296Y-113666862D01*
X149526346Y-113631223D01*
X149551983Y-113599983D01*
X149583223Y-113574346D01*
X149618862Y-113555296D01*
X149657532Y-113543565D01*
X149703888Y-113539000D01*
X150780112Y-113539000D01*
X150826468Y-113543565D01*
G37*
G36*
X145746468Y-113543565D02*
G01*
X145785138Y-113555296D01*
X145820777Y-113574346D01*
X145852017Y-113599983D01*
X145877654Y-113631223D01*
X145896704Y-113666862D01*
X145908435Y-113705532D01*
X145913000Y-113751888D01*
X145913000Y-114403112D01*
X145908435Y-114449468D01*
X145896704Y-114488138D01*
X145877654Y-114523777D01*
X145852017Y-114555017D01*
X145820777Y-114580654D01*
X145785138Y-114599704D01*
X145746468Y-114611435D01*
X145700112Y-114616000D01*
X144623888Y-114616000D01*
X144577532Y-114611435D01*
X144538862Y-114599704D01*
X144503223Y-114580654D01*
X144471983Y-114555017D01*
X144446346Y-114523777D01*
X144427296Y-114488138D01*
X144415565Y-114449468D01*
X144411000Y-114403112D01*
X144411000Y-113751888D01*
X144415565Y-113705532D01*
X144427296Y-113666862D01*
X144446346Y-113631223D01*
X144471983Y-113599983D01*
X144503223Y-113574346D01*
X144538862Y-113555296D01*
X144577532Y-113543565D01*
X144623888Y-113539000D01*
X145700112Y-113539000D01*
X145746468Y-113543565D01*
G37*
G36*
X172678855Y-112780140D02*
G01*
X172742618Y-112786420D01*
X172833404Y-112813960D01*
X172865336Y-112823646D01*
X172978425Y-112884094D01*
X173077554Y-112965446D01*
X173158906Y-113064575D01*
X173219354Y-113177664D01*
X173219355Y-113177668D01*
X173256580Y-113300382D01*
X173269149Y-113428000D01*
X173256580Y-113555618D01*
X173247856Y-113584377D01*
X173219354Y-113678336D01*
X173158906Y-113791425D01*
X173077554Y-113890554D01*
X172978425Y-113971906D01*
X172865336Y-114032354D01*
X172833404Y-114042040D01*
X172742618Y-114069580D01*
X172678855Y-114075860D01*
X172646974Y-114079000D01*
X172033026Y-114079000D01*
X172001145Y-114075860D01*
X171937382Y-114069580D01*
X171846596Y-114042040D01*
X171814664Y-114032354D01*
X171701575Y-113971906D01*
X171602446Y-113890554D01*
X171521094Y-113791425D01*
X171460646Y-113678336D01*
X171432144Y-113584377D01*
X171423420Y-113555618D01*
X171410851Y-113428000D01*
X171423420Y-113300382D01*
X171460645Y-113177668D01*
X171460646Y-113177664D01*
X171521094Y-113064575D01*
X171602446Y-112965446D01*
X171701575Y-112884094D01*
X171814664Y-112823646D01*
X171846596Y-112813960D01*
X171937382Y-112786420D01*
X172001145Y-112780140D01*
X172033026Y-112777000D01*
X172646974Y-112777000D01*
X172678855Y-112780140D01*
G37*
G36*
X179456242Y-110589404D02*
G01*
X179493337Y-110600657D01*
X179527515Y-110618925D01*
X179557481Y-110643519D01*
X179582075Y-110673485D01*
X179600343Y-110707663D01*
X179611596Y-110744758D01*
X179616000Y-110789474D01*
X179616000Y-111682526D01*
X179611596Y-111727242D01*
X179600343Y-111764337D01*
X179582075Y-111798515D01*
X179557481Y-111828481D01*
X179527515Y-111853075D01*
X179493337Y-111871343D01*
X179456242Y-111882596D01*
X179411526Y-111887000D01*
X177968474Y-111887000D01*
X177923758Y-111882596D01*
X177886663Y-111871343D01*
X177852485Y-111853075D01*
X177822519Y-111828481D01*
X177797925Y-111798515D01*
X177779657Y-111764337D01*
X177768404Y-111727242D01*
X177764000Y-111682526D01*
X177764000Y-110789474D01*
X177768404Y-110744758D01*
X177779657Y-110707663D01*
X177797925Y-110673485D01*
X177822519Y-110643519D01*
X177852485Y-110618925D01*
X177886663Y-110600657D01*
X177923758Y-110589404D01*
X177968474Y-110585000D01*
X179411526Y-110585000D01*
X179456242Y-110589404D01*
G37*
G36*
X179028855Y-108588140D02*
G01*
X179092618Y-108594420D01*
X179164212Y-108616138D01*
X179215336Y-108631646D01*
X179328425Y-108692094D01*
X179427554Y-108773446D01*
X179508906Y-108872575D01*
X179569354Y-108985664D01*
X179569355Y-108985668D01*
X179606580Y-109108382D01*
X179619149Y-109236000D01*
X179606580Y-109363618D01*
X179579040Y-109454404D01*
X179569354Y-109486336D01*
X179508906Y-109599425D01*
X179427554Y-109698554D01*
X179328425Y-109779906D01*
X179215336Y-109840354D01*
X179183404Y-109850040D01*
X179092618Y-109877580D01*
X179028855Y-109883860D01*
X178996974Y-109887000D01*
X178383026Y-109887000D01*
X178351145Y-109883860D01*
X178287382Y-109877580D01*
X178196596Y-109850040D01*
X178164664Y-109840354D01*
X178051575Y-109779906D01*
X177952446Y-109698554D01*
X177871094Y-109599425D01*
X177810646Y-109486336D01*
X177800960Y-109454404D01*
X177773420Y-109363618D01*
X177760851Y-109236000D01*
X177773420Y-109108382D01*
X177810645Y-108985668D01*
X177810646Y-108985664D01*
X177871094Y-108872575D01*
X177952446Y-108773446D01*
X178051575Y-108692094D01*
X178164664Y-108631646D01*
X178215788Y-108616138D01*
X178287382Y-108594420D01*
X178351145Y-108588140D01*
X178383026Y-108585000D01*
X178996974Y-108585000D01*
X179028855Y-108588140D01*
G37*
G36*
X152604468Y-107750065D02*
G01*
X152643138Y-107761796D01*
X152678777Y-107780846D01*
X152710017Y-107806483D01*
X152735654Y-107837723D01*
X152754704Y-107873362D01*
X152766435Y-107912032D01*
X152771000Y-107958388D01*
X152771000Y-108609612D01*
X152766435Y-108655968D01*
X152754704Y-108694638D01*
X152735654Y-108730277D01*
X152710017Y-108761517D01*
X152678777Y-108787154D01*
X152643138Y-108806204D01*
X152604468Y-108817935D01*
X152558112Y-108822500D01*
X151481888Y-108822500D01*
X151435532Y-108817935D01*
X151396862Y-108806204D01*
X151361223Y-108787154D01*
X151329983Y-108761517D01*
X151304346Y-108730277D01*
X151285296Y-108694638D01*
X151273565Y-108655968D01*
X151269000Y-108609612D01*
X151269000Y-107958388D01*
X151273565Y-107912032D01*
X151285296Y-107873362D01*
X151304346Y-107837723D01*
X151329983Y-107806483D01*
X151361223Y-107780846D01*
X151396862Y-107761796D01*
X151435532Y-107750065D01*
X151481888Y-107745500D01*
X152558112Y-107745500D01*
X152604468Y-107750065D01*
G37*
G36*
X166828468Y-107671565D02*
G01*
X166867138Y-107683296D01*
X166902777Y-107702346D01*
X166934017Y-107727983D01*
X166959654Y-107759223D01*
X166978704Y-107794862D01*
X166990435Y-107833532D01*
X166995000Y-107879888D01*
X166995000Y-108531112D01*
X166990435Y-108577468D01*
X166978704Y-108616138D01*
X166959654Y-108651777D01*
X166934017Y-108683017D01*
X166902777Y-108708654D01*
X166867138Y-108727704D01*
X166828468Y-108739435D01*
X166782112Y-108744000D01*
X165705888Y-108744000D01*
X165659532Y-108739435D01*
X165620862Y-108727704D01*
X165585223Y-108708654D01*
X165553983Y-108683017D01*
X165528346Y-108651777D01*
X165509296Y-108616138D01*
X165497565Y-108577468D01*
X165493000Y-108531112D01*
X165493000Y-107879888D01*
X165497565Y-107833532D01*
X165509296Y-107794862D01*
X165528346Y-107759223D01*
X165553983Y-107727983D01*
X165585223Y-107702346D01*
X165620862Y-107683296D01*
X165659532Y-107671565D01*
X165705888Y-107667000D01*
X166782112Y-107667000D01*
X166828468Y-107671565D01*
G37*
G36*
X159716468Y-107593065D02*
G01*
X159755138Y-107604796D01*
X159790777Y-107623846D01*
X159822017Y-107649483D01*
X159847654Y-107680723D01*
X159866704Y-107716362D01*
X159878435Y-107755032D01*
X159883000Y-107801388D01*
X159883000Y-108452612D01*
X159878435Y-108498968D01*
X159866704Y-108537638D01*
X159847654Y-108573277D01*
X159822017Y-108604517D01*
X159790777Y-108630154D01*
X159755138Y-108649204D01*
X159716468Y-108660935D01*
X159670112Y-108665500D01*
X158593888Y-108665500D01*
X158547532Y-108660935D01*
X158508862Y-108649204D01*
X158473223Y-108630154D01*
X158441983Y-108604517D01*
X158416346Y-108573277D01*
X158397296Y-108537638D01*
X158385565Y-108498968D01*
X158381000Y-108452612D01*
X158381000Y-107801388D01*
X158385565Y-107755032D01*
X158397296Y-107716362D01*
X158416346Y-107680723D01*
X158441983Y-107649483D01*
X158473223Y-107623846D01*
X158508862Y-107604796D01*
X158547532Y-107593065D01*
X158593888Y-107588500D01*
X159670112Y-107588500D01*
X159716468Y-107593065D01*
G37*
G36*
X179028855Y-106588140D02*
G01*
X179092618Y-106594420D01*
X179183404Y-106621960D01*
X179215336Y-106631646D01*
X179328425Y-106692094D01*
X179427554Y-106773446D01*
X179508906Y-106872575D01*
X179569354Y-106985664D01*
X179569355Y-106985668D01*
X179606580Y-107108382D01*
X179619149Y-107236000D01*
X179606580Y-107363618D01*
X179579040Y-107454404D01*
X179569354Y-107486336D01*
X179508906Y-107599425D01*
X179427554Y-107698554D01*
X179328425Y-107779906D01*
X179215336Y-107840354D01*
X179183404Y-107850040D01*
X179092618Y-107877580D01*
X179030256Y-107883722D01*
X178996974Y-107887000D01*
X178383026Y-107887000D01*
X178349744Y-107883722D01*
X178287382Y-107877580D01*
X178196596Y-107850040D01*
X178164664Y-107840354D01*
X178051575Y-107779906D01*
X177952446Y-107698554D01*
X177871094Y-107599425D01*
X177810646Y-107486336D01*
X177800960Y-107454404D01*
X177773420Y-107363618D01*
X177760851Y-107236000D01*
X177773420Y-107108382D01*
X177810645Y-106985668D01*
X177810646Y-106985664D01*
X177871094Y-106872575D01*
X177952446Y-106773446D01*
X178051575Y-106692094D01*
X178164664Y-106631646D01*
X178196596Y-106621960D01*
X178287382Y-106594420D01*
X178351145Y-106588140D01*
X178383026Y-106585000D01*
X178996974Y-106585000D01*
X179028855Y-106588140D01*
G37*
G36*
X123399000Y-107603000D02*
G01*
X120697000Y-107603000D01*
X120697000Y-104901000D01*
X123399000Y-104901000D01*
X123399000Y-107603000D01*
G37*
G36*
X155326242Y-106113404D02*
G01*
X155363337Y-106124657D01*
X155397515Y-106142925D01*
X155427481Y-106167519D01*
X155452075Y-106197485D01*
X155470343Y-106231663D01*
X155481596Y-106268758D01*
X155486000Y-106313474D01*
X155486000Y-107206526D01*
X155481596Y-107251242D01*
X155470343Y-107288337D01*
X155452075Y-107322515D01*
X155427481Y-107352481D01*
X155397515Y-107377075D01*
X155363337Y-107395343D01*
X155326242Y-107406596D01*
X155281526Y-107411000D01*
X153838474Y-107411000D01*
X153793758Y-107406596D01*
X153756663Y-107395343D01*
X153722485Y-107377075D01*
X153692519Y-107352481D01*
X153667925Y-107322515D01*
X153649657Y-107288337D01*
X153638404Y-107251242D01*
X153634000Y-107206526D01*
X153634000Y-106313474D01*
X153638404Y-106268758D01*
X153649657Y-106231663D01*
X153667925Y-106197485D01*
X153692519Y-106167519D01*
X153722485Y-106142925D01*
X153756663Y-106124657D01*
X153793758Y-106113404D01*
X153838474Y-106109000D01*
X155281526Y-106109000D01*
X155326242Y-106113404D01*
G37*
G36*
X162438242Y-106113404D02*
G01*
X162475337Y-106124657D01*
X162509515Y-106142925D01*
X162539481Y-106167519D01*
X162564075Y-106197485D01*
X162582343Y-106231663D01*
X162593596Y-106268758D01*
X162598000Y-106313474D01*
X162598000Y-107206526D01*
X162593596Y-107251242D01*
X162582343Y-107288337D01*
X162564075Y-107322515D01*
X162539481Y-107352481D01*
X162509515Y-107377075D01*
X162475337Y-107395343D01*
X162438242Y-107406596D01*
X162393526Y-107411000D01*
X160950474Y-107411000D01*
X160905758Y-107406596D01*
X160868663Y-107395343D01*
X160834485Y-107377075D01*
X160804519Y-107352481D01*
X160779925Y-107322515D01*
X160761657Y-107288337D01*
X160750404Y-107251242D01*
X160746000Y-107206526D01*
X160746000Y-106313474D01*
X160750404Y-106268758D01*
X160761657Y-106231663D01*
X160779925Y-106197485D01*
X160804519Y-106167519D01*
X160834485Y-106142925D01*
X160868663Y-106124657D01*
X160905758Y-106113404D01*
X160950474Y-106109000D01*
X162393526Y-106109000D01*
X162438242Y-106113404D01*
G37*
G36*
X169550242Y-106113404D02*
G01*
X169587337Y-106124657D01*
X169621515Y-106142925D01*
X169651481Y-106167519D01*
X169676075Y-106197485D01*
X169694343Y-106231663D01*
X169705596Y-106268758D01*
X169710000Y-106313474D01*
X169710000Y-107206526D01*
X169705596Y-107251242D01*
X169694343Y-107288337D01*
X169676075Y-107322515D01*
X169651481Y-107352481D01*
X169621515Y-107377075D01*
X169587337Y-107395343D01*
X169550242Y-107406596D01*
X169505526Y-107411000D01*
X168062474Y-107411000D01*
X168017758Y-107406596D01*
X167980663Y-107395343D01*
X167946485Y-107377075D01*
X167916519Y-107352481D01*
X167891925Y-107322515D01*
X167873657Y-107288337D01*
X167862404Y-107251242D01*
X167858000Y-107206526D01*
X167858000Y-106313474D01*
X167862404Y-106268758D01*
X167873657Y-106231663D01*
X167891925Y-106197485D01*
X167916519Y-106167519D01*
X167946485Y-106142925D01*
X167980663Y-106124657D01*
X168017758Y-106113404D01*
X168062474Y-106109000D01*
X169505526Y-106109000D01*
X169550242Y-106113404D01*
G37*
G36*
X145216468Y-105571565D02*
G01*
X145255138Y-105583296D01*
X145290777Y-105602346D01*
X145322017Y-105627983D01*
X145347654Y-105659223D01*
X145366704Y-105694862D01*
X145378435Y-105733532D01*
X145383000Y-105779888D01*
X145383000Y-106856112D01*
X145378435Y-106902468D01*
X145366704Y-106941138D01*
X145347654Y-106976777D01*
X145322017Y-107008017D01*
X145290777Y-107033654D01*
X145255138Y-107052704D01*
X145216468Y-107064435D01*
X145170112Y-107069000D01*
X144518888Y-107069000D01*
X144472532Y-107064435D01*
X144433862Y-107052704D01*
X144398223Y-107033654D01*
X144366983Y-107008017D01*
X144341346Y-106976777D01*
X144322296Y-106941138D01*
X144310565Y-106902468D01*
X144306000Y-106856112D01*
X144306000Y-105779888D01*
X144310565Y-105733532D01*
X144322296Y-105694862D01*
X144341346Y-105659223D01*
X144366983Y-105627983D01*
X144398223Y-105602346D01*
X144433862Y-105583296D01*
X144472532Y-105571565D01*
X144518888Y-105567000D01*
X145170112Y-105567000D01*
X145216468Y-105571565D01*
G37*
G36*
X147091468Y-105571565D02*
G01*
X147130138Y-105583296D01*
X147165777Y-105602346D01*
X147197017Y-105627983D01*
X147222654Y-105659223D01*
X147241704Y-105694862D01*
X147253435Y-105733532D01*
X147258000Y-105779888D01*
X147258000Y-106856112D01*
X147253435Y-106902468D01*
X147241704Y-106941138D01*
X147222654Y-106976777D01*
X147197017Y-107008017D01*
X147165777Y-107033654D01*
X147130138Y-107052704D01*
X147091468Y-107064435D01*
X147045112Y-107069000D01*
X146393888Y-107069000D01*
X146347532Y-107064435D01*
X146308862Y-107052704D01*
X146273223Y-107033654D01*
X146241983Y-107008017D01*
X146216346Y-106976777D01*
X146197296Y-106941138D01*
X146185565Y-106902468D01*
X146181000Y-106856112D01*
X146181000Y-105779888D01*
X146185565Y-105733532D01*
X146197296Y-105694862D01*
X146216346Y-105659223D01*
X146241983Y-105627983D01*
X146273223Y-105602346D01*
X146308862Y-105583296D01*
X146347532Y-105571565D01*
X146393888Y-105567000D01*
X147045112Y-105567000D01*
X147091468Y-105571565D01*
G37*
G36*
X152604468Y-105875065D02*
G01*
X152643138Y-105886796D01*
X152678777Y-105905846D01*
X152710017Y-105931483D01*
X152735654Y-105962723D01*
X152754704Y-105998362D01*
X152766435Y-106037032D01*
X152771000Y-106083388D01*
X152771000Y-106734612D01*
X152766435Y-106780968D01*
X152754704Y-106819638D01*
X152735654Y-106855277D01*
X152710017Y-106886517D01*
X152678777Y-106912154D01*
X152643138Y-106931204D01*
X152604468Y-106942935D01*
X152558112Y-106947500D01*
X151481888Y-106947500D01*
X151435532Y-106942935D01*
X151396862Y-106931204D01*
X151361223Y-106912154D01*
X151329983Y-106886517D01*
X151304346Y-106855277D01*
X151285296Y-106819638D01*
X151273565Y-106780968D01*
X151269000Y-106734612D01*
X151269000Y-106083388D01*
X151273565Y-106037032D01*
X151285296Y-105998362D01*
X151304346Y-105962723D01*
X151329983Y-105931483D01*
X151361223Y-105905846D01*
X151396862Y-105886796D01*
X151435532Y-105875065D01*
X151481888Y-105870500D01*
X152558112Y-105870500D01*
X152604468Y-105875065D01*
G37*
G36*
X166828468Y-105796565D02*
G01*
X166867138Y-105808296D01*
X166902777Y-105827346D01*
X166934017Y-105852983D01*
X166959654Y-105884223D01*
X166978704Y-105919862D01*
X166990435Y-105958532D01*
X166995000Y-106004888D01*
X166995000Y-106656112D01*
X166990435Y-106702468D01*
X166978704Y-106741138D01*
X166959654Y-106776777D01*
X166934017Y-106808017D01*
X166902777Y-106833654D01*
X166867138Y-106852704D01*
X166828468Y-106864435D01*
X166782112Y-106869000D01*
X165705888Y-106869000D01*
X165659532Y-106864435D01*
X165620862Y-106852704D01*
X165585223Y-106833654D01*
X165553983Y-106808017D01*
X165528346Y-106776777D01*
X165509296Y-106741138D01*
X165497565Y-106702468D01*
X165493000Y-106656112D01*
X165493000Y-106004888D01*
X165497565Y-105958532D01*
X165509296Y-105919862D01*
X165528346Y-105884223D01*
X165553983Y-105852983D01*
X165585223Y-105827346D01*
X165620862Y-105808296D01*
X165659532Y-105796565D01*
X165705888Y-105792000D01*
X166782112Y-105792000D01*
X166828468Y-105796565D01*
G37*
G36*
X159716468Y-105718065D02*
G01*
X159755138Y-105729796D01*
X159790777Y-105748846D01*
X159822017Y-105774483D01*
X159847654Y-105805723D01*
X159866704Y-105841362D01*
X159878435Y-105880032D01*
X159883000Y-105926388D01*
X159883000Y-106577612D01*
X159878435Y-106623968D01*
X159866704Y-106662638D01*
X159847654Y-106698277D01*
X159822017Y-106729517D01*
X159790777Y-106755154D01*
X159755138Y-106774204D01*
X159716468Y-106785935D01*
X159670112Y-106790500D01*
X158593888Y-106790500D01*
X158547532Y-106785935D01*
X158508862Y-106774204D01*
X158473223Y-106755154D01*
X158441983Y-106729517D01*
X158416346Y-106698277D01*
X158397296Y-106662638D01*
X158385565Y-106623968D01*
X158381000Y-106577612D01*
X158381000Y-105926388D01*
X158385565Y-105880032D01*
X158397296Y-105841362D01*
X158416346Y-105805723D01*
X158441983Y-105774483D01*
X158473223Y-105748846D01*
X158508862Y-105729796D01*
X158547532Y-105718065D01*
X158593888Y-105713500D01*
X159670112Y-105713500D01*
X159716468Y-105718065D01*
G37*
G36*
X179028855Y-104588140D02*
G01*
X179092618Y-104594420D01*
X179183404Y-104621960D01*
X179215336Y-104631646D01*
X179328425Y-104692094D01*
X179427554Y-104773446D01*
X179508906Y-104872575D01*
X179569354Y-104985664D01*
X179573402Y-104999009D01*
X179606580Y-105108382D01*
X179619149Y-105236000D01*
X179606580Y-105363618D01*
X179579040Y-105454404D01*
X179569354Y-105486336D01*
X179508906Y-105599425D01*
X179427554Y-105698554D01*
X179328425Y-105779906D01*
X179215336Y-105840354D01*
X179183404Y-105850040D01*
X179092618Y-105877580D01*
X179028855Y-105883860D01*
X178996974Y-105887000D01*
X178383026Y-105887000D01*
X178351145Y-105883860D01*
X178287382Y-105877580D01*
X178196596Y-105850040D01*
X178164664Y-105840354D01*
X178051575Y-105779906D01*
X177952446Y-105698554D01*
X177871094Y-105599425D01*
X177810646Y-105486336D01*
X177800960Y-105454404D01*
X177773420Y-105363618D01*
X177760851Y-105236000D01*
X177773420Y-105108382D01*
X177806598Y-104999009D01*
X177810646Y-104985664D01*
X177871094Y-104872575D01*
X177952446Y-104773446D01*
X178051575Y-104692094D01*
X178164664Y-104631646D01*
X178196596Y-104621960D01*
X178287382Y-104594420D01*
X178351145Y-104588140D01*
X178383026Y-104585000D01*
X178996974Y-104585000D01*
X179028855Y-104588140D01*
G37*
G36*
X161999280Y-104111000D02*
G01*
X162074618Y-104118420D01*
X162165404Y-104145960D01*
X162197336Y-104155646D01*
X162310425Y-104216094D01*
X162409554Y-104297446D01*
X162490906Y-104396575D01*
X162551354Y-104509664D01*
X162551355Y-104509668D01*
X162588580Y-104632382D01*
X162601149Y-104760000D01*
X162588580Y-104887618D01*
X162563202Y-104971278D01*
X162551354Y-105010336D01*
X162490906Y-105123425D01*
X162409554Y-105222554D01*
X162310425Y-105303906D01*
X162197336Y-105364354D01*
X162165404Y-105374040D01*
X162074618Y-105401580D01*
X162010855Y-105407860D01*
X161978974Y-105411000D01*
X161365026Y-105411000D01*
X161333145Y-105407860D01*
X161269382Y-105401580D01*
X161178596Y-105374040D01*
X161146664Y-105364354D01*
X161033575Y-105303906D01*
X160934446Y-105222554D01*
X160853094Y-105123425D01*
X160792646Y-105010336D01*
X160780798Y-104971278D01*
X160755420Y-104887618D01*
X160742851Y-104760000D01*
X160755420Y-104632382D01*
X160792645Y-104509668D01*
X160792646Y-104509664D01*
X160853094Y-104396575D01*
X160934446Y-104297446D01*
X161033575Y-104216094D01*
X161146664Y-104155646D01*
X161178596Y-104145960D01*
X161269382Y-104118420D01*
X161344720Y-104111000D01*
X161365026Y-104109000D01*
X161978974Y-104109000D01*
X161999280Y-104111000D01*
G37*
G36*
X154887280Y-104111000D02*
G01*
X154962618Y-104118420D01*
X155053404Y-104145960D01*
X155085336Y-104155646D01*
X155198425Y-104216094D01*
X155297554Y-104297446D01*
X155378906Y-104396575D01*
X155439354Y-104509664D01*
X155439355Y-104509668D01*
X155476580Y-104632382D01*
X155489149Y-104760000D01*
X155476580Y-104887618D01*
X155451202Y-104971278D01*
X155439354Y-105010336D01*
X155378906Y-105123425D01*
X155297554Y-105222554D01*
X155198425Y-105303906D01*
X155085336Y-105364354D01*
X155053404Y-105374040D01*
X154962618Y-105401580D01*
X154898855Y-105407860D01*
X154866974Y-105411000D01*
X154253026Y-105411000D01*
X154221145Y-105407860D01*
X154157382Y-105401580D01*
X154066596Y-105374040D01*
X154034664Y-105364354D01*
X153921575Y-105303906D01*
X153822446Y-105222554D01*
X153741094Y-105123425D01*
X153680646Y-105010336D01*
X153668798Y-104971278D01*
X153643420Y-104887618D01*
X153630851Y-104760000D01*
X153643420Y-104632382D01*
X153680645Y-104509668D01*
X153680646Y-104509664D01*
X153741094Y-104396575D01*
X153822446Y-104297446D01*
X153921575Y-104216094D01*
X154034664Y-104155646D01*
X154066596Y-104145960D01*
X154157382Y-104118420D01*
X154232720Y-104111000D01*
X154253026Y-104109000D01*
X154866974Y-104109000D01*
X154887280Y-104111000D01*
G37*
G36*
X169111280Y-104111000D02*
G01*
X169186618Y-104118420D01*
X169277404Y-104145960D01*
X169309336Y-104155646D01*
X169422425Y-104216094D01*
X169521554Y-104297446D01*
X169602906Y-104396575D01*
X169663354Y-104509664D01*
X169663355Y-104509668D01*
X169700580Y-104632382D01*
X169713149Y-104760000D01*
X169700580Y-104887618D01*
X169675202Y-104971278D01*
X169663354Y-105010336D01*
X169602906Y-105123425D01*
X169521554Y-105222554D01*
X169422425Y-105303906D01*
X169309336Y-105364354D01*
X169277404Y-105374040D01*
X169186618Y-105401580D01*
X169122855Y-105407860D01*
X169090974Y-105411000D01*
X168477026Y-105411000D01*
X168445145Y-105407860D01*
X168381382Y-105401580D01*
X168290596Y-105374040D01*
X168258664Y-105364354D01*
X168145575Y-105303906D01*
X168046446Y-105222554D01*
X167965094Y-105123425D01*
X167904646Y-105010336D01*
X167892798Y-104971278D01*
X167867420Y-104887618D01*
X167854851Y-104760000D01*
X167867420Y-104632382D01*
X167904645Y-104509668D01*
X167904646Y-104509664D01*
X167965094Y-104396575D01*
X168046446Y-104297446D01*
X168145575Y-104216094D01*
X168258664Y-104155646D01*
X168290596Y-104145960D01*
X168381382Y-104118420D01*
X168456720Y-104111000D01*
X168477026Y-104109000D01*
X169090974Y-104109000D01*
X169111280Y-104111000D01*
G37*
G36*
X166828468Y-104115565D02*
G01*
X166867138Y-104127296D01*
X166902777Y-104146346D01*
X166934017Y-104171983D01*
X166959654Y-104203223D01*
X166978704Y-104238862D01*
X166990435Y-104277532D01*
X166995000Y-104323888D01*
X166995000Y-104975112D01*
X166990435Y-105021468D01*
X166978704Y-105060138D01*
X166959654Y-105095777D01*
X166934017Y-105127017D01*
X166902777Y-105152654D01*
X166867138Y-105171704D01*
X166828468Y-105183435D01*
X166782112Y-105188000D01*
X165705888Y-105188000D01*
X165659532Y-105183435D01*
X165620862Y-105171704D01*
X165585223Y-105152654D01*
X165553983Y-105127017D01*
X165528346Y-105095777D01*
X165509296Y-105060138D01*
X165497565Y-105021468D01*
X165493000Y-104975112D01*
X165493000Y-104323888D01*
X165497565Y-104277532D01*
X165509296Y-104238862D01*
X165528346Y-104203223D01*
X165553983Y-104171983D01*
X165585223Y-104146346D01*
X165620862Y-104127296D01*
X165659532Y-104115565D01*
X165705888Y-104111000D01*
X166782112Y-104111000D01*
X166828468Y-104115565D01*
G37*
G36*
X152604468Y-104115565D02*
G01*
X152643138Y-104127296D01*
X152678777Y-104146346D01*
X152710017Y-104171983D01*
X152735654Y-104203223D01*
X152754704Y-104238862D01*
X152766435Y-104277532D01*
X152771000Y-104323888D01*
X152771000Y-104975112D01*
X152766435Y-105021468D01*
X152754704Y-105060138D01*
X152735654Y-105095777D01*
X152710017Y-105127017D01*
X152678777Y-105152654D01*
X152643138Y-105171704D01*
X152604468Y-105183435D01*
X152558112Y-105188000D01*
X151481888Y-105188000D01*
X151435532Y-105183435D01*
X151396862Y-105171704D01*
X151361223Y-105152654D01*
X151329983Y-105127017D01*
X151304346Y-105095777D01*
X151285296Y-105060138D01*
X151273565Y-105021468D01*
X151269000Y-104975112D01*
X151269000Y-104323888D01*
X151273565Y-104277532D01*
X151285296Y-104238862D01*
X151304346Y-104203223D01*
X151329983Y-104171983D01*
X151361223Y-104146346D01*
X151396862Y-104127296D01*
X151435532Y-104115565D01*
X151481888Y-104111000D01*
X152558112Y-104111000D01*
X152604468Y-104115565D01*
G37*
G36*
X159716468Y-104037065D02*
G01*
X159755138Y-104048796D01*
X159790777Y-104067846D01*
X159822017Y-104093483D01*
X159847654Y-104124723D01*
X159866704Y-104160362D01*
X159878435Y-104199032D01*
X159883000Y-104245388D01*
X159883000Y-104896612D01*
X159878435Y-104942968D01*
X159866704Y-104981638D01*
X159847654Y-105017277D01*
X159822017Y-105048517D01*
X159790777Y-105074154D01*
X159755138Y-105093204D01*
X159716468Y-105104935D01*
X159670112Y-105109500D01*
X158593888Y-105109500D01*
X158547532Y-105104935D01*
X158508862Y-105093204D01*
X158473223Y-105074154D01*
X158441983Y-105048517D01*
X158416346Y-105017277D01*
X158397296Y-104981638D01*
X158385565Y-104942968D01*
X158381000Y-104896612D01*
X158381000Y-104245388D01*
X158385565Y-104199032D01*
X158397296Y-104160362D01*
X158416346Y-104124723D01*
X158441983Y-104093483D01*
X158473223Y-104067846D01*
X158508862Y-104048796D01*
X158547532Y-104037065D01*
X158593888Y-104032500D01*
X159670112Y-104032500D01*
X159716468Y-104037065D01*
G37*
G36*
X148946928Y-103019764D02*
G01*
X148968009Y-103026160D01*
X148987445Y-103036548D01*
X149004476Y-103050524D01*
X149018452Y-103067555D01*
X149028840Y-103086991D01*
X149035236Y-103108072D01*
X149038000Y-103136140D01*
X149038000Y-104949860D01*
X149035236Y-104977928D01*
X149028840Y-104999009D01*
X149018452Y-105018445D01*
X149004476Y-105035476D01*
X148987445Y-105049452D01*
X148968009Y-105059840D01*
X148946928Y-105066236D01*
X148918860Y-105069000D01*
X148455140Y-105069000D01*
X148427072Y-105066236D01*
X148405991Y-105059840D01*
X148386555Y-105049452D01*
X148369524Y-105035476D01*
X148355548Y-105018445D01*
X148345160Y-104999009D01*
X148338764Y-104977928D01*
X148336000Y-104949860D01*
X148336000Y-103136140D01*
X148338764Y-103108072D01*
X148345160Y-103086991D01*
X148355548Y-103067555D01*
X148369524Y-103050524D01*
X148386555Y-103036548D01*
X148405991Y-103026160D01*
X148427072Y-103019764D01*
X148455140Y-103017000D01*
X148918860Y-103017000D01*
X148946928Y-103019764D01*
G37*
G36*
X147676928Y-103019764D02*
G01*
X147698009Y-103026160D01*
X147717445Y-103036548D01*
X147734476Y-103050524D01*
X147748452Y-103067555D01*
X147758840Y-103086991D01*
X147765236Y-103108072D01*
X147768000Y-103136140D01*
X147768000Y-104949860D01*
X147765236Y-104977928D01*
X147758840Y-104999009D01*
X147748452Y-105018445D01*
X147734476Y-105035476D01*
X147717445Y-105049452D01*
X147698009Y-105059840D01*
X147676928Y-105066236D01*
X147648860Y-105069000D01*
X147185140Y-105069000D01*
X147157072Y-105066236D01*
X147135991Y-105059840D01*
X147116555Y-105049452D01*
X147099524Y-105035476D01*
X147085548Y-105018445D01*
X147075160Y-104999009D01*
X147068764Y-104977928D01*
X147066000Y-104949860D01*
X147066000Y-103136140D01*
X147068764Y-103108072D01*
X147075160Y-103086991D01*
X147085548Y-103067555D01*
X147099524Y-103050524D01*
X147116555Y-103036548D01*
X147135991Y-103026160D01*
X147157072Y-103019764D01*
X147185140Y-103017000D01*
X147648860Y-103017000D01*
X147676928Y-103019764D01*
G37*
G36*
X146406928Y-103019764D02*
G01*
X146428009Y-103026160D01*
X146447445Y-103036548D01*
X146464476Y-103050524D01*
X146478452Y-103067555D01*
X146488840Y-103086991D01*
X146495236Y-103108072D01*
X146498000Y-103136140D01*
X146498000Y-104949860D01*
X146495236Y-104977928D01*
X146488840Y-104999009D01*
X146478452Y-105018445D01*
X146464476Y-105035476D01*
X146447445Y-105049452D01*
X146428009Y-105059840D01*
X146406928Y-105066236D01*
X146378860Y-105069000D01*
X145915140Y-105069000D01*
X145887072Y-105066236D01*
X145865991Y-105059840D01*
X145846555Y-105049452D01*
X145829524Y-105035476D01*
X145815548Y-105018445D01*
X145805160Y-104999009D01*
X145798764Y-104977928D01*
X145796000Y-104949860D01*
X145796000Y-103136140D01*
X145798764Y-103108072D01*
X145805160Y-103086991D01*
X145815548Y-103067555D01*
X145829524Y-103050524D01*
X145846555Y-103036548D01*
X145865991Y-103026160D01*
X145887072Y-103019764D01*
X145915140Y-103017000D01*
X146378860Y-103017000D01*
X146406928Y-103019764D01*
G37*
G36*
X145136928Y-103019764D02*
G01*
X145158009Y-103026160D01*
X145177445Y-103036548D01*
X145194476Y-103050524D01*
X145208452Y-103067555D01*
X145218840Y-103086991D01*
X145225236Y-103108072D01*
X145228000Y-103136140D01*
X145228000Y-104949860D01*
X145225236Y-104977928D01*
X145218840Y-104999009D01*
X145208452Y-105018445D01*
X145194476Y-105035476D01*
X145177445Y-105049452D01*
X145158009Y-105059840D01*
X145136928Y-105066236D01*
X145108860Y-105069000D01*
X144645140Y-105069000D01*
X144617072Y-105066236D01*
X144595991Y-105059840D01*
X144576555Y-105049452D01*
X144559524Y-105035476D01*
X144545548Y-105018445D01*
X144535160Y-104999009D01*
X144528764Y-104977928D01*
X144526000Y-104949860D01*
X144526000Y-103136140D01*
X144528764Y-103108072D01*
X144535160Y-103086991D01*
X144545548Y-103067555D01*
X144559524Y-103050524D01*
X144576555Y-103036548D01*
X144595991Y-103026160D01*
X144617072Y-103019764D01*
X144645140Y-103017000D01*
X145108860Y-103017000D01*
X145136928Y-103019764D01*
G37*
G36*
X179028855Y-102588140D02*
G01*
X179092618Y-102594420D01*
X179183404Y-102621960D01*
X179215336Y-102631646D01*
X179328425Y-102692094D01*
X179427554Y-102773446D01*
X179508906Y-102872575D01*
X179569354Y-102985664D01*
X179569355Y-102985668D01*
X179606580Y-103108382D01*
X179619149Y-103236000D01*
X179606580Y-103363618D01*
X179579040Y-103454404D01*
X179569354Y-103486336D01*
X179508906Y-103599425D01*
X179427554Y-103698554D01*
X179328425Y-103779906D01*
X179215336Y-103840354D01*
X179183404Y-103850040D01*
X179092618Y-103877580D01*
X179028855Y-103883860D01*
X178996974Y-103887000D01*
X178383026Y-103887000D01*
X178351145Y-103883860D01*
X178287382Y-103877580D01*
X178196596Y-103850040D01*
X178164664Y-103840354D01*
X178051575Y-103779906D01*
X177952446Y-103698554D01*
X177871094Y-103599425D01*
X177810646Y-103486336D01*
X177800960Y-103454404D01*
X177773420Y-103363618D01*
X177760851Y-103236000D01*
X177773420Y-103108382D01*
X177810645Y-102985668D01*
X177810646Y-102985664D01*
X177871094Y-102872575D01*
X177952446Y-102773446D01*
X178051575Y-102692094D01*
X178164664Y-102631646D01*
X178196596Y-102621960D01*
X178287382Y-102594420D01*
X178351145Y-102588140D01*
X178383026Y-102585000D01*
X178996974Y-102585000D01*
X179028855Y-102588140D01*
G37*
G36*
X154898855Y-102112140D02*
G01*
X154962618Y-102118420D01*
X155053404Y-102145960D01*
X155085336Y-102155646D01*
X155198425Y-102216094D01*
X155297554Y-102297446D01*
X155378906Y-102396575D01*
X155439354Y-102509664D01*
X155439355Y-102509668D01*
X155476580Y-102632382D01*
X155489149Y-102760000D01*
X155476580Y-102887618D01*
X155449040Y-102978404D01*
X155439354Y-103010336D01*
X155378906Y-103123425D01*
X155297554Y-103222554D01*
X155198425Y-103303906D01*
X155085336Y-103364354D01*
X155053404Y-103374040D01*
X154962618Y-103401580D01*
X154898855Y-103407860D01*
X154866974Y-103411000D01*
X154253026Y-103411000D01*
X154221145Y-103407860D01*
X154157382Y-103401580D01*
X154066596Y-103374040D01*
X154034664Y-103364354D01*
X153921575Y-103303906D01*
X153822446Y-103222554D01*
X153741094Y-103123425D01*
X153680646Y-103010336D01*
X153670960Y-102978404D01*
X153643420Y-102887618D01*
X153630851Y-102760000D01*
X153643420Y-102632382D01*
X153680645Y-102509668D01*
X153680646Y-102509664D01*
X153741094Y-102396575D01*
X153822446Y-102297446D01*
X153921575Y-102216094D01*
X154034664Y-102155646D01*
X154066596Y-102145960D01*
X154157382Y-102118420D01*
X154221145Y-102112140D01*
X154253026Y-102109000D01*
X154866974Y-102109000D01*
X154898855Y-102112140D01*
G37*
G36*
X162010855Y-102112140D02*
G01*
X162074618Y-102118420D01*
X162165404Y-102145960D01*
X162197336Y-102155646D01*
X162310425Y-102216094D01*
X162409554Y-102297446D01*
X162490906Y-102396575D01*
X162551354Y-102509664D01*
X162551355Y-102509668D01*
X162588580Y-102632382D01*
X162601149Y-102760000D01*
X162588580Y-102887618D01*
X162561040Y-102978404D01*
X162551354Y-103010336D01*
X162490906Y-103123425D01*
X162409554Y-103222554D01*
X162310425Y-103303906D01*
X162197336Y-103364354D01*
X162165404Y-103374040D01*
X162074618Y-103401580D01*
X162010855Y-103407860D01*
X161978974Y-103411000D01*
X161365026Y-103411000D01*
X161333145Y-103407860D01*
X161269382Y-103401580D01*
X161178596Y-103374040D01*
X161146664Y-103364354D01*
X161033575Y-103303906D01*
X160934446Y-103222554D01*
X160853094Y-103123425D01*
X160792646Y-103010336D01*
X160782960Y-102978404D01*
X160755420Y-102887618D01*
X160742851Y-102760000D01*
X160755420Y-102632382D01*
X160792645Y-102509668D01*
X160792646Y-102509664D01*
X160853094Y-102396575D01*
X160934446Y-102297446D01*
X161033575Y-102216094D01*
X161146664Y-102155646D01*
X161178596Y-102145960D01*
X161269382Y-102118420D01*
X161333145Y-102112140D01*
X161365026Y-102109000D01*
X161978974Y-102109000D01*
X162010855Y-102112140D01*
G37*
G36*
X169122855Y-102112140D02*
G01*
X169186618Y-102118420D01*
X169277404Y-102145960D01*
X169309336Y-102155646D01*
X169422425Y-102216094D01*
X169521554Y-102297446D01*
X169602906Y-102396575D01*
X169663354Y-102509664D01*
X169663355Y-102509668D01*
X169700580Y-102632382D01*
X169713149Y-102760000D01*
X169700580Y-102887618D01*
X169673040Y-102978404D01*
X169663354Y-103010336D01*
X169602906Y-103123425D01*
X169521554Y-103222554D01*
X169422425Y-103303906D01*
X169309336Y-103364354D01*
X169277404Y-103374040D01*
X169186618Y-103401580D01*
X169122855Y-103407860D01*
X169090974Y-103411000D01*
X168477026Y-103411000D01*
X168445145Y-103407860D01*
X168381382Y-103401580D01*
X168290596Y-103374040D01*
X168258664Y-103364354D01*
X168145575Y-103303906D01*
X168046446Y-103222554D01*
X167965094Y-103123425D01*
X167904646Y-103010336D01*
X167894960Y-102978404D01*
X167867420Y-102887618D01*
X167854851Y-102760000D01*
X167867420Y-102632382D01*
X167904645Y-102509668D01*
X167904646Y-102509664D01*
X167965094Y-102396575D01*
X168046446Y-102297446D01*
X168145575Y-102216094D01*
X168258664Y-102155646D01*
X168290596Y-102145960D01*
X168381382Y-102118420D01*
X168445145Y-102112140D01*
X168477026Y-102109000D01*
X169090974Y-102109000D01*
X169122855Y-102112140D01*
G37*
G36*
X166828468Y-102240565D02*
G01*
X166867138Y-102252296D01*
X166902777Y-102271346D01*
X166934017Y-102296983D01*
X166959654Y-102328223D01*
X166978704Y-102363862D01*
X166990435Y-102402532D01*
X166995000Y-102448888D01*
X166995000Y-103100112D01*
X166990435Y-103146468D01*
X166978704Y-103185138D01*
X166959654Y-103220777D01*
X166934017Y-103252017D01*
X166902777Y-103277654D01*
X166867138Y-103296704D01*
X166828468Y-103308435D01*
X166782112Y-103313000D01*
X165705888Y-103313000D01*
X165659532Y-103308435D01*
X165620862Y-103296704D01*
X165585223Y-103277654D01*
X165553983Y-103252017D01*
X165528346Y-103220777D01*
X165509296Y-103185138D01*
X165497565Y-103146468D01*
X165493000Y-103100112D01*
X165493000Y-102448888D01*
X165497565Y-102402532D01*
X165509296Y-102363862D01*
X165528346Y-102328223D01*
X165553983Y-102296983D01*
X165585223Y-102271346D01*
X165620862Y-102252296D01*
X165659532Y-102240565D01*
X165705888Y-102236000D01*
X166782112Y-102236000D01*
X166828468Y-102240565D01*
G37*
G36*
X152604468Y-102240565D02*
G01*
X152643138Y-102252296D01*
X152678777Y-102271346D01*
X152710017Y-102296983D01*
X152735654Y-102328223D01*
X152754704Y-102363862D01*
X152766435Y-102402532D01*
X152771000Y-102448888D01*
X152771000Y-103100112D01*
X152766435Y-103146468D01*
X152754704Y-103185138D01*
X152735654Y-103220777D01*
X152710017Y-103252017D01*
X152678777Y-103277654D01*
X152643138Y-103296704D01*
X152604468Y-103308435D01*
X152558112Y-103313000D01*
X151481888Y-103313000D01*
X151435532Y-103308435D01*
X151396862Y-103296704D01*
X151361223Y-103277654D01*
X151329983Y-103252017D01*
X151304346Y-103220777D01*
X151285296Y-103185138D01*
X151273565Y-103146468D01*
X151269000Y-103100112D01*
X151269000Y-102448888D01*
X151273565Y-102402532D01*
X151285296Y-102363862D01*
X151304346Y-102328223D01*
X151329983Y-102296983D01*
X151361223Y-102271346D01*
X151396862Y-102252296D01*
X151435532Y-102240565D01*
X151481888Y-102236000D01*
X152558112Y-102236000D01*
X152604468Y-102240565D01*
G37*
G36*
X159716468Y-102162065D02*
G01*
X159755138Y-102173796D01*
X159790777Y-102192846D01*
X159822017Y-102218483D01*
X159847654Y-102249723D01*
X159866704Y-102285362D01*
X159878435Y-102324032D01*
X159883000Y-102370388D01*
X159883000Y-103021612D01*
X159878435Y-103067968D01*
X159866704Y-103106638D01*
X159847654Y-103142277D01*
X159822017Y-103173517D01*
X159790777Y-103199154D01*
X159755138Y-103218204D01*
X159716468Y-103229935D01*
X159670112Y-103234500D01*
X158593888Y-103234500D01*
X158547532Y-103229935D01*
X158508862Y-103218204D01*
X158473223Y-103199154D01*
X158441983Y-103173517D01*
X158416346Y-103142277D01*
X158397296Y-103106638D01*
X158385565Y-103067968D01*
X158381000Y-103021612D01*
X158381000Y-102370388D01*
X158385565Y-102324032D01*
X158397296Y-102285362D01*
X158416346Y-102249723D01*
X158441983Y-102218483D01*
X158473223Y-102192846D01*
X158508862Y-102173796D01*
X158547532Y-102162065D01*
X158593888Y-102157500D01*
X159670112Y-102157500D01*
X159716468Y-102162065D01*
G37*
G36*
X122442072Y-99952918D02*
G01*
X122674058Y-100049009D01*
X122687939Y-100054759D01*
X122707152Y-100067597D01*
X122838925Y-100155645D01*
X122909212Y-100202610D01*
X123097390Y-100390788D01*
X123233454Y-100594420D01*
X123245242Y-100612063D01*
X123347082Y-100857928D01*
X123399000Y-101118937D01*
X123399000Y-101385063D01*
X123347082Y-101646072D01*
X123245242Y-101891937D01*
X123097391Y-102113211D01*
X122909211Y-102301391D01*
X122875805Y-102323712D01*
X122687939Y-102449241D01*
X122687938Y-102449242D01*
X122687937Y-102449242D01*
X122442072Y-102551082D01*
X122181063Y-102603000D01*
X121914937Y-102603000D01*
X121653928Y-102551082D01*
X121408063Y-102449242D01*
X121408062Y-102449242D01*
X121408061Y-102449241D01*
X121220195Y-102323712D01*
X121186789Y-102301391D01*
X120998609Y-102113211D01*
X120850758Y-101891937D01*
X120748918Y-101646072D01*
X120697000Y-101385063D01*
X120697000Y-101118937D01*
X120748918Y-100857928D01*
X120850758Y-100612063D01*
X120862547Y-100594420D01*
X120998610Y-100390788D01*
X121186788Y-100202610D01*
X121257076Y-100155645D01*
X121388848Y-100067597D01*
X121408061Y-100054759D01*
X121421943Y-100049009D01*
X121653928Y-99952918D01*
X121914937Y-99901000D01*
X122181063Y-99901000D01*
X122442072Y-99952918D01*
G37*
G36*
X179028855Y-100588140D02*
G01*
X179092618Y-100594420D01*
X179183404Y-100621960D01*
X179215336Y-100631646D01*
X179328425Y-100692094D01*
X179427554Y-100773446D01*
X179508906Y-100872575D01*
X179569354Y-100985664D01*
X179569355Y-100985668D01*
X179606580Y-101108382D01*
X179619149Y-101236000D01*
X179606580Y-101363618D01*
X179579040Y-101454404D01*
X179569354Y-101486336D01*
X179508906Y-101599425D01*
X179427554Y-101698554D01*
X179328425Y-101779906D01*
X179215336Y-101840354D01*
X179183404Y-101850040D01*
X179092618Y-101877580D01*
X179028855Y-101883860D01*
X178996974Y-101887000D01*
X178383026Y-101887000D01*
X178351145Y-101883860D01*
X178287382Y-101877580D01*
X178196596Y-101850040D01*
X178164664Y-101840354D01*
X178051575Y-101779906D01*
X177952446Y-101698554D01*
X177871094Y-101599425D01*
X177810646Y-101486336D01*
X177800960Y-101454404D01*
X177773420Y-101363618D01*
X177760851Y-101236000D01*
X177773420Y-101108382D01*
X177810645Y-100985668D01*
X177810646Y-100985664D01*
X177871094Y-100872575D01*
X177952446Y-100773446D01*
X178051575Y-100692094D01*
X178164664Y-100631646D01*
X178196596Y-100621960D01*
X178287382Y-100594420D01*
X178351145Y-100588140D01*
X178383026Y-100585000D01*
X178996974Y-100585000D01*
X179028855Y-100588140D01*
G37*
G36*
X169122855Y-100112140D02*
G01*
X169186618Y-100118420D01*
X169277404Y-100145960D01*
X169309336Y-100155646D01*
X169422425Y-100216094D01*
X169521554Y-100297446D01*
X169602906Y-100396575D01*
X169663354Y-100509664D01*
X169663355Y-100509668D01*
X169700580Y-100632382D01*
X169713149Y-100760000D01*
X169700580Y-100887618D01*
X169673040Y-100978404D01*
X169663354Y-101010336D01*
X169602906Y-101123425D01*
X169521554Y-101222554D01*
X169422425Y-101303906D01*
X169309336Y-101364354D01*
X169277404Y-101374040D01*
X169186618Y-101401580D01*
X169122855Y-101407860D01*
X169090974Y-101411000D01*
X168477026Y-101411000D01*
X168445145Y-101407860D01*
X168381382Y-101401580D01*
X168290596Y-101374040D01*
X168258664Y-101364354D01*
X168145575Y-101303906D01*
X168046446Y-101222554D01*
X167965094Y-101123425D01*
X167904646Y-101010336D01*
X167894960Y-100978404D01*
X167867420Y-100887618D01*
X167854851Y-100760000D01*
X167867420Y-100632382D01*
X167904645Y-100509668D01*
X167904646Y-100509664D01*
X167965094Y-100396575D01*
X168046446Y-100297446D01*
X168145575Y-100216094D01*
X168258664Y-100155646D01*
X168290596Y-100145960D01*
X168381382Y-100118420D01*
X168445145Y-100112140D01*
X168477026Y-100109000D01*
X169090974Y-100109000D01*
X169122855Y-100112140D01*
G37*
G36*
X162010855Y-100112140D02*
G01*
X162074618Y-100118420D01*
X162165404Y-100145960D01*
X162197336Y-100155646D01*
X162310425Y-100216094D01*
X162409554Y-100297446D01*
X162490906Y-100396575D01*
X162551354Y-100509664D01*
X162551355Y-100509668D01*
X162588580Y-100632382D01*
X162601149Y-100760000D01*
X162588580Y-100887618D01*
X162561040Y-100978404D01*
X162551354Y-101010336D01*
X162490906Y-101123425D01*
X162409554Y-101222554D01*
X162310425Y-101303906D01*
X162197336Y-101364354D01*
X162165404Y-101374040D01*
X162074618Y-101401580D01*
X162010855Y-101407860D01*
X161978974Y-101411000D01*
X161365026Y-101411000D01*
X161333145Y-101407860D01*
X161269382Y-101401580D01*
X161178596Y-101374040D01*
X161146664Y-101364354D01*
X161033575Y-101303906D01*
X160934446Y-101222554D01*
X160853094Y-101123425D01*
X160792646Y-101010336D01*
X160782960Y-100978404D01*
X160755420Y-100887618D01*
X160742851Y-100760000D01*
X160755420Y-100632382D01*
X160792645Y-100509668D01*
X160792646Y-100509664D01*
X160853094Y-100396575D01*
X160934446Y-100297446D01*
X161033575Y-100216094D01*
X161146664Y-100155646D01*
X161178596Y-100145960D01*
X161269382Y-100118420D01*
X161333145Y-100112140D01*
X161365026Y-100109000D01*
X161978974Y-100109000D01*
X162010855Y-100112140D01*
G37*
G36*
X154898855Y-100112140D02*
G01*
X154962618Y-100118420D01*
X155053404Y-100145960D01*
X155085336Y-100155646D01*
X155198425Y-100216094D01*
X155297554Y-100297446D01*
X155378906Y-100396575D01*
X155439354Y-100509664D01*
X155439355Y-100509668D01*
X155476580Y-100632382D01*
X155489149Y-100760000D01*
X155476580Y-100887618D01*
X155449040Y-100978404D01*
X155439354Y-101010336D01*
X155378906Y-101123425D01*
X155297554Y-101222554D01*
X155198425Y-101303906D01*
X155085336Y-101364354D01*
X155053404Y-101374040D01*
X154962618Y-101401580D01*
X154898855Y-101407860D01*
X154866974Y-101411000D01*
X154253026Y-101411000D01*
X154221145Y-101407860D01*
X154157382Y-101401580D01*
X154066596Y-101374040D01*
X154034664Y-101364354D01*
X153921575Y-101303906D01*
X153822446Y-101222554D01*
X153741094Y-101123425D01*
X153680646Y-101010336D01*
X153670960Y-100978404D01*
X153643420Y-100887618D01*
X153630851Y-100760000D01*
X153643420Y-100632382D01*
X153680645Y-100509668D01*
X153680646Y-100509664D01*
X153741094Y-100396575D01*
X153822446Y-100297446D01*
X153921575Y-100216094D01*
X154034664Y-100155646D01*
X154066596Y-100145960D01*
X154157382Y-100118420D01*
X154221145Y-100112140D01*
X154253026Y-100109000D01*
X154866974Y-100109000D01*
X154898855Y-100112140D01*
G37*
G36*
X145136928Y-98069764D02*
G01*
X145158009Y-98076160D01*
X145177445Y-98086548D01*
X145194476Y-98100524D01*
X145208452Y-98117555D01*
X145218840Y-98136991D01*
X145225236Y-98158072D01*
X145228000Y-98186140D01*
X145228000Y-99999860D01*
X145225236Y-100027928D01*
X145218840Y-100049009D01*
X145208452Y-100068445D01*
X145194476Y-100085476D01*
X145177445Y-100099452D01*
X145158009Y-100109840D01*
X145136928Y-100116236D01*
X145108860Y-100119000D01*
X144645140Y-100119000D01*
X144617072Y-100116236D01*
X144595991Y-100109840D01*
X144576555Y-100099452D01*
X144559524Y-100085476D01*
X144545548Y-100068445D01*
X144535160Y-100049009D01*
X144528764Y-100027928D01*
X144526000Y-99999860D01*
X144526000Y-98186140D01*
X144528764Y-98158072D01*
X144535160Y-98136991D01*
X144545548Y-98117555D01*
X144559524Y-98100524D01*
X144576555Y-98086548D01*
X144595991Y-98076160D01*
X144617072Y-98069764D01*
X144645140Y-98067000D01*
X145108860Y-98067000D01*
X145136928Y-98069764D01*
G37*
G36*
X147676928Y-98069764D02*
G01*
X147698009Y-98076160D01*
X147717445Y-98086548D01*
X147734476Y-98100524D01*
X147748452Y-98117555D01*
X147758840Y-98136991D01*
X147765236Y-98158072D01*
X147768000Y-98186140D01*
X147768000Y-99999860D01*
X147765236Y-100027928D01*
X147758840Y-100049009D01*
X147748452Y-100068445D01*
X147734476Y-100085476D01*
X147717445Y-100099452D01*
X147698009Y-100109840D01*
X147676928Y-100116236D01*
X147648860Y-100119000D01*
X147185140Y-100119000D01*
X147157072Y-100116236D01*
X147135991Y-100109840D01*
X147116555Y-100099452D01*
X147099524Y-100085476D01*
X147085548Y-100068445D01*
X147075160Y-100049009D01*
X147068764Y-100027928D01*
X147066000Y-99999860D01*
X147066000Y-98186140D01*
X147068764Y-98158072D01*
X147075160Y-98136991D01*
X147085548Y-98117555D01*
X147099524Y-98100524D01*
X147116555Y-98086548D01*
X147135991Y-98076160D01*
X147157072Y-98069764D01*
X147185140Y-98067000D01*
X147648860Y-98067000D01*
X147676928Y-98069764D01*
G37*
G36*
X148946928Y-98069764D02*
G01*
X148968009Y-98076160D01*
X148987445Y-98086548D01*
X149004476Y-98100524D01*
X149018452Y-98117555D01*
X149028840Y-98136991D01*
X149035236Y-98158072D01*
X149038000Y-98186140D01*
X149038000Y-99999860D01*
X149035236Y-100027928D01*
X149028840Y-100049009D01*
X149018452Y-100068445D01*
X149004476Y-100085476D01*
X148987445Y-100099452D01*
X148968009Y-100109840D01*
X148946928Y-100116236D01*
X148918860Y-100119000D01*
X148455140Y-100119000D01*
X148427072Y-100116236D01*
X148405991Y-100109840D01*
X148386555Y-100099452D01*
X148369524Y-100085476D01*
X148355548Y-100068445D01*
X148345160Y-100049009D01*
X148338764Y-100027928D01*
X148336000Y-99999860D01*
X148336000Y-98186140D01*
X148338764Y-98158072D01*
X148345160Y-98136991D01*
X148355548Y-98117555D01*
X148369524Y-98100524D01*
X148386555Y-98086548D01*
X148405991Y-98076160D01*
X148427072Y-98069764D01*
X148455140Y-98067000D01*
X148918860Y-98067000D01*
X148946928Y-98069764D01*
G37*
G36*
X146406928Y-98069764D02*
G01*
X146428009Y-98076160D01*
X146447445Y-98086548D01*
X146464476Y-98100524D01*
X146478452Y-98117555D01*
X146488840Y-98136991D01*
X146495236Y-98158072D01*
X146498000Y-98186140D01*
X146498000Y-99999860D01*
X146495236Y-100027928D01*
X146488840Y-100049009D01*
X146478452Y-100068445D01*
X146464476Y-100085476D01*
X146447445Y-100099452D01*
X146428009Y-100109840D01*
X146406928Y-100116236D01*
X146378860Y-100119000D01*
X145915140Y-100119000D01*
X145887072Y-100116236D01*
X145865991Y-100109840D01*
X145846555Y-100099452D01*
X145829524Y-100085476D01*
X145815548Y-100068445D01*
X145805160Y-100049009D01*
X145798764Y-100027928D01*
X145796000Y-99999860D01*
X145796000Y-98186140D01*
X145798764Y-98158072D01*
X145805160Y-98136991D01*
X145815548Y-98117555D01*
X145829524Y-98100524D01*
X145846555Y-98086548D01*
X145865991Y-98076160D01*
X145887072Y-98069764D01*
X145915140Y-98067000D01*
X146378860Y-98067000D01*
X146406928Y-98069764D01*
G37*
G36*
X126803000Y-96739000D02*
G01*
X125001000Y-96739000D01*
X125001000Y-94937000D01*
X126803000Y-94937000D01*
X126803000Y-96739000D01*
G37*
G36*
X138715512Y-94941927D02*
G01*
X138864812Y-94971624D01*
X139028784Y-95039544D01*
X139176354Y-95138147D01*
X139301853Y-95263646D01*
X139400456Y-95411216D01*
X139468376Y-95575188D01*
X139503000Y-95749259D01*
X139503000Y-95926741D01*
X139468376Y-96100812D01*
X139400456Y-96264784D01*
X139301853Y-96412354D01*
X139176354Y-96537853D01*
X139028784Y-96636456D01*
X138864812Y-96704376D01*
X138715512Y-96734073D01*
X138690742Y-96739000D01*
X138513258Y-96739000D01*
X138488488Y-96734073D01*
X138339188Y-96704376D01*
X138175216Y-96636456D01*
X138027646Y-96537853D01*
X137902147Y-96412354D01*
X137803544Y-96264784D01*
X137735624Y-96100812D01*
X137701000Y-95926741D01*
X137701000Y-95749259D01*
X137735624Y-95575188D01*
X137803544Y-95411216D01*
X137902147Y-95263646D01*
X138027646Y-95138147D01*
X138175216Y-95039544D01*
X138339188Y-94971624D01*
X138488488Y-94941927D01*
X138513258Y-94937000D01*
X138690742Y-94937000D01*
X138715512Y-94941927D01*
G37*
G36*
X136175512Y-94941927D02*
G01*
X136324812Y-94971624D01*
X136488784Y-95039544D01*
X136636354Y-95138147D01*
X136761853Y-95263646D01*
X136860456Y-95411216D01*
X136928376Y-95575188D01*
X136963000Y-95749259D01*
X136963000Y-95926741D01*
X136928376Y-96100812D01*
X136860456Y-96264784D01*
X136761853Y-96412354D01*
X136636354Y-96537853D01*
X136488784Y-96636456D01*
X136324812Y-96704376D01*
X136175512Y-96734073D01*
X136150742Y-96739000D01*
X135973258Y-96739000D01*
X135948488Y-96734073D01*
X135799188Y-96704376D01*
X135635216Y-96636456D01*
X135487646Y-96537853D01*
X135362147Y-96412354D01*
X135263544Y-96264784D01*
X135195624Y-96100812D01*
X135161000Y-95926741D01*
X135161000Y-95749259D01*
X135195624Y-95575188D01*
X135263544Y-95411216D01*
X135362147Y-95263646D01*
X135487646Y-95138147D01*
X135635216Y-95039544D01*
X135799188Y-94971624D01*
X135948488Y-94941927D01*
X135973258Y-94937000D01*
X136150742Y-94937000D01*
X136175512Y-94941927D01*
G37*
G36*
X133635512Y-94941927D02*
G01*
X133784812Y-94971624D01*
X133948784Y-95039544D01*
X134096354Y-95138147D01*
X134221853Y-95263646D01*
X134320456Y-95411216D01*
X134388376Y-95575188D01*
X134423000Y-95749259D01*
X134423000Y-95926741D01*
X134388376Y-96100812D01*
X134320456Y-96264784D01*
X134221853Y-96412354D01*
X134096354Y-96537853D01*
X133948784Y-96636456D01*
X133784812Y-96704376D01*
X133635512Y-96734073D01*
X133610742Y-96739000D01*
X133433258Y-96739000D01*
X133408488Y-96734073D01*
X133259188Y-96704376D01*
X133095216Y-96636456D01*
X132947646Y-96537853D01*
X132822147Y-96412354D01*
X132723544Y-96264784D01*
X132655624Y-96100812D01*
X132621000Y-95926741D01*
X132621000Y-95749259D01*
X132655624Y-95575188D01*
X132723544Y-95411216D01*
X132822147Y-95263646D01*
X132947646Y-95138147D01*
X133095216Y-95039544D01*
X133259188Y-94971624D01*
X133408488Y-94941927D01*
X133433258Y-94937000D01*
X133610742Y-94937000D01*
X133635512Y-94941927D01*
G37*
G36*
X131095512Y-94941927D02*
G01*
X131244812Y-94971624D01*
X131408784Y-95039544D01*
X131556354Y-95138147D01*
X131681853Y-95263646D01*
X131780456Y-95411216D01*
X131848376Y-95575188D01*
X131883000Y-95749259D01*
X131883000Y-95926741D01*
X131848376Y-96100812D01*
X131780456Y-96264784D01*
X131681853Y-96412354D01*
X131556354Y-96537853D01*
X131408784Y-96636456D01*
X131244812Y-96704376D01*
X131095512Y-96734073D01*
X131070742Y-96739000D01*
X130893258Y-96739000D01*
X130868488Y-96734073D01*
X130719188Y-96704376D01*
X130555216Y-96636456D01*
X130407646Y-96537853D01*
X130282147Y-96412354D01*
X130183544Y-96264784D01*
X130115624Y-96100812D01*
X130081000Y-95926741D01*
X130081000Y-95749259D01*
X130115624Y-95575188D01*
X130183544Y-95411216D01*
X130282147Y-95263646D01*
X130407646Y-95138147D01*
X130555216Y-95039544D01*
X130719188Y-94971624D01*
X130868488Y-94941927D01*
X130893258Y-94937000D01*
X131070742Y-94937000D01*
X131095512Y-94941927D01*
G37*
G36*
X128555512Y-94941927D02*
G01*
X128704812Y-94971624D01*
X128868784Y-95039544D01*
X129016354Y-95138147D01*
X129141853Y-95263646D01*
X129240456Y-95411216D01*
X129308376Y-95575188D01*
X129343000Y-95749259D01*
X129343000Y-95926741D01*
X129308376Y-96100812D01*
X129240456Y-96264784D01*
X129141853Y-96412354D01*
X129016354Y-96537853D01*
X128868784Y-96636456D01*
X128704812Y-96704376D01*
X128555512Y-96734073D01*
X128530742Y-96739000D01*
X128353258Y-96739000D01*
X128328488Y-96734073D01*
X128179188Y-96704376D01*
X128015216Y-96636456D01*
X127867646Y-96537853D01*
X127742147Y-96412354D01*
X127643544Y-96264784D01*
X127575624Y-96100812D01*
X127541000Y-95926741D01*
X127541000Y-95749259D01*
X127575624Y-95575188D01*
X127643544Y-95411216D01*
X127742147Y-95263646D01*
X127867646Y-95138147D01*
X128015216Y-95039544D01*
X128179188Y-94971624D01*
X128328488Y-94941927D01*
X128353258Y-94937000D01*
X128530742Y-94937000D01*
X128555512Y-94941927D01*
G37*
G36*
X146335512Y-94941927D02*
G01*
X146484812Y-94971624D01*
X146648784Y-95039544D01*
X146796354Y-95138147D01*
X146921853Y-95263646D01*
X147020456Y-95411216D01*
X147088376Y-95575188D01*
X147123000Y-95749259D01*
X147123000Y-95926741D01*
X147088376Y-96100812D01*
X147020456Y-96264784D01*
X146921853Y-96412354D01*
X146796354Y-96537853D01*
X146648784Y-96636456D01*
X146484812Y-96704376D01*
X146335512Y-96734073D01*
X146310742Y-96739000D01*
X146133258Y-96739000D01*
X146108488Y-96734073D01*
X145959188Y-96704376D01*
X145795216Y-96636456D01*
X145647646Y-96537853D01*
X145522147Y-96412354D01*
X145423544Y-96264784D01*
X145355624Y-96100812D01*
X145321000Y-95926741D01*
X145321000Y-95749259D01*
X145355624Y-95575188D01*
X145423544Y-95411216D01*
X145522147Y-95263646D01*
X145647646Y-95138147D01*
X145795216Y-95039544D01*
X145959188Y-94971624D01*
X146108488Y-94941927D01*
X146133258Y-94937000D01*
X146310742Y-94937000D01*
X146335512Y-94941927D01*
G37*
G36*
X169195512Y-94941927D02*
G01*
X169344812Y-94971624D01*
X169508784Y-95039544D01*
X169656354Y-95138147D01*
X169781853Y-95263646D01*
X169880456Y-95411216D01*
X169948376Y-95575188D01*
X169983000Y-95749259D01*
X169983000Y-95926741D01*
X169948376Y-96100812D01*
X169880456Y-96264784D01*
X169781853Y-96412354D01*
X169656354Y-96537853D01*
X169508784Y-96636456D01*
X169344812Y-96704376D01*
X169195512Y-96734073D01*
X169170742Y-96739000D01*
X168993258Y-96739000D01*
X168968488Y-96734073D01*
X168819188Y-96704376D01*
X168655216Y-96636456D01*
X168507646Y-96537853D01*
X168382147Y-96412354D01*
X168283544Y-96264784D01*
X168215624Y-96100812D01*
X168181000Y-95926741D01*
X168181000Y-95749259D01*
X168215624Y-95575188D01*
X168283544Y-95411216D01*
X168382147Y-95263646D01*
X168507646Y-95138147D01*
X168655216Y-95039544D01*
X168819188Y-94971624D01*
X168968488Y-94941927D01*
X168993258Y-94937000D01*
X169170742Y-94937000D01*
X169195512Y-94941927D01*
G37*
G36*
X171735512Y-94941927D02*
G01*
X171884812Y-94971624D01*
X172048784Y-95039544D01*
X172196354Y-95138147D01*
X172321853Y-95263646D01*
X172420456Y-95411216D01*
X172488376Y-95575188D01*
X172523000Y-95749259D01*
X172523000Y-95926741D01*
X172488376Y-96100812D01*
X172420456Y-96264784D01*
X172321853Y-96412354D01*
X172196354Y-96537853D01*
X172048784Y-96636456D01*
X171884812Y-96704376D01*
X171735512Y-96734073D01*
X171710742Y-96739000D01*
X171533258Y-96739000D01*
X171508488Y-96734073D01*
X171359188Y-96704376D01*
X171195216Y-96636456D01*
X171047646Y-96537853D01*
X170922147Y-96412354D01*
X170823544Y-96264784D01*
X170755624Y-96100812D01*
X170721000Y-95926741D01*
X170721000Y-95749259D01*
X170755624Y-95575188D01*
X170823544Y-95411216D01*
X170922147Y-95263646D01*
X171047646Y-95138147D01*
X171195216Y-95039544D01*
X171359188Y-94971624D01*
X171508488Y-94941927D01*
X171533258Y-94937000D01*
X171710742Y-94937000D01*
X171735512Y-94941927D01*
G37*
G36*
X148875512Y-94941927D02*
G01*
X149024812Y-94971624D01*
X149188784Y-95039544D01*
X149336354Y-95138147D01*
X149461853Y-95263646D01*
X149560456Y-95411216D01*
X149628376Y-95575188D01*
X149663000Y-95749259D01*
X149663000Y-95926741D01*
X149628376Y-96100812D01*
X149560456Y-96264784D01*
X149461853Y-96412354D01*
X149336354Y-96537853D01*
X149188784Y-96636456D01*
X149024812Y-96704376D01*
X148875512Y-96734073D01*
X148850742Y-96739000D01*
X148673258Y-96739000D01*
X148648488Y-96734073D01*
X148499188Y-96704376D01*
X148335216Y-96636456D01*
X148187646Y-96537853D01*
X148062147Y-96412354D01*
X147963544Y-96264784D01*
X147895624Y-96100812D01*
X147861000Y-95926741D01*
X147861000Y-95749259D01*
X147895624Y-95575188D01*
X147963544Y-95411216D01*
X148062147Y-95263646D01*
X148187646Y-95138147D01*
X148335216Y-95039544D01*
X148499188Y-94971624D01*
X148648488Y-94941927D01*
X148673258Y-94937000D01*
X148850742Y-94937000D01*
X148875512Y-94941927D01*
G37*
G36*
X166655512Y-94941927D02*
G01*
X166804812Y-94971624D01*
X166968784Y-95039544D01*
X167116354Y-95138147D01*
X167241853Y-95263646D01*
X167340456Y-95411216D01*
X167408376Y-95575188D01*
X167443000Y-95749259D01*
X167443000Y-95926741D01*
X167408376Y-96100812D01*
X167340456Y-96264784D01*
X167241853Y-96412354D01*
X167116354Y-96537853D01*
X166968784Y-96636456D01*
X166804812Y-96704376D01*
X166655512Y-96734073D01*
X166630742Y-96739000D01*
X166453258Y-96739000D01*
X166428488Y-96734073D01*
X166279188Y-96704376D01*
X166115216Y-96636456D01*
X165967646Y-96537853D01*
X165842147Y-96412354D01*
X165743544Y-96264784D01*
X165675624Y-96100812D01*
X165641000Y-95926741D01*
X165641000Y-95749259D01*
X165675624Y-95575188D01*
X165743544Y-95411216D01*
X165842147Y-95263646D01*
X165967646Y-95138147D01*
X166115216Y-95039544D01*
X166279188Y-94971624D01*
X166428488Y-94941927D01*
X166453258Y-94937000D01*
X166630742Y-94937000D01*
X166655512Y-94941927D01*
G37*
G36*
X143795512Y-94941927D02*
G01*
X143944812Y-94971624D01*
X144108784Y-95039544D01*
X144256354Y-95138147D01*
X144381853Y-95263646D01*
X144480456Y-95411216D01*
X144548376Y-95575188D01*
X144583000Y-95749259D01*
X144583000Y-95926741D01*
X144548376Y-96100812D01*
X144480456Y-96264784D01*
X144381853Y-96412354D01*
X144256354Y-96537853D01*
X144108784Y-96636456D01*
X143944812Y-96704376D01*
X143795512Y-96734073D01*
X143770742Y-96739000D01*
X143593258Y-96739000D01*
X143568488Y-96734073D01*
X143419188Y-96704376D01*
X143255216Y-96636456D01*
X143107646Y-96537853D01*
X142982147Y-96412354D01*
X142883544Y-96264784D01*
X142815624Y-96100812D01*
X142781000Y-95926741D01*
X142781000Y-95749259D01*
X142815624Y-95575188D01*
X142883544Y-95411216D01*
X142982147Y-95263646D01*
X143107646Y-95138147D01*
X143255216Y-95039544D01*
X143419188Y-94971624D01*
X143568488Y-94941927D01*
X143593258Y-94937000D01*
X143770742Y-94937000D01*
X143795512Y-94941927D01*
G37*
G36*
X151415512Y-94941927D02*
G01*
X151564812Y-94971624D01*
X151728784Y-95039544D01*
X151876354Y-95138147D01*
X152001853Y-95263646D01*
X152100456Y-95411216D01*
X152168376Y-95575188D01*
X152203000Y-95749259D01*
X152203000Y-95926741D01*
X152168376Y-96100812D01*
X152100456Y-96264784D01*
X152001853Y-96412354D01*
X151876354Y-96537853D01*
X151728784Y-96636456D01*
X151564812Y-96704376D01*
X151415512Y-96734073D01*
X151390742Y-96739000D01*
X151213258Y-96739000D01*
X151188488Y-96734073D01*
X151039188Y-96704376D01*
X150875216Y-96636456D01*
X150727646Y-96537853D01*
X150602147Y-96412354D01*
X150503544Y-96264784D01*
X150435624Y-96100812D01*
X150401000Y-95926741D01*
X150401000Y-95749259D01*
X150435624Y-95575188D01*
X150503544Y-95411216D01*
X150602147Y-95263646D01*
X150727646Y-95138147D01*
X150875216Y-95039544D01*
X151039188Y-94971624D01*
X151188488Y-94941927D01*
X151213258Y-94937000D01*
X151390742Y-94937000D01*
X151415512Y-94941927D01*
G37*
G36*
X141255512Y-94941927D02*
G01*
X141404812Y-94971624D01*
X141568784Y-95039544D01*
X141716354Y-95138147D01*
X141841853Y-95263646D01*
X141940456Y-95411216D01*
X142008376Y-95575188D01*
X142043000Y-95749259D01*
X142043000Y-95926741D01*
X142008376Y-96100812D01*
X141940456Y-96264784D01*
X141841853Y-96412354D01*
X141716354Y-96537853D01*
X141568784Y-96636456D01*
X141404812Y-96704376D01*
X141255512Y-96734073D01*
X141230742Y-96739000D01*
X141053258Y-96739000D01*
X141028488Y-96734073D01*
X140879188Y-96704376D01*
X140715216Y-96636456D01*
X140567646Y-96537853D01*
X140442147Y-96412354D01*
X140343544Y-96264784D01*
X140275624Y-96100812D01*
X140241000Y-95926741D01*
X140241000Y-95749259D01*
X140275624Y-95575188D01*
X140343544Y-95411216D01*
X140442147Y-95263646D01*
X140567646Y-95138147D01*
X140715216Y-95039544D01*
X140879188Y-94971624D01*
X141028488Y-94941927D01*
X141053258Y-94937000D01*
X141230742Y-94937000D01*
X141255512Y-94941927D01*
G37*
G36*
X159035512Y-94941927D02*
G01*
X159184812Y-94971624D01*
X159348784Y-95039544D01*
X159496354Y-95138147D01*
X159621853Y-95263646D01*
X159720456Y-95411216D01*
X159788376Y-95575188D01*
X159823000Y-95749259D01*
X159823000Y-95926741D01*
X159788376Y-96100812D01*
X159720456Y-96264784D01*
X159621853Y-96412354D01*
X159496354Y-96537853D01*
X159348784Y-96636456D01*
X159184812Y-96704376D01*
X159035512Y-96734073D01*
X159010742Y-96739000D01*
X158833258Y-96739000D01*
X158808488Y-96734073D01*
X158659188Y-96704376D01*
X158495216Y-96636456D01*
X158347646Y-96537853D01*
X158222147Y-96412354D01*
X158123544Y-96264784D01*
X158055624Y-96100812D01*
X158021000Y-95926741D01*
X158021000Y-95749259D01*
X158055624Y-95575188D01*
X158123544Y-95411216D01*
X158222147Y-95263646D01*
X158347646Y-95138147D01*
X158495216Y-95039544D01*
X158659188Y-94971624D01*
X158808488Y-94941927D01*
X158833258Y-94937000D01*
X159010742Y-94937000D01*
X159035512Y-94941927D01*
G37*
G36*
X161575512Y-94941927D02*
G01*
X161724812Y-94971624D01*
X161888784Y-95039544D01*
X162036354Y-95138147D01*
X162161853Y-95263646D01*
X162260456Y-95411216D01*
X162328376Y-95575188D01*
X162363000Y-95749259D01*
X162363000Y-95926741D01*
X162328376Y-96100812D01*
X162260456Y-96264784D01*
X162161853Y-96412354D01*
X162036354Y-96537853D01*
X161888784Y-96636456D01*
X161724812Y-96704376D01*
X161575512Y-96734073D01*
X161550742Y-96739000D01*
X161373258Y-96739000D01*
X161348488Y-96734073D01*
X161199188Y-96704376D01*
X161035216Y-96636456D01*
X160887646Y-96537853D01*
X160762147Y-96412354D01*
X160663544Y-96264784D01*
X160595624Y-96100812D01*
X160561000Y-95926741D01*
X160561000Y-95749259D01*
X160595624Y-95575188D01*
X160663544Y-95411216D01*
X160762147Y-95263646D01*
X160887646Y-95138147D01*
X161035216Y-95039544D01*
X161199188Y-94971624D01*
X161348488Y-94941927D01*
X161373258Y-94937000D01*
X161550742Y-94937000D01*
X161575512Y-94941927D01*
G37*
G36*
X164115512Y-94941927D02*
G01*
X164264812Y-94971624D01*
X164428784Y-95039544D01*
X164576354Y-95138147D01*
X164701853Y-95263646D01*
X164800456Y-95411216D01*
X164868376Y-95575188D01*
X164903000Y-95749259D01*
X164903000Y-95926741D01*
X164868376Y-96100812D01*
X164800456Y-96264784D01*
X164701853Y-96412354D01*
X164576354Y-96537853D01*
X164428784Y-96636456D01*
X164264812Y-96704376D01*
X164115512Y-96734073D01*
X164090742Y-96739000D01*
X163913258Y-96739000D01*
X163888488Y-96734073D01*
X163739188Y-96704376D01*
X163575216Y-96636456D01*
X163427646Y-96537853D01*
X163302147Y-96412354D01*
X163203544Y-96264784D01*
X163135624Y-96100812D01*
X163101000Y-95926741D01*
X163101000Y-95749259D01*
X163135624Y-95575188D01*
X163203544Y-95411216D01*
X163302147Y-95263646D01*
X163427646Y-95138147D01*
X163575216Y-95039544D01*
X163739188Y-94971624D01*
X163888488Y-94941927D01*
X163913258Y-94937000D01*
X164090742Y-94937000D01*
X164115512Y-94941927D01*
G37*
G36*
X153955512Y-94941927D02*
G01*
X154104812Y-94971624D01*
X154268784Y-95039544D01*
X154416354Y-95138147D01*
X154541853Y-95263646D01*
X154640456Y-95411216D01*
X154708376Y-95575188D01*
X154743000Y-95749259D01*
X154743000Y-95926741D01*
X154708376Y-96100812D01*
X154640456Y-96264784D01*
X154541853Y-96412354D01*
X154416354Y-96537853D01*
X154268784Y-96636456D01*
X154104812Y-96704376D01*
X153955512Y-96734073D01*
X153930742Y-96739000D01*
X153753258Y-96739000D01*
X153728488Y-96734073D01*
X153579188Y-96704376D01*
X153415216Y-96636456D01*
X153267646Y-96537853D01*
X153142147Y-96412354D01*
X153043544Y-96264784D01*
X152975624Y-96100812D01*
X152941000Y-95926741D01*
X152941000Y-95749259D01*
X152975624Y-95575188D01*
X153043544Y-95411216D01*
X153142147Y-95263646D01*
X153267646Y-95138147D01*
X153415216Y-95039544D01*
X153579188Y-94971624D01*
X153728488Y-94941927D01*
X153753258Y-94937000D01*
X153930742Y-94937000D01*
X153955512Y-94941927D01*
G37*
G36*
X156495512Y-94941927D02*
G01*
X156644812Y-94971624D01*
X156808784Y-95039544D01*
X156956354Y-95138147D01*
X157081853Y-95263646D01*
X157180456Y-95411216D01*
X157248376Y-95575188D01*
X157283000Y-95749259D01*
X157283000Y-95926741D01*
X157248376Y-96100812D01*
X157180456Y-96264784D01*
X157081853Y-96412354D01*
X156956354Y-96537853D01*
X156808784Y-96636456D01*
X156644812Y-96704376D01*
X156495512Y-96734073D01*
X156470742Y-96739000D01*
X156293258Y-96739000D01*
X156268488Y-96734073D01*
X156119188Y-96704376D01*
X155955216Y-96636456D01*
X155807646Y-96537853D01*
X155682147Y-96412354D01*
X155583544Y-96264784D01*
X155515624Y-96100812D01*
X155481000Y-95926741D01*
X155481000Y-95749259D01*
X155515624Y-95575188D01*
X155583544Y-95411216D01*
X155682147Y-95263646D01*
X155807646Y-95138147D01*
X155955216Y-95039544D01*
X156119188Y-94971624D01*
X156268488Y-94941927D01*
X156293258Y-94937000D01*
X156470742Y-94937000D01*
X156495512Y-94941927D01*
G37*
G36*
X174275512Y-94941927D02*
G01*
X174424812Y-94971624D01*
X174588784Y-95039544D01*
X174736354Y-95138147D01*
X174861853Y-95263646D01*
X174960456Y-95411216D01*
X175028376Y-95575188D01*
X175063000Y-95749259D01*
X175063000Y-95926741D01*
X175028376Y-96100812D01*
X174960456Y-96264784D01*
X174861853Y-96412354D01*
X174736354Y-96537853D01*
X174588784Y-96636456D01*
X174424812Y-96704376D01*
X174275512Y-96734073D01*
X174250742Y-96739000D01*
X174073258Y-96739000D01*
X174048488Y-96734073D01*
X173899188Y-96704376D01*
X173735216Y-96636456D01*
X173587646Y-96537853D01*
X173462147Y-96412354D01*
X173363544Y-96264784D01*
X173295624Y-96100812D01*
X173261000Y-95926741D01*
X173261000Y-95749259D01*
X173295624Y-95575188D01*
X173363544Y-95411216D01*
X173462147Y-95263646D01*
X173587646Y-95138147D01*
X173735216Y-95039544D01*
X173899188Y-94971624D01*
X174048488Y-94941927D01*
X174073258Y-94937000D01*
X174250742Y-94937000D01*
X174275512Y-94941927D01*
G37*
G36*
X179350433Y-93202893D02*
G01*
X179440657Y-93220839D01*
X179546267Y-93264585D01*
X179695621Y-93326449D01*
X179695622Y-93326450D01*
X179925086Y-93479772D01*
X180120228Y-93674914D01*
X180222675Y-93828237D01*
X180273551Y-93904379D01*
X180379161Y-94159344D01*
X180433000Y-94430012D01*
X180433000Y-94705988D01*
X180379161Y-94976656D01*
X180273551Y-95231621D01*
X180252152Y-95263647D01*
X180120228Y-95461086D01*
X179925086Y-95656228D01*
X179785856Y-95749258D01*
X179695621Y-95809551D01*
X179546267Y-95871415D01*
X179440657Y-95915161D01*
X179350433Y-95933107D01*
X179169988Y-95969000D01*
X178894012Y-95969000D01*
X178713567Y-95933107D01*
X178623343Y-95915161D01*
X178517733Y-95871415D01*
X178368379Y-95809551D01*
X178278144Y-95749258D01*
X178138914Y-95656228D01*
X177943772Y-95461086D01*
X177811848Y-95263647D01*
X177790449Y-95231621D01*
X177684839Y-94976656D01*
X177631000Y-94705988D01*
X177631000Y-94430012D01*
X177684839Y-94159344D01*
X177790449Y-93904379D01*
X177841325Y-93828237D01*
X177943772Y-93674914D01*
X178138914Y-93479772D01*
X178368378Y-93326450D01*
X178368379Y-93326449D01*
X178517733Y-93264585D01*
X178623343Y-93220839D01*
X178713567Y-93202893D01*
X178894012Y-93167000D01*
X179169988Y-93167000D01*
X179350433Y-93202893D01*
G37*
G36*
X121350433Y-93202893D02*
G01*
X121440657Y-93220839D01*
X121546267Y-93264585D01*
X121695621Y-93326449D01*
X121695622Y-93326450D01*
X121925086Y-93479772D01*
X122120228Y-93674914D01*
X122222675Y-93828237D01*
X122273551Y-93904379D01*
X122379161Y-94159344D01*
X122433000Y-94430012D01*
X122433000Y-94705988D01*
X122379161Y-94976656D01*
X122273551Y-95231621D01*
X122252152Y-95263647D01*
X122120228Y-95461086D01*
X121925086Y-95656228D01*
X121785856Y-95749258D01*
X121695621Y-95809551D01*
X121546267Y-95871415D01*
X121440657Y-95915161D01*
X121350433Y-95933107D01*
X121169988Y-95969000D01*
X120894012Y-95969000D01*
X120713567Y-95933107D01*
X120623343Y-95915161D01*
X120517733Y-95871415D01*
X120368379Y-95809551D01*
X120278144Y-95749258D01*
X120138914Y-95656228D01*
X119943772Y-95461086D01*
X119811848Y-95263647D01*
X119790449Y-95231621D01*
X119684839Y-94976656D01*
X119631000Y-94705988D01*
X119631000Y-94430012D01*
X119684839Y-94159344D01*
X119790449Y-93904379D01*
X119841325Y-93828237D01*
X119943772Y-93674914D01*
X120138914Y-93479772D01*
X120368378Y-93326450D01*
X120368379Y-93326449D01*
X120517733Y-93264585D01*
X120623343Y-93220839D01*
X120713567Y-93202893D01*
X120894012Y-93167000D01*
X121169988Y-93167000D01*
X121350433Y-93202893D01*
G37*
G36*
X131095512Y-92401927D02*
G01*
X131244812Y-92431624D01*
X131408784Y-92499544D01*
X131556354Y-92598147D01*
X131681853Y-92723646D01*
X131780456Y-92871216D01*
X131848376Y-93035188D01*
X131883000Y-93209259D01*
X131883000Y-93386741D01*
X131848376Y-93560812D01*
X131780456Y-93724784D01*
X131681853Y-93872354D01*
X131556354Y-93997853D01*
X131408784Y-94096456D01*
X131244812Y-94164376D01*
X131095512Y-94194073D01*
X131070742Y-94199000D01*
X130893258Y-94199000D01*
X130868488Y-94194073D01*
X130719188Y-94164376D01*
X130555216Y-94096456D01*
X130407646Y-93997853D01*
X130282147Y-93872354D01*
X130183544Y-93724784D01*
X130115624Y-93560812D01*
X130081000Y-93386741D01*
X130081000Y-93209259D01*
X130115624Y-93035188D01*
X130183544Y-92871216D01*
X130282147Y-92723646D01*
X130407646Y-92598147D01*
X130555216Y-92499544D01*
X130719188Y-92431624D01*
X130868488Y-92401927D01*
X130893258Y-92397000D01*
X131070742Y-92397000D01*
X131095512Y-92401927D01*
G37*
G36*
X128555512Y-92401927D02*
G01*
X128704812Y-92431624D01*
X128868784Y-92499544D01*
X129016354Y-92598147D01*
X129141853Y-92723646D01*
X129240456Y-92871216D01*
X129308376Y-93035188D01*
X129343000Y-93209259D01*
X129343000Y-93386741D01*
X129308376Y-93560812D01*
X129240456Y-93724784D01*
X129141853Y-93872354D01*
X129016354Y-93997853D01*
X128868784Y-94096456D01*
X128704812Y-94164376D01*
X128555512Y-94194073D01*
X128530742Y-94199000D01*
X128353258Y-94199000D01*
X128328488Y-94194073D01*
X128179188Y-94164376D01*
X128015216Y-94096456D01*
X127867646Y-93997853D01*
X127742147Y-93872354D01*
X127643544Y-93724784D01*
X127575624Y-93560812D01*
X127541000Y-93386741D01*
X127541000Y-93209259D01*
X127575624Y-93035188D01*
X127643544Y-92871216D01*
X127742147Y-92723646D01*
X127867646Y-92598147D01*
X128015216Y-92499544D01*
X128179188Y-92431624D01*
X128328488Y-92401927D01*
X128353258Y-92397000D01*
X128530742Y-92397000D01*
X128555512Y-92401927D01*
G37*
G36*
X133635512Y-92401927D02*
G01*
X133784812Y-92431624D01*
X133948784Y-92499544D01*
X134096354Y-92598147D01*
X134221853Y-92723646D01*
X134320456Y-92871216D01*
X134388376Y-93035188D01*
X134423000Y-93209259D01*
X134423000Y-93386741D01*
X134388376Y-93560812D01*
X134320456Y-93724784D01*
X134221853Y-93872354D01*
X134096354Y-93997853D01*
X133948784Y-94096456D01*
X133784812Y-94164376D01*
X133635512Y-94194073D01*
X133610742Y-94199000D01*
X133433258Y-94199000D01*
X133408488Y-94194073D01*
X133259188Y-94164376D01*
X133095216Y-94096456D01*
X132947646Y-93997853D01*
X132822147Y-93872354D01*
X132723544Y-93724784D01*
X132655624Y-93560812D01*
X132621000Y-93386741D01*
X132621000Y-93209259D01*
X132655624Y-93035188D01*
X132723544Y-92871216D01*
X132822147Y-92723646D01*
X132947646Y-92598147D01*
X133095216Y-92499544D01*
X133259188Y-92431624D01*
X133408488Y-92401927D01*
X133433258Y-92397000D01*
X133610742Y-92397000D01*
X133635512Y-92401927D01*
G37*
G36*
X136175512Y-92401927D02*
G01*
X136324812Y-92431624D01*
X136488784Y-92499544D01*
X136636354Y-92598147D01*
X136761853Y-92723646D01*
X136860456Y-92871216D01*
X136928376Y-93035188D01*
X136963000Y-93209259D01*
X136963000Y-93386741D01*
X136928376Y-93560812D01*
X136860456Y-93724784D01*
X136761853Y-93872354D01*
X136636354Y-93997853D01*
X136488784Y-94096456D01*
X136324812Y-94164376D01*
X136175512Y-94194073D01*
X136150742Y-94199000D01*
X135973258Y-94199000D01*
X135948488Y-94194073D01*
X135799188Y-94164376D01*
X135635216Y-94096456D01*
X135487646Y-93997853D01*
X135362147Y-93872354D01*
X135263544Y-93724784D01*
X135195624Y-93560812D01*
X135161000Y-93386741D01*
X135161000Y-93209259D01*
X135195624Y-93035188D01*
X135263544Y-92871216D01*
X135362147Y-92723646D01*
X135487646Y-92598147D01*
X135635216Y-92499544D01*
X135799188Y-92431624D01*
X135948488Y-92401927D01*
X135973258Y-92397000D01*
X136150742Y-92397000D01*
X136175512Y-92401927D01*
G37*
G36*
X138715512Y-92401927D02*
G01*
X138864812Y-92431624D01*
X139028784Y-92499544D01*
X139176354Y-92598147D01*
X139301853Y-92723646D01*
X139400456Y-92871216D01*
X139468376Y-93035188D01*
X139503000Y-93209259D01*
X139503000Y-93386741D01*
X139468376Y-93560812D01*
X139400456Y-93724784D01*
X139301853Y-93872354D01*
X139176354Y-93997853D01*
X139028784Y-94096456D01*
X138864812Y-94164376D01*
X138715512Y-94194073D01*
X138690742Y-94199000D01*
X138513258Y-94199000D01*
X138488488Y-94194073D01*
X138339188Y-94164376D01*
X138175216Y-94096456D01*
X138027646Y-93997853D01*
X137902147Y-93872354D01*
X137803544Y-93724784D01*
X137735624Y-93560812D01*
X137701000Y-93386741D01*
X137701000Y-93209259D01*
X137735624Y-93035188D01*
X137803544Y-92871216D01*
X137902147Y-92723646D01*
X138027646Y-92598147D01*
X138175216Y-92499544D01*
X138339188Y-92431624D01*
X138488488Y-92401927D01*
X138513258Y-92397000D01*
X138690742Y-92397000D01*
X138715512Y-92401927D01*
G37*
G36*
X141255512Y-92401927D02*
G01*
X141404812Y-92431624D01*
X141568784Y-92499544D01*
X141716354Y-92598147D01*
X141841853Y-92723646D01*
X141940456Y-92871216D01*
X142008376Y-93035188D01*
X142043000Y-93209259D01*
X142043000Y-93386741D01*
X142008376Y-93560812D01*
X141940456Y-93724784D01*
X141841853Y-93872354D01*
X141716354Y-93997853D01*
X141568784Y-94096456D01*
X141404812Y-94164376D01*
X141255512Y-94194073D01*
X141230742Y-94199000D01*
X141053258Y-94199000D01*
X141028488Y-94194073D01*
X140879188Y-94164376D01*
X140715216Y-94096456D01*
X140567646Y-93997853D01*
X140442147Y-93872354D01*
X140343544Y-93724784D01*
X140275624Y-93560812D01*
X140241000Y-93386741D01*
X140241000Y-93209259D01*
X140275624Y-93035188D01*
X140343544Y-92871216D01*
X140442147Y-92723646D01*
X140567646Y-92598147D01*
X140715216Y-92499544D01*
X140879188Y-92431624D01*
X141028488Y-92401927D01*
X141053258Y-92397000D01*
X141230742Y-92397000D01*
X141255512Y-92401927D01*
G37*
G36*
X143795512Y-92401927D02*
G01*
X143944812Y-92431624D01*
X144108784Y-92499544D01*
X144256354Y-92598147D01*
X144381853Y-92723646D01*
X144480456Y-92871216D01*
X144548376Y-93035188D01*
X144583000Y-93209259D01*
X144583000Y-93386741D01*
X144548376Y-93560812D01*
X144480456Y-93724784D01*
X144381853Y-93872354D01*
X144256354Y-93997853D01*
X144108784Y-94096456D01*
X143944812Y-94164376D01*
X143795512Y-94194073D01*
X143770742Y-94199000D01*
X143593258Y-94199000D01*
X143568488Y-94194073D01*
X143419188Y-94164376D01*
X143255216Y-94096456D01*
X143107646Y-93997853D01*
X142982147Y-93872354D01*
X142883544Y-93724784D01*
X142815624Y-93560812D01*
X142781000Y-93386741D01*
X142781000Y-93209259D01*
X142815624Y-93035188D01*
X142883544Y-92871216D01*
X142982147Y-92723646D01*
X143107646Y-92598147D01*
X143255216Y-92499544D01*
X143419188Y-92431624D01*
X143568488Y-92401927D01*
X143593258Y-92397000D01*
X143770742Y-92397000D01*
X143795512Y-92401927D01*
G37*
G36*
X146335512Y-92401927D02*
G01*
X146484812Y-92431624D01*
X146648784Y-92499544D01*
X146796354Y-92598147D01*
X146921853Y-92723646D01*
X147020456Y-92871216D01*
X147088376Y-93035188D01*
X147123000Y-93209259D01*
X147123000Y-93386741D01*
X147088376Y-93560812D01*
X147020456Y-93724784D01*
X146921853Y-93872354D01*
X146796354Y-93997853D01*
X146648784Y-94096456D01*
X146484812Y-94164376D01*
X146335512Y-94194073D01*
X146310742Y-94199000D01*
X146133258Y-94199000D01*
X146108488Y-94194073D01*
X145959188Y-94164376D01*
X145795216Y-94096456D01*
X145647646Y-93997853D01*
X145522147Y-93872354D01*
X145423544Y-93724784D01*
X145355624Y-93560812D01*
X145321000Y-93386741D01*
X145321000Y-93209259D01*
X145355624Y-93035188D01*
X145423544Y-92871216D01*
X145522147Y-92723646D01*
X145647646Y-92598147D01*
X145795216Y-92499544D01*
X145959188Y-92431624D01*
X146108488Y-92401927D01*
X146133258Y-92397000D01*
X146310742Y-92397000D01*
X146335512Y-92401927D01*
G37*
G36*
X148875512Y-92401927D02*
G01*
X149024812Y-92431624D01*
X149188784Y-92499544D01*
X149336354Y-92598147D01*
X149461853Y-92723646D01*
X149560456Y-92871216D01*
X149628376Y-93035188D01*
X149663000Y-93209259D01*
X149663000Y-93386741D01*
X149628376Y-93560812D01*
X149560456Y-93724784D01*
X149461853Y-93872354D01*
X149336354Y-93997853D01*
X149188784Y-94096456D01*
X149024812Y-94164376D01*
X148875512Y-94194073D01*
X148850742Y-94199000D01*
X148673258Y-94199000D01*
X148648488Y-94194073D01*
X148499188Y-94164376D01*
X148335216Y-94096456D01*
X148187646Y-93997853D01*
X148062147Y-93872354D01*
X147963544Y-93724784D01*
X147895624Y-93560812D01*
X147861000Y-93386741D01*
X147861000Y-93209259D01*
X147895624Y-93035188D01*
X147963544Y-92871216D01*
X148062147Y-92723646D01*
X148187646Y-92598147D01*
X148335216Y-92499544D01*
X148499188Y-92431624D01*
X148648488Y-92401927D01*
X148673258Y-92397000D01*
X148850742Y-92397000D01*
X148875512Y-92401927D01*
G37*
G36*
X126015512Y-92401927D02*
G01*
X126164812Y-92431624D01*
X126328784Y-92499544D01*
X126476354Y-92598147D01*
X126601853Y-92723646D01*
X126700456Y-92871216D01*
X126768376Y-93035188D01*
X126803000Y-93209259D01*
X126803000Y-93386741D01*
X126768376Y-93560812D01*
X126700456Y-93724784D01*
X126601853Y-93872354D01*
X126476354Y-93997853D01*
X126328784Y-94096456D01*
X126164812Y-94164376D01*
X126015512Y-94194073D01*
X125990742Y-94199000D01*
X125813258Y-94199000D01*
X125788488Y-94194073D01*
X125639188Y-94164376D01*
X125475216Y-94096456D01*
X125327646Y-93997853D01*
X125202147Y-93872354D01*
X125103544Y-93724784D01*
X125035624Y-93560812D01*
X125001000Y-93386741D01*
X125001000Y-93209259D01*
X125035624Y-93035188D01*
X125103544Y-92871216D01*
X125202147Y-92723646D01*
X125327646Y-92598147D01*
X125475216Y-92499544D01*
X125639188Y-92431624D01*
X125788488Y-92401927D01*
X125813258Y-92397000D01*
X125990742Y-92397000D01*
X126015512Y-92401927D01*
G37*
G36*
X153955512Y-92401927D02*
G01*
X154104812Y-92431624D01*
X154268784Y-92499544D01*
X154416354Y-92598147D01*
X154541853Y-92723646D01*
X154640456Y-92871216D01*
X154708376Y-93035188D01*
X154743000Y-93209259D01*
X154743000Y-93386741D01*
X154708376Y-93560812D01*
X154640456Y-93724784D01*
X154541853Y-93872354D01*
X154416354Y-93997853D01*
X154268784Y-94096456D01*
X154104812Y-94164376D01*
X153955512Y-94194073D01*
X153930742Y-94199000D01*
X153753258Y-94199000D01*
X153728488Y-94194073D01*
X153579188Y-94164376D01*
X153415216Y-94096456D01*
X153267646Y-93997853D01*
X153142147Y-93872354D01*
X153043544Y-93724784D01*
X152975624Y-93560812D01*
X152941000Y-93386741D01*
X152941000Y-93209259D01*
X152975624Y-93035188D01*
X153043544Y-92871216D01*
X153142147Y-92723646D01*
X153267646Y-92598147D01*
X153415216Y-92499544D01*
X153579188Y-92431624D01*
X153728488Y-92401927D01*
X153753258Y-92397000D01*
X153930742Y-92397000D01*
X153955512Y-92401927D01*
G37*
G36*
X156495512Y-92401927D02*
G01*
X156644812Y-92431624D01*
X156808784Y-92499544D01*
X156956354Y-92598147D01*
X157081853Y-92723646D01*
X157180456Y-92871216D01*
X157248376Y-93035188D01*
X157283000Y-93209259D01*
X157283000Y-93386741D01*
X157248376Y-93560812D01*
X157180456Y-93724784D01*
X157081853Y-93872354D01*
X156956354Y-93997853D01*
X156808784Y-94096456D01*
X156644812Y-94164376D01*
X156495512Y-94194073D01*
X156470742Y-94199000D01*
X156293258Y-94199000D01*
X156268488Y-94194073D01*
X156119188Y-94164376D01*
X155955216Y-94096456D01*
X155807646Y-93997853D01*
X155682147Y-93872354D01*
X155583544Y-93724784D01*
X155515624Y-93560812D01*
X155481000Y-93386741D01*
X155481000Y-93209259D01*
X155515624Y-93035188D01*
X155583544Y-92871216D01*
X155682147Y-92723646D01*
X155807646Y-92598147D01*
X155955216Y-92499544D01*
X156119188Y-92431624D01*
X156268488Y-92401927D01*
X156293258Y-92397000D01*
X156470742Y-92397000D01*
X156495512Y-92401927D01*
G37*
G36*
X159035512Y-92401927D02*
G01*
X159184812Y-92431624D01*
X159348784Y-92499544D01*
X159496354Y-92598147D01*
X159621853Y-92723646D01*
X159720456Y-92871216D01*
X159788376Y-93035188D01*
X159823000Y-93209259D01*
X159823000Y-93386741D01*
X159788376Y-93560812D01*
X159720456Y-93724784D01*
X159621853Y-93872354D01*
X159496354Y-93997853D01*
X159348784Y-94096456D01*
X159184812Y-94164376D01*
X159035512Y-94194073D01*
X159010742Y-94199000D01*
X158833258Y-94199000D01*
X158808488Y-94194073D01*
X158659188Y-94164376D01*
X158495216Y-94096456D01*
X158347646Y-93997853D01*
X158222147Y-93872354D01*
X158123544Y-93724784D01*
X158055624Y-93560812D01*
X158021000Y-93386741D01*
X158021000Y-93209259D01*
X158055624Y-93035188D01*
X158123544Y-92871216D01*
X158222147Y-92723646D01*
X158347646Y-92598147D01*
X158495216Y-92499544D01*
X158659188Y-92431624D01*
X158808488Y-92401927D01*
X158833258Y-92397000D01*
X159010742Y-92397000D01*
X159035512Y-92401927D01*
G37*
G36*
X164115512Y-92401927D02*
G01*
X164264812Y-92431624D01*
X164428784Y-92499544D01*
X164576354Y-92598147D01*
X164701853Y-92723646D01*
X164800456Y-92871216D01*
X164868376Y-93035188D01*
X164903000Y-93209259D01*
X164903000Y-93386741D01*
X164868376Y-93560812D01*
X164800456Y-93724784D01*
X164701853Y-93872354D01*
X164576354Y-93997853D01*
X164428784Y-94096456D01*
X164264812Y-94164376D01*
X164115512Y-94194073D01*
X164090742Y-94199000D01*
X163913258Y-94199000D01*
X163888488Y-94194073D01*
X163739188Y-94164376D01*
X163575216Y-94096456D01*
X163427646Y-93997853D01*
X163302147Y-93872354D01*
X163203544Y-93724784D01*
X163135624Y-93560812D01*
X163101000Y-93386741D01*
X163101000Y-93209259D01*
X163135624Y-93035188D01*
X163203544Y-92871216D01*
X163302147Y-92723646D01*
X163427646Y-92598147D01*
X163575216Y-92499544D01*
X163739188Y-92431624D01*
X163888488Y-92401927D01*
X163913258Y-92397000D01*
X164090742Y-92397000D01*
X164115512Y-92401927D01*
G37*
G36*
X166655512Y-92401927D02*
G01*
X166804812Y-92431624D01*
X166968784Y-92499544D01*
X167116354Y-92598147D01*
X167241853Y-92723646D01*
X167340456Y-92871216D01*
X167408376Y-93035188D01*
X167443000Y-93209259D01*
X167443000Y-93386741D01*
X167408376Y-93560812D01*
X167340456Y-93724784D01*
X167241853Y-93872354D01*
X167116354Y-93997853D01*
X166968784Y-94096456D01*
X166804812Y-94164376D01*
X166655512Y-94194073D01*
X166630742Y-94199000D01*
X166453258Y-94199000D01*
X166428488Y-94194073D01*
X166279188Y-94164376D01*
X166115216Y-94096456D01*
X165967646Y-93997853D01*
X165842147Y-93872354D01*
X165743544Y-93724784D01*
X165675624Y-93560812D01*
X165641000Y-93386741D01*
X165641000Y-93209259D01*
X165675624Y-93035188D01*
X165743544Y-92871216D01*
X165842147Y-92723646D01*
X165967646Y-92598147D01*
X166115216Y-92499544D01*
X166279188Y-92431624D01*
X166428488Y-92401927D01*
X166453258Y-92397000D01*
X166630742Y-92397000D01*
X166655512Y-92401927D01*
G37*
G36*
X169195512Y-92401927D02*
G01*
X169344812Y-92431624D01*
X169508784Y-92499544D01*
X169656354Y-92598147D01*
X169781853Y-92723646D01*
X169880456Y-92871216D01*
X169948376Y-93035188D01*
X169983000Y-93209259D01*
X169983000Y-93386741D01*
X169948376Y-93560812D01*
X169880456Y-93724784D01*
X169781853Y-93872354D01*
X169656354Y-93997853D01*
X169508784Y-94096456D01*
X169344812Y-94164376D01*
X169195512Y-94194073D01*
X169170742Y-94199000D01*
X168993258Y-94199000D01*
X168968488Y-94194073D01*
X168819188Y-94164376D01*
X168655216Y-94096456D01*
X168507646Y-93997853D01*
X168382147Y-93872354D01*
X168283544Y-93724784D01*
X168215624Y-93560812D01*
X168181000Y-93386741D01*
X168181000Y-93209259D01*
X168215624Y-93035188D01*
X168283544Y-92871216D01*
X168382147Y-92723646D01*
X168507646Y-92598147D01*
X168655216Y-92499544D01*
X168819188Y-92431624D01*
X168968488Y-92401927D01*
X168993258Y-92397000D01*
X169170742Y-92397000D01*
X169195512Y-92401927D01*
G37*
G36*
X171735512Y-92401927D02*
G01*
X171884812Y-92431624D01*
X172048784Y-92499544D01*
X172196354Y-92598147D01*
X172321853Y-92723646D01*
X172420456Y-92871216D01*
X172488376Y-93035188D01*
X172523000Y-93209259D01*
X172523000Y-93386741D01*
X172488376Y-93560812D01*
X172420456Y-93724784D01*
X172321853Y-93872354D01*
X172196354Y-93997853D01*
X172048784Y-94096456D01*
X171884812Y-94164376D01*
X171735512Y-94194073D01*
X171710742Y-94199000D01*
X171533258Y-94199000D01*
X171508488Y-94194073D01*
X171359188Y-94164376D01*
X171195216Y-94096456D01*
X171047646Y-93997853D01*
X170922147Y-93872354D01*
X170823544Y-93724784D01*
X170755624Y-93560812D01*
X170721000Y-93386741D01*
X170721000Y-93209259D01*
X170755624Y-93035188D01*
X170823544Y-92871216D01*
X170922147Y-92723646D01*
X171047646Y-92598147D01*
X171195216Y-92499544D01*
X171359188Y-92431624D01*
X171508488Y-92401927D01*
X171533258Y-92397000D01*
X171710742Y-92397000D01*
X171735512Y-92401927D01*
G37*
G36*
X174275512Y-92401927D02*
G01*
X174424812Y-92431624D01*
X174588784Y-92499544D01*
X174736354Y-92598147D01*
X174861853Y-92723646D01*
X174960456Y-92871216D01*
X175028376Y-93035188D01*
X175063000Y-93209259D01*
X175063000Y-93386741D01*
X175028376Y-93560812D01*
X174960456Y-93724784D01*
X174861853Y-93872354D01*
X174736354Y-93997853D01*
X174588784Y-94096456D01*
X174424812Y-94164376D01*
X174275512Y-94194073D01*
X174250742Y-94199000D01*
X174073258Y-94199000D01*
X174048488Y-94194073D01*
X173899188Y-94164376D01*
X173735216Y-94096456D01*
X173587646Y-93997853D01*
X173462147Y-93872354D01*
X173363544Y-93724784D01*
X173295624Y-93560812D01*
X173261000Y-93386741D01*
X173261000Y-93209259D01*
X173295624Y-93035188D01*
X173363544Y-92871216D01*
X173462147Y-92723646D01*
X173587646Y-92598147D01*
X173735216Y-92499544D01*
X173899188Y-92431624D01*
X174048488Y-92401927D01*
X174073258Y-92397000D01*
X174250742Y-92397000D01*
X174275512Y-92401927D01*
G37*
G36*
X151415512Y-92401927D02*
G01*
X151564812Y-92431624D01*
X151728784Y-92499544D01*
X151876354Y-92598147D01*
X152001853Y-92723646D01*
X152100456Y-92871216D01*
X152168376Y-93035188D01*
X152203000Y-93209259D01*
X152203000Y-93386741D01*
X152168376Y-93560812D01*
X152100456Y-93724784D01*
X152001853Y-93872354D01*
X151876354Y-93997853D01*
X151728784Y-94096456D01*
X151564812Y-94164376D01*
X151415512Y-94194073D01*
X151390742Y-94199000D01*
X151213258Y-94199000D01*
X151188488Y-94194073D01*
X151039188Y-94164376D01*
X150875216Y-94096456D01*
X150727646Y-93997853D01*
X150602147Y-93872354D01*
X150503544Y-93724784D01*
X150435624Y-93560812D01*
X150401000Y-93386741D01*
X150401000Y-93209259D01*
X150435624Y-93035188D01*
X150503544Y-92871216D01*
X150602147Y-92723646D01*
X150727646Y-92598147D01*
X150875216Y-92499544D01*
X151039188Y-92431624D01*
X151188488Y-92401927D01*
X151213258Y-92397000D01*
X151390742Y-92397000D01*
X151415512Y-92401927D01*
G37*
G36*
X161575512Y-92401927D02*
G01*
X161724812Y-92431624D01*
X161888784Y-92499544D01*
X162036354Y-92598147D01*
X162161853Y-92723646D01*
X162260456Y-92871216D01*
X162328376Y-93035188D01*
X162363000Y-93209259D01*
X162363000Y-93386741D01*
X162328376Y-93560812D01*
X162260456Y-93724784D01*
X162161853Y-93872354D01*
X162036354Y-93997853D01*
X161888784Y-94096456D01*
X161724812Y-94164376D01*
X161575512Y-94194073D01*
X161550742Y-94199000D01*
X161373258Y-94199000D01*
X161348488Y-94194073D01*
X161199188Y-94164376D01*
X161035216Y-94096456D01*
X160887646Y-93997853D01*
X160762147Y-93872354D01*
X160663544Y-93724784D01*
X160595624Y-93560812D01*
X160561000Y-93386741D01*
X160561000Y-93209259D01*
X160595624Y-93035188D01*
X160663544Y-92871216D01*
X160762147Y-92723646D01*
X160887646Y-92598147D01*
X161035216Y-92499544D01*
X161199188Y-92431624D01*
X161348488Y-92401927D01*
X161373258Y-92397000D01*
X161550742Y-92397000D01*
X161575512Y-92401927D01*
G37*
M02*
