G04 #@! TF.GenerationSoftware,KiCad,Pcbnew,5.1.5+dfsg1-2build2*
G04 #@! TF.CreationDate,2020-05-27T11:23:31-04:00*
G04 #@! TF.ProjectId,pidroponic_uHAT,70696472-6f70-46f6-9e69-635f75484154,1.0*
G04 #@! TF.SameCoordinates,Original*
G04 #@! TF.FileFunction,Paste,Bot*
G04 #@! TF.FilePolarity,Positive*
%FSLAX46Y46*%
G04 Gerber Fmt 4.6, Leading zero omitted, Abs format (unit mm)*
G04 Created by KiCad (PCBNEW 5.1.5+dfsg1-2build2) date 2020-05-27 11:23:31*
%MOMM*%
%LPD*%
G04 APERTURE LIST*
%ADD10C,0.050000*%
G04 APERTURE END LIST*
D10*
G36*
X145642142Y-115466174D02*
G01*
X145665803Y-115469684D01*
X145689007Y-115475496D01*
X145711529Y-115483554D01*
X145733153Y-115493782D01*
X145753670Y-115506079D01*
X145772883Y-115520329D01*
X145790607Y-115536393D01*
X145806671Y-115554117D01*
X145820921Y-115573330D01*
X145833218Y-115593847D01*
X145843446Y-115615471D01*
X145851504Y-115637993D01*
X145857316Y-115661197D01*
X145860826Y-115684858D01*
X145862000Y-115708750D01*
X145862000Y-116196250D01*
X145860826Y-116220142D01*
X145857316Y-116243803D01*
X145851504Y-116267007D01*
X145843446Y-116289529D01*
X145833218Y-116311153D01*
X145820921Y-116331670D01*
X145806671Y-116350883D01*
X145790607Y-116368607D01*
X145772883Y-116384671D01*
X145753670Y-116398921D01*
X145733153Y-116411218D01*
X145711529Y-116421446D01*
X145689007Y-116429504D01*
X145665803Y-116435316D01*
X145642142Y-116438826D01*
X145618250Y-116440000D01*
X144705750Y-116440000D01*
X144681858Y-116438826D01*
X144658197Y-116435316D01*
X144634993Y-116429504D01*
X144612471Y-116421446D01*
X144590847Y-116411218D01*
X144570330Y-116398921D01*
X144551117Y-116384671D01*
X144533393Y-116368607D01*
X144517329Y-116350883D01*
X144503079Y-116331670D01*
X144490782Y-116311153D01*
X144480554Y-116289529D01*
X144472496Y-116267007D01*
X144466684Y-116243803D01*
X144463174Y-116220142D01*
X144462000Y-116196250D01*
X144462000Y-115708750D01*
X144463174Y-115684858D01*
X144466684Y-115661197D01*
X144472496Y-115637993D01*
X144480554Y-115615471D01*
X144490782Y-115593847D01*
X144503079Y-115573330D01*
X144517329Y-115554117D01*
X144533393Y-115536393D01*
X144551117Y-115520329D01*
X144570330Y-115506079D01*
X144590847Y-115493782D01*
X144612471Y-115483554D01*
X144634993Y-115475496D01*
X144658197Y-115469684D01*
X144681858Y-115466174D01*
X144705750Y-115465000D01*
X145618250Y-115465000D01*
X145642142Y-115466174D01*
G37*
G36*
X145642142Y-113591174D02*
G01*
X145665803Y-113594684D01*
X145689007Y-113600496D01*
X145711529Y-113608554D01*
X145733153Y-113618782D01*
X145753670Y-113631079D01*
X145772883Y-113645329D01*
X145790607Y-113661393D01*
X145806671Y-113679117D01*
X145820921Y-113698330D01*
X145833218Y-113718847D01*
X145843446Y-113740471D01*
X145851504Y-113762993D01*
X145857316Y-113786197D01*
X145860826Y-113809858D01*
X145862000Y-113833750D01*
X145862000Y-114321250D01*
X145860826Y-114345142D01*
X145857316Y-114368803D01*
X145851504Y-114392007D01*
X145843446Y-114414529D01*
X145833218Y-114436153D01*
X145820921Y-114456670D01*
X145806671Y-114475883D01*
X145790607Y-114493607D01*
X145772883Y-114509671D01*
X145753670Y-114523921D01*
X145733153Y-114536218D01*
X145711529Y-114546446D01*
X145689007Y-114554504D01*
X145665803Y-114560316D01*
X145642142Y-114563826D01*
X145618250Y-114565000D01*
X144705750Y-114565000D01*
X144681858Y-114563826D01*
X144658197Y-114560316D01*
X144634993Y-114554504D01*
X144612471Y-114546446D01*
X144590847Y-114536218D01*
X144570330Y-114523921D01*
X144551117Y-114509671D01*
X144533393Y-114493607D01*
X144517329Y-114475883D01*
X144503079Y-114456670D01*
X144490782Y-114436153D01*
X144480554Y-114414529D01*
X144472496Y-114392007D01*
X144466684Y-114368803D01*
X144463174Y-114345142D01*
X144462000Y-114321250D01*
X144462000Y-113833750D01*
X144463174Y-113809858D01*
X144466684Y-113786197D01*
X144472496Y-113762993D01*
X144480554Y-113740471D01*
X144490782Y-113718847D01*
X144503079Y-113698330D01*
X144517329Y-113679117D01*
X144533393Y-113661393D01*
X144551117Y-113645329D01*
X144570330Y-113631079D01*
X144590847Y-113618782D01*
X144612471Y-113608554D01*
X144634993Y-113600496D01*
X144658197Y-113594684D01*
X144681858Y-113591174D01*
X144705750Y-113590000D01*
X145618250Y-113590000D01*
X145642142Y-113591174D01*
G37*
G36*
X150722142Y-115466174D02*
G01*
X150745803Y-115469684D01*
X150769007Y-115475496D01*
X150791529Y-115483554D01*
X150813153Y-115493782D01*
X150833670Y-115506079D01*
X150852883Y-115520329D01*
X150870607Y-115536393D01*
X150886671Y-115554117D01*
X150900921Y-115573330D01*
X150913218Y-115593847D01*
X150923446Y-115615471D01*
X150931504Y-115637993D01*
X150937316Y-115661197D01*
X150940826Y-115684858D01*
X150942000Y-115708750D01*
X150942000Y-116196250D01*
X150940826Y-116220142D01*
X150937316Y-116243803D01*
X150931504Y-116267007D01*
X150923446Y-116289529D01*
X150913218Y-116311153D01*
X150900921Y-116331670D01*
X150886671Y-116350883D01*
X150870607Y-116368607D01*
X150852883Y-116384671D01*
X150833670Y-116398921D01*
X150813153Y-116411218D01*
X150791529Y-116421446D01*
X150769007Y-116429504D01*
X150745803Y-116435316D01*
X150722142Y-116438826D01*
X150698250Y-116440000D01*
X149785750Y-116440000D01*
X149761858Y-116438826D01*
X149738197Y-116435316D01*
X149714993Y-116429504D01*
X149692471Y-116421446D01*
X149670847Y-116411218D01*
X149650330Y-116398921D01*
X149631117Y-116384671D01*
X149613393Y-116368607D01*
X149597329Y-116350883D01*
X149583079Y-116331670D01*
X149570782Y-116311153D01*
X149560554Y-116289529D01*
X149552496Y-116267007D01*
X149546684Y-116243803D01*
X149543174Y-116220142D01*
X149542000Y-116196250D01*
X149542000Y-115708750D01*
X149543174Y-115684858D01*
X149546684Y-115661197D01*
X149552496Y-115637993D01*
X149560554Y-115615471D01*
X149570782Y-115593847D01*
X149583079Y-115573330D01*
X149597329Y-115554117D01*
X149613393Y-115536393D01*
X149631117Y-115520329D01*
X149650330Y-115506079D01*
X149670847Y-115493782D01*
X149692471Y-115483554D01*
X149714993Y-115475496D01*
X149738197Y-115469684D01*
X149761858Y-115466174D01*
X149785750Y-115465000D01*
X150698250Y-115465000D01*
X150722142Y-115466174D01*
G37*
G36*
X150722142Y-113591174D02*
G01*
X150745803Y-113594684D01*
X150769007Y-113600496D01*
X150791529Y-113608554D01*
X150813153Y-113618782D01*
X150833670Y-113631079D01*
X150852883Y-113645329D01*
X150870607Y-113661393D01*
X150886671Y-113679117D01*
X150900921Y-113698330D01*
X150913218Y-113718847D01*
X150923446Y-113740471D01*
X150931504Y-113762993D01*
X150937316Y-113786197D01*
X150940826Y-113809858D01*
X150942000Y-113833750D01*
X150942000Y-114321250D01*
X150940826Y-114345142D01*
X150937316Y-114368803D01*
X150931504Y-114392007D01*
X150923446Y-114414529D01*
X150913218Y-114436153D01*
X150900921Y-114456670D01*
X150886671Y-114475883D01*
X150870607Y-114493607D01*
X150852883Y-114509671D01*
X150833670Y-114523921D01*
X150813153Y-114536218D01*
X150791529Y-114546446D01*
X150769007Y-114554504D01*
X150745803Y-114560316D01*
X150722142Y-114563826D01*
X150698250Y-114565000D01*
X149785750Y-114565000D01*
X149761858Y-114563826D01*
X149738197Y-114560316D01*
X149714993Y-114554504D01*
X149692471Y-114546446D01*
X149670847Y-114536218D01*
X149650330Y-114523921D01*
X149631117Y-114509671D01*
X149613393Y-114493607D01*
X149597329Y-114475883D01*
X149583079Y-114456670D01*
X149570782Y-114436153D01*
X149560554Y-114414529D01*
X149552496Y-114392007D01*
X149546684Y-114368803D01*
X149543174Y-114345142D01*
X149542000Y-114321250D01*
X149542000Y-113833750D01*
X149543174Y-113809858D01*
X149546684Y-113786197D01*
X149552496Y-113762993D01*
X149560554Y-113740471D01*
X149570782Y-113718847D01*
X149583079Y-113698330D01*
X149597329Y-113679117D01*
X149613393Y-113661393D01*
X149631117Y-113645329D01*
X149650330Y-113631079D01*
X149670847Y-113618782D01*
X149692471Y-113608554D01*
X149714993Y-113600496D01*
X149738197Y-113594684D01*
X149761858Y-113591174D01*
X149785750Y-113590000D01*
X150698250Y-113590000D01*
X150722142Y-113591174D01*
G37*
G36*
X148182142Y-115466174D02*
G01*
X148205803Y-115469684D01*
X148229007Y-115475496D01*
X148251529Y-115483554D01*
X148273153Y-115493782D01*
X148293670Y-115506079D01*
X148312883Y-115520329D01*
X148330607Y-115536393D01*
X148346671Y-115554117D01*
X148360921Y-115573330D01*
X148373218Y-115593847D01*
X148383446Y-115615471D01*
X148391504Y-115637993D01*
X148397316Y-115661197D01*
X148400826Y-115684858D01*
X148402000Y-115708750D01*
X148402000Y-116196250D01*
X148400826Y-116220142D01*
X148397316Y-116243803D01*
X148391504Y-116267007D01*
X148383446Y-116289529D01*
X148373218Y-116311153D01*
X148360921Y-116331670D01*
X148346671Y-116350883D01*
X148330607Y-116368607D01*
X148312883Y-116384671D01*
X148293670Y-116398921D01*
X148273153Y-116411218D01*
X148251529Y-116421446D01*
X148229007Y-116429504D01*
X148205803Y-116435316D01*
X148182142Y-116438826D01*
X148158250Y-116440000D01*
X147245750Y-116440000D01*
X147221858Y-116438826D01*
X147198197Y-116435316D01*
X147174993Y-116429504D01*
X147152471Y-116421446D01*
X147130847Y-116411218D01*
X147110330Y-116398921D01*
X147091117Y-116384671D01*
X147073393Y-116368607D01*
X147057329Y-116350883D01*
X147043079Y-116331670D01*
X147030782Y-116311153D01*
X147020554Y-116289529D01*
X147012496Y-116267007D01*
X147006684Y-116243803D01*
X147003174Y-116220142D01*
X147002000Y-116196250D01*
X147002000Y-115708750D01*
X147003174Y-115684858D01*
X147006684Y-115661197D01*
X147012496Y-115637993D01*
X147020554Y-115615471D01*
X147030782Y-115593847D01*
X147043079Y-115573330D01*
X147057329Y-115554117D01*
X147073393Y-115536393D01*
X147091117Y-115520329D01*
X147110330Y-115506079D01*
X147130847Y-115493782D01*
X147152471Y-115483554D01*
X147174993Y-115475496D01*
X147198197Y-115469684D01*
X147221858Y-115466174D01*
X147245750Y-115465000D01*
X148158250Y-115465000D01*
X148182142Y-115466174D01*
G37*
G36*
X148182142Y-113591174D02*
G01*
X148205803Y-113594684D01*
X148229007Y-113600496D01*
X148251529Y-113608554D01*
X148273153Y-113618782D01*
X148293670Y-113631079D01*
X148312883Y-113645329D01*
X148330607Y-113661393D01*
X148346671Y-113679117D01*
X148360921Y-113698330D01*
X148373218Y-113718847D01*
X148383446Y-113740471D01*
X148391504Y-113762993D01*
X148397316Y-113786197D01*
X148400826Y-113809858D01*
X148402000Y-113833750D01*
X148402000Y-114321250D01*
X148400826Y-114345142D01*
X148397316Y-114368803D01*
X148391504Y-114392007D01*
X148383446Y-114414529D01*
X148373218Y-114436153D01*
X148360921Y-114456670D01*
X148346671Y-114475883D01*
X148330607Y-114493607D01*
X148312883Y-114509671D01*
X148293670Y-114523921D01*
X148273153Y-114536218D01*
X148251529Y-114546446D01*
X148229007Y-114554504D01*
X148205803Y-114560316D01*
X148182142Y-114563826D01*
X148158250Y-114565000D01*
X147245750Y-114565000D01*
X147221858Y-114563826D01*
X147198197Y-114560316D01*
X147174993Y-114554504D01*
X147152471Y-114546446D01*
X147130847Y-114536218D01*
X147110330Y-114523921D01*
X147091117Y-114509671D01*
X147073393Y-114493607D01*
X147057329Y-114475883D01*
X147043079Y-114456670D01*
X147030782Y-114436153D01*
X147020554Y-114414529D01*
X147012496Y-114392007D01*
X147006684Y-114368803D01*
X147003174Y-114345142D01*
X147002000Y-114321250D01*
X147002000Y-113833750D01*
X147003174Y-113809858D01*
X147006684Y-113786197D01*
X147012496Y-113762993D01*
X147020554Y-113740471D01*
X147030782Y-113718847D01*
X147043079Y-113698330D01*
X147057329Y-113679117D01*
X147073393Y-113661393D01*
X147091117Y-113645329D01*
X147110330Y-113631079D01*
X147130847Y-113618782D01*
X147152471Y-113608554D01*
X147174993Y-113600496D01*
X147198197Y-113594684D01*
X147221858Y-113591174D01*
X147245750Y-113590000D01*
X148158250Y-113590000D01*
X148182142Y-113591174D01*
G37*
G36*
X166724142Y-104163174D02*
G01*
X166747803Y-104166684D01*
X166771007Y-104172496D01*
X166793529Y-104180554D01*
X166815153Y-104190782D01*
X166835670Y-104203079D01*
X166854883Y-104217329D01*
X166872607Y-104233393D01*
X166888671Y-104251117D01*
X166902921Y-104270330D01*
X166915218Y-104290847D01*
X166925446Y-104312471D01*
X166933504Y-104334993D01*
X166939316Y-104358197D01*
X166942826Y-104381858D01*
X166944000Y-104405750D01*
X166944000Y-104893250D01*
X166942826Y-104917142D01*
X166939316Y-104940803D01*
X166933504Y-104964007D01*
X166925446Y-104986529D01*
X166915218Y-105008153D01*
X166902921Y-105028670D01*
X166888671Y-105047883D01*
X166872607Y-105065607D01*
X166854883Y-105081671D01*
X166835670Y-105095921D01*
X166815153Y-105108218D01*
X166793529Y-105118446D01*
X166771007Y-105126504D01*
X166747803Y-105132316D01*
X166724142Y-105135826D01*
X166700250Y-105137000D01*
X165787750Y-105137000D01*
X165763858Y-105135826D01*
X165740197Y-105132316D01*
X165716993Y-105126504D01*
X165694471Y-105118446D01*
X165672847Y-105108218D01*
X165652330Y-105095921D01*
X165633117Y-105081671D01*
X165615393Y-105065607D01*
X165599329Y-105047883D01*
X165585079Y-105028670D01*
X165572782Y-105008153D01*
X165562554Y-104986529D01*
X165554496Y-104964007D01*
X165548684Y-104940803D01*
X165545174Y-104917142D01*
X165544000Y-104893250D01*
X165544000Y-104405750D01*
X165545174Y-104381858D01*
X165548684Y-104358197D01*
X165554496Y-104334993D01*
X165562554Y-104312471D01*
X165572782Y-104290847D01*
X165585079Y-104270330D01*
X165599329Y-104251117D01*
X165615393Y-104233393D01*
X165633117Y-104217329D01*
X165652330Y-104203079D01*
X165672847Y-104190782D01*
X165694471Y-104180554D01*
X165716993Y-104172496D01*
X165740197Y-104166684D01*
X165763858Y-104163174D01*
X165787750Y-104162000D01*
X166700250Y-104162000D01*
X166724142Y-104163174D01*
G37*
G36*
X166724142Y-102288174D02*
G01*
X166747803Y-102291684D01*
X166771007Y-102297496D01*
X166793529Y-102305554D01*
X166815153Y-102315782D01*
X166835670Y-102328079D01*
X166854883Y-102342329D01*
X166872607Y-102358393D01*
X166888671Y-102376117D01*
X166902921Y-102395330D01*
X166915218Y-102415847D01*
X166925446Y-102437471D01*
X166933504Y-102459993D01*
X166939316Y-102483197D01*
X166942826Y-102506858D01*
X166944000Y-102530750D01*
X166944000Y-103018250D01*
X166942826Y-103042142D01*
X166939316Y-103065803D01*
X166933504Y-103089007D01*
X166925446Y-103111529D01*
X166915218Y-103133153D01*
X166902921Y-103153670D01*
X166888671Y-103172883D01*
X166872607Y-103190607D01*
X166854883Y-103206671D01*
X166835670Y-103220921D01*
X166815153Y-103233218D01*
X166793529Y-103243446D01*
X166771007Y-103251504D01*
X166747803Y-103257316D01*
X166724142Y-103260826D01*
X166700250Y-103262000D01*
X165787750Y-103262000D01*
X165763858Y-103260826D01*
X165740197Y-103257316D01*
X165716993Y-103251504D01*
X165694471Y-103243446D01*
X165672847Y-103233218D01*
X165652330Y-103220921D01*
X165633117Y-103206671D01*
X165615393Y-103190607D01*
X165599329Y-103172883D01*
X165585079Y-103153670D01*
X165572782Y-103133153D01*
X165562554Y-103111529D01*
X165554496Y-103089007D01*
X165548684Y-103065803D01*
X165545174Y-103042142D01*
X165544000Y-103018250D01*
X165544000Y-102530750D01*
X165545174Y-102506858D01*
X165548684Y-102483197D01*
X165554496Y-102459993D01*
X165562554Y-102437471D01*
X165572782Y-102415847D01*
X165585079Y-102395330D01*
X165599329Y-102376117D01*
X165615393Y-102358393D01*
X165633117Y-102342329D01*
X165652330Y-102328079D01*
X165672847Y-102315782D01*
X165694471Y-102305554D01*
X165716993Y-102297496D01*
X165740197Y-102291684D01*
X165763858Y-102288174D01*
X165787750Y-102287000D01*
X166700250Y-102287000D01*
X166724142Y-102288174D01*
G37*
G36*
X166724142Y-107719174D02*
G01*
X166747803Y-107722684D01*
X166771007Y-107728496D01*
X166793529Y-107736554D01*
X166815153Y-107746782D01*
X166835670Y-107759079D01*
X166854883Y-107773329D01*
X166872607Y-107789393D01*
X166888671Y-107807117D01*
X166902921Y-107826330D01*
X166915218Y-107846847D01*
X166925446Y-107868471D01*
X166933504Y-107890993D01*
X166939316Y-107914197D01*
X166942826Y-107937858D01*
X166944000Y-107961750D01*
X166944000Y-108449250D01*
X166942826Y-108473142D01*
X166939316Y-108496803D01*
X166933504Y-108520007D01*
X166925446Y-108542529D01*
X166915218Y-108564153D01*
X166902921Y-108584670D01*
X166888671Y-108603883D01*
X166872607Y-108621607D01*
X166854883Y-108637671D01*
X166835670Y-108651921D01*
X166815153Y-108664218D01*
X166793529Y-108674446D01*
X166771007Y-108682504D01*
X166747803Y-108688316D01*
X166724142Y-108691826D01*
X166700250Y-108693000D01*
X165787750Y-108693000D01*
X165763858Y-108691826D01*
X165740197Y-108688316D01*
X165716993Y-108682504D01*
X165694471Y-108674446D01*
X165672847Y-108664218D01*
X165652330Y-108651921D01*
X165633117Y-108637671D01*
X165615393Y-108621607D01*
X165599329Y-108603883D01*
X165585079Y-108584670D01*
X165572782Y-108564153D01*
X165562554Y-108542529D01*
X165554496Y-108520007D01*
X165548684Y-108496803D01*
X165545174Y-108473142D01*
X165544000Y-108449250D01*
X165544000Y-107961750D01*
X165545174Y-107937858D01*
X165548684Y-107914197D01*
X165554496Y-107890993D01*
X165562554Y-107868471D01*
X165572782Y-107846847D01*
X165585079Y-107826330D01*
X165599329Y-107807117D01*
X165615393Y-107789393D01*
X165633117Y-107773329D01*
X165652330Y-107759079D01*
X165672847Y-107746782D01*
X165694471Y-107736554D01*
X165716993Y-107728496D01*
X165740197Y-107722684D01*
X165763858Y-107719174D01*
X165787750Y-107718000D01*
X166700250Y-107718000D01*
X166724142Y-107719174D01*
G37*
G36*
X166724142Y-105844174D02*
G01*
X166747803Y-105847684D01*
X166771007Y-105853496D01*
X166793529Y-105861554D01*
X166815153Y-105871782D01*
X166835670Y-105884079D01*
X166854883Y-105898329D01*
X166872607Y-105914393D01*
X166888671Y-105932117D01*
X166902921Y-105951330D01*
X166915218Y-105971847D01*
X166925446Y-105993471D01*
X166933504Y-106015993D01*
X166939316Y-106039197D01*
X166942826Y-106062858D01*
X166944000Y-106086750D01*
X166944000Y-106574250D01*
X166942826Y-106598142D01*
X166939316Y-106621803D01*
X166933504Y-106645007D01*
X166925446Y-106667529D01*
X166915218Y-106689153D01*
X166902921Y-106709670D01*
X166888671Y-106728883D01*
X166872607Y-106746607D01*
X166854883Y-106762671D01*
X166835670Y-106776921D01*
X166815153Y-106789218D01*
X166793529Y-106799446D01*
X166771007Y-106807504D01*
X166747803Y-106813316D01*
X166724142Y-106816826D01*
X166700250Y-106818000D01*
X165787750Y-106818000D01*
X165763858Y-106816826D01*
X165740197Y-106813316D01*
X165716993Y-106807504D01*
X165694471Y-106799446D01*
X165672847Y-106789218D01*
X165652330Y-106776921D01*
X165633117Y-106762671D01*
X165615393Y-106746607D01*
X165599329Y-106728883D01*
X165585079Y-106709670D01*
X165572782Y-106689153D01*
X165562554Y-106667529D01*
X165554496Y-106645007D01*
X165548684Y-106621803D01*
X165545174Y-106598142D01*
X165544000Y-106574250D01*
X165544000Y-106086750D01*
X165545174Y-106062858D01*
X165548684Y-106039197D01*
X165554496Y-106015993D01*
X165562554Y-105993471D01*
X165572782Y-105971847D01*
X165585079Y-105951330D01*
X165599329Y-105932117D01*
X165615393Y-105914393D01*
X165633117Y-105898329D01*
X165652330Y-105884079D01*
X165672847Y-105871782D01*
X165694471Y-105861554D01*
X165716993Y-105853496D01*
X165740197Y-105847684D01*
X165763858Y-105844174D01*
X165787750Y-105843000D01*
X166700250Y-105843000D01*
X166724142Y-105844174D01*
G37*
G36*
X159612142Y-104084674D02*
G01*
X159635803Y-104088184D01*
X159659007Y-104093996D01*
X159681529Y-104102054D01*
X159703153Y-104112282D01*
X159723670Y-104124579D01*
X159742883Y-104138829D01*
X159760607Y-104154893D01*
X159776671Y-104172617D01*
X159790921Y-104191830D01*
X159803218Y-104212347D01*
X159813446Y-104233971D01*
X159821504Y-104256493D01*
X159827316Y-104279697D01*
X159830826Y-104303358D01*
X159832000Y-104327250D01*
X159832000Y-104814750D01*
X159830826Y-104838642D01*
X159827316Y-104862303D01*
X159821504Y-104885507D01*
X159813446Y-104908029D01*
X159803218Y-104929653D01*
X159790921Y-104950170D01*
X159776671Y-104969383D01*
X159760607Y-104987107D01*
X159742883Y-105003171D01*
X159723670Y-105017421D01*
X159703153Y-105029718D01*
X159681529Y-105039946D01*
X159659007Y-105048004D01*
X159635803Y-105053816D01*
X159612142Y-105057326D01*
X159588250Y-105058500D01*
X158675750Y-105058500D01*
X158651858Y-105057326D01*
X158628197Y-105053816D01*
X158604993Y-105048004D01*
X158582471Y-105039946D01*
X158560847Y-105029718D01*
X158540330Y-105017421D01*
X158521117Y-105003171D01*
X158503393Y-104987107D01*
X158487329Y-104969383D01*
X158473079Y-104950170D01*
X158460782Y-104929653D01*
X158450554Y-104908029D01*
X158442496Y-104885507D01*
X158436684Y-104862303D01*
X158433174Y-104838642D01*
X158432000Y-104814750D01*
X158432000Y-104327250D01*
X158433174Y-104303358D01*
X158436684Y-104279697D01*
X158442496Y-104256493D01*
X158450554Y-104233971D01*
X158460782Y-104212347D01*
X158473079Y-104191830D01*
X158487329Y-104172617D01*
X158503393Y-104154893D01*
X158521117Y-104138829D01*
X158540330Y-104124579D01*
X158560847Y-104112282D01*
X158582471Y-104102054D01*
X158604993Y-104093996D01*
X158628197Y-104088184D01*
X158651858Y-104084674D01*
X158675750Y-104083500D01*
X159588250Y-104083500D01*
X159612142Y-104084674D01*
G37*
G36*
X159612142Y-102209674D02*
G01*
X159635803Y-102213184D01*
X159659007Y-102218996D01*
X159681529Y-102227054D01*
X159703153Y-102237282D01*
X159723670Y-102249579D01*
X159742883Y-102263829D01*
X159760607Y-102279893D01*
X159776671Y-102297617D01*
X159790921Y-102316830D01*
X159803218Y-102337347D01*
X159813446Y-102358971D01*
X159821504Y-102381493D01*
X159827316Y-102404697D01*
X159830826Y-102428358D01*
X159832000Y-102452250D01*
X159832000Y-102939750D01*
X159830826Y-102963642D01*
X159827316Y-102987303D01*
X159821504Y-103010507D01*
X159813446Y-103033029D01*
X159803218Y-103054653D01*
X159790921Y-103075170D01*
X159776671Y-103094383D01*
X159760607Y-103112107D01*
X159742883Y-103128171D01*
X159723670Y-103142421D01*
X159703153Y-103154718D01*
X159681529Y-103164946D01*
X159659007Y-103173004D01*
X159635803Y-103178816D01*
X159612142Y-103182326D01*
X159588250Y-103183500D01*
X158675750Y-103183500D01*
X158651858Y-103182326D01*
X158628197Y-103178816D01*
X158604993Y-103173004D01*
X158582471Y-103164946D01*
X158560847Y-103154718D01*
X158540330Y-103142421D01*
X158521117Y-103128171D01*
X158503393Y-103112107D01*
X158487329Y-103094383D01*
X158473079Y-103075170D01*
X158460782Y-103054653D01*
X158450554Y-103033029D01*
X158442496Y-103010507D01*
X158436684Y-102987303D01*
X158433174Y-102963642D01*
X158432000Y-102939750D01*
X158432000Y-102452250D01*
X158433174Y-102428358D01*
X158436684Y-102404697D01*
X158442496Y-102381493D01*
X158450554Y-102358971D01*
X158460782Y-102337347D01*
X158473079Y-102316830D01*
X158487329Y-102297617D01*
X158503393Y-102279893D01*
X158521117Y-102263829D01*
X158540330Y-102249579D01*
X158560847Y-102237282D01*
X158582471Y-102227054D01*
X158604993Y-102218996D01*
X158628197Y-102213184D01*
X158651858Y-102209674D01*
X158675750Y-102208500D01*
X159588250Y-102208500D01*
X159612142Y-102209674D01*
G37*
G36*
X159612142Y-107640674D02*
G01*
X159635803Y-107644184D01*
X159659007Y-107649996D01*
X159681529Y-107658054D01*
X159703153Y-107668282D01*
X159723670Y-107680579D01*
X159742883Y-107694829D01*
X159760607Y-107710893D01*
X159776671Y-107728617D01*
X159790921Y-107747830D01*
X159803218Y-107768347D01*
X159813446Y-107789971D01*
X159821504Y-107812493D01*
X159827316Y-107835697D01*
X159830826Y-107859358D01*
X159832000Y-107883250D01*
X159832000Y-108370750D01*
X159830826Y-108394642D01*
X159827316Y-108418303D01*
X159821504Y-108441507D01*
X159813446Y-108464029D01*
X159803218Y-108485653D01*
X159790921Y-108506170D01*
X159776671Y-108525383D01*
X159760607Y-108543107D01*
X159742883Y-108559171D01*
X159723670Y-108573421D01*
X159703153Y-108585718D01*
X159681529Y-108595946D01*
X159659007Y-108604004D01*
X159635803Y-108609816D01*
X159612142Y-108613326D01*
X159588250Y-108614500D01*
X158675750Y-108614500D01*
X158651858Y-108613326D01*
X158628197Y-108609816D01*
X158604993Y-108604004D01*
X158582471Y-108595946D01*
X158560847Y-108585718D01*
X158540330Y-108573421D01*
X158521117Y-108559171D01*
X158503393Y-108543107D01*
X158487329Y-108525383D01*
X158473079Y-108506170D01*
X158460782Y-108485653D01*
X158450554Y-108464029D01*
X158442496Y-108441507D01*
X158436684Y-108418303D01*
X158433174Y-108394642D01*
X158432000Y-108370750D01*
X158432000Y-107883250D01*
X158433174Y-107859358D01*
X158436684Y-107835697D01*
X158442496Y-107812493D01*
X158450554Y-107789971D01*
X158460782Y-107768347D01*
X158473079Y-107747830D01*
X158487329Y-107728617D01*
X158503393Y-107710893D01*
X158521117Y-107694829D01*
X158540330Y-107680579D01*
X158560847Y-107668282D01*
X158582471Y-107658054D01*
X158604993Y-107649996D01*
X158628197Y-107644184D01*
X158651858Y-107640674D01*
X158675750Y-107639500D01*
X159588250Y-107639500D01*
X159612142Y-107640674D01*
G37*
G36*
X159612142Y-105765674D02*
G01*
X159635803Y-105769184D01*
X159659007Y-105774996D01*
X159681529Y-105783054D01*
X159703153Y-105793282D01*
X159723670Y-105805579D01*
X159742883Y-105819829D01*
X159760607Y-105835893D01*
X159776671Y-105853617D01*
X159790921Y-105872830D01*
X159803218Y-105893347D01*
X159813446Y-105914971D01*
X159821504Y-105937493D01*
X159827316Y-105960697D01*
X159830826Y-105984358D01*
X159832000Y-106008250D01*
X159832000Y-106495750D01*
X159830826Y-106519642D01*
X159827316Y-106543303D01*
X159821504Y-106566507D01*
X159813446Y-106589029D01*
X159803218Y-106610653D01*
X159790921Y-106631170D01*
X159776671Y-106650383D01*
X159760607Y-106668107D01*
X159742883Y-106684171D01*
X159723670Y-106698421D01*
X159703153Y-106710718D01*
X159681529Y-106720946D01*
X159659007Y-106729004D01*
X159635803Y-106734816D01*
X159612142Y-106738326D01*
X159588250Y-106739500D01*
X158675750Y-106739500D01*
X158651858Y-106738326D01*
X158628197Y-106734816D01*
X158604993Y-106729004D01*
X158582471Y-106720946D01*
X158560847Y-106710718D01*
X158540330Y-106698421D01*
X158521117Y-106684171D01*
X158503393Y-106668107D01*
X158487329Y-106650383D01*
X158473079Y-106631170D01*
X158460782Y-106610653D01*
X158450554Y-106589029D01*
X158442496Y-106566507D01*
X158436684Y-106543303D01*
X158433174Y-106519642D01*
X158432000Y-106495750D01*
X158432000Y-106008250D01*
X158433174Y-105984358D01*
X158436684Y-105960697D01*
X158442496Y-105937493D01*
X158450554Y-105914971D01*
X158460782Y-105893347D01*
X158473079Y-105872830D01*
X158487329Y-105853617D01*
X158503393Y-105835893D01*
X158521117Y-105819829D01*
X158540330Y-105805579D01*
X158560847Y-105793282D01*
X158582471Y-105783054D01*
X158604993Y-105774996D01*
X158628197Y-105769184D01*
X158651858Y-105765674D01*
X158675750Y-105764500D01*
X159588250Y-105764500D01*
X159612142Y-105765674D01*
G37*
G36*
X152500142Y-104163174D02*
G01*
X152523803Y-104166684D01*
X152547007Y-104172496D01*
X152569529Y-104180554D01*
X152591153Y-104190782D01*
X152611670Y-104203079D01*
X152630883Y-104217329D01*
X152648607Y-104233393D01*
X152664671Y-104251117D01*
X152678921Y-104270330D01*
X152691218Y-104290847D01*
X152701446Y-104312471D01*
X152709504Y-104334993D01*
X152715316Y-104358197D01*
X152718826Y-104381858D01*
X152720000Y-104405750D01*
X152720000Y-104893250D01*
X152718826Y-104917142D01*
X152715316Y-104940803D01*
X152709504Y-104964007D01*
X152701446Y-104986529D01*
X152691218Y-105008153D01*
X152678921Y-105028670D01*
X152664671Y-105047883D01*
X152648607Y-105065607D01*
X152630883Y-105081671D01*
X152611670Y-105095921D01*
X152591153Y-105108218D01*
X152569529Y-105118446D01*
X152547007Y-105126504D01*
X152523803Y-105132316D01*
X152500142Y-105135826D01*
X152476250Y-105137000D01*
X151563750Y-105137000D01*
X151539858Y-105135826D01*
X151516197Y-105132316D01*
X151492993Y-105126504D01*
X151470471Y-105118446D01*
X151448847Y-105108218D01*
X151428330Y-105095921D01*
X151409117Y-105081671D01*
X151391393Y-105065607D01*
X151375329Y-105047883D01*
X151361079Y-105028670D01*
X151348782Y-105008153D01*
X151338554Y-104986529D01*
X151330496Y-104964007D01*
X151324684Y-104940803D01*
X151321174Y-104917142D01*
X151320000Y-104893250D01*
X151320000Y-104405750D01*
X151321174Y-104381858D01*
X151324684Y-104358197D01*
X151330496Y-104334993D01*
X151338554Y-104312471D01*
X151348782Y-104290847D01*
X151361079Y-104270330D01*
X151375329Y-104251117D01*
X151391393Y-104233393D01*
X151409117Y-104217329D01*
X151428330Y-104203079D01*
X151448847Y-104190782D01*
X151470471Y-104180554D01*
X151492993Y-104172496D01*
X151516197Y-104166684D01*
X151539858Y-104163174D01*
X151563750Y-104162000D01*
X152476250Y-104162000D01*
X152500142Y-104163174D01*
G37*
G36*
X152500142Y-102288174D02*
G01*
X152523803Y-102291684D01*
X152547007Y-102297496D01*
X152569529Y-102305554D01*
X152591153Y-102315782D01*
X152611670Y-102328079D01*
X152630883Y-102342329D01*
X152648607Y-102358393D01*
X152664671Y-102376117D01*
X152678921Y-102395330D01*
X152691218Y-102415847D01*
X152701446Y-102437471D01*
X152709504Y-102459993D01*
X152715316Y-102483197D01*
X152718826Y-102506858D01*
X152720000Y-102530750D01*
X152720000Y-103018250D01*
X152718826Y-103042142D01*
X152715316Y-103065803D01*
X152709504Y-103089007D01*
X152701446Y-103111529D01*
X152691218Y-103133153D01*
X152678921Y-103153670D01*
X152664671Y-103172883D01*
X152648607Y-103190607D01*
X152630883Y-103206671D01*
X152611670Y-103220921D01*
X152591153Y-103233218D01*
X152569529Y-103243446D01*
X152547007Y-103251504D01*
X152523803Y-103257316D01*
X152500142Y-103260826D01*
X152476250Y-103262000D01*
X151563750Y-103262000D01*
X151539858Y-103260826D01*
X151516197Y-103257316D01*
X151492993Y-103251504D01*
X151470471Y-103243446D01*
X151448847Y-103233218D01*
X151428330Y-103220921D01*
X151409117Y-103206671D01*
X151391393Y-103190607D01*
X151375329Y-103172883D01*
X151361079Y-103153670D01*
X151348782Y-103133153D01*
X151338554Y-103111529D01*
X151330496Y-103089007D01*
X151324684Y-103065803D01*
X151321174Y-103042142D01*
X151320000Y-103018250D01*
X151320000Y-102530750D01*
X151321174Y-102506858D01*
X151324684Y-102483197D01*
X151330496Y-102459993D01*
X151338554Y-102437471D01*
X151348782Y-102415847D01*
X151361079Y-102395330D01*
X151375329Y-102376117D01*
X151391393Y-102358393D01*
X151409117Y-102342329D01*
X151428330Y-102328079D01*
X151448847Y-102315782D01*
X151470471Y-102305554D01*
X151492993Y-102297496D01*
X151516197Y-102291684D01*
X151539858Y-102288174D01*
X151563750Y-102287000D01*
X152476250Y-102287000D01*
X152500142Y-102288174D01*
G37*
G36*
X152500142Y-107797674D02*
G01*
X152523803Y-107801184D01*
X152547007Y-107806996D01*
X152569529Y-107815054D01*
X152591153Y-107825282D01*
X152611670Y-107837579D01*
X152630883Y-107851829D01*
X152648607Y-107867893D01*
X152664671Y-107885617D01*
X152678921Y-107904830D01*
X152691218Y-107925347D01*
X152701446Y-107946971D01*
X152709504Y-107969493D01*
X152715316Y-107992697D01*
X152718826Y-108016358D01*
X152720000Y-108040250D01*
X152720000Y-108527750D01*
X152718826Y-108551642D01*
X152715316Y-108575303D01*
X152709504Y-108598507D01*
X152701446Y-108621029D01*
X152691218Y-108642653D01*
X152678921Y-108663170D01*
X152664671Y-108682383D01*
X152648607Y-108700107D01*
X152630883Y-108716171D01*
X152611670Y-108730421D01*
X152591153Y-108742718D01*
X152569529Y-108752946D01*
X152547007Y-108761004D01*
X152523803Y-108766816D01*
X152500142Y-108770326D01*
X152476250Y-108771500D01*
X151563750Y-108771500D01*
X151539858Y-108770326D01*
X151516197Y-108766816D01*
X151492993Y-108761004D01*
X151470471Y-108752946D01*
X151448847Y-108742718D01*
X151428330Y-108730421D01*
X151409117Y-108716171D01*
X151391393Y-108700107D01*
X151375329Y-108682383D01*
X151361079Y-108663170D01*
X151348782Y-108642653D01*
X151338554Y-108621029D01*
X151330496Y-108598507D01*
X151324684Y-108575303D01*
X151321174Y-108551642D01*
X151320000Y-108527750D01*
X151320000Y-108040250D01*
X151321174Y-108016358D01*
X151324684Y-107992697D01*
X151330496Y-107969493D01*
X151338554Y-107946971D01*
X151348782Y-107925347D01*
X151361079Y-107904830D01*
X151375329Y-107885617D01*
X151391393Y-107867893D01*
X151409117Y-107851829D01*
X151428330Y-107837579D01*
X151448847Y-107825282D01*
X151470471Y-107815054D01*
X151492993Y-107806996D01*
X151516197Y-107801184D01*
X151539858Y-107797674D01*
X151563750Y-107796500D01*
X152476250Y-107796500D01*
X152500142Y-107797674D01*
G37*
G36*
X152500142Y-105922674D02*
G01*
X152523803Y-105926184D01*
X152547007Y-105931996D01*
X152569529Y-105940054D01*
X152591153Y-105950282D01*
X152611670Y-105962579D01*
X152630883Y-105976829D01*
X152648607Y-105992893D01*
X152664671Y-106010617D01*
X152678921Y-106029830D01*
X152691218Y-106050347D01*
X152701446Y-106071971D01*
X152709504Y-106094493D01*
X152715316Y-106117697D01*
X152718826Y-106141358D01*
X152720000Y-106165250D01*
X152720000Y-106652750D01*
X152718826Y-106676642D01*
X152715316Y-106700303D01*
X152709504Y-106723507D01*
X152701446Y-106746029D01*
X152691218Y-106767653D01*
X152678921Y-106788170D01*
X152664671Y-106807383D01*
X152648607Y-106825107D01*
X152630883Y-106841171D01*
X152611670Y-106855421D01*
X152591153Y-106867718D01*
X152569529Y-106877946D01*
X152547007Y-106886004D01*
X152523803Y-106891816D01*
X152500142Y-106895326D01*
X152476250Y-106896500D01*
X151563750Y-106896500D01*
X151539858Y-106895326D01*
X151516197Y-106891816D01*
X151492993Y-106886004D01*
X151470471Y-106877946D01*
X151448847Y-106867718D01*
X151428330Y-106855421D01*
X151409117Y-106841171D01*
X151391393Y-106825107D01*
X151375329Y-106807383D01*
X151361079Y-106788170D01*
X151348782Y-106767653D01*
X151338554Y-106746029D01*
X151330496Y-106723507D01*
X151324684Y-106700303D01*
X151321174Y-106676642D01*
X151320000Y-106652750D01*
X151320000Y-106165250D01*
X151321174Y-106141358D01*
X151324684Y-106117697D01*
X151330496Y-106094493D01*
X151338554Y-106071971D01*
X151348782Y-106050347D01*
X151361079Y-106029830D01*
X151375329Y-106010617D01*
X151391393Y-105992893D01*
X151409117Y-105976829D01*
X151428330Y-105962579D01*
X151448847Y-105950282D01*
X151470471Y-105940054D01*
X151492993Y-105931996D01*
X151516197Y-105926184D01*
X151539858Y-105922674D01*
X151563750Y-105921500D01*
X152476250Y-105921500D01*
X152500142Y-105922674D01*
G37*
G36*
X146987142Y-105619174D02*
G01*
X147010803Y-105622684D01*
X147034007Y-105628496D01*
X147056529Y-105636554D01*
X147078153Y-105646782D01*
X147098670Y-105659079D01*
X147117883Y-105673329D01*
X147135607Y-105689393D01*
X147151671Y-105707117D01*
X147165921Y-105726330D01*
X147178218Y-105746847D01*
X147188446Y-105768471D01*
X147196504Y-105790993D01*
X147202316Y-105814197D01*
X147205826Y-105837858D01*
X147207000Y-105861750D01*
X147207000Y-106774250D01*
X147205826Y-106798142D01*
X147202316Y-106821803D01*
X147196504Y-106845007D01*
X147188446Y-106867529D01*
X147178218Y-106889153D01*
X147165921Y-106909670D01*
X147151671Y-106928883D01*
X147135607Y-106946607D01*
X147117883Y-106962671D01*
X147098670Y-106976921D01*
X147078153Y-106989218D01*
X147056529Y-106999446D01*
X147034007Y-107007504D01*
X147010803Y-107013316D01*
X146987142Y-107016826D01*
X146963250Y-107018000D01*
X146475750Y-107018000D01*
X146451858Y-107016826D01*
X146428197Y-107013316D01*
X146404993Y-107007504D01*
X146382471Y-106999446D01*
X146360847Y-106989218D01*
X146340330Y-106976921D01*
X146321117Y-106962671D01*
X146303393Y-106946607D01*
X146287329Y-106928883D01*
X146273079Y-106909670D01*
X146260782Y-106889153D01*
X146250554Y-106867529D01*
X146242496Y-106845007D01*
X146236684Y-106821803D01*
X146233174Y-106798142D01*
X146232000Y-106774250D01*
X146232000Y-105861750D01*
X146233174Y-105837858D01*
X146236684Y-105814197D01*
X146242496Y-105790993D01*
X146250554Y-105768471D01*
X146260782Y-105746847D01*
X146273079Y-105726330D01*
X146287329Y-105707117D01*
X146303393Y-105689393D01*
X146321117Y-105673329D01*
X146340330Y-105659079D01*
X146360847Y-105646782D01*
X146382471Y-105636554D01*
X146404993Y-105628496D01*
X146428197Y-105622684D01*
X146451858Y-105619174D01*
X146475750Y-105618000D01*
X146963250Y-105618000D01*
X146987142Y-105619174D01*
G37*
G36*
X145112142Y-105619174D02*
G01*
X145135803Y-105622684D01*
X145159007Y-105628496D01*
X145181529Y-105636554D01*
X145203153Y-105646782D01*
X145223670Y-105659079D01*
X145242883Y-105673329D01*
X145260607Y-105689393D01*
X145276671Y-105707117D01*
X145290921Y-105726330D01*
X145303218Y-105746847D01*
X145313446Y-105768471D01*
X145321504Y-105790993D01*
X145327316Y-105814197D01*
X145330826Y-105837858D01*
X145332000Y-105861750D01*
X145332000Y-106774250D01*
X145330826Y-106798142D01*
X145327316Y-106821803D01*
X145321504Y-106845007D01*
X145313446Y-106867529D01*
X145303218Y-106889153D01*
X145290921Y-106909670D01*
X145276671Y-106928883D01*
X145260607Y-106946607D01*
X145242883Y-106962671D01*
X145223670Y-106976921D01*
X145203153Y-106989218D01*
X145181529Y-106999446D01*
X145159007Y-107007504D01*
X145135803Y-107013316D01*
X145112142Y-107016826D01*
X145088250Y-107018000D01*
X144600750Y-107018000D01*
X144576858Y-107016826D01*
X144553197Y-107013316D01*
X144529993Y-107007504D01*
X144507471Y-106999446D01*
X144485847Y-106989218D01*
X144465330Y-106976921D01*
X144446117Y-106962671D01*
X144428393Y-106946607D01*
X144412329Y-106928883D01*
X144398079Y-106909670D01*
X144385782Y-106889153D01*
X144375554Y-106867529D01*
X144367496Y-106845007D01*
X144361684Y-106821803D01*
X144358174Y-106798142D01*
X144357000Y-106774250D01*
X144357000Y-105861750D01*
X144358174Y-105837858D01*
X144361684Y-105814197D01*
X144367496Y-105790993D01*
X144375554Y-105768471D01*
X144385782Y-105746847D01*
X144398079Y-105726330D01*
X144412329Y-105707117D01*
X144428393Y-105689393D01*
X144446117Y-105673329D01*
X144465330Y-105659079D01*
X144485847Y-105646782D01*
X144507471Y-105636554D01*
X144529993Y-105628496D01*
X144553197Y-105622684D01*
X144576858Y-105619174D01*
X144600750Y-105618000D01*
X145088250Y-105618000D01*
X145112142Y-105619174D01*
G37*
G36*
X145041703Y-103068722D02*
G01*
X145056264Y-103070882D01*
X145070543Y-103074459D01*
X145084403Y-103079418D01*
X145097710Y-103085712D01*
X145110336Y-103093280D01*
X145122159Y-103102048D01*
X145133066Y-103111934D01*
X145142952Y-103122841D01*
X145151720Y-103134664D01*
X145159288Y-103147290D01*
X145165582Y-103160597D01*
X145170541Y-103174457D01*
X145174118Y-103188736D01*
X145176278Y-103203297D01*
X145177000Y-103218000D01*
X145177000Y-104868000D01*
X145176278Y-104882703D01*
X145174118Y-104897264D01*
X145170541Y-104911543D01*
X145165582Y-104925403D01*
X145159288Y-104938710D01*
X145151720Y-104951336D01*
X145142952Y-104963159D01*
X145133066Y-104974066D01*
X145122159Y-104983952D01*
X145110336Y-104992720D01*
X145097710Y-105000288D01*
X145084403Y-105006582D01*
X145070543Y-105011541D01*
X145056264Y-105015118D01*
X145041703Y-105017278D01*
X145027000Y-105018000D01*
X144727000Y-105018000D01*
X144712297Y-105017278D01*
X144697736Y-105015118D01*
X144683457Y-105011541D01*
X144669597Y-105006582D01*
X144656290Y-105000288D01*
X144643664Y-104992720D01*
X144631841Y-104983952D01*
X144620934Y-104974066D01*
X144611048Y-104963159D01*
X144602280Y-104951336D01*
X144594712Y-104938710D01*
X144588418Y-104925403D01*
X144583459Y-104911543D01*
X144579882Y-104897264D01*
X144577722Y-104882703D01*
X144577000Y-104868000D01*
X144577000Y-103218000D01*
X144577722Y-103203297D01*
X144579882Y-103188736D01*
X144583459Y-103174457D01*
X144588418Y-103160597D01*
X144594712Y-103147290D01*
X144602280Y-103134664D01*
X144611048Y-103122841D01*
X144620934Y-103111934D01*
X144631841Y-103102048D01*
X144643664Y-103093280D01*
X144656290Y-103085712D01*
X144669597Y-103079418D01*
X144683457Y-103074459D01*
X144697736Y-103070882D01*
X144712297Y-103068722D01*
X144727000Y-103068000D01*
X145027000Y-103068000D01*
X145041703Y-103068722D01*
G37*
G36*
X146311703Y-103068722D02*
G01*
X146326264Y-103070882D01*
X146340543Y-103074459D01*
X146354403Y-103079418D01*
X146367710Y-103085712D01*
X146380336Y-103093280D01*
X146392159Y-103102048D01*
X146403066Y-103111934D01*
X146412952Y-103122841D01*
X146421720Y-103134664D01*
X146429288Y-103147290D01*
X146435582Y-103160597D01*
X146440541Y-103174457D01*
X146444118Y-103188736D01*
X146446278Y-103203297D01*
X146447000Y-103218000D01*
X146447000Y-104868000D01*
X146446278Y-104882703D01*
X146444118Y-104897264D01*
X146440541Y-104911543D01*
X146435582Y-104925403D01*
X146429288Y-104938710D01*
X146421720Y-104951336D01*
X146412952Y-104963159D01*
X146403066Y-104974066D01*
X146392159Y-104983952D01*
X146380336Y-104992720D01*
X146367710Y-105000288D01*
X146354403Y-105006582D01*
X146340543Y-105011541D01*
X146326264Y-105015118D01*
X146311703Y-105017278D01*
X146297000Y-105018000D01*
X145997000Y-105018000D01*
X145982297Y-105017278D01*
X145967736Y-105015118D01*
X145953457Y-105011541D01*
X145939597Y-105006582D01*
X145926290Y-105000288D01*
X145913664Y-104992720D01*
X145901841Y-104983952D01*
X145890934Y-104974066D01*
X145881048Y-104963159D01*
X145872280Y-104951336D01*
X145864712Y-104938710D01*
X145858418Y-104925403D01*
X145853459Y-104911543D01*
X145849882Y-104897264D01*
X145847722Y-104882703D01*
X145847000Y-104868000D01*
X145847000Y-103218000D01*
X145847722Y-103203297D01*
X145849882Y-103188736D01*
X145853459Y-103174457D01*
X145858418Y-103160597D01*
X145864712Y-103147290D01*
X145872280Y-103134664D01*
X145881048Y-103122841D01*
X145890934Y-103111934D01*
X145901841Y-103102048D01*
X145913664Y-103093280D01*
X145926290Y-103085712D01*
X145939597Y-103079418D01*
X145953457Y-103074459D01*
X145967736Y-103070882D01*
X145982297Y-103068722D01*
X145997000Y-103068000D01*
X146297000Y-103068000D01*
X146311703Y-103068722D01*
G37*
G36*
X147581703Y-103068722D02*
G01*
X147596264Y-103070882D01*
X147610543Y-103074459D01*
X147624403Y-103079418D01*
X147637710Y-103085712D01*
X147650336Y-103093280D01*
X147662159Y-103102048D01*
X147673066Y-103111934D01*
X147682952Y-103122841D01*
X147691720Y-103134664D01*
X147699288Y-103147290D01*
X147705582Y-103160597D01*
X147710541Y-103174457D01*
X147714118Y-103188736D01*
X147716278Y-103203297D01*
X147717000Y-103218000D01*
X147717000Y-104868000D01*
X147716278Y-104882703D01*
X147714118Y-104897264D01*
X147710541Y-104911543D01*
X147705582Y-104925403D01*
X147699288Y-104938710D01*
X147691720Y-104951336D01*
X147682952Y-104963159D01*
X147673066Y-104974066D01*
X147662159Y-104983952D01*
X147650336Y-104992720D01*
X147637710Y-105000288D01*
X147624403Y-105006582D01*
X147610543Y-105011541D01*
X147596264Y-105015118D01*
X147581703Y-105017278D01*
X147567000Y-105018000D01*
X147267000Y-105018000D01*
X147252297Y-105017278D01*
X147237736Y-105015118D01*
X147223457Y-105011541D01*
X147209597Y-105006582D01*
X147196290Y-105000288D01*
X147183664Y-104992720D01*
X147171841Y-104983952D01*
X147160934Y-104974066D01*
X147151048Y-104963159D01*
X147142280Y-104951336D01*
X147134712Y-104938710D01*
X147128418Y-104925403D01*
X147123459Y-104911543D01*
X147119882Y-104897264D01*
X147117722Y-104882703D01*
X147117000Y-104868000D01*
X147117000Y-103218000D01*
X147117722Y-103203297D01*
X147119882Y-103188736D01*
X147123459Y-103174457D01*
X147128418Y-103160597D01*
X147134712Y-103147290D01*
X147142280Y-103134664D01*
X147151048Y-103122841D01*
X147160934Y-103111934D01*
X147171841Y-103102048D01*
X147183664Y-103093280D01*
X147196290Y-103085712D01*
X147209597Y-103079418D01*
X147223457Y-103074459D01*
X147237736Y-103070882D01*
X147252297Y-103068722D01*
X147267000Y-103068000D01*
X147567000Y-103068000D01*
X147581703Y-103068722D01*
G37*
G36*
X148851703Y-103068722D02*
G01*
X148866264Y-103070882D01*
X148880543Y-103074459D01*
X148894403Y-103079418D01*
X148907710Y-103085712D01*
X148920336Y-103093280D01*
X148932159Y-103102048D01*
X148943066Y-103111934D01*
X148952952Y-103122841D01*
X148961720Y-103134664D01*
X148969288Y-103147290D01*
X148975582Y-103160597D01*
X148980541Y-103174457D01*
X148984118Y-103188736D01*
X148986278Y-103203297D01*
X148987000Y-103218000D01*
X148987000Y-104868000D01*
X148986278Y-104882703D01*
X148984118Y-104897264D01*
X148980541Y-104911543D01*
X148975582Y-104925403D01*
X148969288Y-104938710D01*
X148961720Y-104951336D01*
X148952952Y-104963159D01*
X148943066Y-104974066D01*
X148932159Y-104983952D01*
X148920336Y-104992720D01*
X148907710Y-105000288D01*
X148894403Y-105006582D01*
X148880543Y-105011541D01*
X148866264Y-105015118D01*
X148851703Y-105017278D01*
X148837000Y-105018000D01*
X148537000Y-105018000D01*
X148522297Y-105017278D01*
X148507736Y-105015118D01*
X148493457Y-105011541D01*
X148479597Y-105006582D01*
X148466290Y-105000288D01*
X148453664Y-104992720D01*
X148441841Y-104983952D01*
X148430934Y-104974066D01*
X148421048Y-104963159D01*
X148412280Y-104951336D01*
X148404712Y-104938710D01*
X148398418Y-104925403D01*
X148393459Y-104911543D01*
X148389882Y-104897264D01*
X148387722Y-104882703D01*
X148387000Y-104868000D01*
X148387000Y-103218000D01*
X148387722Y-103203297D01*
X148389882Y-103188736D01*
X148393459Y-103174457D01*
X148398418Y-103160597D01*
X148404712Y-103147290D01*
X148412280Y-103134664D01*
X148421048Y-103122841D01*
X148430934Y-103111934D01*
X148441841Y-103102048D01*
X148453664Y-103093280D01*
X148466290Y-103085712D01*
X148479597Y-103079418D01*
X148493457Y-103074459D01*
X148507736Y-103070882D01*
X148522297Y-103068722D01*
X148537000Y-103068000D01*
X148837000Y-103068000D01*
X148851703Y-103068722D01*
G37*
G36*
X148851703Y-98118722D02*
G01*
X148866264Y-98120882D01*
X148880543Y-98124459D01*
X148894403Y-98129418D01*
X148907710Y-98135712D01*
X148920336Y-98143280D01*
X148932159Y-98152048D01*
X148943066Y-98161934D01*
X148952952Y-98172841D01*
X148961720Y-98184664D01*
X148969288Y-98197290D01*
X148975582Y-98210597D01*
X148980541Y-98224457D01*
X148984118Y-98238736D01*
X148986278Y-98253297D01*
X148987000Y-98268000D01*
X148987000Y-99918000D01*
X148986278Y-99932703D01*
X148984118Y-99947264D01*
X148980541Y-99961543D01*
X148975582Y-99975403D01*
X148969288Y-99988710D01*
X148961720Y-100001336D01*
X148952952Y-100013159D01*
X148943066Y-100024066D01*
X148932159Y-100033952D01*
X148920336Y-100042720D01*
X148907710Y-100050288D01*
X148894403Y-100056582D01*
X148880543Y-100061541D01*
X148866264Y-100065118D01*
X148851703Y-100067278D01*
X148837000Y-100068000D01*
X148537000Y-100068000D01*
X148522297Y-100067278D01*
X148507736Y-100065118D01*
X148493457Y-100061541D01*
X148479597Y-100056582D01*
X148466290Y-100050288D01*
X148453664Y-100042720D01*
X148441841Y-100033952D01*
X148430934Y-100024066D01*
X148421048Y-100013159D01*
X148412280Y-100001336D01*
X148404712Y-99988710D01*
X148398418Y-99975403D01*
X148393459Y-99961543D01*
X148389882Y-99947264D01*
X148387722Y-99932703D01*
X148387000Y-99918000D01*
X148387000Y-98268000D01*
X148387722Y-98253297D01*
X148389882Y-98238736D01*
X148393459Y-98224457D01*
X148398418Y-98210597D01*
X148404712Y-98197290D01*
X148412280Y-98184664D01*
X148421048Y-98172841D01*
X148430934Y-98161934D01*
X148441841Y-98152048D01*
X148453664Y-98143280D01*
X148466290Y-98135712D01*
X148479597Y-98129418D01*
X148493457Y-98124459D01*
X148507736Y-98120882D01*
X148522297Y-98118722D01*
X148537000Y-98118000D01*
X148837000Y-98118000D01*
X148851703Y-98118722D01*
G37*
G36*
X147581703Y-98118722D02*
G01*
X147596264Y-98120882D01*
X147610543Y-98124459D01*
X147624403Y-98129418D01*
X147637710Y-98135712D01*
X147650336Y-98143280D01*
X147662159Y-98152048D01*
X147673066Y-98161934D01*
X147682952Y-98172841D01*
X147691720Y-98184664D01*
X147699288Y-98197290D01*
X147705582Y-98210597D01*
X147710541Y-98224457D01*
X147714118Y-98238736D01*
X147716278Y-98253297D01*
X147717000Y-98268000D01*
X147717000Y-99918000D01*
X147716278Y-99932703D01*
X147714118Y-99947264D01*
X147710541Y-99961543D01*
X147705582Y-99975403D01*
X147699288Y-99988710D01*
X147691720Y-100001336D01*
X147682952Y-100013159D01*
X147673066Y-100024066D01*
X147662159Y-100033952D01*
X147650336Y-100042720D01*
X147637710Y-100050288D01*
X147624403Y-100056582D01*
X147610543Y-100061541D01*
X147596264Y-100065118D01*
X147581703Y-100067278D01*
X147567000Y-100068000D01*
X147267000Y-100068000D01*
X147252297Y-100067278D01*
X147237736Y-100065118D01*
X147223457Y-100061541D01*
X147209597Y-100056582D01*
X147196290Y-100050288D01*
X147183664Y-100042720D01*
X147171841Y-100033952D01*
X147160934Y-100024066D01*
X147151048Y-100013159D01*
X147142280Y-100001336D01*
X147134712Y-99988710D01*
X147128418Y-99975403D01*
X147123459Y-99961543D01*
X147119882Y-99947264D01*
X147117722Y-99932703D01*
X147117000Y-99918000D01*
X147117000Y-98268000D01*
X147117722Y-98253297D01*
X147119882Y-98238736D01*
X147123459Y-98224457D01*
X147128418Y-98210597D01*
X147134712Y-98197290D01*
X147142280Y-98184664D01*
X147151048Y-98172841D01*
X147160934Y-98161934D01*
X147171841Y-98152048D01*
X147183664Y-98143280D01*
X147196290Y-98135712D01*
X147209597Y-98129418D01*
X147223457Y-98124459D01*
X147237736Y-98120882D01*
X147252297Y-98118722D01*
X147267000Y-98118000D01*
X147567000Y-98118000D01*
X147581703Y-98118722D01*
G37*
G36*
X146311703Y-98118722D02*
G01*
X146326264Y-98120882D01*
X146340543Y-98124459D01*
X146354403Y-98129418D01*
X146367710Y-98135712D01*
X146380336Y-98143280D01*
X146392159Y-98152048D01*
X146403066Y-98161934D01*
X146412952Y-98172841D01*
X146421720Y-98184664D01*
X146429288Y-98197290D01*
X146435582Y-98210597D01*
X146440541Y-98224457D01*
X146444118Y-98238736D01*
X146446278Y-98253297D01*
X146447000Y-98268000D01*
X146447000Y-99918000D01*
X146446278Y-99932703D01*
X146444118Y-99947264D01*
X146440541Y-99961543D01*
X146435582Y-99975403D01*
X146429288Y-99988710D01*
X146421720Y-100001336D01*
X146412952Y-100013159D01*
X146403066Y-100024066D01*
X146392159Y-100033952D01*
X146380336Y-100042720D01*
X146367710Y-100050288D01*
X146354403Y-100056582D01*
X146340543Y-100061541D01*
X146326264Y-100065118D01*
X146311703Y-100067278D01*
X146297000Y-100068000D01*
X145997000Y-100068000D01*
X145982297Y-100067278D01*
X145967736Y-100065118D01*
X145953457Y-100061541D01*
X145939597Y-100056582D01*
X145926290Y-100050288D01*
X145913664Y-100042720D01*
X145901841Y-100033952D01*
X145890934Y-100024066D01*
X145881048Y-100013159D01*
X145872280Y-100001336D01*
X145864712Y-99988710D01*
X145858418Y-99975403D01*
X145853459Y-99961543D01*
X145849882Y-99947264D01*
X145847722Y-99932703D01*
X145847000Y-99918000D01*
X145847000Y-98268000D01*
X145847722Y-98253297D01*
X145849882Y-98238736D01*
X145853459Y-98224457D01*
X145858418Y-98210597D01*
X145864712Y-98197290D01*
X145872280Y-98184664D01*
X145881048Y-98172841D01*
X145890934Y-98161934D01*
X145901841Y-98152048D01*
X145913664Y-98143280D01*
X145926290Y-98135712D01*
X145939597Y-98129418D01*
X145953457Y-98124459D01*
X145967736Y-98120882D01*
X145982297Y-98118722D01*
X145997000Y-98118000D01*
X146297000Y-98118000D01*
X146311703Y-98118722D01*
G37*
G36*
X145041703Y-98118722D02*
G01*
X145056264Y-98120882D01*
X145070543Y-98124459D01*
X145084403Y-98129418D01*
X145097710Y-98135712D01*
X145110336Y-98143280D01*
X145122159Y-98152048D01*
X145133066Y-98161934D01*
X145142952Y-98172841D01*
X145151720Y-98184664D01*
X145159288Y-98197290D01*
X145165582Y-98210597D01*
X145170541Y-98224457D01*
X145174118Y-98238736D01*
X145176278Y-98253297D01*
X145177000Y-98268000D01*
X145177000Y-99918000D01*
X145176278Y-99932703D01*
X145174118Y-99947264D01*
X145170541Y-99961543D01*
X145165582Y-99975403D01*
X145159288Y-99988710D01*
X145151720Y-100001336D01*
X145142952Y-100013159D01*
X145133066Y-100024066D01*
X145122159Y-100033952D01*
X145110336Y-100042720D01*
X145097710Y-100050288D01*
X145084403Y-100056582D01*
X145070543Y-100061541D01*
X145056264Y-100065118D01*
X145041703Y-100067278D01*
X145027000Y-100068000D01*
X144727000Y-100068000D01*
X144712297Y-100067278D01*
X144697736Y-100065118D01*
X144683457Y-100061541D01*
X144669597Y-100056582D01*
X144656290Y-100050288D01*
X144643664Y-100042720D01*
X144631841Y-100033952D01*
X144620934Y-100024066D01*
X144611048Y-100013159D01*
X144602280Y-100001336D01*
X144594712Y-99988710D01*
X144588418Y-99975403D01*
X144583459Y-99961543D01*
X144579882Y-99947264D01*
X144577722Y-99932703D01*
X144577000Y-99918000D01*
X144577000Y-98268000D01*
X144577722Y-98253297D01*
X144579882Y-98238736D01*
X144583459Y-98224457D01*
X144588418Y-98210597D01*
X144594712Y-98197290D01*
X144602280Y-98184664D01*
X144611048Y-98172841D01*
X144620934Y-98161934D01*
X144631841Y-98152048D01*
X144643664Y-98143280D01*
X144656290Y-98135712D01*
X144669597Y-98129418D01*
X144683457Y-98124459D01*
X144697736Y-98120882D01*
X144712297Y-98118722D01*
X144727000Y-98118000D01*
X145027000Y-98118000D01*
X145041703Y-98118722D01*
G37*
M02*
