G04 #@! TF.GenerationSoftware,KiCad,Pcbnew,5.1.5+dfsg1-2build2*
G04 #@! TF.CreationDate,2020-05-27T11:23:31-04:00*
G04 #@! TF.ProjectId,pidroponic_uHAT,70696472-6f70-46f6-9e69-635f75484154,1.0*
G04 #@! TF.SameCoordinates,Original*
G04 #@! TF.FileFunction,Paste,Top*
G04 #@! TF.FilePolarity,Positive*
%FSLAX46Y46*%
G04 Gerber Fmt 4.6, Leading zero omitted, Abs format (unit mm)*
G04 Created by KiCad (PCBNEW 5.1.5+dfsg1-2build2) date 2020-05-27 11:23:31*
%MOMM*%
%LPD*%
G04 APERTURE LIST*
%ADD10C,0.050000*%
%ADD11R,0.900000X0.800000*%
%ADD12R,0.650000X1.060000*%
G04 APERTURE END LIST*
D10*
G36*
X134429142Y-105045174D02*
G01*
X134452803Y-105048684D01*
X134476007Y-105054496D01*
X134498529Y-105062554D01*
X134520153Y-105072782D01*
X134540670Y-105085079D01*
X134559883Y-105099329D01*
X134577607Y-105115393D01*
X134593671Y-105133117D01*
X134607921Y-105152330D01*
X134620218Y-105172847D01*
X134630446Y-105194471D01*
X134638504Y-105216993D01*
X134644316Y-105240197D01*
X134647826Y-105263858D01*
X134649000Y-105287750D01*
X134649000Y-106200250D01*
X134647826Y-106224142D01*
X134644316Y-106247803D01*
X134638504Y-106271007D01*
X134630446Y-106293529D01*
X134620218Y-106315153D01*
X134607921Y-106335670D01*
X134593671Y-106354883D01*
X134577607Y-106372607D01*
X134559883Y-106388671D01*
X134540670Y-106402921D01*
X134520153Y-106415218D01*
X134498529Y-106425446D01*
X134476007Y-106433504D01*
X134452803Y-106439316D01*
X134429142Y-106442826D01*
X134405250Y-106444000D01*
X133917750Y-106444000D01*
X133893858Y-106442826D01*
X133870197Y-106439316D01*
X133846993Y-106433504D01*
X133824471Y-106425446D01*
X133802847Y-106415218D01*
X133782330Y-106402921D01*
X133763117Y-106388671D01*
X133745393Y-106372607D01*
X133729329Y-106354883D01*
X133715079Y-106335670D01*
X133702782Y-106315153D01*
X133692554Y-106293529D01*
X133684496Y-106271007D01*
X133678684Y-106247803D01*
X133675174Y-106224142D01*
X133674000Y-106200250D01*
X133674000Y-105287750D01*
X133675174Y-105263858D01*
X133678684Y-105240197D01*
X133684496Y-105216993D01*
X133692554Y-105194471D01*
X133702782Y-105172847D01*
X133715079Y-105152330D01*
X133729329Y-105133117D01*
X133745393Y-105115393D01*
X133763117Y-105099329D01*
X133782330Y-105085079D01*
X133802847Y-105072782D01*
X133824471Y-105062554D01*
X133846993Y-105054496D01*
X133870197Y-105048684D01*
X133893858Y-105045174D01*
X133917750Y-105044000D01*
X134405250Y-105044000D01*
X134429142Y-105045174D01*
G37*
G36*
X132554142Y-105045174D02*
G01*
X132577803Y-105048684D01*
X132601007Y-105054496D01*
X132623529Y-105062554D01*
X132645153Y-105072782D01*
X132665670Y-105085079D01*
X132684883Y-105099329D01*
X132702607Y-105115393D01*
X132718671Y-105133117D01*
X132732921Y-105152330D01*
X132745218Y-105172847D01*
X132755446Y-105194471D01*
X132763504Y-105216993D01*
X132769316Y-105240197D01*
X132772826Y-105263858D01*
X132774000Y-105287750D01*
X132774000Y-106200250D01*
X132772826Y-106224142D01*
X132769316Y-106247803D01*
X132763504Y-106271007D01*
X132755446Y-106293529D01*
X132745218Y-106315153D01*
X132732921Y-106335670D01*
X132718671Y-106354883D01*
X132702607Y-106372607D01*
X132684883Y-106388671D01*
X132665670Y-106402921D01*
X132645153Y-106415218D01*
X132623529Y-106425446D01*
X132601007Y-106433504D01*
X132577803Y-106439316D01*
X132554142Y-106442826D01*
X132530250Y-106444000D01*
X132042750Y-106444000D01*
X132018858Y-106442826D01*
X131995197Y-106439316D01*
X131971993Y-106433504D01*
X131949471Y-106425446D01*
X131927847Y-106415218D01*
X131907330Y-106402921D01*
X131888117Y-106388671D01*
X131870393Y-106372607D01*
X131854329Y-106354883D01*
X131840079Y-106335670D01*
X131827782Y-106315153D01*
X131817554Y-106293529D01*
X131809496Y-106271007D01*
X131803684Y-106247803D01*
X131800174Y-106224142D01*
X131799000Y-106200250D01*
X131799000Y-105287750D01*
X131800174Y-105263858D01*
X131803684Y-105240197D01*
X131809496Y-105216993D01*
X131817554Y-105194471D01*
X131827782Y-105172847D01*
X131840079Y-105152330D01*
X131854329Y-105133117D01*
X131870393Y-105115393D01*
X131888117Y-105099329D01*
X131907330Y-105085079D01*
X131927847Y-105072782D01*
X131949471Y-105062554D01*
X131971993Y-105054496D01*
X131995197Y-105048684D01*
X132018858Y-105045174D01*
X132042750Y-105044000D01*
X132530250Y-105044000D01*
X132554142Y-105045174D01*
G37*
G36*
X150722142Y-113591174D02*
G01*
X150745803Y-113594684D01*
X150769007Y-113600496D01*
X150791529Y-113608554D01*
X150813153Y-113618782D01*
X150833670Y-113631079D01*
X150852883Y-113645329D01*
X150870607Y-113661393D01*
X150886671Y-113679117D01*
X150900921Y-113698330D01*
X150913218Y-113718847D01*
X150923446Y-113740471D01*
X150931504Y-113762993D01*
X150937316Y-113786197D01*
X150940826Y-113809858D01*
X150942000Y-113833750D01*
X150942000Y-114321250D01*
X150940826Y-114345142D01*
X150937316Y-114368803D01*
X150931504Y-114392007D01*
X150923446Y-114414529D01*
X150913218Y-114436153D01*
X150900921Y-114456670D01*
X150886671Y-114475883D01*
X150870607Y-114493607D01*
X150852883Y-114509671D01*
X150833670Y-114523921D01*
X150813153Y-114536218D01*
X150791529Y-114546446D01*
X150769007Y-114554504D01*
X150745803Y-114560316D01*
X150722142Y-114563826D01*
X150698250Y-114565000D01*
X149785750Y-114565000D01*
X149761858Y-114563826D01*
X149738197Y-114560316D01*
X149714993Y-114554504D01*
X149692471Y-114546446D01*
X149670847Y-114536218D01*
X149650330Y-114523921D01*
X149631117Y-114509671D01*
X149613393Y-114493607D01*
X149597329Y-114475883D01*
X149583079Y-114456670D01*
X149570782Y-114436153D01*
X149560554Y-114414529D01*
X149552496Y-114392007D01*
X149546684Y-114368803D01*
X149543174Y-114345142D01*
X149542000Y-114321250D01*
X149542000Y-113833750D01*
X149543174Y-113809858D01*
X149546684Y-113786197D01*
X149552496Y-113762993D01*
X149560554Y-113740471D01*
X149570782Y-113718847D01*
X149583079Y-113698330D01*
X149597329Y-113679117D01*
X149613393Y-113661393D01*
X149631117Y-113645329D01*
X149650330Y-113631079D01*
X149670847Y-113618782D01*
X149692471Y-113608554D01*
X149714993Y-113600496D01*
X149738197Y-113594684D01*
X149761858Y-113591174D01*
X149785750Y-113590000D01*
X150698250Y-113590000D01*
X150722142Y-113591174D01*
G37*
G36*
X150722142Y-115466174D02*
G01*
X150745803Y-115469684D01*
X150769007Y-115475496D01*
X150791529Y-115483554D01*
X150813153Y-115493782D01*
X150833670Y-115506079D01*
X150852883Y-115520329D01*
X150870607Y-115536393D01*
X150886671Y-115554117D01*
X150900921Y-115573330D01*
X150913218Y-115593847D01*
X150923446Y-115615471D01*
X150931504Y-115637993D01*
X150937316Y-115661197D01*
X150940826Y-115684858D01*
X150942000Y-115708750D01*
X150942000Y-116196250D01*
X150940826Y-116220142D01*
X150937316Y-116243803D01*
X150931504Y-116267007D01*
X150923446Y-116289529D01*
X150913218Y-116311153D01*
X150900921Y-116331670D01*
X150886671Y-116350883D01*
X150870607Y-116368607D01*
X150852883Y-116384671D01*
X150833670Y-116398921D01*
X150813153Y-116411218D01*
X150791529Y-116421446D01*
X150769007Y-116429504D01*
X150745803Y-116435316D01*
X150722142Y-116438826D01*
X150698250Y-116440000D01*
X149785750Y-116440000D01*
X149761858Y-116438826D01*
X149738197Y-116435316D01*
X149714993Y-116429504D01*
X149692471Y-116421446D01*
X149670847Y-116411218D01*
X149650330Y-116398921D01*
X149631117Y-116384671D01*
X149613393Y-116368607D01*
X149597329Y-116350883D01*
X149583079Y-116331670D01*
X149570782Y-116311153D01*
X149560554Y-116289529D01*
X149552496Y-116267007D01*
X149546684Y-116243803D01*
X149543174Y-116220142D01*
X149542000Y-116196250D01*
X149542000Y-115708750D01*
X149543174Y-115684858D01*
X149546684Y-115661197D01*
X149552496Y-115637993D01*
X149560554Y-115615471D01*
X149570782Y-115593847D01*
X149583079Y-115573330D01*
X149597329Y-115554117D01*
X149613393Y-115536393D01*
X149631117Y-115520329D01*
X149650330Y-115506079D01*
X149670847Y-115493782D01*
X149692471Y-115483554D01*
X149714993Y-115475496D01*
X149738197Y-115469684D01*
X149761858Y-115466174D01*
X149785750Y-115465000D01*
X150698250Y-115465000D01*
X150722142Y-115466174D01*
G37*
G36*
X148182142Y-113591174D02*
G01*
X148205803Y-113594684D01*
X148229007Y-113600496D01*
X148251529Y-113608554D01*
X148273153Y-113618782D01*
X148293670Y-113631079D01*
X148312883Y-113645329D01*
X148330607Y-113661393D01*
X148346671Y-113679117D01*
X148360921Y-113698330D01*
X148373218Y-113718847D01*
X148383446Y-113740471D01*
X148391504Y-113762993D01*
X148397316Y-113786197D01*
X148400826Y-113809858D01*
X148402000Y-113833750D01*
X148402000Y-114321250D01*
X148400826Y-114345142D01*
X148397316Y-114368803D01*
X148391504Y-114392007D01*
X148383446Y-114414529D01*
X148373218Y-114436153D01*
X148360921Y-114456670D01*
X148346671Y-114475883D01*
X148330607Y-114493607D01*
X148312883Y-114509671D01*
X148293670Y-114523921D01*
X148273153Y-114536218D01*
X148251529Y-114546446D01*
X148229007Y-114554504D01*
X148205803Y-114560316D01*
X148182142Y-114563826D01*
X148158250Y-114565000D01*
X147245750Y-114565000D01*
X147221858Y-114563826D01*
X147198197Y-114560316D01*
X147174993Y-114554504D01*
X147152471Y-114546446D01*
X147130847Y-114536218D01*
X147110330Y-114523921D01*
X147091117Y-114509671D01*
X147073393Y-114493607D01*
X147057329Y-114475883D01*
X147043079Y-114456670D01*
X147030782Y-114436153D01*
X147020554Y-114414529D01*
X147012496Y-114392007D01*
X147006684Y-114368803D01*
X147003174Y-114345142D01*
X147002000Y-114321250D01*
X147002000Y-113833750D01*
X147003174Y-113809858D01*
X147006684Y-113786197D01*
X147012496Y-113762993D01*
X147020554Y-113740471D01*
X147030782Y-113718847D01*
X147043079Y-113698330D01*
X147057329Y-113679117D01*
X147073393Y-113661393D01*
X147091117Y-113645329D01*
X147110330Y-113631079D01*
X147130847Y-113618782D01*
X147152471Y-113608554D01*
X147174993Y-113600496D01*
X147198197Y-113594684D01*
X147221858Y-113591174D01*
X147245750Y-113590000D01*
X148158250Y-113590000D01*
X148182142Y-113591174D01*
G37*
G36*
X148182142Y-115466174D02*
G01*
X148205803Y-115469684D01*
X148229007Y-115475496D01*
X148251529Y-115483554D01*
X148273153Y-115493782D01*
X148293670Y-115506079D01*
X148312883Y-115520329D01*
X148330607Y-115536393D01*
X148346671Y-115554117D01*
X148360921Y-115573330D01*
X148373218Y-115593847D01*
X148383446Y-115615471D01*
X148391504Y-115637993D01*
X148397316Y-115661197D01*
X148400826Y-115684858D01*
X148402000Y-115708750D01*
X148402000Y-116196250D01*
X148400826Y-116220142D01*
X148397316Y-116243803D01*
X148391504Y-116267007D01*
X148383446Y-116289529D01*
X148373218Y-116311153D01*
X148360921Y-116331670D01*
X148346671Y-116350883D01*
X148330607Y-116368607D01*
X148312883Y-116384671D01*
X148293670Y-116398921D01*
X148273153Y-116411218D01*
X148251529Y-116421446D01*
X148229007Y-116429504D01*
X148205803Y-116435316D01*
X148182142Y-116438826D01*
X148158250Y-116440000D01*
X147245750Y-116440000D01*
X147221858Y-116438826D01*
X147198197Y-116435316D01*
X147174993Y-116429504D01*
X147152471Y-116421446D01*
X147130847Y-116411218D01*
X147110330Y-116398921D01*
X147091117Y-116384671D01*
X147073393Y-116368607D01*
X147057329Y-116350883D01*
X147043079Y-116331670D01*
X147030782Y-116311153D01*
X147020554Y-116289529D01*
X147012496Y-116267007D01*
X147006684Y-116243803D01*
X147003174Y-116220142D01*
X147002000Y-116196250D01*
X147002000Y-115708750D01*
X147003174Y-115684858D01*
X147006684Y-115661197D01*
X147012496Y-115637993D01*
X147020554Y-115615471D01*
X147030782Y-115593847D01*
X147043079Y-115573330D01*
X147057329Y-115554117D01*
X147073393Y-115536393D01*
X147091117Y-115520329D01*
X147110330Y-115506079D01*
X147130847Y-115493782D01*
X147152471Y-115483554D01*
X147174993Y-115475496D01*
X147198197Y-115469684D01*
X147221858Y-115466174D01*
X147245750Y-115465000D01*
X148158250Y-115465000D01*
X148182142Y-115466174D01*
G37*
G36*
X145642142Y-113591174D02*
G01*
X145665803Y-113594684D01*
X145689007Y-113600496D01*
X145711529Y-113608554D01*
X145733153Y-113618782D01*
X145753670Y-113631079D01*
X145772883Y-113645329D01*
X145790607Y-113661393D01*
X145806671Y-113679117D01*
X145820921Y-113698330D01*
X145833218Y-113718847D01*
X145843446Y-113740471D01*
X145851504Y-113762993D01*
X145857316Y-113786197D01*
X145860826Y-113809858D01*
X145862000Y-113833750D01*
X145862000Y-114321250D01*
X145860826Y-114345142D01*
X145857316Y-114368803D01*
X145851504Y-114392007D01*
X145843446Y-114414529D01*
X145833218Y-114436153D01*
X145820921Y-114456670D01*
X145806671Y-114475883D01*
X145790607Y-114493607D01*
X145772883Y-114509671D01*
X145753670Y-114523921D01*
X145733153Y-114536218D01*
X145711529Y-114546446D01*
X145689007Y-114554504D01*
X145665803Y-114560316D01*
X145642142Y-114563826D01*
X145618250Y-114565000D01*
X144705750Y-114565000D01*
X144681858Y-114563826D01*
X144658197Y-114560316D01*
X144634993Y-114554504D01*
X144612471Y-114546446D01*
X144590847Y-114536218D01*
X144570330Y-114523921D01*
X144551117Y-114509671D01*
X144533393Y-114493607D01*
X144517329Y-114475883D01*
X144503079Y-114456670D01*
X144490782Y-114436153D01*
X144480554Y-114414529D01*
X144472496Y-114392007D01*
X144466684Y-114368803D01*
X144463174Y-114345142D01*
X144462000Y-114321250D01*
X144462000Y-113833750D01*
X144463174Y-113809858D01*
X144466684Y-113786197D01*
X144472496Y-113762993D01*
X144480554Y-113740471D01*
X144490782Y-113718847D01*
X144503079Y-113698330D01*
X144517329Y-113679117D01*
X144533393Y-113661393D01*
X144551117Y-113645329D01*
X144570330Y-113631079D01*
X144590847Y-113618782D01*
X144612471Y-113608554D01*
X144634993Y-113600496D01*
X144658197Y-113594684D01*
X144681858Y-113591174D01*
X144705750Y-113590000D01*
X145618250Y-113590000D01*
X145642142Y-113591174D01*
G37*
G36*
X145642142Y-115466174D02*
G01*
X145665803Y-115469684D01*
X145689007Y-115475496D01*
X145711529Y-115483554D01*
X145733153Y-115493782D01*
X145753670Y-115506079D01*
X145772883Y-115520329D01*
X145790607Y-115536393D01*
X145806671Y-115554117D01*
X145820921Y-115573330D01*
X145833218Y-115593847D01*
X145843446Y-115615471D01*
X145851504Y-115637993D01*
X145857316Y-115661197D01*
X145860826Y-115684858D01*
X145862000Y-115708750D01*
X145862000Y-116196250D01*
X145860826Y-116220142D01*
X145857316Y-116243803D01*
X145851504Y-116267007D01*
X145843446Y-116289529D01*
X145833218Y-116311153D01*
X145820921Y-116331670D01*
X145806671Y-116350883D01*
X145790607Y-116368607D01*
X145772883Y-116384671D01*
X145753670Y-116398921D01*
X145733153Y-116411218D01*
X145711529Y-116421446D01*
X145689007Y-116429504D01*
X145665803Y-116435316D01*
X145642142Y-116438826D01*
X145618250Y-116440000D01*
X144705750Y-116440000D01*
X144681858Y-116438826D01*
X144658197Y-116435316D01*
X144634993Y-116429504D01*
X144612471Y-116421446D01*
X144590847Y-116411218D01*
X144570330Y-116398921D01*
X144551117Y-116384671D01*
X144533393Y-116368607D01*
X144517329Y-116350883D01*
X144503079Y-116331670D01*
X144490782Y-116311153D01*
X144480554Y-116289529D01*
X144472496Y-116267007D01*
X144466684Y-116243803D01*
X144463174Y-116220142D01*
X144462000Y-116196250D01*
X144462000Y-115708750D01*
X144463174Y-115684858D01*
X144466684Y-115661197D01*
X144472496Y-115637993D01*
X144480554Y-115615471D01*
X144490782Y-115593847D01*
X144503079Y-115573330D01*
X144517329Y-115554117D01*
X144533393Y-115536393D01*
X144551117Y-115520329D01*
X144570330Y-115506079D01*
X144590847Y-115493782D01*
X144612471Y-115483554D01*
X144634993Y-115475496D01*
X144658197Y-115469684D01*
X144681858Y-115466174D01*
X144705750Y-115465000D01*
X145618250Y-115465000D01*
X145642142Y-115466174D01*
G37*
G36*
X120362142Y-109871174D02*
G01*
X120385803Y-109874684D01*
X120409007Y-109880496D01*
X120431529Y-109888554D01*
X120453153Y-109898782D01*
X120473670Y-109911079D01*
X120492883Y-109925329D01*
X120510607Y-109941393D01*
X120526671Y-109959117D01*
X120540921Y-109978330D01*
X120553218Y-109998847D01*
X120563446Y-110020471D01*
X120571504Y-110042993D01*
X120577316Y-110066197D01*
X120580826Y-110089858D01*
X120582000Y-110113750D01*
X120582000Y-111026250D01*
X120580826Y-111050142D01*
X120577316Y-111073803D01*
X120571504Y-111097007D01*
X120563446Y-111119529D01*
X120553218Y-111141153D01*
X120540921Y-111161670D01*
X120526671Y-111180883D01*
X120510607Y-111198607D01*
X120492883Y-111214671D01*
X120473670Y-111228921D01*
X120453153Y-111241218D01*
X120431529Y-111251446D01*
X120409007Y-111259504D01*
X120385803Y-111265316D01*
X120362142Y-111268826D01*
X120338250Y-111270000D01*
X119850750Y-111270000D01*
X119826858Y-111268826D01*
X119803197Y-111265316D01*
X119779993Y-111259504D01*
X119757471Y-111251446D01*
X119735847Y-111241218D01*
X119715330Y-111228921D01*
X119696117Y-111214671D01*
X119678393Y-111198607D01*
X119662329Y-111180883D01*
X119648079Y-111161670D01*
X119635782Y-111141153D01*
X119625554Y-111119529D01*
X119617496Y-111097007D01*
X119611684Y-111073803D01*
X119608174Y-111050142D01*
X119607000Y-111026250D01*
X119607000Y-110113750D01*
X119608174Y-110089858D01*
X119611684Y-110066197D01*
X119617496Y-110042993D01*
X119625554Y-110020471D01*
X119635782Y-109998847D01*
X119648079Y-109978330D01*
X119662329Y-109959117D01*
X119678393Y-109941393D01*
X119696117Y-109925329D01*
X119715330Y-109911079D01*
X119735847Y-109898782D01*
X119757471Y-109888554D01*
X119779993Y-109880496D01*
X119803197Y-109874684D01*
X119826858Y-109871174D01*
X119850750Y-109870000D01*
X120338250Y-109870000D01*
X120362142Y-109871174D01*
G37*
G36*
X122237142Y-109871174D02*
G01*
X122260803Y-109874684D01*
X122284007Y-109880496D01*
X122306529Y-109888554D01*
X122328153Y-109898782D01*
X122348670Y-109911079D01*
X122367883Y-109925329D01*
X122385607Y-109941393D01*
X122401671Y-109959117D01*
X122415921Y-109978330D01*
X122428218Y-109998847D01*
X122438446Y-110020471D01*
X122446504Y-110042993D01*
X122452316Y-110066197D01*
X122455826Y-110089858D01*
X122457000Y-110113750D01*
X122457000Y-111026250D01*
X122455826Y-111050142D01*
X122452316Y-111073803D01*
X122446504Y-111097007D01*
X122438446Y-111119529D01*
X122428218Y-111141153D01*
X122415921Y-111161670D01*
X122401671Y-111180883D01*
X122385607Y-111198607D01*
X122367883Y-111214671D01*
X122348670Y-111228921D01*
X122328153Y-111241218D01*
X122306529Y-111251446D01*
X122284007Y-111259504D01*
X122260803Y-111265316D01*
X122237142Y-111268826D01*
X122213250Y-111270000D01*
X121725750Y-111270000D01*
X121701858Y-111268826D01*
X121678197Y-111265316D01*
X121654993Y-111259504D01*
X121632471Y-111251446D01*
X121610847Y-111241218D01*
X121590330Y-111228921D01*
X121571117Y-111214671D01*
X121553393Y-111198607D01*
X121537329Y-111180883D01*
X121523079Y-111161670D01*
X121510782Y-111141153D01*
X121500554Y-111119529D01*
X121492496Y-111097007D01*
X121486684Y-111073803D01*
X121483174Y-111050142D01*
X121482000Y-111026250D01*
X121482000Y-110113750D01*
X121483174Y-110089858D01*
X121486684Y-110066197D01*
X121492496Y-110042993D01*
X121500554Y-110020471D01*
X121510782Y-109998847D01*
X121523079Y-109978330D01*
X121537329Y-109959117D01*
X121553393Y-109941393D01*
X121571117Y-109925329D01*
X121590330Y-109911079D01*
X121610847Y-109898782D01*
X121632471Y-109888554D01*
X121654993Y-109880496D01*
X121678197Y-109874684D01*
X121701858Y-109871174D01*
X121725750Y-109870000D01*
X122213250Y-109870000D01*
X122237142Y-109871174D01*
G37*
D11*
X128414000Y-101426000D03*
X130414000Y-100476000D03*
X130414000Y-102376000D03*
D12*
X129414000Y-105914000D03*
X128464000Y-105914000D03*
X130364000Y-105914000D03*
X130364000Y-108114000D03*
X129414000Y-108114000D03*
X128464000Y-108114000D03*
D10*
G36*
X134429142Y-107331174D02*
G01*
X134452803Y-107334684D01*
X134476007Y-107340496D01*
X134498529Y-107348554D01*
X134520153Y-107358782D01*
X134540670Y-107371079D01*
X134559883Y-107385329D01*
X134577607Y-107401393D01*
X134593671Y-107419117D01*
X134607921Y-107438330D01*
X134620218Y-107458847D01*
X134630446Y-107480471D01*
X134638504Y-107502993D01*
X134644316Y-107526197D01*
X134647826Y-107549858D01*
X134649000Y-107573750D01*
X134649000Y-108486250D01*
X134647826Y-108510142D01*
X134644316Y-108533803D01*
X134638504Y-108557007D01*
X134630446Y-108579529D01*
X134620218Y-108601153D01*
X134607921Y-108621670D01*
X134593671Y-108640883D01*
X134577607Y-108658607D01*
X134559883Y-108674671D01*
X134540670Y-108688921D01*
X134520153Y-108701218D01*
X134498529Y-108711446D01*
X134476007Y-108719504D01*
X134452803Y-108725316D01*
X134429142Y-108728826D01*
X134405250Y-108730000D01*
X133917750Y-108730000D01*
X133893858Y-108728826D01*
X133870197Y-108725316D01*
X133846993Y-108719504D01*
X133824471Y-108711446D01*
X133802847Y-108701218D01*
X133782330Y-108688921D01*
X133763117Y-108674671D01*
X133745393Y-108658607D01*
X133729329Y-108640883D01*
X133715079Y-108621670D01*
X133702782Y-108601153D01*
X133692554Y-108579529D01*
X133684496Y-108557007D01*
X133678684Y-108533803D01*
X133675174Y-108510142D01*
X133674000Y-108486250D01*
X133674000Y-107573750D01*
X133675174Y-107549858D01*
X133678684Y-107526197D01*
X133684496Y-107502993D01*
X133692554Y-107480471D01*
X133702782Y-107458847D01*
X133715079Y-107438330D01*
X133729329Y-107419117D01*
X133745393Y-107401393D01*
X133763117Y-107385329D01*
X133782330Y-107371079D01*
X133802847Y-107358782D01*
X133824471Y-107348554D01*
X133846993Y-107340496D01*
X133870197Y-107334684D01*
X133893858Y-107331174D01*
X133917750Y-107330000D01*
X134405250Y-107330000D01*
X134429142Y-107331174D01*
G37*
G36*
X132554142Y-107331174D02*
G01*
X132577803Y-107334684D01*
X132601007Y-107340496D01*
X132623529Y-107348554D01*
X132645153Y-107358782D01*
X132665670Y-107371079D01*
X132684883Y-107385329D01*
X132702607Y-107401393D01*
X132718671Y-107419117D01*
X132732921Y-107438330D01*
X132745218Y-107458847D01*
X132755446Y-107480471D01*
X132763504Y-107502993D01*
X132769316Y-107526197D01*
X132772826Y-107549858D01*
X132774000Y-107573750D01*
X132774000Y-108486250D01*
X132772826Y-108510142D01*
X132769316Y-108533803D01*
X132763504Y-108557007D01*
X132755446Y-108579529D01*
X132745218Y-108601153D01*
X132732921Y-108621670D01*
X132718671Y-108640883D01*
X132702607Y-108658607D01*
X132684883Y-108674671D01*
X132665670Y-108688921D01*
X132645153Y-108701218D01*
X132623529Y-108711446D01*
X132601007Y-108719504D01*
X132577803Y-108725316D01*
X132554142Y-108728826D01*
X132530250Y-108730000D01*
X132042750Y-108730000D01*
X132018858Y-108728826D01*
X131995197Y-108725316D01*
X131971993Y-108719504D01*
X131949471Y-108711446D01*
X131927847Y-108701218D01*
X131907330Y-108688921D01*
X131888117Y-108674671D01*
X131870393Y-108658607D01*
X131854329Y-108640883D01*
X131840079Y-108621670D01*
X131827782Y-108601153D01*
X131817554Y-108579529D01*
X131809496Y-108557007D01*
X131803684Y-108533803D01*
X131800174Y-108510142D01*
X131799000Y-108486250D01*
X131799000Y-107573750D01*
X131800174Y-107549858D01*
X131803684Y-107526197D01*
X131809496Y-107502993D01*
X131817554Y-107480471D01*
X131827782Y-107458847D01*
X131840079Y-107438330D01*
X131854329Y-107419117D01*
X131870393Y-107401393D01*
X131888117Y-107385329D01*
X131907330Y-107371079D01*
X131927847Y-107358782D01*
X131949471Y-107348554D01*
X131971993Y-107340496D01*
X131995197Y-107334684D01*
X132018858Y-107331174D01*
X132042750Y-107330000D01*
X132530250Y-107330000D01*
X132554142Y-107331174D01*
G37*
M02*
