G04 #@! TF.GenerationSoftware,KiCad,Pcbnew,5.1.5+dfsg1-2build2*
G04 #@! TF.CreationDate,2020-05-27T11:23:31-04:00*
G04 #@! TF.ProjectId,pidroponic_uHAT,70696472-6f70-46f6-9e69-635f75484154,1.0*
G04 #@! TF.SameCoordinates,Original*
G04 #@! TF.FileFunction,Legend,Bot*
G04 #@! TF.FilePolarity,Positive*
%FSLAX46Y46*%
G04 Gerber Fmt 4.6, Leading zero omitted, Abs format (unit mm)*
G04 Created by KiCad (PCBNEW 5.1.5+dfsg1-2build2) date 2020-05-27 11:23:31*
%MOMM*%
%LPD*%
G04 APERTURE LIST*
%ADD10C,0.150000*%
%ADD11C,0.120000*%
G04 APERTURE END LIST*
D10*
X169052785Y-98243071D02*
X168719452Y-98243071D01*
X168576595Y-98766880D02*
X169052785Y-98766880D01*
X169052785Y-97766880D01*
X168576595Y-97766880D01*
X168148023Y-98243071D02*
X167814690Y-98243071D01*
X167671833Y-98766880D02*
X168148023Y-98766880D01*
X168148023Y-97766880D01*
X167671833Y-97766880D01*
X167243261Y-98766880D02*
X167243261Y-97766880D01*
X166862309Y-97766880D01*
X166767071Y-97814500D01*
X166719452Y-97862119D01*
X166671833Y-97957357D01*
X166671833Y-98100214D01*
X166719452Y-98195452D01*
X166767071Y-98243071D01*
X166862309Y-98290690D01*
X167243261Y-98290690D01*
X165671833Y-98766880D02*
X166005166Y-98290690D01*
X166243261Y-98766880D02*
X166243261Y-97766880D01*
X165862309Y-97766880D01*
X165767071Y-97814500D01*
X165719452Y-97862119D01*
X165671833Y-97957357D01*
X165671833Y-98100214D01*
X165719452Y-98195452D01*
X165767071Y-98243071D01*
X165862309Y-98290690D01*
X166243261Y-98290690D01*
X165052785Y-97766880D02*
X164862309Y-97766880D01*
X164767071Y-97814500D01*
X164671833Y-97909738D01*
X164624214Y-98100214D01*
X164624214Y-98433547D01*
X164671833Y-98624023D01*
X164767071Y-98719261D01*
X164862309Y-98766880D01*
X165052785Y-98766880D01*
X165148023Y-98719261D01*
X165243261Y-98624023D01*
X165290880Y-98433547D01*
X165290880Y-98100214D01*
X165243261Y-97909738D01*
X165148023Y-97814500D01*
X165052785Y-97766880D01*
X164195642Y-98766880D02*
X164195642Y-97766880D01*
X163862309Y-98481166D01*
X163528976Y-97766880D01*
X163528976Y-98766880D01*
X162386119Y-97766880D02*
X162148023Y-98766880D01*
X161957547Y-98052595D01*
X161767071Y-98766880D01*
X161528976Y-97766880D01*
X161148023Y-98766880D02*
X161148023Y-97766880D01*
X160767071Y-97766880D01*
X160671833Y-97814500D01*
X160624214Y-97862119D01*
X160576595Y-97957357D01*
X160576595Y-98100214D01*
X160624214Y-98195452D01*
X160671833Y-98243071D01*
X160767071Y-98290690D01*
X161148023Y-98290690D01*
X158767071Y-98290690D02*
X158814690Y-98243071D01*
X158909928Y-98195452D01*
X159005166Y-98195452D01*
X159100404Y-98243071D01*
X159148023Y-98290690D01*
X159195642Y-98385928D01*
X159195642Y-98481166D01*
X159148023Y-98576404D01*
X159100404Y-98624023D01*
X159005166Y-98671642D01*
X158909928Y-98671642D01*
X158814690Y-98624023D01*
X158767071Y-98576404D01*
X158767071Y-98195452D02*
X158767071Y-98576404D01*
X158719452Y-98624023D01*
X158671833Y-98624023D01*
X158576595Y-98576404D01*
X158528976Y-98481166D01*
X158528976Y-98243071D01*
X158624214Y-98100214D01*
X158767071Y-98004976D01*
X158957547Y-97957357D01*
X159148023Y-98004976D01*
X159290880Y-98100214D01*
X159386119Y-98243071D01*
X159433738Y-98433547D01*
X159386119Y-98624023D01*
X159290880Y-98766880D01*
X159148023Y-98862119D01*
X158957547Y-98909738D01*
X158767071Y-98862119D01*
X158624214Y-98766880D01*
X156814690Y-97814500D02*
X156909928Y-97766880D01*
X157052785Y-97766880D01*
X157195642Y-97814500D01*
X157290880Y-97909738D01*
X157338500Y-98004976D01*
X157386119Y-98195452D01*
X157386119Y-98338309D01*
X157338500Y-98528785D01*
X157290880Y-98624023D01*
X157195642Y-98719261D01*
X157052785Y-98766880D01*
X156957547Y-98766880D01*
X156814690Y-98719261D01*
X156767071Y-98671642D01*
X156767071Y-98338309D01*
X156957547Y-98338309D01*
X156338500Y-98766880D02*
X156338500Y-97766880D01*
X155957547Y-97766880D01*
X155862309Y-97814500D01*
X155814690Y-97862119D01*
X155767071Y-97957357D01*
X155767071Y-98100214D01*
X155814690Y-98195452D01*
X155862309Y-98243071D01*
X155957547Y-98290690D01*
X156338500Y-98290690D01*
X155338500Y-98766880D02*
X155338500Y-97766880D01*
X154671833Y-97766880D02*
X154481357Y-97766880D01*
X154386119Y-97814500D01*
X154290880Y-97909738D01*
X154243261Y-98100214D01*
X154243261Y-98433547D01*
X154290880Y-98624023D01*
X154386119Y-98719261D01*
X154481357Y-98766880D01*
X154671833Y-98766880D01*
X154767071Y-98719261D01*
X154862309Y-98624023D01*
X154909928Y-98433547D01*
X154909928Y-98100214D01*
X154862309Y-97909738D01*
X154767071Y-97814500D01*
X154671833Y-97766880D01*
X152528976Y-98766880D02*
X153100404Y-98766880D01*
X152814690Y-98766880D02*
X152814690Y-97766880D01*
X152909928Y-97909738D01*
X153005166Y-98004976D01*
X153100404Y-98052595D01*
X152148023Y-97862119D02*
X152100404Y-97814500D01*
X152005166Y-97766880D01*
X151767071Y-97766880D01*
X151671833Y-97814500D01*
X151624214Y-97862119D01*
X151576595Y-97957357D01*
X151576595Y-98052595D01*
X151624214Y-98195452D01*
X152195642Y-98766880D01*
X151576595Y-98766880D01*
D11*
X145872000Y-114756422D02*
X145872000Y-115273578D01*
X144452000Y-114756422D02*
X144452000Y-115273578D01*
X150952000Y-114756422D02*
X150952000Y-115273578D01*
X149532000Y-114756422D02*
X149532000Y-115273578D01*
X148412000Y-114756422D02*
X148412000Y-115273578D01*
X146992000Y-114756422D02*
X146992000Y-115273578D01*
X124572000Y-91968000D02*
X124572000Y-94568000D01*
X124572000Y-91968000D02*
X175492000Y-91968000D01*
X175492000Y-91968000D02*
X175492000Y-97168000D01*
X127172000Y-97168000D02*
X175492000Y-97168000D01*
X127172000Y-94568000D02*
X127172000Y-97168000D01*
X124572000Y-94568000D02*
X127172000Y-94568000D01*
X124572000Y-97168000D02*
X125902000Y-97168000D01*
X124572000Y-95838000D02*
X124572000Y-97168000D01*
X166954000Y-103453422D02*
X166954000Y-103970578D01*
X165534000Y-103453422D02*
X165534000Y-103970578D01*
X166954000Y-107009422D02*
X166954000Y-107526578D01*
X165534000Y-107009422D02*
X165534000Y-107526578D01*
X159842000Y-103374922D02*
X159842000Y-103892078D01*
X158422000Y-103374922D02*
X158422000Y-103892078D01*
X159842000Y-106930922D02*
X159842000Y-107448078D01*
X158422000Y-106930922D02*
X158422000Y-107448078D01*
X152730000Y-103453422D02*
X152730000Y-103970578D01*
X151310000Y-103453422D02*
X151310000Y-103970578D01*
X152730000Y-107087922D02*
X152730000Y-107605078D01*
X151310000Y-107087922D02*
X151310000Y-107605078D01*
X145523422Y-105608000D02*
X146040578Y-105608000D01*
X145523422Y-107028000D02*
X146040578Y-107028000D01*
X144222000Y-101568000D02*
X144222000Y-98118000D01*
X144222000Y-101568000D02*
X144222000Y-103518000D01*
X149342000Y-101568000D02*
X149342000Y-99618000D01*
X149342000Y-101568000D02*
X149342000Y-103518000D01*
D10*
X145614380Y-111197142D02*
X145138190Y-110863809D01*
X145614380Y-110625714D02*
X144614380Y-110625714D01*
X144614380Y-111006666D01*
X144662000Y-111101904D01*
X144709619Y-111149523D01*
X144804857Y-111197142D01*
X144947714Y-111197142D01*
X145042952Y-111149523D01*
X145090571Y-111101904D01*
X145138190Y-111006666D01*
X145138190Y-110625714D01*
X145614380Y-112149523D02*
X145614380Y-111578095D01*
X145614380Y-111863809D02*
X144614380Y-111863809D01*
X144757238Y-111768571D01*
X144852476Y-111673333D01*
X144900095Y-111578095D01*
X144614380Y-112768571D02*
X144614380Y-112863809D01*
X144662000Y-112959047D01*
X144709619Y-113006666D01*
X144804857Y-113054285D01*
X144995333Y-113101904D01*
X145233428Y-113101904D01*
X145423904Y-113054285D01*
X145519142Y-113006666D01*
X145566761Y-112959047D01*
X145614380Y-112863809D01*
X145614380Y-112768571D01*
X145566761Y-112673333D01*
X145519142Y-112625714D01*
X145423904Y-112578095D01*
X145233428Y-112530476D01*
X144995333Y-112530476D01*
X144804857Y-112578095D01*
X144709619Y-112625714D01*
X144662000Y-112673333D01*
X144614380Y-112768571D01*
X150694380Y-111197142D02*
X150218190Y-110863809D01*
X150694380Y-110625714D02*
X149694380Y-110625714D01*
X149694380Y-111006666D01*
X149742000Y-111101904D01*
X149789619Y-111149523D01*
X149884857Y-111197142D01*
X150027714Y-111197142D01*
X150122952Y-111149523D01*
X150170571Y-111101904D01*
X150218190Y-111006666D01*
X150218190Y-110625714D01*
X150694380Y-112149523D02*
X150694380Y-111578095D01*
X150694380Y-111863809D02*
X149694380Y-111863809D01*
X149837238Y-111768571D01*
X149932476Y-111673333D01*
X149980095Y-111578095D01*
X149789619Y-112530476D02*
X149742000Y-112578095D01*
X149694380Y-112673333D01*
X149694380Y-112911428D01*
X149742000Y-113006666D01*
X149789619Y-113054285D01*
X149884857Y-113101904D01*
X149980095Y-113101904D01*
X150122952Y-113054285D01*
X150694380Y-112482857D01*
X150694380Y-113101904D01*
X148154380Y-111197142D02*
X147678190Y-110863809D01*
X148154380Y-110625714D02*
X147154380Y-110625714D01*
X147154380Y-111006666D01*
X147202000Y-111101904D01*
X147249619Y-111149523D01*
X147344857Y-111197142D01*
X147487714Y-111197142D01*
X147582952Y-111149523D01*
X147630571Y-111101904D01*
X147678190Y-111006666D01*
X147678190Y-110625714D01*
X148154380Y-112149523D02*
X148154380Y-111578095D01*
X148154380Y-111863809D02*
X147154380Y-111863809D01*
X147297238Y-111768571D01*
X147392476Y-111673333D01*
X147440095Y-111578095D01*
X148154380Y-113101904D02*
X148154380Y-112530476D01*
X148154380Y-112816190D02*
X147154380Y-112816190D01*
X147297238Y-112720952D01*
X147392476Y-112625714D01*
X147440095Y-112530476D01*
X126254833Y-97576380D02*
X126254833Y-98290666D01*
X126302452Y-98433523D01*
X126397690Y-98528761D01*
X126540547Y-98576380D01*
X126635785Y-98576380D01*
X125254833Y-98576380D02*
X125826261Y-98576380D01*
X125540547Y-98576380D02*
X125540547Y-97576380D01*
X125635785Y-97719238D01*
X125731023Y-97814476D01*
X125826261Y-97862095D01*
X165108880Y-103545333D02*
X164632690Y-103212000D01*
X165108880Y-102973904D02*
X164108880Y-102973904D01*
X164108880Y-103354857D01*
X164156500Y-103450095D01*
X164204119Y-103497714D01*
X164299357Y-103545333D01*
X164442214Y-103545333D01*
X164537452Y-103497714D01*
X164585071Y-103450095D01*
X164632690Y-103354857D01*
X164632690Y-102973904D01*
X164108880Y-103878666D02*
X164108880Y-104497714D01*
X164489833Y-104164380D01*
X164489833Y-104307238D01*
X164537452Y-104402476D01*
X164585071Y-104450095D01*
X164680309Y-104497714D01*
X164918404Y-104497714D01*
X165013642Y-104450095D01*
X165061261Y-104402476D01*
X165108880Y-104307238D01*
X165108880Y-104021523D01*
X165061261Y-103926285D01*
X165013642Y-103878666D01*
X165196380Y-107101333D02*
X164720190Y-106768000D01*
X165196380Y-106529904D02*
X164196380Y-106529904D01*
X164196380Y-106910857D01*
X164244000Y-107006095D01*
X164291619Y-107053714D01*
X164386857Y-107101333D01*
X164529714Y-107101333D01*
X164624952Y-107053714D01*
X164672571Y-107006095D01*
X164720190Y-106910857D01*
X164720190Y-106529904D01*
X164529714Y-107958476D02*
X165196380Y-107958476D01*
X164148761Y-107720380D02*
X164863047Y-107482285D01*
X164863047Y-108101333D01*
X157996880Y-103481833D02*
X157520690Y-103148500D01*
X157996880Y-102910404D02*
X156996880Y-102910404D01*
X156996880Y-103291357D01*
X157044500Y-103386595D01*
X157092119Y-103434214D01*
X157187357Y-103481833D01*
X157330214Y-103481833D01*
X157425452Y-103434214D01*
X157473071Y-103386595D01*
X157520690Y-103291357D01*
X157520690Y-102910404D01*
X156996880Y-104386595D02*
X156996880Y-103910404D01*
X157473071Y-103862785D01*
X157425452Y-103910404D01*
X157377833Y-104005642D01*
X157377833Y-104243738D01*
X157425452Y-104338976D01*
X157473071Y-104386595D01*
X157568309Y-104434214D01*
X157806404Y-104434214D01*
X157901642Y-104386595D01*
X157949261Y-104338976D01*
X157996880Y-104243738D01*
X157996880Y-104005642D01*
X157949261Y-103910404D01*
X157901642Y-103862785D01*
X158084380Y-107022833D02*
X157608190Y-106689500D01*
X158084380Y-106451404D02*
X157084380Y-106451404D01*
X157084380Y-106832357D01*
X157132000Y-106927595D01*
X157179619Y-106975214D01*
X157274857Y-107022833D01*
X157417714Y-107022833D01*
X157512952Y-106975214D01*
X157560571Y-106927595D01*
X157608190Y-106832357D01*
X157608190Y-106451404D01*
X157084380Y-107879976D02*
X157084380Y-107689500D01*
X157132000Y-107594261D01*
X157179619Y-107546642D01*
X157322476Y-107451404D01*
X157512952Y-107403785D01*
X157893904Y-107403785D01*
X157989142Y-107451404D01*
X158036761Y-107499023D01*
X158084380Y-107594261D01*
X158084380Y-107784738D01*
X158036761Y-107879976D01*
X157989142Y-107927595D01*
X157893904Y-107975214D01*
X157655809Y-107975214D01*
X157560571Y-107927595D01*
X157512952Y-107879976D01*
X157465333Y-107784738D01*
X157465333Y-107594261D01*
X157512952Y-107499023D01*
X157560571Y-107451404D01*
X157655809Y-107403785D01*
X150884880Y-103608833D02*
X150408690Y-103275500D01*
X150884880Y-103037404D02*
X149884880Y-103037404D01*
X149884880Y-103418357D01*
X149932500Y-103513595D01*
X149980119Y-103561214D01*
X150075357Y-103608833D01*
X150218214Y-103608833D01*
X150313452Y-103561214D01*
X150361071Y-103513595D01*
X150408690Y-103418357D01*
X150408690Y-103037404D01*
X149884880Y-103942166D02*
X149884880Y-104608833D01*
X150884880Y-104180261D01*
X150972380Y-107179833D02*
X150496190Y-106846500D01*
X150972380Y-106608404D02*
X149972380Y-106608404D01*
X149972380Y-106989357D01*
X150020000Y-107084595D01*
X150067619Y-107132214D01*
X150162857Y-107179833D01*
X150305714Y-107179833D01*
X150400952Y-107132214D01*
X150448571Y-107084595D01*
X150496190Y-106989357D01*
X150496190Y-106608404D01*
X150400952Y-107751261D02*
X150353333Y-107656023D01*
X150305714Y-107608404D01*
X150210476Y-107560785D01*
X150162857Y-107560785D01*
X150067619Y-107608404D01*
X150020000Y-107656023D01*
X149972380Y-107751261D01*
X149972380Y-107941738D01*
X150020000Y-108036976D01*
X150067619Y-108084595D01*
X150162857Y-108132214D01*
X150210476Y-108132214D01*
X150305714Y-108084595D01*
X150353333Y-108036976D01*
X150400952Y-107941738D01*
X150400952Y-107751261D01*
X150448571Y-107656023D01*
X150496190Y-107608404D01*
X150591428Y-107560785D01*
X150781904Y-107560785D01*
X150877142Y-107608404D01*
X150924761Y-107656023D01*
X150972380Y-107751261D01*
X150972380Y-107941738D01*
X150924761Y-108036976D01*
X150877142Y-108084595D01*
X150781904Y-108132214D01*
X150591428Y-108132214D01*
X150496190Y-108084595D01*
X150448571Y-108036976D01*
X150400952Y-107941738D01*
X145948666Y-108420380D02*
X146282000Y-107944190D01*
X146520095Y-108420380D02*
X146520095Y-107420380D01*
X146139142Y-107420380D01*
X146043904Y-107468000D01*
X145996285Y-107515619D01*
X145948666Y-107610857D01*
X145948666Y-107753714D01*
X145996285Y-107848952D01*
X146043904Y-107896571D01*
X146139142Y-107944190D01*
X146520095Y-107944190D01*
X145472476Y-108420380D02*
X145282000Y-108420380D01*
X145186761Y-108372761D01*
X145139142Y-108325142D01*
X145043904Y-108182285D01*
X144996285Y-107991809D01*
X144996285Y-107610857D01*
X145043904Y-107515619D01*
X145091523Y-107468000D01*
X145186761Y-107420380D01*
X145377238Y-107420380D01*
X145472476Y-107468000D01*
X145520095Y-107515619D01*
X145567714Y-107610857D01*
X145567714Y-107848952D01*
X145520095Y-107944190D01*
X145472476Y-107991809D01*
X145377238Y-108039428D01*
X145186761Y-108039428D01*
X145091523Y-107991809D01*
X145043904Y-107944190D01*
X144996285Y-107848952D01*
X142834380Y-100806095D02*
X143643904Y-100806095D01*
X143739142Y-100853714D01*
X143786761Y-100901333D01*
X143834380Y-100996571D01*
X143834380Y-101187047D01*
X143786761Y-101282285D01*
X143739142Y-101329904D01*
X143643904Y-101377523D01*
X142834380Y-101377523D01*
X142929619Y-101806095D02*
X142882000Y-101853714D01*
X142834380Y-101948952D01*
X142834380Y-102187047D01*
X142882000Y-102282285D01*
X142929619Y-102329904D01*
X143024857Y-102377523D01*
X143120095Y-102377523D01*
X143262952Y-102329904D01*
X143834380Y-101758476D01*
X143834380Y-102377523D01*
M02*
