G04 #@! TF.GenerationSoftware,KiCad,Pcbnew,5.1.5+dfsg1-2build2*
G04 #@! TF.CreationDate,2020-05-27T11:23:31-04:00*
G04 #@! TF.ProjectId,pidroponic_uHAT,70696472-6f70-46f6-9e69-635f75484154,1.0*
G04 #@! TF.SameCoordinates,Original*
G04 #@! TF.FileFunction,Copper,L2,Bot*
G04 #@! TF.FilePolarity,Positive*
%FSLAX46Y46*%
G04 Gerber Fmt 4.6, Leading zero omitted, Abs format (unit mm)*
G04 Created by KiCad (PCBNEW 5.1.5+dfsg1-2build2) date 2020-05-27 11:23:31*
%MOMM*%
%LPD*%
G04 APERTURE LIST*
%ADD10C,0.050000*%
%ADD11O,1.700000X1.700000*%
%ADD12R,1.700000X1.700000*%
%ADD13O,1.750000X1.200000*%
%ADD14R,2.600000X2.600000*%
%ADD15C,2.600000*%
%ADD16C,1.250000*%
%ADD17C,0.600000*%
%ADD18C,0.350000*%
%ADD19C,0.254000*%
G04 APERTURE END LIST*
G04 #@! TA.AperFunction,SMDPad,CuDef*
D10*
G36*
X145642142Y-115466174D02*
G01*
X145665803Y-115469684D01*
X145689007Y-115475496D01*
X145711529Y-115483554D01*
X145733153Y-115493782D01*
X145753670Y-115506079D01*
X145772883Y-115520329D01*
X145790607Y-115536393D01*
X145806671Y-115554117D01*
X145820921Y-115573330D01*
X145833218Y-115593847D01*
X145843446Y-115615471D01*
X145851504Y-115637993D01*
X145857316Y-115661197D01*
X145860826Y-115684858D01*
X145862000Y-115708750D01*
X145862000Y-116196250D01*
X145860826Y-116220142D01*
X145857316Y-116243803D01*
X145851504Y-116267007D01*
X145843446Y-116289529D01*
X145833218Y-116311153D01*
X145820921Y-116331670D01*
X145806671Y-116350883D01*
X145790607Y-116368607D01*
X145772883Y-116384671D01*
X145753670Y-116398921D01*
X145733153Y-116411218D01*
X145711529Y-116421446D01*
X145689007Y-116429504D01*
X145665803Y-116435316D01*
X145642142Y-116438826D01*
X145618250Y-116440000D01*
X144705750Y-116440000D01*
X144681858Y-116438826D01*
X144658197Y-116435316D01*
X144634993Y-116429504D01*
X144612471Y-116421446D01*
X144590847Y-116411218D01*
X144570330Y-116398921D01*
X144551117Y-116384671D01*
X144533393Y-116368607D01*
X144517329Y-116350883D01*
X144503079Y-116331670D01*
X144490782Y-116311153D01*
X144480554Y-116289529D01*
X144472496Y-116267007D01*
X144466684Y-116243803D01*
X144463174Y-116220142D01*
X144462000Y-116196250D01*
X144462000Y-115708750D01*
X144463174Y-115684858D01*
X144466684Y-115661197D01*
X144472496Y-115637993D01*
X144480554Y-115615471D01*
X144490782Y-115593847D01*
X144503079Y-115573330D01*
X144517329Y-115554117D01*
X144533393Y-115536393D01*
X144551117Y-115520329D01*
X144570330Y-115506079D01*
X144590847Y-115493782D01*
X144612471Y-115483554D01*
X144634993Y-115475496D01*
X144658197Y-115469684D01*
X144681858Y-115466174D01*
X144705750Y-115465000D01*
X145618250Y-115465000D01*
X145642142Y-115466174D01*
G37*
G04 #@! TD.AperFunction*
G04 #@! TA.AperFunction,SMDPad,CuDef*
G36*
X145642142Y-113591174D02*
G01*
X145665803Y-113594684D01*
X145689007Y-113600496D01*
X145711529Y-113608554D01*
X145733153Y-113618782D01*
X145753670Y-113631079D01*
X145772883Y-113645329D01*
X145790607Y-113661393D01*
X145806671Y-113679117D01*
X145820921Y-113698330D01*
X145833218Y-113718847D01*
X145843446Y-113740471D01*
X145851504Y-113762993D01*
X145857316Y-113786197D01*
X145860826Y-113809858D01*
X145862000Y-113833750D01*
X145862000Y-114321250D01*
X145860826Y-114345142D01*
X145857316Y-114368803D01*
X145851504Y-114392007D01*
X145843446Y-114414529D01*
X145833218Y-114436153D01*
X145820921Y-114456670D01*
X145806671Y-114475883D01*
X145790607Y-114493607D01*
X145772883Y-114509671D01*
X145753670Y-114523921D01*
X145733153Y-114536218D01*
X145711529Y-114546446D01*
X145689007Y-114554504D01*
X145665803Y-114560316D01*
X145642142Y-114563826D01*
X145618250Y-114565000D01*
X144705750Y-114565000D01*
X144681858Y-114563826D01*
X144658197Y-114560316D01*
X144634993Y-114554504D01*
X144612471Y-114546446D01*
X144590847Y-114536218D01*
X144570330Y-114523921D01*
X144551117Y-114509671D01*
X144533393Y-114493607D01*
X144517329Y-114475883D01*
X144503079Y-114456670D01*
X144490782Y-114436153D01*
X144480554Y-114414529D01*
X144472496Y-114392007D01*
X144466684Y-114368803D01*
X144463174Y-114345142D01*
X144462000Y-114321250D01*
X144462000Y-113833750D01*
X144463174Y-113809858D01*
X144466684Y-113786197D01*
X144472496Y-113762993D01*
X144480554Y-113740471D01*
X144490782Y-113718847D01*
X144503079Y-113698330D01*
X144517329Y-113679117D01*
X144533393Y-113661393D01*
X144551117Y-113645329D01*
X144570330Y-113631079D01*
X144590847Y-113618782D01*
X144612471Y-113608554D01*
X144634993Y-113600496D01*
X144658197Y-113594684D01*
X144681858Y-113591174D01*
X144705750Y-113590000D01*
X145618250Y-113590000D01*
X145642142Y-113591174D01*
G37*
G04 #@! TD.AperFunction*
D11*
X150242000Y-118818000D03*
X147702000Y-118818000D03*
X145162000Y-118818000D03*
X142622000Y-118818000D03*
X140082000Y-118818000D03*
X137542000Y-118818000D03*
X135002000Y-118818000D03*
X132462000Y-118818000D03*
X129922000Y-118818000D03*
D12*
X127382000Y-118818000D03*
G04 #@! TA.AperFunction,SMDPad,CuDef*
D10*
G36*
X150722142Y-115466174D02*
G01*
X150745803Y-115469684D01*
X150769007Y-115475496D01*
X150791529Y-115483554D01*
X150813153Y-115493782D01*
X150833670Y-115506079D01*
X150852883Y-115520329D01*
X150870607Y-115536393D01*
X150886671Y-115554117D01*
X150900921Y-115573330D01*
X150913218Y-115593847D01*
X150923446Y-115615471D01*
X150931504Y-115637993D01*
X150937316Y-115661197D01*
X150940826Y-115684858D01*
X150942000Y-115708750D01*
X150942000Y-116196250D01*
X150940826Y-116220142D01*
X150937316Y-116243803D01*
X150931504Y-116267007D01*
X150923446Y-116289529D01*
X150913218Y-116311153D01*
X150900921Y-116331670D01*
X150886671Y-116350883D01*
X150870607Y-116368607D01*
X150852883Y-116384671D01*
X150833670Y-116398921D01*
X150813153Y-116411218D01*
X150791529Y-116421446D01*
X150769007Y-116429504D01*
X150745803Y-116435316D01*
X150722142Y-116438826D01*
X150698250Y-116440000D01*
X149785750Y-116440000D01*
X149761858Y-116438826D01*
X149738197Y-116435316D01*
X149714993Y-116429504D01*
X149692471Y-116421446D01*
X149670847Y-116411218D01*
X149650330Y-116398921D01*
X149631117Y-116384671D01*
X149613393Y-116368607D01*
X149597329Y-116350883D01*
X149583079Y-116331670D01*
X149570782Y-116311153D01*
X149560554Y-116289529D01*
X149552496Y-116267007D01*
X149546684Y-116243803D01*
X149543174Y-116220142D01*
X149542000Y-116196250D01*
X149542000Y-115708750D01*
X149543174Y-115684858D01*
X149546684Y-115661197D01*
X149552496Y-115637993D01*
X149560554Y-115615471D01*
X149570782Y-115593847D01*
X149583079Y-115573330D01*
X149597329Y-115554117D01*
X149613393Y-115536393D01*
X149631117Y-115520329D01*
X149650330Y-115506079D01*
X149670847Y-115493782D01*
X149692471Y-115483554D01*
X149714993Y-115475496D01*
X149738197Y-115469684D01*
X149761858Y-115466174D01*
X149785750Y-115465000D01*
X150698250Y-115465000D01*
X150722142Y-115466174D01*
G37*
G04 #@! TD.AperFunction*
G04 #@! TA.AperFunction,SMDPad,CuDef*
G36*
X150722142Y-113591174D02*
G01*
X150745803Y-113594684D01*
X150769007Y-113600496D01*
X150791529Y-113608554D01*
X150813153Y-113618782D01*
X150833670Y-113631079D01*
X150852883Y-113645329D01*
X150870607Y-113661393D01*
X150886671Y-113679117D01*
X150900921Y-113698330D01*
X150913218Y-113718847D01*
X150923446Y-113740471D01*
X150931504Y-113762993D01*
X150937316Y-113786197D01*
X150940826Y-113809858D01*
X150942000Y-113833750D01*
X150942000Y-114321250D01*
X150940826Y-114345142D01*
X150937316Y-114368803D01*
X150931504Y-114392007D01*
X150923446Y-114414529D01*
X150913218Y-114436153D01*
X150900921Y-114456670D01*
X150886671Y-114475883D01*
X150870607Y-114493607D01*
X150852883Y-114509671D01*
X150833670Y-114523921D01*
X150813153Y-114536218D01*
X150791529Y-114546446D01*
X150769007Y-114554504D01*
X150745803Y-114560316D01*
X150722142Y-114563826D01*
X150698250Y-114565000D01*
X149785750Y-114565000D01*
X149761858Y-114563826D01*
X149738197Y-114560316D01*
X149714993Y-114554504D01*
X149692471Y-114546446D01*
X149670847Y-114536218D01*
X149650330Y-114523921D01*
X149631117Y-114509671D01*
X149613393Y-114493607D01*
X149597329Y-114475883D01*
X149583079Y-114456670D01*
X149570782Y-114436153D01*
X149560554Y-114414529D01*
X149552496Y-114392007D01*
X149546684Y-114368803D01*
X149543174Y-114345142D01*
X149542000Y-114321250D01*
X149542000Y-113833750D01*
X149543174Y-113809858D01*
X149546684Y-113786197D01*
X149552496Y-113762993D01*
X149560554Y-113740471D01*
X149570782Y-113718847D01*
X149583079Y-113698330D01*
X149597329Y-113679117D01*
X149613393Y-113661393D01*
X149631117Y-113645329D01*
X149650330Y-113631079D01*
X149670847Y-113618782D01*
X149692471Y-113608554D01*
X149714993Y-113600496D01*
X149738197Y-113594684D01*
X149761858Y-113591174D01*
X149785750Y-113590000D01*
X150698250Y-113590000D01*
X150722142Y-113591174D01*
G37*
G04 #@! TD.AperFunction*
G04 #@! TA.AperFunction,SMDPad,CuDef*
G36*
X148182142Y-115466174D02*
G01*
X148205803Y-115469684D01*
X148229007Y-115475496D01*
X148251529Y-115483554D01*
X148273153Y-115493782D01*
X148293670Y-115506079D01*
X148312883Y-115520329D01*
X148330607Y-115536393D01*
X148346671Y-115554117D01*
X148360921Y-115573330D01*
X148373218Y-115593847D01*
X148383446Y-115615471D01*
X148391504Y-115637993D01*
X148397316Y-115661197D01*
X148400826Y-115684858D01*
X148402000Y-115708750D01*
X148402000Y-116196250D01*
X148400826Y-116220142D01*
X148397316Y-116243803D01*
X148391504Y-116267007D01*
X148383446Y-116289529D01*
X148373218Y-116311153D01*
X148360921Y-116331670D01*
X148346671Y-116350883D01*
X148330607Y-116368607D01*
X148312883Y-116384671D01*
X148293670Y-116398921D01*
X148273153Y-116411218D01*
X148251529Y-116421446D01*
X148229007Y-116429504D01*
X148205803Y-116435316D01*
X148182142Y-116438826D01*
X148158250Y-116440000D01*
X147245750Y-116440000D01*
X147221858Y-116438826D01*
X147198197Y-116435316D01*
X147174993Y-116429504D01*
X147152471Y-116421446D01*
X147130847Y-116411218D01*
X147110330Y-116398921D01*
X147091117Y-116384671D01*
X147073393Y-116368607D01*
X147057329Y-116350883D01*
X147043079Y-116331670D01*
X147030782Y-116311153D01*
X147020554Y-116289529D01*
X147012496Y-116267007D01*
X147006684Y-116243803D01*
X147003174Y-116220142D01*
X147002000Y-116196250D01*
X147002000Y-115708750D01*
X147003174Y-115684858D01*
X147006684Y-115661197D01*
X147012496Y-115637993D01*
X147020554Y-115615471D01*
X147030782Y-115593847D01*
X147043079Y-115573330D01*
X147057329Y-115554117D01*
X147073393Y-115536393D01*
X147091117Y-115520329D01*
X147110330Y-115506079D01*
X147130847Y-115493782D01*
X147152471Y-115483554D01*
X147174993Y-115475496D01*
X147198197Y-115469684D01*
X147221858Y-115466174D01*
X147245750Y-115465000D01*
X148158250Y-115465000D01*
X148182142Y-115466174D01*
G37*
G04 #@! TD.AperFunction*
G04 #@! TA.AperFunction,SMDPad,CuDef*
G36*
X148182142Y-113591174D02*
G01*
X148205803Y-113594684D01*
X148229007Y-113600496D01*
X148251529Y-113608554D01*
X148273153Y-113618782D01*
X148293670Y-113631079D01*
X148312883Y-113645329D01*
X148330607Y-113661393D01*
X148346671Y-113679117D01*
X148360921Y-113698330D01*
X148373218Y-113718847D01*
X148383446Y-113740471D01*
X148391504Y-113762993D01*
X148397316Y-113786197D01*
X148400826Y-113809858D01*
X148402000Y-113833750D01*
X148402000Y-114321250D01*
X148400826Y-114345142D01*
X148397316Y-114368803D01*
X148391504Y-114392007D01*
X148383446Y-114414529D01*
X148373218Y-114436153D01*
X148360921Y-114456670D01*
X148346671Y-114475883D01*
X148330607Y-114493607D01*
X148312883Y-114509671D01*
X148293670Y-114523921D01*
X148273153Y-114536218D01*
X148251529Y-114546446D01*
X148229007Y-114554504D01*
X148205803Y-114560316D01*
X148182142Y-114563826D01*
X148158250Y-114565000D01*
X147245750Y-114565000D01*
X147221858Y-114563826D01*
X147198197Y-114560316D01*
X147174993Y-114554504D01*
X147152471Y-114546446D01*
X147130847Y-114536218D01*
X147110330Y-114523921D01*
X147091117Y-114509671D01*
X147073393Y-114493607D01*
X147057329Y-114475883D01*
X147043079Y-114456670D01*
X147030782Y-114436153D01*
X147020554Y-114414529D01*
X147012496Y-114392007D01*
X147006684Y-114368803D01*
X147003174Y-114345142D01*
X147002000Y-114321250D01*
X147002000Y-113833750D01*
X147003174Y-113809858D01*
X147006684Y-113786197D01*
X147012496Y-113762993D01*
X147020554Y-113740471D01*
X147030782Y-113718847D01*
X147043079Y-113698330D01*
X147057329Y-113679117D01*
X147073393Y-113661393D01*
X147091117Y-113645329D01*
X147110330Y-113631079D01*
X147130847Y-113618782D01*
X147152471Y-113608554D01*
X147174993Y-113600496D01*
X147198197Y-113594684D01*
X147221858Y-113591174D01*
X147245750Y-113590000D01*
X148158250Y-113590000D01*
X148182142Y-113591174D01*
G37*
G04 #@! TD.AperFunction*
D13*
X154814000Y-115428000D03*
G04 #@! TA.AperFunction,ComponentPad*
D10*
G36*
X155463505Y-116829204D02*
G01*
X155487773Y-116832804D01*
X155511572Y-116838765D01*
X155534671Y-116847030D01*
X155556850Y-116857520D01*
X155577893Y-116870132D01*
X155597599Y-116884747D01*
X155615777Y-116901223D01*
X155632253Y-116919401D01*
X155646868Y-116939107D01*
X155659480Y-116960150D01*
X155669970Y-116982329D01*
X155678235Y-117005428D01*
X155684196Y-117029227D01*
X155687796Y-117053495D01*
X155689000Y-117077999D01*
X155689000Y-117778001D01*
X155687796Y-117802505D01*
X155684196Y-117826773D01*
X155678235Y-117850572D01*
X155669970Y-117873671D01*
X155659480Y-117895850D01*
X155646868Y-117916893D01*
X155632253Y-117936599D01*
X155615777Y-117954777D01*
X155597599Y-117971253D01*
X155577893Y-117985868D01*
X155556850Y-117998480D01*
X155534671Y-118008970D01*
X155511572Y-118017235D01*
X155487773Y-118023196D01*
X155463505Y-118026796D01*
X155439001Y-118028000D01*
X154188999Y-118028000D01*
X154164495Y-118026796D01*
X154140227Y-118023196D01*
X154116428Y-118017235D01*
X154093329Y-118008970D01*
X154071150Y-117998480D01*
X154050107Y-117985868D01*
X154030401Y-117971253D01*
X154012223Y-117954777D01*
X153995747Y-117936599D01*
X153981132Y-117916893D01*
X153968520Y-117895850D01*
X153958030Y-117873671D01*
X153949765Y-117850572D01*
X153943804Y-117826773D01*
X153940204Y-117802505D01*
X153939000Y-117778001D01*
X153939000Y-117077999D01*
X153940204Y-117053495D01*
X153943804Y-117029227D01*
X153949765Y-117005428D01*
X153958030Y-116982329D01*
X153968520Y-116960150D01*
X153981132Y-116939107D01*
X153995747Y-116919401D01*
X154012223Y-116901223D01*
X154030401Y-116884747D01*
X154050107Y-116870132D01*
X154071150Y-116857520D01*
X154093329Y-116847030D01*
X154116428Y-116838765D01*
X154140227Y-116832804D01*
X154164495Y-116829204D01*
X154188999Y-116828000D01*
X155439001Y-116828000D01*
X155463505Y-116829204D01*
G37*
G04 #@! TD.AperFunction*
D13*
X160656000Y-115428000D03*
G04 #@! TA.AperFunction,ComponentPad*
D10*
G36*
X161305505Y-116829204D02*
G01*
X161329773Y-116832804D01*
X161353572Y-116838765D01*
X161376671Y-116847030D01*
X161398850Y-116857520D01*
X161419893Y-116870132D01*
X161439599Y-116884747D01*
X161457777Y-116901223D01*
X161474253Y-116919401D01*
X161488868Y-116939107D01*
X161501480Y-116960150D01*
X161511970Y-116982329D01*
X161520235Y-117005428D01*
X161526196Y-117029227D01*
X161529796Y-117053495D01*
X161531000Y-117077999D01*
X161531000Y-117778001D01*
X161529796Y-117802505D01*
X161526196Y-117826773D01*
X161520235Y-117850572D01*
X161511970Y-117873671D01*
X161501480Y-117895850D01*
X161488868Y-117916893D01*
X161474253Y-117936599D01*
X161457777Y-117954777D01*
X161439599Y-117971253D01*
X161419893Y-117985868D01*
X161398850Y-117998480D01*
X161376671Y-118008970D01*
X161353572Y-118017235D01*
X161329773Y-118023196D01*
X161305505Y-118026796D01*
X161281001Y-118028000D01*
X160030999Y-118028000D01*
X160006495Y-118026796D01*
X159982227Y-118023196D01*
X159958428Y-118017235D01*
X159935329Y-118008970D01*
X159913150Y-117998480D01*
X159892107Y-117985868D01*
X159872401Y-117971253D01*
X159854223Y-117954777D01*
X159837747Y-117936599D01*
X159823132Y-117916893D01*
X159810520Y-117895850D01*
X159800030Y-117873671D01*
X159791765Y-117850572D01*
X159785804Y-117826773D01*
X159782204Y-117802505D01*
X159781000Y-117778001D01*
X159781000Y-117077999D01*
X159782204Y-117053495D01*
X159785804Y-117029227D01*
X159791765Y-117005428D01*
X159800030Y-116982329D01*
X159810520Y-116960150D01*
X159823132Y-116939107D01*
X159837747Y-116919401D01*
X159854223Y-116901223D01*
X159872401Y-116884747D01*
X159892107Y-116870132D01*
X159913150Y-116857520D01*
X159935329Y-116847030D01*
X159958428Y-116838765D01*
X159982227Y-116832804D01*
X160006495Y-116829204D01*
X160030999Y-116828000D01*
X161281001Y-116828000D01*
X161305505Y-116829204D01*
G37*
G04 #@! TD.AperFunction*
D13*
X172340000Y-113428000D03*
X172340000Y-115428000D03*
G04 #@! TA.AperFunction,ComponentPad*
D10*
G36*
X172989505Y-116829204D02*
G01*
X173013773Y-116832804D01*
X173037572Y-116838765D01*
X173060671Y-116847030D01*
X173082850Y-116857520D01*
X173103893Y-116870132D01*
X173123599Y-116884747D01*
X173141777Y-116901223D01*
X173158253Y-116919401D01*
X173172868Y-116939107D01*
X173185480Y-116960150D01*
X173195970Y-116982329D01*
X173204235Y-117005428D01*
X173210196Y-117029227D01*
X173213796Y-117053495D01*
X173215000Y-117077999D01*
X173215000Y-117778001D01*
X173213796Y-117802505D01*
X173210196Y-117826773D01*
X173204235Y-117850572D01*
X173195970Y-117873671D01*
X173185480Y-117895850D01*
X173172868Y-117916893D01*
X173158253Y-117936599D01*
X173141777Y-117954777D01*
X173123599Y-117971253D01*
X173103893Y-117985868D01*
X173082850Y-117998480D01*
X173060671Y-118008970D01*
X173037572Y-118017235D01*
X173013773Y-118023196D01*
X172989505Y-118026796D01*
X172965001Y-118028000D01*
X171714999Y-118028000D01*
X171690495Y-118026796D01*
X171666227Y-118023196D01*
X171642428Y-118017235D01*
X171619329Y-118008970D01*
X171597150Y-117998480D01*
X171576107Y-117985868D01*
X171556401Y-117971253D01*
X171538223Y-117954777D01*
X171521747Y-117936599D01*
X171507132Y-117916893D01*
X171494520Y-117895850D01*
X171484030Y-117873671D01*
X171475765Y-117850572D01*
X171469804Y-117826773D01*
X171466204Y-117802505D01*
X171465000Y-117778001D01*
X171465000Y-117077999D01*
X171466204Y-117053495D01*
X171469804Y-117029227D01*
X171475765Y-117005428D01*
X171484030Y-116982329D01*
X171494520Y-116960150D01*
X171507132Y-116939107D01*
X171521747Y-116919401D01*
X171538223Y-116901223D01*
X171556401Y-116884747D01*
X171576107Y-116870132D01*
X171597150Y-116857520D01*
X171619329Y-116847030D01*
X171642428Y-116838765D01*
X171666227Y-116832804D01*
X171690495Y-116829204D01*
X171714999Y-116828000D01*
X172965001Y-116828000D01*
X172989505Y-116829204D01*
G37*
G04 #@! TD.AperFunction*
D13*
X166498000Y-115428000D03*
G04 #@! TA.AperFunction,ComponentPad*
D10*
G36*
X167147505Y-116829204D02*
G01*
X167171773Y-116832804D01*
X167195572Y-116838765D01*
X167218671Y-116847030D01*
X167240850Y-116857520D01*
X167261893Y-116870132D01*
X167281599Y-116884747D01*
X167299777Y-116901223D01*
X167316253Y-116919401D01*
X167330868Y-116939107D01*
X167343480Y-116960150D01*
X167353970Y-116982329D01*
X167362235Y-117005428D01*
X167368196Y-117029227D01*
X167371796Y-117053495D01*
X167373000Y-117077999D01*
X167373000Y-117778001D01*
X167371796Y-117802505D01*
X167368196Y-117826773D01*
X167362235Y-117850572D01*
X167353970Y-117873671D01*
X167343480Y-117895850D01*
X167330868Y-117916893D01*
X167316253Y-117936599D01*
X167299777Y-117954777D01*
X167281599Y-117971253D01*
X167261893Y-117985868D01*
X167240850Y-117998480D01*
X167218671Y-118008970D01*
X167195572Y-118017235D01*
X167171773Y-118023196D01*
X167147505Y-118026796D01*
X167123001Y-118028000D01*
X165872999Y-118028000D01*
X165848495Y-118026796D01*
X165824227Y-118023196D01*
X165800428Y-118017235D01*
X165777329Y-118008970D01*
X165755150Y-117998480D01*
X165734107Y-117985868D01*
X165714401Y-117971253D01*
X165696223Y-117954777D01*
X165679747Y-117936599D01*
X165665132Y-117916893D01*
X165652520Y-117895850D01*
X165642030Y-117873671D01*
X165633765Y-117850572D01*
X165627804Y-117826773D01*
X165624204Y-117802505D01*
X165623000Y-117778001D01*
X165623000Y-117077999D01*
X165624204Y-117053495D01*
X165627804Y-117029227D01*
X165633765Y-117005428D01*
X165642030Y-116982329D01*
X165652520Y-116960150D01*
X165665132Y-116939107D01*
X165679747Y-116919401D01*
X165696223Y-116901223D01*
X165714401Y-116884747D01*
X165734107Y-116870132D01*
X165755150Y-116857520D01*
X165777329Y-116847030D01*
X165800428Y-116838765D01*
X165824227Y-116832804D01*
X165848495Y-116829204D01*
X165872999Y-116828000D01*
X167123001Y-116828000D01*
X167147505Y-116829204D01*
G37*
G04 #@! TD.AperFunction*
D12*
X125902000Y-95838000D03*
D11*
X125902000Y-93298000D03*
X128442000Y-95838000D03*
X128442000Y-93298000D03*
X130982000Y-95838000D03*
X130982000Y-93298000D03*
X133522000Y-95838000D03*
X133522000Y-93298000D03*
X136062000Y-95838000D03*
X136062000Y-93298000D03*
X138602000Y-95838000D03*
X138602000Y-93298000D03*
X141142000Y-95838000D03*
X141142000Y-93298000D03*
X143682000Y-95838000D03*
X143682000Y-93298000D03*
X146222000Y-95838000D03*
X146222000Y-93298000D03*
X148762000Y-95838000D03*
X148762000Y-93298000D03*
X151302000Y-95838000D03*
X151302000Y-93298000D03*
X153842000Y-95838000D03*
X153842000Y-93298000D03*
X156382000Y-95838000D03*
X156382000Y-93298000D03*
X158922000Y-95838000D03*
X158922000Y-93298000D03*
X161462000Y-95838000D03*
X161462000Y-93298000D03*
X164002000Y-95838000D03*
X164002000Y-93298000D03*
X166542000Y-95838000D03*
X166542000Y-93298000D03*
X169082000Y-95838000D03*
X169082000Y-93298000D03*
X171622000Y-95838000D03*
X171622000Y-93298000D03*
X174162000Y-95838000D03*
X174162000Y-93298000D03*
D14*
X122048000Y-106252000D03*
D15*
X122048000Y-101252000D03*
D13*
X168784000Y-100760000D03*
X168784000Y-102760000D03*
X168784000Y-104760000D03*
G04 #@! TA.AperFunction,ComponentPad*
D10*
G36*
X169433505Y-106161204D02*
G01*
X169457773Y-106164804D01*
X169481572Y-106170765D01*
X169504671Y-106179030D01*
X169526850Y-106189520D01*
X169547893Y-106202132D01*
X169567599Y-106216747D01*
X169585777Y-106233223D01*
X169602253Y-106251401D01*
X169616868Y-106271107D01*
X169629480Y-106292150D01*
X169639970Y-106314329D01*
X169648235Y-106337428D01*
X169654196Y-106361227D01*
X169657796Y-106385495D01*
X169659000Y-106409999D01*
X169659000Y-107110001D01*
X169657796Y-107134505D01*
X169654196Y-107158773D01*
X169648235Y-107182572D01*
X169639970Y-107205671D01*
X169629480Y-107227850D01*
X169616868Y-107248893D01*
X169602253Y-107268599D01*
X169585777Y-107286777D01*
X169567599Y-107303253D01*
X169547893Y-107317868D01*
X169526850Y-107330480D01*
X169504671Y-107340970D01*
X169481572Y-107349235D01*
X169457773Y-107355196D01*
X169433505Y-107358796D01*
X169409001Y-107360000D01*
X168158999Y-107360000D01*
X168134495Y-107358796D01*
X168110227Y-107355196D01*
X168086428Y-107349235D01*
X168063329Y-107340970D01*
X168041150Y-107330480D01*
X168020107Y-107317868D01*
X168000401Y-107303253D01*
X167982223Y-107286777D01*
X167965747Y-107268599D01*
X167951132Y-107248893D01*
X167938520Y-107227850D01*
X167928030Y-107205671D01*
X167919765Y-107182572D01*
X167913804Y-107158773D01*
X167910204Y-107134505D01*
X167909000Y-107110001D01*
X167909000Y-106409999D01*
X167910204Y-106385495D01*
X167913804Y-106361227D01*
X167919765Y-106337428D01*
X167928030Y-106314329D01*
X167938520Y-106292150D01*
X167951132Y-106271107D01*
X167965747Y-106251401D01*
X167982223Y-106233223D01*
X168000401Y-106216747D01*
X168020107Y-106202132D01*
X168041150Y-106189520D01*
X168063329Y-106179030D01*
X168086428Y-106170765D01*
X168110227Y-106164804D01*
X168134495Y-106161204D01*
X168158999Y-106160000D01*
X169409001Y-106160000D01*
X169433505Y-106161204D01*
G37*
G04 #@! TD.AperFunction*
D13*
X154560000Y-100760000D03*
X154560000Y-102760000D03*
X154560000Y-104760000D03*
G04 #@! TA.AperFunction,ComponentPad*
D10*
G36*
X155209505Y-106161204D02*
G01*
X155233773Y-106164804D01*
X155257572Y-106170765D01*
X155280671Y-106179030D01*
X155302850Y-106189520D01*
X155323893Y-106202132D01*
X155343599Y-106216747D01*
X155361777Y-106233223D01*
X155378253Y-106251401D01*
X155392868Y-106271107D01*
X155405480Y-106292150D01*
X155415970Y-106314329D01*
X155424235Y-106337428D01*
X155430196Y-106361227D01*
X155433796Y-106385495D01*
X155435000Y-106409999D01*
X155435000Y-107110001D01*
X155433796Y-107134505D01*
X155430196Y-107158773D01*
X155424235Y-107182572D01*
X155415970Y-107205671D01*
X155405480Y-107227850D01*
X155392868Y-107248893D01*
X155378253Y-107268599D01*
X155361777Y-107286777D01*
X155343599Y-107303253D01*
X155323893Y-107317868D01*
X155302850Y-107330480D01*
X155280671Y-107340970D01*
X155257572Y-107349235D01*
X155233773Y-107355196D01*
X155209505Y-107358796D01*
X155185001Y-107360000D01*
X153934999Y-107360000D01*
X153910495Y-107358796D01*
X153886227Y-107355196D01*
X153862428Y-107349235D01*
X153839329Y-107340970D01*
X153817150Y-107330480D01*
X153796107Y-107317868D01*
X153776401Y-107303253D01*
X153758223Y-107286777D01*
X153741747Y-107268599D01*
X153727132Y-107248893D01*
X153714520Y-107227850D01*
X153704030Y-107205671D01*
X153695765Y-107182572D01*
X153689804Y-107158773D01*
X153686204Y-107134505D01*
X153685000Y-107110001D01*
X153685000Y-106409999D01*
X153686204Y-106385495D01*
X153689804Y-106361227D01*
X153695765Y-106337428D01*
X153704030Y-106314329D01*
X153714520Y-106292150D01*
X153727132Y-106271107D01*
X153741747Y-106251401D01*
X153758223Y-106233223D01*
X153776401Y-106216747D01*
X153796107Y-106202132D01*
X153817150Y-106189520D01*
X153839329Y-106179030D01*
X153862428Y-106170765D01*
X153886227Y-106164804D01*
X153910495Y-106161204D01*
X153934999Y-106160000D01*
X155185001Y-106160000D01*
X155209505Y-106161204D01*
G37*
G04 #@! TD.AperFunction*
D13*
X178690000Y-101236000D03*
X178690000Y-103236000D03*
X178690000Y-105236000D03*
X178690000Y-107236000D03*
X178690000Y-109236000D03*
G04 #@! TA.AperFunction,ComponentPad*
D10*
G36*
X179339505Y-110637204D02*
G01*
X179363773Y-110640804D01*
X179387572Y-110646765D01*
X179410671Y-110655030D01*
X179432850Y-110665520D01*
X179453893Y-110678132D01*
X179473599Y-110692747D01*
X179491777Y-110709223D01*
X179508253Y-110727401D01*
X179522868Y-110747107D01*
X179535480Y-110768150D01*
X179545970Y-110790329D01*
X179554235Y-110813428D01*
X179560196Y-110837227D01*
X179563796Y-110861495D01*
X179565000Y-110885999D01*
X179565000Y-111586001D01*
X179563796Y-111610505D01*
X179560196Y-111634773D01*
X179554235Y-111658572D01*
X179545970Y-111681671D01*
X179535480Y-111703850D01*
X179522868Y-111724893D01*
X179508253Y-111744599D01*
X179491777Y-111762777D01*
X179473599Y-111779253D01*
X179453893Y-111793868D01*
X179432850Y-111806480D01*
X179410671Y-111816970D01*
X179387572Y-111825235D01*
X179363773Y-111831196D01*
X179339505Y-111834796D01*
X179315001Y-111836000D01*
X178064999Y-111836000D01*
X178040495Y-111834796D01*
X178016227Y-111831196D01*
X177992428Y-111825235D01*
X177969329Y-111816970D01*
X177947150Y-111806480D01*
X177926107Y-111793868D01*
X177906401Y-111779253D01*
X177888223Y-111762777D01*
X177871747Y-111744599D01*
X177857132Y-111724893D01*
X177844520Y-111703850D01*
X177834030Y-111681671D01*
X177825765Y-111658572D01*
X177819804Y-111634773D01*
X177816204Y-111610505D01*
X177815000Y-111586001D01*
X177815000Y-110885999D01*
X177816204Y-110861495D01*
X177819804Y-110837227D01*
X177825765Y-110813428D01*
X177834030Y-110790329D01*
X177844520Y-110768150D01*
X177857132Y-110747107D01*
X177871747Y-110727401D01*
X177888223Y-110709223D01*
X177906401Y-110692747D01*
X177926107Y-110678132D01*
X177947150Y-110665520D01*
X177969329Y-110655030D01*
X177992428Y-110646765D01*
X178016227Y-110640804D01*
X178040495Y-110637204D01*
X178064999Y-110636000D01*
X179315001Y-110636000D01*
X179339505Y-110637204D01*
G37*
G04 #@! TD.AperFunction*
D13*
X161672000Y-100760000D03*
X161672000Y-102760000D03*
X161672000Y-104760000D03*
G04 #@! TA.AperFunction,ComponentPad*
D10*
G36*
X162321505Y-106161204D02*
G01*
X162345773Y-106164804D01*
X162369572Y-106170765D01*
X162392671Y-106179030D01*
X162414850Y-106189520D01*
X162435893Y-106202132D01*
X162455599Y-106216747D01*
X162473777Y-106233223D01*
X162490253Y-106251401D01*
X162504868Y-106271107D01*
X162517480Y-106292150D01*
X162527970Y-106314329D01*
X162536235Y-106337428D01*
X162542196Y-106361227D01*
X162545796Y-106385495D01*
X162547000Y-106409999D01*
X162547000Y-107110001D01*
X162545796Y-107134505D01*
X162542196Y-107158773D01*
X162536235Y-107182572D01*
X162527970Y-107205671D01*
X162517480Y-107227850D01*
X162504868Y-107248893D01*
X162490253Y-107268599D01*
X162473777Y-107286777D01*
X162455599Y-107303253D01*
X162435893Y-107317868D01*
X162414850Y-107330480D01*
X162392671Y-107340970D01*
X162369572Y-107349235D01*
X162345773Y-107355196D01*
X162321505Y-107358796D01*
X162297001Y-107360000D01*
X161046999Y-107360000D01*
X161022495Y-107358796D01*
X160998227Y-107355196D01*
X160974428Y-107349235D01*
X160951329Y-107340970D01*
X160929150Y-107330480D01*
X160908107Y-107317868D01*
X160888401Y-107303253D01*
X160870223Y-107286777D01*
X160853747Y-107268599D01*
X160839132Y-107248893D01*
X160826520Y-107227850D01*
X160816030Y-107205671D01*
X160807765Y-107182572D01*
X160801804Y-107158773D01*
X160798204Y-107134505D01*
X160797000Y-107110001D01*
X160797000Y-106409999D01*
X160798204Y-106385495D01*
X160801804Y-106361227D01*
X160807765Y-106337428D01*
X160816030Y-106314329D01*
X160826520Y-106292150D01*
X160839132Y-106271107D01*
X160853747Y-106251401D01*
X160870223Y-106233223D01*
X160888401Y-106216747D01*
X160908107Y-106202132D01*
X160929150Y-106189520D01*
X160951329Y-106179030D01*
X160974428Y-106170765D01*
X160998227Y-106164804D01*
X161022495Y-106161204D01*
X161046999Y-106160000D01*
X162297001Y-106160000D01*
X162321505Y-106161204D01*
G37*
G04 #@! TD.AperFunction*
G04 #@! TA.AperFunction,SMDPad,CuDef*
G36*
X166724142Y-104163174D02*
G01*
X166747803Y-104166684D01*
X166771007Y-104172496D01*
X166793529Y-104180554D01*
X166815153Y-104190782D01*
X166835670Y-104203079D01*
X166854883Y-104217329D01*
X166872607Y-104233393D01*
X166888671Y-104251117D01*
X166902921Y-104270330D01*
X166915218Y-104290847D01*
X166925446Y-104312471D01*
X166933504Y-104334993D01*
X166939316Y-104358197D01*
X166942826Y-104381858D01*
X166944000Y-104405750D01*
X166944000Y-104893250D01*
X166942826Y-104917142D01*
X166939316Y-104940803D01*
X166933504Y-104964007D01*
X166925446Y-104986529D01*
X166915218Y-105008153D01*
X166902921Y-105028670D01*
X166888671Y-105047883D01*
X166872607Y-105065607D01*
X166854883Y-105081671D01*
X166835670Y-105095921D01*
X166815153Y-105108218D01*
X166793529Y-105118446D01*
X166771007Y-105126504D01*
X166747803Y-105132316D01*
X166724142Y-105135826D01*
X166700250Y-105137000D01*
X165787750Y-105137000D01*
X165763858Y-105135826D01*
X165740197Y-105132316D01*
X165716993Y-105126504D01*
X165694471Y-105118446D01*
X165672847Y-105108218D01*
X165652330Y-105095921D01*
X165633117Y-105081671D01*
X165615393Y-105065607D01*
X165599329Y-105047883D01*
X165585079Y-105028670D01*
X165572782Y-105008153D01*
X165562554Y-104986529D01*
X165554496Y-104964007D01*
X165548684Y-104940803D01*
X165545174Y-104917142D01*
X165544000Y-104893250D01*
X165544000Y-104405750D01*
X165545174Y-104381858D01*
X165548684Y-104358197D01*
X165554496Y-104334993D01*
X165562554Y-104312471D01*
X165572782Y-104290847D01*
X165585079Y-104270330D01*
X165599329Y-104251117D01*
X165615393Y-104233393D01*
X165633117Y-104217329D01*
X165652330Y-104203079D01*
X165672847Y-104190782D01*
X165694471Y-104180554D01*
X165716993Y-104172496D01*
X165740197Y-104166684D01*
X165763858Y-104163174D01*
X165787750Y-104162000D01*
X166700250Y-104162000D01*
X166724142Y-104163174D01*
G37*
G04 #@! TD.AperFunction*
G04 #@! TA.AperFunction,SMDPad,CuDef*
G36*
X166724142Y-102288174D02*
G01*
X166747803Y-102291684D01*
X166771007Y-102297496D01*
X166793529Y-102305554D01*
X166815153Y-102315782D01*
X166835670Y-102328079D01*
X166854883Y-102342329D01*
X166872607Y-102358393D01*
X166888671Y-102376117D01*
X166902921Y-102395330D01*
X166915218Y-102415847D01*
X166925446Y-102437471D01*
X166933504Y-102459993D01*
X166939316Y-102483197D01*
X166942826Y-102506858D01*
X166944000Y-102530750D01*
X166944000Y-103018250D01*
X166942826Y-103042142D01*
X166939316Y-103065803D01*
X166933504Y-103089007D01*
X166925446Y-103111529D01*
X166915218Y-103133153D01*
X166902921Y-103153670D01*
X166888671Y-103172883D01*
X166872607Y-103190607D01*
X166854883Y-103206671D01*
X166835670Y-103220921D01*
X166815153Y-103233218D01*
X166793529Y-103243446D01*
X166771007Y-103251504D01*
X166747803Y-103257316D01*
X166724142Y-103260826D01*
X166700250Y-103262000D01*
X165787750Y-103262000D01*
X165763858Y-103260826D01*
X165740197Y-103257316D01*
X165716993Y-103251504D01*
X165694471Y-103243446D01*
X165672847Y-103233218D01*
X165652330Y-103220921D01*
X165633117Y-103206671D01*
X165615393Y-103190607D01*
X165599329Y-103172883D01*
X165585079Y-103153670D01*
X165572782Y-103133153D01*
X165562554Y-103111529D01*
X165554496Y-103089007D01*
X165548684Y-103065803D01*
X165545174Y-103042142D01*
X165544000Y-103018250D01*
X165544000Y-102530750D01*
X165545174Y-102506858D01*
X165548684Y-102483197D01*
X165554496Y-102459993D01*
X165562554Y-102437471D01*
X165572782Y-102415847D01*
X165585079Y-102395330D01*
X165599329Y-102376117D01*
X165615393Y-102358393D01*
X165633117Y-102342329D01*
X165652330Y-102328079D01*
X165672847Y-102315782D01*
X165694471Y-102305554D01*
X165716993Y-102297496D01*
X165740197Y-102291684D01*
X165763858Y-102288174D01*
X165787750Y-102287000D01*
X166700250Y-102287000D01*
X166724142Y-102288174D01*
G37*
G04 #@! TD.AperFunction*
G04 #@! TA.AperFunction,SMDPad,CuDef*
G36*
X166724142Y-107719174D02*
G01*
X166747803Y-107722684D01*
X166771007Y-107728496D01*
X166793529Y-107736554D01*
X166815153Y-107746782D01*
X166835670Y-107759079D01*
X166854883Y-107773329D01*
X166872607Y-107789393D01*
X166888671Y-107807117D01*
X166902921Y-107826330D01*
X166915218Y-107846847D01*
X166925446Y-107868471D01*
X166933504Y-107890993D01*
X166939316Y-107914197D01*
X166942826Y-107937858D01*
X166944000Y-107961750D01*
X166944000Y-108449250D01*
X166942826Y-108473142D01*
X166939316Y-108496803D01*
X166933504Y-108520007D01*
X166925446Y-108542529D01*
X166915218Y-108564153D01*
X166902921Y-108584670D01*
X166888671Y-108603883D01*
X166872607Y-108621607D01*
X166854883Y-108637671D01*
X166835670Y-108651921D01*
X166815153Y-108664218D01*
X166793529Y-108674446D01*
X166771007Y-108682504D01*
X166747803Y-108688316D01*
X166724142Y-108691826D01*
X166700250Y-108693000D01*
X165787750Y-108693000D01*
X165763858Y-108691826D01*
X165740197Y-108688316D01*
X165716993Y-108682504D01*
X165694471Y-108674446D01*
X165672847Y-108664218D01*
X165652330Y-108651921D01*
X165633117Y-108637671D01*
X165615393Y-108621607D01*
X165599329Y-108603883D01*
X165585079Y-108584670D01*
X165572782Y-108564153D01*
X165562554Y-108542529D01*
X165554496Y-108520007D01*
X165548684Y-108496803D01*
X165545174Y-108473142D01*
X165544000Y-108449250D01*
X165544000Y-107961750D01*
X165545174Y-107937858D01*
X165548684Y-107914197D01*
X165554496Y-107890993D01*
X165562554Y-107868471D01*
X165572782Y-107846847D01*
X165585079Y-107826330D01*
X165599329Y-107807117D01*
X165615393Y-107789393D01*
X165633117Y-107773329D01*
X165652330Y-107759079D01*
X165672847Y-107746782D01*
X165694471Y-107736554D01*
X165716993Y-107728496D01*
X165740197Y-107722684D01*
X165763858Y-107719174D01*
X165787750Y-107718000D01*
X166700250Y-107718000D01*
X166724142Y-107719174D01*
G37*
G04 #@! TD.AperFunction*
G04 #@! TA.AperFunction,SMDPad,CuDef*
G36*
X166724142Y-105844174D02*
G01*
X166747803Y-105847684D01*
X166771007Y-105853496D01*
X166793529Y-105861554D01*
X166815153Y-105871782D01*
X166835670Y-105884079D01*
X166854883Y-105898329D01*
X166872607Y-105914393D01*
X166888671Y-105932117D01*
X166902921Y-105951330D01*
X166915218Y-105971847D01*
X166925446Y-105993471D01*
X166933504Y-106015993D01*
X166939316Y-106039197D01*
X166942826Y-106062858D01*
X166944000Y-106086750D01*
X166944000Y-106574250D01*
X166942826Y-106598142D01*
X166939316Y-106621803D01*
X166933504Y-106645007D01*
X166925446Y-106667529D01*
X166915218Y-106689153D01*
X166902921Y-106709670D01*
X166888671Y-106728883D01*
X166872607Y-106746607D01*
X166854883Y-106762671D01*
X166835670Y-106776921D01*
X166815153Y-106789218D01*
X166793529Y-106799446D01*
X166771007Y-106807504D01*
X166747803Y-106813316D01*
X166724142Y-106816826D01*
X166700250Y-106818000D01*
X165787750Y-106818000D01*
X165763858Y-106816826D01*
X165740197Y-106813316D01*
X165716993Y-106807504D01*
X165694471Y-106799446D01*
X165672847Y-106789218D01*
X165652330Y-106776921D01*
X165633117Y-106762671D01*
X165615393Y-106746607D01*
X165599329Y-106728883D01*
X165585079Y-106709670D01*
X165572782Y-106689153D01*
X165562554Y-106667529D01*
X165554496Y-106645007D01*
X165548684Y-106621803D01*
X165545174Y-106598142D01*
X165544000Y-106574250D01*
X165544000Y-106086750D01*
X165545174Y-106062858D01*
X165548684Y-106039197D01*
X165554496Y-106015993D01*
X165562554Y-105993471D01*
X165572782Y-105971847D01*
X165585079Y-105951330D01*
X165599329Y-105932117D01*
X165615393Y-105914393D01*
X165633117Y-105898329D01*
X165652330Y-105884079D01*
X165672847Y-105871782D01*
X165694471Y-105861554D01*
X165716993Y-105853496D01*
X165740197Y-105847684D01*
X165763858Y-105844174D01*
X165787750Y-105843000D01*
X166700250Y-105843000D01*
X166724142Y-105844174D01*
G37*
G04 #@! TD.AperFunction*
G04 #@! TA.AperFunction,SMDPad,CuDef*
G36*
X159612142Y-104084674D02*
G01*
X159635803Y-104088184D01*
X159659007Y-104093996D01*
X159681529Y-104102054D01*
X159703153Y-104112282D01*
X159723670Y-104124579D01*
X159742883Y-104138829D01*
X159760607Y-104154893D01*
X159776671Y-104172617D01*
X159790921Y-104191830D01*
X159803218Y-104212347D01*
X159813446Y-104233971D01*
X159821504Y-104256493D01*
X159827316Y-104279697D01*
X159830826Y-104303358D01*
X159832000Y-104327250D01*
X159832000Y-104814750D01*
X159830826Y-104838642D01*
X159827316Y-104862303D01*
X159821504Y-104885507D01*
X159813446Y-104908029D01*
X159803218Y-104929653D01*
X159790921Y-104950170D01*
X159776671Y-104969383D01*
X159760607Y-104987107D01*
X159742883Y-105003171D01*
X159723670Y-105017421D01*
X159703153Y-105029718D01*
X159681529Y-105039946D01*
X159659007Y-105048004D01*
X159635803Y-105053816D01*
X159612142Y-105057326D01*
X159588250Y-105058500D01*
X158675750Y-105058500D01*
X158651858Y-105057326D01*
X158628197Y-105053816D01*
X158604993Y-105048004D01*
X158582471Y-105039946D01*
X158560847Y-105029718D01*
X158540330Y-105017421D01*
X158521117Y-105003171D01*
X158503393Y-104987107D01*
X158487329Y-104969383D01*
X158473079Y-104950170D01*
X158460782Y-104929653D01*
X158450554Y-104908029D01*
X158442496Y-104885507D01*
X158436684Y-104862303D01*
X158433174Y-104838642D01*
X158432000Y-104814750D01*
X158432000Y-104327250D01*
X158433174Y-104303358D01*
X158436684Y-104279697D01*
X158442496Y-104256493D01*
X158450554Y-104233971D01*
X158460782Y-104212347D01*
X158473079Y-104191830D01*
X158487329Y-104172617D01*
X158503393Y-104154893D01*
X158521117Y-104138829D01*
X158540330Y-104124579D01*
X158560847Y-104112282D01*
X158582471Y-104102054D01*
X158604993Y-104093996D01*
X158628197Y-104088184D01*
X158651858Y-104084674D01*
X158675750Y-104083500D01*
X159588250Y-104083500D01*
X159612142Y-104084674D01*
G37*
G04 #@! TD.AperFunction*
G04 #@! TA.AperFunction,SMDPad,CuDef*
G36*
X159612142Y-102209674D02*
G01*
X159635803Y-102213184D01*
X159659007Y-102218996D01*
X159681529Y-102227054D01*
X159703153Y-102237282D01*
X159723670Y-102249579D01*
X159742883Y-102263829D01*
X159760607Y-102279893D01*
X159776671Y-102297617D01*
X159790921Y-102316830D01*
X159803218Y-102337347D01*
X159813446Y-102358971D01*
X159821504Y-102381493D01*
X159827316Y-102404697D01*
X159830826Y-102428358D01*
X159832000Y-102452250D01*
X159832000Y-102939750D01*
X159830826Y-102963642D01*
X159827316Y-102987303D01*
X159821504Y-103010507D01*
X159813446Y-103033029D01*
X159803218Y-103054653D01*
X159790921Y-103075170D01*
X159776671Y-103094383D01*
X159760607Y-103112107D01*
X159742883Y-103128171D01*
X159723670Y-103142421D01*
X159703153Y-103154718D01*
X159681529Y-103164946D01*
X159659007Y-103173004D01*
X159635803Y-103178816D01*
X159612142Y-103182326D01*
X159588250Y-103183500D01*
X158675750Y-103183500D01*
X158651858Y-103182326D01*
X158628197Y-103178816D01*
X158604993Y-103173004D01*
X158582471Y-103164946D01*
X158560847Y-103154718D01*
X158540330Y-103142421D01*
X158521117Y-103128171D01*
X158503393Y-103112107D01*
X158487329Y-103094383D01*
X158473079Y-103075170D01*
X158460782Y-103054653D01*
X158450554Y-103033029D01*
X158442496Y-103010507D01*
X158436684Y-102987303D01*
X158433174Y-102963642D01*
X158432000Y-102939750D01*
X158432000Y-102452250D01*
X158433174Y-102428358D01*
X158436684Y-102404697D01*
X158442496Y-102381493D01*
X158450554Y-102358971D01*
X158460782Y-102337347D01*
X158473079Y-102316830D01*
X158487329Y-102297617D01*
X158503393Y-102279893D01*
X158521117Y-102263829D01*
X158540330Y-102249579D01*
X158560847Y-102237282D01*
X158582471Y-102227054D01*
X158604993Y-102218996D01*
X158628197Y-102213184D01*
X158651858Y-102209674D01*
X158675750Y-102208500D01*
X159588250Y-102208500D01*
X159612142Y-102209674D01*
G37*
G04 #@! TD.AperFunction*
G04 #@! TA.AperFunction,SMDPad,CuDef*
G36*
X159612142Y-107640674D02*
G01*
X159635803Y-107644184D01*
X159659007Y-107649996D01*
X159681529Y-107658054D01*
X159703153Y-107668282D01*
X159723670Y-107680579D01*
X159742883Y-107694829D01*
X159760607Y-107710893D01*
X159776671Y-107728617D01*
X159790921Y-107747830D01*
X159803218Y-107768347D01*
X159813446Y-107789971D01*
X159821504Y-107812493D01*
X159827316Y-107835697D01*
X159830826Y-107859358D01*
X159832000Y-107883250D01*
X159832000Y-108370750D01*
X159830826Y-108394642D01*
X159827316Y-108418303D01*
X159821504Y-108441507D01*
X159813446Y-108464029D01*
X159803218Y-108485653D01*
X159790921Y-108506170D01*
X159776671Y-108525383D01*
X159760607Y-108543107D01*
X159742883Y-108559171D01*
X159723670Y-108573421D01*
X159703153Y-108585718D01*
X159681529Y-108595946D01*
X159659007Y-108604004D01*
X159635803Y-108609816D01*
X159612142Y-108613326D01*
X159588250Y-108614500D01*
X158675750Y-108614500D01*
X158651858Y-108613326D01*
X158628197Y-108609816D01*
X158604993Y-108604004D01*
X158582471Y-108595946D01*
X158560847Y-108585718D01*
X158540330Y-108573421D01*
X158521117Y-108559171D01*
X158503393Y-108543107D01*
X158487329Y-108525383D01*
X158473079Y-108506170D01*
X158460782Y-108485653D01*
X158450554Y-108464029D01*
X158442496Y-108441507D01*
X158436684Y-108418303D01*
X158433174Y-108394642D01*
X158432000Y-108370750D01*
X158432000Y-107883250D01*
X158433174Y-107859358D01*
X158436684Y-107835697D01*
X158442496Y-107812493D01*
X158450554Y-107789971D01*
X158460782Y-107768347D01*
X158473079Y-107747830D01*
X158487329Y-107728617D01*
X158503393Y-107710893D01*
X158521117Y-107694829D01*
X158540330Y-107680579D01*
X158560847Y-107668282D01*
X158582471Y-107658054D01*
X158604993Y-107649996D01*
X158628197Y-107644184D01*
X158651858Y-107640674D01*
X158675750Y-107639500D01*
X159588250Y-107639500D01*
X159612142Y-107640674D01*
G37*
G04 #@! TD.AperFunction*
G04 #@! TA.AperFunction,SMDPad,CuDef*
G36*
X159612142Y-105765674D02*
G01*
X159635803Y-105769184D01*
X159659007Y-105774996D01*
X159681529Y-105783054D01*
X159703153Y-105793282D01*
X159723670Y-105805579D01*
X159742883Y-105819829D01*
X159760607Y-105835893D01*
X159776671Y-105853617D01*
X159790921Y-105872830D01*
X159803218Y-105893347D01*
X159813446Y-105914971D01*
X159821504Y-105937493D01*
X159827316Y-105960697D01*
X159830826Y-105984358D01*
X159832000Y-106008250D01*
X159832000Y-106495750D01*
X159830826Y-106519642D01*
X159827316Y-106543303D01*
X159821504Y-106566507D01*
X159813446Y-106589029D01*
X159803218Y-106610653D01*
X159790921Y-106631170D01*
X159776671Y-106650383D01*
X159760607Y-106668107D01*
X159742883Y-106684171D01*
X159723670Y-106698421D01*
X159703153Y-106710718D01*
X159681529Y-106720946D01*
X159659007Y-106729004D01*
X159635803Y-106734816D01*
X159612142Y-106738326D01*
X159588250Y-106739500D01*
X158675750Y-106739500D01*
X158651858Y-106738326D01*
X158628197Y-106734816D01*
X158604993Y-106729004D01*
X158582471Y-106720946D01*
X158560847Y-106710718D01*
X158540330Y-106698421D01*
X158521117Y-106684171D01*
X158503393Y-106668107D01*
X158487329Y-106650383D01*
X158473079Y-106631170D01*
X158460782Y-106610653D01*
X158450554Y-106589029D01*
X158442496Y-106566507D01*
X158436684Y-106543303D01*
X158433174Y-106519642D01*
X158432000Y-106495750D01*
X158432000Y-106008250D01*
X158433174Y-105984358D01*
X158436684Y-105960697D01*
X158442496Y-105937493D01*
X158450554Y-105914971D01*
X158460782Y-105893347D01*
X158473079Y-105872830D01*
X158487329Y-105853617D01*
X158503393Y-105835893D01*
X158521117Y-105819829D01*
X158540330Y-105805579D01*
X158560847Y-105793282D01*
X158582471Y-105783054D01*
X158604993Y-105774996D01*
X158628197Y-105769184D01*
X158651858Y-105765674D01*
X158675750Y-105764500D01*
X159588250Y-105764500D01*
X159612142Y-105765674D01*
G37*
G04 #@! TD.AperFunction*
G04 #@! TA.AperFunction,SMDPad,CuDef*
G36*
X152500142Y-104163174D02*
G01*
X152523803Y-104166684D01*
X152547007Y-104172496D01*
X152569529Y-104180554D01*
X152591153Y-104190782D01*
X152611670Y-104203079D01*
X152630883Y-104217329D01*
X152648607Y-104233393D01*
X152664671Y-104251117D01*
X152678921Y-104270330D01*
X152691218Y-104290847D01*
X152701446Y-104312471D01*
X152709504Y-104334993D01*
X152715316Y-104358197D01*
X152718826Y-104381858D01*
X152720000Y-104405750D01*
X152720000Y-104893250D01*
X152718826Y-104917142D01*
X152715316Y-104940803D01*
X152709504Y-104964007D01*
X152701446Y-104986529D01*
X152691218Y-105008153D01*
X152678921Y-105028670D01*
X152664671Y-105047883D01*
X152648607Y-105065607D01*
X152630883Y-105081671D01*
X152611670Y-105095921D01*
X152591153Y-105108218D01*
X152569529Y-105118446D01*
X152547007Y-105126504D01*
X152523803Y-105132316D01*
X152500142Y-105135826D01*
X152476250Y-105137000D01*
X151563750Y-105137000D01*
X151539858Y-105135826D01*
X151516197Y-105132316D01*
X151492993Y-105126504D01*
X151470471Y-105118446D01*
X151448847Y-105108218D01*
X151428330Y-105095921D01*
X151409117Y-105081671D01*
X151391393Y-105065607D01*
X151375329Y-105047883D01*
X151361079Y-105028670D01*
X151348782Y-105008153D01*
X151338554Y-104986529D01*
X151330496Y-104964007D01*
X151324684Y-104940803D01*
X151321174Y-104917142D01*
X151320000Y-104893250D01*
X151320000Y-104405750D01*
X151321174Y-104381858D01*
X151324684Y-104358197D01*
X151330496Y-104334993D01*
X151338554Y-104312471D01*
X151348782Y-104290847D01*
X151361079Y-104270330D01*
X151375329Y-104251117D01*
X151391393Y-104233393D01*
X151409117Y-104217329D01*
X151428330Y-104203079D01*
X151448847Y-104190782D01*
X151470471Y-104180554D01*
X151492993Y-104172496D01*
X151516197Y-104166684D01*
X151539858Y-104163174D01*
X151563750Y-104162000D01*
X152476250Y-104162000D01*
X152500142Y-104163174D01*
G37*
G04 #@! TD.AperFunction*
G04 #@! TA.AperFunction,SMDPad,CuDef*
G36*
X152500142Y-102288174D02*
G01*
X152523803Y-102291684D01*
X152547007Y-102297496D01*
X152569529Y-102305554D01*
X152591153Y-102315782D01*
X152611670Y-102328079D01*
X152630883Y-102342329D01*
X152648607Y-102358393D01*
X152664671Y-102376117D01*
X152678921Y-102395330D01*
X152691218Y-102415847D01*
X152701446Y-102437471D01*
X152709504Y-102459993D01*
X152715316Y-102483197D01*
X152718826Y-102506858D01*
X152720000Y-102530750D01*
X152720000Y-103018250D01*
X152718826Y-103042142D01*
X152715316Y-103065803D01*
X152709504Y-103089007D01*
X152701446Y-103111529D01*
X152691218Y-103133153D01*
X152678921Y-103153670D01*
X152664671Y-103172883D01*
X152648607Y-103190607D01*
X152630883Y-103206671D01*
X152611670Y-103220921D01*
X152591153Y-103233218D01*
X152569529Y-103243446D01*
X152547007Y-103251504D01*
X152523803Y-103257316D01*
X152500142Y-103260826D01*
X152476250Y-103262000D01*
X151563750Y-103262000D01*
X151539858Y-103260826D01*
X151516197Y-103257316D01*
X151492993Y-103251504D01*
X151470471Y-103243446D01*
X151448847Y-103233218D01*
X151428330Y-103220921D01*
X151409117Y-103206671D01*
X151391393Y-103190607D01*
X151375329Y-103172883D01*
X151361079Y-103153670D01*
X151348782Y-103133153D01*
X151338554Y-103111529D01*
X151330496Y-103089007D01*
X151324684Y-103065803D01*
X151321174Y-103042142D01*
X151320000Y-103018250D01*
X151320000Y-102530750D01*
X151321174Y-102506858D01*
X151324684Y-102483197D01*
X151330496Y-102459993D01*
X151338554Y-102437471D01*
X151348782Y-102415847D01*
X151361079Y-102395330D01*
X151375329Y-102376117D01*
X151391393Y-102358393D01*
X151409117Y-102342329D01*
X151428330Y-102328079D01*
X151448847Y-102315782D01*
X151470471Y-102305554D01*
X151492993Y-102297496D01*
X151516197Y-102291684D01*
X151539858Y-102288174D01*
X151563750Y-102287000D01*
X152476250Y-102287000D01*
X152500142Y-102288174D01*
G37*
G04 #@! TD.AperFunction*
G04 #@! TA.AperFunction,SMDPad,CuDef*
G36*
X152500142Y-107797674D02*
G01*
X152523803Y-107801184D01*
X152547007Y-107806996D01*
X152569529Y-107815054D01*
X152591153Y-107825282D01*
X152611670Y-107837579D01*
X152630883Y-107851829D01*
X152648607Y-107867893D01*
X152664671Y-107885617D01*
X152678921Y-107904830D01*
X152691218Y-107925347D01*
X152701446Y-107946971D01*
X152709504Y-107969493D01*
X152715316Y-107992697D01*
X152718826Y-108016358D01*
X152720000Y-108040250D01*
X152720000Y-108527750D01*
X152718826Y-108551642D01*
X152715316Y-108575303D01*
X152709504Y-108598507D01*
X152701446Y-108621029D01*
X152691218Y-108642653D01*
X152678921Y-108663170D01*
X152664671Y-108682383D01*
X152648607Y-108700107D01*
X152630883Y-108716171D01*
X152611670Y-108730421D01*
X152591153Y-108742718D01*
X152569529Y-108752946D01*
X152547007Y-108761004D01*
X152523803Y-108766816D01*
X152500142Y-108770326D01*
X152476250Y-108771500D01*
X151563750Y-108771500D01*
X151539858Y-108770326D01*
X151516197Y-108766816D01*
X151492993Y-108761004D01*
X151470471Y-108752946D01*
X151448847Y-108742718D01*
X151428330Y-108730421D01*
X151409117Y-108716171D01*
X151391393Y-108700107D01*
X151375329Y-108682383D01*
X151361079Y-108663170D01*
X151348782Y-108642653D01*
X151338554Y-108621029D01*
X151330496Y-108598507D01*
X151324684Y-108575303D01*
X151321174Y-108551642D01*
X151320000Y-108527750D01*
X151320000Y-108040250D01*
X151321174Y-108016358D01*
X151324684Y-107992697D01*
X151330496Y-107969493D01*
X151338554Y-107946971D01*
X151348782Y-107925347D01*
X151361079Y-107904830D01*
X151375329Y-107885617D01*
X151391393Y-107867893D01*
X151409117Y-107851829D01*
X151428330Y-107837579D01*
X151448847Y-107825282D01*
X151470471Y-107815054D01*
X151492993Y-107806996D01*
X151516197Y-107801184D01*
X151539858Y-107797674D01*
X151563750Y-107796500D01*
X152476250Y-107796500D01*
X152500142Y-107797674D01*
G37*
G04 #@! TD.AperFunction*
G04 #@! TA.AperFunction,SMDPad,CuDef*
G36*
X152500142Y-105922674D02*
G01*
X152523803Y-105926184D01*
X152547007Y-105931996D01*
X152569529Y-105940054D01*
X152591153Y-105950282D01*
X152611670Y-105962579D01*
X152630883Y-105976829D01*
X152648607Y-105992893D01*
X152664671Y-106010617D01*
X152678921Y-106029830D01*
X152691218Y-106050347D01*
X152701446Y-106071971D01*
X152709504Y-106094493D01*
X152715316Y-106117697D01*
X152718826Y-106141358D01*
X152720000Y-106165250D01*
X152720000Y-106652750D01*
X152718826Y-106676642D01*
X152715316Y-106700303D01*
X152709504Y-106723507D01*
X152701446Y-106746029D01*
X152691218Y-106767653D01*
X152678921Y-106788170D01*
X152664671Y-106807383D01*
X152648607Y-106825107D01*
X152630883Y-106841171D01*
X152611670Y-106855421D01*
X152591153Y-106867718D01*
X152569529Y-106877946D01*
X152547007Y-106886004D01*
X152523803Y-106891816D01*
X152500142Y-106895326D01*
X152476250Y-106896500D01*
X151563750Y-106896500D01*
X151539858Y-106895326D01*
X151516197Y-106891816D01*
X151492993Y-106886004D01*
X151470471Y-106877946D01*
X151448847Y-106867718D01*
X151428330Y-106855421D01*
X151409117Y-106841171D01*
X151391393Y-106825107D01*
X151375329Y-106807383D01*
X151361079Y-106788170D01*
X151348782Y-106767653D01*
X151338554Y-106746029D01*
X151330496Y-106723507D01*
X151324684Y-106700303D01*
X151321174Y-106676642D01*
X151320000Y-106652750D01*
X151320000Y-106165250D01*
X151321174Y-106141358D01*
X151324684Y-106117697D01*
X151330496Y-106094493D01*
X151338554Y-106071971D01*
X151348782Y-106050347D01*
X151361079Y-106029830D01*
X151375329Y-106010617D01*
X151391393Y-105992893D01*
X151409117Y-105976829D01*
X151428330Y-105962579D01*
X151448847Y-105950282D01*
X151470471Y-105940054D01*
X151492993Y-105931996D01*
X151516197Y-105926184D01*
X151539858Y-105922674D01*
X151563750Y-105921500D01*
X152476250Y-105921500D01*
X152500142Y-105922674D01*
G37*
G04 #@! TD.AperFunction*
G04 #@! TA.AperFunction,SMDPad,CuDef*
G36*
X146987142Y-105619174D02*
G01*
X147010803Y-105622684D01*
X147034007Y-105628496D01*
X147056529Y-105636554D01*
X147078153Y-105646782D01*
X147098670Y-105659079D01*
X147117883Y-105673329D01*
X147135607Y-105689393D01*
X147151671Y-105707117D01*
X147165921Y-105726330D01*
X147178218Y-105746847D01*
X147188446Y-105768471D01*
X147196504Y-105790993D01*
X147202316Y-105814197D01*
X147205826Y-105837858D01*
X147207000Y-105861750D01*
X147207000Y-106774250D01*
X147205826Y-106798142D01*
X147202316Y-106821803D01*
X147196504Y-106845007D01*
X147188446Y-106867529D01*
X147178218Y-106889153D01*
X147165921Y-106909670D01*
X147151671Y-106928883D01*
X147135607Y-106946607D01*
X147117883Y-106962671D01*
X147098670Y-106976921D01*
X147078153Y-106989218D01*
X147056529Y-106999446D01*
X147034007Y-107007504D01*
X147010803Y-107013316D01*
X146987142Y-107016826D01*
X146963250Y-107018000D01*
X146475750Y-107018000D01*
X146451858Y-107016826D01*
X146428197Y-107013316D01*
X146404993Y-107007504D01*
X146382471Y-106999446D01*
X146360847Y-106989218D01*
X146340330Y-106976921D01*
X146321117Y-106962671D01*
X146303393Y-106946607D01*
X146287329Y-106928883D01*
X146273079Y-106909670D01*
X146260782Y-106889153D01*
X146250554Y-106867529D01*
X146242496Y-106845007D01*
X146236684Y-106821803D01*
X146233174Y-106798142D01*
X146232000Y-106774250D01*
X146232000Y-105861750D01*
X146233174Y-105837858D01*
X146236684Y-105814197D01*
X146242496Y-105790993D01*
X146250554Y-105768471D01*
X146260782Y-105746847D01*
X146273079Y-105726330D01*
X146287329Y-105707117D01*
X146303393Y-105689393D01*
X146321117Y-105673329D01*
X146340330Y-105659079D01*
X146360847Y-105646782D01*
X146382471Y-105636554D01*
X146404993Y-105628496D01*
X146428197Y-105622684D01*
X146451858Y-105619174D01*
X146475750Y-105618000D01*
X146963250Y-105618000D01*
X146987142Y-105619174D01*
G37*
G04 #@! TD.AperFunction*
G04 #@! TA.AperFunction,SMDPad,CuDef*
G36*
X145112142Y-105619174D02*
G01*
X145135803Y-105622684D01*
X145159007Y-105628496D01*
X145181529Y-105636554D01*
X145203153Y-105646782D01*
X145223670Y-105659079D01*
X145242883Y-105673329D01*
X145260607Y-105689393D01*
X145276671Y-105707117D01*
X145290921Y-105726330D01*
X145303218Y-105746847D01*
X145313446Y-105768471D01*
X145321504Y-105790993D01*
X145327316Y-105814197D01*
X145330826Y-105837858D01*
X145332000Y-105861750D01*
X145332000Y-106774250D01*
X145330826Y-106798142D01*
X145327316Y-106821803D01*
X145321504Y-106845007D01*
X145313446Y-106867529D01*
X145303218Y-106889153D01*
X145290921Y-106909670D01*
X145276671Y-106928883D01*
X145260607Y-106946607D01*
X145242883Y-106962671D01*
X145223670Y-106976921D01*
X145203153Y-106989218D01*
X145181529Y-106999446D01*
X145159007Y-107007504D01*
X145135803Y-107013316D01*
X145112142Y-107016826D01*
X145088250Y-107018000D01*
X144600750Y-107018000D01*
X144576858Y-107016826D01*
X144553197Y-107013316D01*
X144529993Y-107007504D01*
X144507471Y-106999446D01*
X144485847Y-106989218D01*
X144465330Y-106976921D01*
X144446117Y-106962671D01*
X144428393Y-106946607D01*
X144412329Y-106928883D01*
X144398079Y-106909670D01*
X144385782Y-106889153D01*
X144375554Y-106867529D01*
X144367496Y-106845007D01*
X144361684Y-106821803D01*
X144358174Y-106798142D01*
X144357000Y-106774250D01*
X144357000Y-105861750D01*
X144358174Y-105837858D01*
X144361684Y-105814197D01*
X144367496Y-105790993D01*
X144375554Y-105768471D01*
X144385782Y-105746847D01*
X144398079Y-105726330D01*
X144412329Y-105707117D01*
X144428393Y-105689393D01*
X144446117Y-105673329D01*
X144465330Y-105659079D01*
X144485847Y-105646782D01*
X144507471Y-105636554D01*
X144529993Y-105628496D01*
X144553197Y-105622684D01*
X144576858Y-105619174D01*
X144600750Y-105618000D01*
X145088250Y-105618000D01*
X145112142Y-105619174D01*
G37*
G04 #@! TD.AperFunction*
G04 #@! TA.AperFunction,SMDPad,CuDef*
G36*
X145041703Y-103068722D02*
G01*
X145056264Y-103070882D01*
X145070543Y-103074459D01*
X145084403Y-103079418D01*
X145097710Y-103085712D01*
X145110336Y-103093280D01*
X145122159Y-103102048D01*
X145133066Y-103111934D01*
X145142952Y-103122841D01*
X145151720Y-103134664D01*
X145159288Y-103147290D01*
X145165582Y-103160597D01*
X145170541Y-103174457D01*
X145174118Y-103188736D01*
X145176278Y-103203297D01*
X145177000Y-103218000D01*
X145177000Y-104868000D01*
X145176278Y-104882703D01*
X145174118Y-104897264D01*
X145170541Y-104911543D01*
X145165582Y-104925403D01*
X145159288Y-104938710D01*
X145151720Y-104951336D01*
X145142952Y-104963159D01*
X145133066Y-104974066D01*
X145122159Y-104983952D01*
X145110336Y-104992720D01*
X145097710Y-105000288D01*
X145084403Y-105006582D01*
X145070543Y-105011541D01*
X145056264Y-105015118D01*
X145041703Y-105017278D01*
X145027000Y-105018000D01*
X144727000Y-105018000D01*
X144712297Y-105017278D01*
X144697736Y-105015118D01*
X144683457Y-105011541D01*
X144669597Y-105006582D01*
X144656290Y-105000288D01*
X144643664Y-104992720D01*
X144631841Y-104983952D01*
X144620934Y-104974066D01*
X144611048Y-104963159D01*
X144602280Y-104951336D01*
X144594712Y-104938710D01*
X144588418Y-104925403D01*
X144583459Y-104911543D01*
X144579882Y-104897264D01*
X144577722Y-104882703D01*
X144577000Y-104868000D01*
X144577000Y-103218000D01*
X144577722Y-103203297D01*
X144579882Y-103188736D01*
X144583459Y-103174457D01*
X144588418Y-103160597D01*
X144594712Y-103147290D01*
X144602280Y-103134664D01*
X144611048Y-103122841D01*
X144620934Y-103111934D01*
X144631841Y-103102048D01*
X144643664Y-103093280D01*
X144656290Y-103085712D01*
X144669597Y-103079418D01*
X144683457Y-103074459D01*
X144697736Y-103070882D01*
X144712297Y-103068722D01*
X144727000Y-103068000D01*
X145027000Y-103068000D01*
X145041703Y-103068722D01*
G37*
G04 #@! TD.AperFunction*
G04 #@! TA.AperFunction,SMDPad,CuDef*
G36*
X146311703Y-103068722D02*
G01*
X146326264Y-103070882D01*
X146340543Y-103074459D01*
X146354403Y-103079418D01*
X146367710Y-103085712D01*
X146380336Y-103093280D01*
X146392159Y-103102048D01*
X146403066Y-103111934D01*
X146412952Y-103122841D01*
X146421720Y-103134664D01*
X146429288Y-103147290D01*
X146435582Y-103160597D01*
X146440541Y-103174457D01*
X146444118Y-103188736D01*
X146446278Y-103203297D01*
X146447000Y-103218000D01*
X146447000Y-104868000D01*
X146446278Y-104882703D01*
X146444118Y-104897264D01*
X146440541Y-104911543D01*
X146435582Y-104925403D01*
X146429288Y-104938710D01*
X146421720Y-104951336D01*
X146412952Y-104963159D01*
X146403066Y-104974066D01*
X146392159Y-104983952D01*
X146380336Y-104992720D01*
X146367710Y-105000288D01*
X146354403Y-105006582D01*
X146340543Y-105011541D01*
X146326264Y-105015118D01*
X146311703Y-105017278D01*
X146297000Y-105018000D01*
X145997000Y-105018000D01*
X145982297Y-105017278D01*
X145967736Y-105015118D01*
X145953457Y-105011541D01*
X145939597Y-105006582D01*
X145926290Y-105000288D01*
X145913664Y-104992720D01*
X145901841Y-104983952D01*
X145890934Y-104974066D01*
X145881048Y-104963159D01*
X145872280Y-104951336D01*
X145864712Y-104938710D01*
X145858418Y-104925403D01*
X145853459Y-104911543D01*
X145849882Y-104897264D01*
X145847722Y-104882703D01*
X145847000Y-104868000D01*
X145847000Y-103218000D01*
X145847722Y-103203297D01*
X145849882Y-103188736D01*
X145853459Y-103174457D01*
X145858418Y-103160597D01*
X145864712Y-103147290D01*
X145872280Y-103134664D01*
X145881048Y-103122841D01*
X145890934Y-103111934D01*
X145901841Y-103102048D01*
X145913664Y-103093280D01*
X145926290Y-103085712D01*
X145939597Y-103079418D01*
X145953457Y-103074459D01*
X145967736Y-103070882D01*
X145982297Y-103068722D01*
X145997000Y-103068000D01*
X146297000Y-103068000D01*
X146311703Y-103068722D01*
G37*
G04 #@! TD.AperFunction*
G04 #@! TA.AperFunction,SMDPad,CuDef*
G36*
X147581703Y-103068722D02*
G01*
X147596264Y-103070882D01*
X147610543Y-103074459D01*
X147624403Y-103079418D01*
X147637710Y-103085712D01*
X147650336Y-103093280D01*
X147662159Y-103102048D01*
X147673066Y-103111934D01*
X147682952Y-103122841D01*
X147691720Y-103134664D01*
X147699288Y-103147290D01*
X147705582Y-103160597D01*
X147710541Y-103174457D01*
X147714118Y-103188736D01*
X147716278Y-103203297D01*
X147717000Y-103218000D01*
X147717000Y-104868000D01*
X147716278Y-104882703D01*
X147714118Y-104897264D01*
X147710541Y-104911543D01*
X147705582Y-104925403D01*
X147699288Y-104938710D01*
X147691720Y-104951336D01*
X147682952Y-104963159D01*
X147673066Y-104974066D01*
X147662159Y-104983952D01*
X147650336Y-104992720D01*
X147637710Y-105000288D01*
X147624403Y-105006582D01*
X147610543Y-105011541D01*
X147596264Y-105015118D01*
X147581703Y-105017278D01*
X147567000Y-105018000D01*
X147267000Y-105018000D01*
X147252297Y-105017278D01*
X147237736Y-105015118D01*
X147223457Y-105011541D01*
X147209597Y-105006582D01*
X147196290Y-105000288D01*
X147183664Y-104992720D01*
X147171841Y-104983952D01*
X147160934Y-104974066D01*
X147151048Y-104963159D01*
X147142280Y-104951336D01*
X147134712Y-104938710D01*
X147128418Y-104925403D01*
X147123459Y-104911543D01*
X147119882Y-104897264D01*
X147117722Y-104882703D01*
X147117000Y-104868000D01*
X147117000Y-103218000D01*
X147117722Y-103203297D01*
X147119882Y-103188736D01*
X147123459Y-103174457D01*
X147128418Y-103160597D01*
X147134712Y-103147290D01*
X147142280Y-103134664D01*
X147151048Y-103122841D01*
X147160934Y-103111934D01*
X147171841Y-103102048D01*
X147183664Y-103093280D01*
X147196290Y-103085712D01*
X147209597Y-103079418D01*
X147223457Y-103074459D01*
X147237736Y-103070882D01*
X147252297Y-103068722D01*
X147267000Y-103068000D01*
X147567000Y-103068000D01*
X147581703Y-103068722D01*
G37*
G04 #@! TD.AperFunction*
G04 #@! TA.AperFunction,SMDPad,CuDef*
G36*
X148851703Y-103068722D02*
G01*
X148866264Y-103070882D01*
X148880543Y-103074459D01*
X148894403Y-103079418D01*
X148907710Y-103085712D01*
X148920336Y-103093280D01*
X148932159Y-103102048D01*
X148943066Y-103111934D01*
X148952952Y-103122841D01*
X148961720Y-103134664D01*
X148969288Y-103147290D01*
X148975582Y-103160597D01*
X148980541Y-103174457D01*
X148984118Y-103188736D01*
X148986278Y-103203297D01*
X148987000Y-103218000D01*
X148987000Y-104868000D01*
X148986278Y-104882703D01*
X148984118Y-104897264D01*
X148980541Y-104911543D01*
X148975582Y-104925403D01*
X148969288Y-104938710D01*
X148961720Y-104951336D01*
X148952952Y-104963159D01*
X148943066Y-104974066D01*
X148932159Y-104983952D01*
X148920336Y-104992720D01*
X148907710Y-105000288D01*
X148894403Y-105006582D01*
X148880543Y-105011541D01*
X148866264Y-105015118D01*
X148851703Y-105017278D01*
X148837000Y-105018000D01*
X148537000Y-105018000D01*
X148522297Y-105017278D01*
X148507736Y-105015118D01*
X148493457Y-105011541D01*
X148479597Y-105006582D01*
X148466290Y-105000288D01*
X148453664Y-104992720D01*
X148441841Y-104983952D01*
X148430934Y-104974066D01*
X148421048Y-104963159D01*
X148412280Y-104951336D01*
X148404712Y-104938710D01*
X148398418Y-104925403D01*
X148393459Y-104911543D01*
X148389882Y-104897264D01*
X148387722Y-104882703D01*
X148387000Y-104868000D01*
X148387000Y-103218000D01*
X148387722Y-103203297D01*
X148389882Y-103188736D01*
X148393459Y-103174457D01*
X148398418Y-103160597D01*
X148404712Y-103147290D01*
X148412280Y-103134664D01*
X148421048Y-103122841D01*
X148430934Y-103111934D01*
X148441841Y-103102048D01*
X148453664Y-103093280D01*
X148466290Y-103085712D01*
X148479597Y-103079418D01*
X148493457Y-103074459D01*
X148507736Y-103070882D01*
X148522297Y-103068722D01*
X148537000Y-103068000D01*
X148837000Y-103068000D01*
X148851703Y-103068722D01*
G37*
G04 #@! TD.AperFunction*
G04 #@! TA.AperFunction,SMDPad,CuDef*
G36*
X148851703Y-98118722D02*
G01*
X148866264Y-98120882D01*
X148880543Y-98124459D01*
X148894403Y-98129418D01*
X148907710Y-98135712D01*
X148920336Y-98143280D01*
X148932159Y-98152048D01*
X148943066Y-98161934D01*
X148952952Y-98172841D01*
X148961720Y-98184664D01*
X148969288Y-98197290D01*
X148975582Y-98210597D01*
X148980541Y-98224457D01*
X148984118Y-98238736D01*
X148986278Y-98253297D01*
X148987000Y-98268000D01*
X148987000Y-99918000D01*
X148986278Y-99932703D01*
X148984118Y-99947264D01*
X148980541Y-99961543D01*
X148975582Y-99975403D01*
X148969288Y-99988710D01*
X148961720Y-100001336D01*
X148952952Y-100013159D01*
X148943066Y-100024066D01*
X148932159Y-100033952D01*
X148920336Y-100042720D01*
X148907710Y-100050288D01*
X148894403Y-100056582D01*
X148880543Y-100061541D01*
X148866264Y-100065118D01*
X148851703Y-100067278D01*
X148837000Y-100068000D01*
X148537000Y-100068000D01*
X148522297Y-100067278D01*
X148507736Y-100065118D01*
X148493457Y-100061541D01*
X148479597Y-100056582D01*
X148466290Y-100050288D01*
X148453664Y-100042720D01*
X148441841Y-100033952D01*
X148430934Y-100024066D01*
X148421048Y-100013159D01*
X148412280Y-100001336D01*
X148404712Y-99988710D01*
X148398418Y-99975403D01*
X148393459Y-99961543D01*
X148389882Y-99947264D01*
X148387722Y-99932703D01*
X148387000Y-99918000D01*
X148387000Y-98268000D01*
X148387722Y-98253297D01*
X148389882Y-98238736D01*
X148393459Y-98224457D01*
X148398418Y-98210597D01*
X148404712Y-98197290D01*
X148412280Y-98184664D01*
X148421048Y-98172841D01*
X148430934Y-98161934D01*
X148441841Y-98152048D01*
X148453664Y-98143280D01*
X148466290Y-98135712D01*
X148479597Y-98129418D01*
X148493457Y-98124459D01*
X148507736Y-98120882D01*
X148522297Y-98118722D01*
X148537000Y-98118000D01*
X148837000Y-98118000D01*
X148851703Y-98118722D01*
G37*
G04 #@! TD.AperFunction*
G04 #@! TA.AperFunction,SMDPad,CuDef*
G36*
X147581703Y-98118722D02*
G01*
X147596264Y-98120882D01*
X147610543Y-98124459D01*
X147624403Y-98129418D01*
X147637710Y-98135712D01*
X147650336Y-98143280D01*
X147662159Y-98152048D01*
X147673066Y-98161934D01*
X147682952Y-98172841D01*
X147691720Y-98184664D01*
X147699288Y-98197290D01*
X147705582Y-98210597D01*
X147710541Y-98224457D01*
X147714118Y-98238736D01*
X147716278Y-98253297D01*
X147717000Y-98268000D01*
X147717000Y-99918000D01*
X147716278Y-99932703D01*
X147714118Y-99947264D01*
X147710541Y-99961543D01*
X147705582Y-99975403D01*
X147699288Y-99988710D01*
X147691720Y-100001336D01*
X147682952Y-100013159D01*
X147673066Y-100024066D01*
X147662159Y-100033952D01*
X147650336Y-100042720D01*
X147637710Y-100050288D01*
X147624403Y-100056582D01*
X147610543Y-100061541D01*
X147596264Y-100065118D01*
X147581703Y-100067278D01*
X147567000Y-100068000D01*
X147267000Y-100068000D01*
X147252297Y-100067278D01*
X147237736Y-100065118D01*
X147223457Y-100061541D01*
X147209597Y-100056582D01*
X147196290Y-100050288D01*
X147183664Y-100042720D01*
X147171841Y-100033952D01*
X147160934Y-100024066D01*
X147151048Y-100013159D01*
X147142280Y-100001336D01*
X147134712Y-99988710D01*
X147128418Y-99975403D01*
X147123459Y-99961543D01*
X147119882Y-99947264D01*
X147117722Y-99932703D01*
X147117000Y-99918000D01*
X147117000Y-98268000D01*
X147117722Y-98253297D01*
X147119882Y-98238736D01*
X147123459Y-98224457D01*
X147128418Y-98210597D01*
X147134712Y-98197290D01*
X147142280Y-98184664D01*
X147151048Y-98172841D01*
X147160934Y-98161934D01*
X147171841Y-98152048D01*
X147183664Y-98143280D01*
X147196290Y-98135712D01*
X147209597Y-98129418D01*
X147223457Y-98124459D01*
X147237736Y-98120882D01*
X147252297Y-98118722D01*
X147267000Y-98118000D01*
X147567000Y-98118000D01*
X147581703Y-98118722D01*
G37*
G04 #@! TD.AperFunction*
G04 #@! TA.AperFunction,SMDPad,CuDef*
G36*
X146311703Y-98118722D02*
G01*
X146326264Y-98120882D01*
X146340543Y-98124459D01*
X146354403Y-98129418D01*
X146367710Y-98135712D01*
X146380336Y-98143280D01*
X146392159Y-98152048D01*
X146403066Y-98161934D01*
X146412952Y-98172841D01*
X146421720Y-98184664D01*
X146429288Y-98197290D01*
X146435582Y-98210597D01*
X146440541Y-98224457D01*
X146444118Y-98238736D01*
X146446278Y-98253297D01*
X146447000Y-98268000D01*
X146447000Y-99918000D01*
X146446278Y-99932703D01*
X146444118Y-99947264D01*
X146440541Y-99961543D01*
X146435582Y-99975403D01*
X146429288Y-99988710D01*
X146421720Y-100001336D01*
X146412952Y-100013159D01*
X146403066Y-100024066D01*
X146392159Y-100033952D01*
X146380336Y-100042720D01*
X146367710Y-100050288D01*
X146354403Y-100056582D01*
X146340543Y-100061541D01*
X146326264Y-100065118D01*
X146311703Y-100067278D01*
X146297000Y-100068000D01*
X145997000Y-100068000D01*
X145982297Y-100067278D01*
X145967736Y-100065118D01*
X145953457Y-100061541D01*
X145939597Y-100056582D01*
X145926290Y-100050288D01*
X145913664Y-100042720D01*
X145901841Y-100033952D01*
X145890934Y-100024066D01*
X145881048Y-100013159D01*
X145872280Y-100001336D01*
X145864712Y-99988710D01*
X145858418Y-99975403D01*
X145853459Y-99961543D01*
X145849882Y-99947264D01*
X145847722Y-99932703D01*
X145847000Y-99918000D01*
X145847000Y-98268000D01*
X145847722Y-98253297D01*
X145849882Y-98238736D01*
X145853459Y-98224457D01*
X145858418Y-98210597D01*
X145864712Y-98197290D01*
X145872280Y-98184664D01*
X145881048Y-98172841D01*
X145890934Y-98161934D01*
X145901841Y-98152048D01*
X145913664Y-98143280D01*
X145926290Y-98135712D01*
X145939597Y-98129418D01*
X145953457Y-98124459D01*
X145967736Y-98120882D01*
X145982297Y-98118722D01*
X145997000Y-98118000D01*
X146297000Y-98118000D01*
X146311703Y-98118722D01*
G37*
G04 #@! TD.AperFunction*
G04 #@! TA.AperFunction,SMDPad,CuDef*
G36*
X145041703Y-98118722D02*
G01*
X145056264Y-98120882D01*
X145070543Y-98124459D01*
X145084403Y-98129418D01*
X145097710Y-98135712D01*
X145110336Y-98143280D01*
X145122159Y-98152048D01*
X145133066Y-98161934D01*
X145142952Y-98172841D01*
X145151720Y-98184664D01*
X145159288Y-98197290D01*
X145165582Y-98210597D01*
X145170541Y-98224457D01*
X145174118Y-98238736D01*
X145176278Y-98253297D01*
X145177000Y-98268000D01*
X145177000Y-99918000D01*
X145176278Y-99932703D01*
X145174118Y-99947264D01*
X145170541Y-99961543D01*
X145165582Y-99975403D01*
X145159288Y-99988710D01*
X145151720Y-100001336D01*
X145142952Y-100013159D01*
X145133066Y-100024066D01*
X145122159Y-100033952D01*
X145110336Y-100042720D01*
X145097710Y-100050288D01*
X145084403Y-100056582D01*
X145070543Y-100061541D01*
X145056264Y-100065118D01*
X145041703Y-100067278D01*
X145027000Y-100068000D01*
X144727000Y-100068000D01*
X144712297Y-100067278D01*
X144697736Y-100065118D01*
X144683457Y-100061541D01*
X144669597Y-100056582D01*
X144656290Y-100050288D01*
X144643664Y-100042720D01*
X144631841Y-100033952D01*
X144620934Y-100024066D01*
X144611048Y-100013159D01*
X144602280Y-100001336D01*
X144594712Y-99988710D01*
X144588418Y-99975403D01*
X144583459Y-99961543D01*
X144579882Y-99947264D01*
X144577722Y-99932703D01*
X144577000Y-99918000D01*
X144577000Y-98268000D01*
X144577722Y-98253297D01*
X144579882Y-98238736D01*
X144583459Y-98224457D01*
X144588418Y-98210597D01*
X144594712Y-98197290D01*
X144602280Y-98184664D01*
X144611048Y-98172841D01*
X144620934Y-98161934D01*
X144631841Y-98152048D01*
X144643664Y-98143280D01*
X144656290Y-98135712D01*
X144669597Y-98129418D01*
X144683457Y-98124459D01*
X144697736Y-98120882D01*
X144712297Y-98118722D01*
X144727000Y-98118000D01*
X145027000Y-98118000D01*
X145041703Y-98118722D01*
G37*
G04 #@! TD.AperFunction*
D16*
X152020000Y-110252500D03*
X136272000Y-110252504D03*
X149035500Y-108411000D03*
X140209000Y-115650000D03*
D17*
X144257000Y-106318000D02*
X144844500Y-106318000D01*
X134932000Y-106318000D02*
X144257000Y-106318000D01*
X125902000Y-97288000D02*
X134932000Y-106318000D01*
X125902000Y-95838000D02*
X125902000Y-97288000D01*
X125902000Y-115888000D02*
X125902000Y-108328000D01*
X127382000Y-117368000D02*
X125902000Y-115888000D01*
X125902000Y-95838000D02*
X125902000Y-108328000D01*
X130672500Y-114077500D02*
X144362000Y-114077500D01*
X144362000Y-114077500D02*
X145162000Y-114077500D01*
X127382000Y-117368000D02*
X130672500Y-114077500D01*
X127382000Y-118818000D02*
X127382000Y-117368000D01*
X145162000Y-114077500D02*
X147702000Y-114077500D01*
X147702000Y-114077500D02*
X150242000Y-114077500D01*
X151042000Y-114077500D02*
X150242000Y-114077500D01*
X169624500Y-114077500D02*
X151042000Y-114077500D01*
X172340000Y-115428000D02*
X170975000Y-115428000D01*
X170975000Y-115428000D02*
X169624500Y-114077500D01*
X144877000Y-106285500D02*
X144844500Y-106318000D01*
X144877000Y-104043000D02*
X144877000Y-106285500D01*
X152020000Y-110252500D02*
X136272004Y-110252500D01*
X136272004Y-110252500D02*
X136272000Y-110252504D01*
D18*
X160148000Y-99267000D02*
X160148000Y-101511000D01*
X160148000Y-101511000D02*
X161397000Y-102760000D01*
X161462000Y-95838000D02*
X161462000Y-97953000D01*
X161397000Y-102760000D02*
X161672000Y-102760000D01*
X161462000Y-97953000D02*
X160148000Y-99267000D01*
X159132000Y-104571000D02*
X159132000Y-106252000D01*
X164002000Y-97040081D02*
X163450000Y-97592081D01*
X162942000Y-108284000D02*
X161164000Y-108284000D01*
X164002000Y-95838000D02*
X164002000Y-97040081D01*
X163450000Y-107776000D02*
X162942000Y-108284000D01*
X161164000Y-108284000D02*
X159132000Y-106252000D01*
X163450000Y-97592081D02*
X163450000Y-107776000D01*
X166371000Y-96981000D02*
X166371000Y-96009000D01*
X166371000Y-96009000D02*
X166542000Y-95838000D01*
X164847000Y-98505000D02*
X166371000Y-96981000D01*
X166244000Y-104649500D02*
X164847000Y-103252500D01*
X164847000Y-103252500D02*
X164847000Y-98505000D01*
X166244000Y-104649500D02*
X166244000Y-106330500D01*
X170562000Y-101383000D02*
X178415000Y-109236000D01*
X178415000Y-109236000D02*
X178690000Y-109236000D01*
X170562000Y-99140000D02*
X170562000Y-101383000D01*
X169082000Y-95838000D02*
X169082000Y-97660000D01*
X169082000Y-97660000D02*
X170562000Y-99140000D01*
X167006000Y-98036501D02*
X167818195Y-97224306D01*
X168784000Y-102760000D02*
X168594000Y-102760000D01*
X167818195Y-97224306D02*
X167818195Y-94561805D01*
X168594000Y-102760000D02*
X167006000Y-101172000D01*
X167818195Y-94561805D02*
X168232001Y-94147999D01*
X168232001Y-94147999D02*
X169082000Y-93298000D01*
X167006000Y-101172000D02*
X167006000Y-98036501D01*
X171622000Y-97040081D02*
X171622000Y-95838000D01*
X171622000Y-100372290D02*
X171622000Y-97040081D01*
X178485710Y-107236000D02*
X171622000Y-100372290D01*
X178690000Y-107236000D02*
X178485710Y-107236000D01*
X178415000Y-105236000D02*
X178690000Y-105236000D01*
X172890940Y-99711940D02*
X178415000Y-105236000D01*
X171622000Y-93298000D02*
X172890940Y-94566940D01*
X172890940Y-94566940D02*
X172890940Y-99711940D01*
X175642000Y-100463000D02*
X175642000Y-94778000D01*
X175642000Y-94778000D02*
X175011999Y-94147999D01*
X178690000Y-103236000D02*
X178415000Y-103236000D01*
X175011999Y-94147999D02*
X174162000Y-93298000D01*
X178415000Y-103236000D02*
X175642000Y-100463000D01*
X152020000Y-104649500D02*
X152020000Y-106409000D01*
X151037500Y-106409000D02*
X149435499Y-108011001D01*
X152020000Y-106409000D02*
X151037500Y-106409000D01*
X149435499Y-108011001D02*
X149035500Y-108411000D01*
X166798500Y-102774500D02*
X168784000Y-104760000D01*
X166244000Y-102774500D02*
X166798500Y-102774500D01*
X159608000Y-102696000D02*
X161672000Y-104760000D01*
X159132000Y-102696000D02*
X159608000Y-102696000D01*
X152574500Y-102774500D02*
X154560000Y-104760000D01*
X152020000Y-102774500D02*
X152574500Y-102774500D01*
X157711081Y-98251000D02*
X153290000Y-98251000D01*
X148687000Y-102854000D02*
X148687000Y-104043000D01*
X153290000Y-98251000D02*
X148687000Y-102854000D01*
X158922000Y-95838000D02*
X158922000Y-97040081D01*
X158922000Y-97040081D02*
X157711081Y-98251000D01*
X157652904Y-96682096D02*
X157652904Y-94567096D01*
X147448000Y-104012000D02*
X147448000Y-102950000D01*
X158072001Y-94147999D02*
X158922000Y-93298000D01*
X147417000Y-104043000D02*
X147448000Y-104012000D01*
X147448000Y-102950000D02*
X153036000Y-97362000D01*
X157652904Y-94567096D02*
X158072001Y-94147999D01*
X156973000Y-97362000D02*
X157652904Y-96682096D01*
X153036000Y-97362000D02*
X156973000Y-97362000D01*
X146147000Y-105745500D02*
X146719500Y-106318000D01*
X146147000Y-104043000D02*
X146147000Y-105745500D01*
X160198824Y-97565176D02*
X160198824Y-95066676D01*
X163152001Y-94147999D02*
X164002000Y-93298000D01*
X158370000Y-99394000D02*
X160198824Y-97565176D01*
X149805111Y-105668885D02*
X149805111Y-103005889D01*
X162687001Y-94612999D02*
X163152001Y-94147999D01*
X160198824Y-95066676D02*
X160652501Y-94612999D01*
X146719500Y-106318000D02*
X149155996Y-106318000D01*
X153417000Y-99394000D02*
X158370000Y-99394000D01*
X149805111Y-103005889D02*
X153417000Y-99394000D01*
X160652501Y-94612999D02*
X162687001Y-94612999D01*
X149155996Y-106318000D02*
X149805111Y-105668885D01*
X139643315Y-115650000D02*
X140209000Y-115650000D01*
X135630000Y-115650000D02*
X139643315Y-115650000D01*
X132462000Y-118818000D02*
X135630000Y-115650000D01*
X150242000Y-115952500D02*
X150242000Y-118818000D01*
X153424000Y-118818000D02*
X154814000Y-117428000D01*
X150242000Y-118818000D02*
X153424000Y-118818000D01*
X147702000Y-115952500D02*
X147702000Y-118818000D01*
X149233000Y-120349000D02*
X148551999Y-119667999D01*
X148551999Y-119667999D02*
X147702000Y-118818000D01*
X160656000Y-117428000D02*
X157735000Y-120349000D01*
X157735000Y-120349000D02*
X149233000Y-120349000D01*
X145162000Y-115952500D02*
X145162000Y-118818000D01*
D19*
G36*
X176974907Y-92061425D02*
G01*
X176525425Y-92510907D01*
X176172270Y-93039442D01*
X175929012Y-93626719D01*
X175878559Y-93880361D01*
X175606958Y-93608760D01*
X175606954Y-93608755D01*
X175606261Y-93608062D01*
X175639000Y-93443472D01*
X175639000Y-93152528D01*
X175582240Y-92867175D01*
X175470901Y-92598378D01*
X175309261Y-92356467D01*
X175103533Y-92150739D01*
X174861622Y-91989099D01*
X174592825Y-91877760D01*
X174307472Y-91821000D01*
X174016528Y-91821000D01*
X173731175Y-91877760D01*
X173462378Y-91989099D01*
X173220467Y-92150739D01*
X173014739Y-92356467D01*
X172892000Y-92540159D01*
X172769261Y-92356467D01*
X172563533Y-92150739D01*
X172321622Y-91989099D01*
X172052825Y-91877760D01*
X171767472Y-91821000D01*
X171476528Y-91821000D01*
X171191175Y-91877760D01*
X170922378Y-91989099D01*
X170680467Y-92150739D01*
X170474739Y-92356467D01*
X170352000Y-92540159D01*
X170229261Y-92356467D01*
X170023533Y-92150739D01*
X169781622Y-91989099D01*
X169512825Y-91877760D01*
X169227472Y-91821000D01*
X168936528Y-91821000D01*
X168651175Y-91877760D01*
X168382378Y-91989099D01*
X168140467Y-92150739D01*
X167934739Y-92356467D01*
X167811340Y-92541147D01*
X167737178Y-92416645D01*
X167542269Y-92200412D01*
X167308920Y-92026359D01*
X167046099Y-91901175D01*
X166898890Y-91856524D01*
X166669000Y-91977845D01*
X166669000Y-93171000D01*
X166689000Y-93171000D01*
X166689000Y-93425000D01*
X166669000Y-93425000D01*
X166669000Y-93445000D01*
X166415000Y-93445000D01*
X166415000Y-93425000D01*
X166395000Y-93425000D01*
X166395000Y-93171000D01*
X166415000Y-93171000D01*
X166415000Y-91977845D01*
X166185110Y-91856524D01*
X166037901Y-91901175D01*
X165775080Y-92026359D01*
X165541731Y-92200412D01*
X165346822Y-92416645D01*
X165272660Y-92541147D01*
X165149261Y-92356467D01*
X164943533Y-92150739D01*
X164701622Y-91989099D01*
X164432825Y-91877760D01*
X164147472Y-91821000D01*
X163856528Y-91821000D01*
X163571175Y-91877760D01*
X163302378Y-91989099D01*
X163060467Y-92150739D01*
X162854739Y-92356467D01*
X162731340Y-92541147D01*
X162657178Y-92416645D01*
X162462269Y-92200412D01*
X162228920Y-92026359D01*
X161966099Y-91901175D01*
X161818890Y-91856524D01*
X161589000Y-91977845D01*
X161589000Y-93171000D01*
X161609000Y-93171000D01*
X161609000Y-93425000D01*
X161589000Y-93425000D01*
X161589000Y-93445000D01*
X161335000Y-93445000D01*
X161335000Y-93425000D01*
X161315000Y-93425000D01*
X161315000Y-93171000D01*
X161335000Y-93171000D01*
X161335000Y-91977845D01*
X161105110Y-91856524D01*
X160957901Y-91901175D01*
X160695080Y-92026359D01*
X160461731Y-92200412D01*
X160266822Y-92416645D01*
X160192660Y-92541147D01*
X160069261Y-92356467D01*
X159863533Y-92150739D01*
X159621622Y-91989099D01*
X159352825Y-91877760D01*
X159067472Y-91821000D01*
X158776528Y-91821000D01*
X158491175Y-91877760D01*
X158222378Y-91989099D01*
X157980467Y-92150739D01*
X157774739Y-92356467D01*
X157652000Y-92540159D01*
X157529261Y-92356467D01*
X157323533Y-92150739D01*
X157081622Y-91989099D01*
X156812825Y-91877760D01*
X156527472Y-91821000D01*
X156236528Y-91821000D01*
X155951175Y-91877760D01*
X155682378Y-91989099D01*
X155440467Y-92150739D01*
X155234739Y-92356467D01*
X155112000Y-92540159D01*
X154989261Y-92356467D01*
X154783533Y-92150739D01*
X154541622Y-91989099D01*
X154272825Y-91877760D01*
X153987472Y-91821000D01*
X153696528Y-91821000D01*
X153411175Y-91877760D01*
X153142378Y-91989099D01*
X152900467Y-92150739D01*
X152694739Y-92356467D01*
X152572000Y-92540159D01*
X152449261Y-92356467D01*
X152243533Y-92150739D01*
X152001622Y-91989099D01*
X151732825Y-91877760D01*
X151447472Y-91821000D01*
X151156528Y-91821000D01*
X150871175Y-91877760D01*
X150602378Y-91989099D01*
X150360467Y-92150739D01*
X150154739Y-92356467D01*
X150031340Y-92541147D01*
X149957178Y-92416645D01*
X149762269Y-92200412D01*
X149528920Y-92026359D01*
X149266099Y-91901175D01*
X149118890Y-91856524D01*
X148889000Y-91977845D01*
X148889000Y-93171000D01*
X148909000Y-93171000D01*
X148909000Y-93425000D01*
X148889000Y-93425000D01*
X148889000Y-93445000D01*
X148635000Y-93445000D01*
X148635000Y-93425000D01*
X148615000Y-93425000D01*
X148615000Y-93171000D01*
X148635000Y-93171000D01*
X148635000Y-91977845D01*
X148405110Y-91856524D01*
X148257901Y-91901175D01*
X147995080Y-92026359D01*
X147761731Y-92200412D01*
X147566822Y-92416645D01*
X147492660Y-92541147D01*
X147369261Y-92356467D01*
X147163533Y-92150739D01*
X146921622Y-91989099D01*
X146652825Y-91877760D01*
X146367472Y-91821000D01*
X146076528Y-91821000D01*
X145791175Y-91877760D01*
X145522378Y-91989099D01*
X145280467Y-92150739D01*
X145074739Y-92356467D01*
X144952000Y-92540159D01*
X144829261Y-92356467D01*
X144623533Y-92150739D01*
X144381622Y-91989099D01*
X144112825Y-91877760D01*
X143827472Y-91821000D01*
X143536528Y-91821000D01*
X143251175Y-91877760D01*
X142982378Y-91989099D01*
X142740467Y-92150739D01*
X142534739Y-92356467D01*
X142411340Y-92541147D01*
X142337178Y-92416645D01*
X142142269Y-92200412D01*
X141908920Y-92026359D01*
X141646099Y-91901175D01*
X141498890Y-91856524D01*
X141269000Y-91977845D01*
X141269000Y-93171000D01*
X141289000Y-93171000D01*
X141289000Y-93425000D01*
X141269000Y-93425000D01*
X141269000Y-93445000D01*
X141015000Y-93445000D01*
X141015000Y-93425000D01*
X140995000Y-93425000D01*
X140995000Y-93171000D01*
X141015000Y-93171000D01*
X141015000Y-91977845D01*
X140785110Y-91856524D01*
X140637901Y-91901175D01*
X140375080Y-92026359D01*
X140141731Y-92200412D01*
X139946822Y-92416645D01*
X139872660Y-92541147D01*
X139749261Y-92356467D01*
X139543533Y-92150739D01*
X139301622Y-91989099D01*
X139032825Y-91877760D01*
X138747472Y-91821000D01*
X138456528Y-91821000D01*
X138171175Y-91877760D01*
X137902378Y-91989099D01*
X137660467Y-92150739D01*
X137454739Y-92356467D01*
X137332000Y-92540159D01*
X137209261Y-92356467D01*
X137003533Y-92150739D01*
X136761622Y-91989099D01*
X136492825Y-91877760D01*
X136207472Y-91821000D01*
X135916528Y-91821000D01*
X135631175Y-91877760D01*
X135362378Y-91989099D01*
X135120467Y-92150739D01*
X134914739Y-92356467D01*
X134792000Y-92540159D01*
X134669261Y-92356467D01*
X134463533Y-92150739D01*
X134221622Y-91989099D01*
X133952825Y-91877760D01*
X133667472Y-91821000D01*
X133376528Y-91821000D01*
X133091175Y-91877760D01*
X132822378Y-91989099D01*
X132580467Y-92150739D01*
X132374739Y-92356467D01*
X132251340Y-92541147D01*
X132177178Y-92416645D01*
X131982269Y-92200412D01*
X131748920Y-92026359D01*
X131486099Y-91901175D01*
X131338890Y-91856524D01*
X131109000Y-91977845D01*
X131109000Y-93171000D01*
X131129000Y-93171000D01*
X131129000Y-93425000D01*
X131109000Y-93425000D01*
X131109000Y-93445000D01*
X130855000Y-93445000D01*
X130855000Y-93425000D01*
X130835000Y-93425000D01*
X130835000Y-93171000D01*
X130855000Y-93171000D01*
X130855000Y-91977845D01*
X130625110Y-91856524D01*
X130477901Y-91901175D01*
X130215080Y-92026359D01*
X129981731Y-92200412D01*
X129786822Y-92416645D01*
X129712660Y-92541147D01*
X129589261Y-92356467D01*
X129383533Y-92150739D01*
X129141622Y-91989099D01*
X128872825Y-91877760D01*
X128587472Y-91821000D01*
X128296528Y-91821000D01*
X128011175Y-91877760D01*
X127742378Y-91989099D01*
X127500467Y-92150739D01*
X127294739Y-92356467D01*
X127172000Y-92540159D01*
X127049261Y-92356467D01*
X126843533Y-92150739D01*
X126601622Y-91989099D01*
X126332825Y-91877760D01*
X126047472Y-91821000D01*
X125756528Y-91821000D01*
X125471175Y-91877760D01*
X125202378Y-91989099D01*
X124960467Y-92150739D01*
X124754739Y-92356467D01*
X124593099Y-92598378D01*
X124481760Y-92867175D01*
X124425000Y-93152528D01*
X124425000Y-93443472D01*
X124481760Y-93728825D01*
X124593099Y-93997622D01*
X124754739Y-94239533D01*
X124895475Y-94380269D01*
X124810897Y-94405925D01*
X124701972Y-94464147D01*
X124606499Y-94542499D01*
X124528147Y-94637972D01*
X124469925Y-94746897D01*
X124434073Y-94865087D01*
X124421967Y-94988000D01*
X124421967Y-96688000D01*
X124434073Y-96810913D01*
X124469925Y-96929103D01*
X124528147Y-97038028D01*
X124606499Y-97133501D01*
X124701972Y-97211853D01*
X124810897Y-97270075D01*
X124929087Y-97305927D01*
X124972705Y-97310223D01*
X124975000Y-97333528D01*
X124975001Y-108282462D01*
X124975000Y-115842473D01*
X124970516Y-115888000D01*
X124975000Y-115933527D01*
X124975000Y-115933537D01*
X124988413Y-116069723D01*
X125024877Y-116189928D01*
X125041420Y-116244463D01*
X125127499Y-116405505D01*
X125214312Y-116511287D01*
X125243341Y-116546659D01*
X125278713Y-116575688D01*
X126162858Y-117459833D01*
X126086499Y-117522499D01*
X126008147Y-117617972D01*
X125949925Y-117726897D01*
X125914073Y-117845087D01*
X125901967Y-117968000D01*
X125901967Y-119668000D01*
X125914073Y-119790913D01*
X125949925Y-119909103D01*
X126008147Y-120018028D01*
X126086499Y-120113501D01*
X126181972Y-120191853D01*
X126290897Y-120250075D01*
X126409087Y-120285927D01*
X126532000Y-120298033D01*
X128232000Y-120298033D01*
X128354913Y-120285927D01*
X128473103Y-120250075D01*
X128582028Y-120191853D01*
X128677501Y-120113501D01*
X128755853Y-120018028D01*
X128814075Y-119909103D01*
X128839710Y-119824594D01*
X128921731Y-119915588D01*
X129155080Y-120089641D01*
X129417901Y-120214825D01*
X129565110Y-120259476D01*
X129795000Y-120138155D01*
X129795000Y-118945000D01*
X129775000Y-118945000D01*
X129775000Y-118691000D01*
X129795000Y-118691000D01*
X129795000Y-117497845D01*
X129565110Y-117376524D01*
X129417901Y-117421175D01*
X129155080Y-117546359D01*
X128921731Y-117720412D01*
X128839710Y-117811406D01*
X128814075Y-117726897D01*
X128755853Y-117617972D01*
X128677501Y-117522499D01*
X128601142Y-117459833D01*
X131056476Y-115004500D01*
X135152345Y-115004500D01*
X135060157Y-115080157D01*
X135035044Y-115110757D01*
X132772063Y-117373739D01*
X132607472Y-117341000D01*
X132316528Y-117341000D01*
X132031175Y-117397760D01*
X131762378Y-117509099D01*
X131520467Y-117670739D01*
X131314739Y-117876467D01*
X131191340Y-118061147D01*
X131117178Y-117936645D01*
X130922269Y-117720412D01*
X130688920Y-117546359D01*
X130426099Y-117421175D01*
X130278890Y-117376524D01*
X130049000Y-117497845D01*
X130049000Y-118691000D01*
X130069000Y-118691000D01*
X130069000Y-118945000D01*
X130049000Y-118945000D01*
X130049000Y-120138155D01*
X130278890Y-120259476D01*
X130426099Y-120214825D01*
X130688920Y-120089641D01*
X130922269Y-119915588D01*
X131117178Y-119699355D01*
X131191340Y-119574853D01*
X131314739Y-119759533D01*
X131520467Y-119965261D01*
X131762378Y-120126901D01*
X132031175Y-120238240D01*
X132316528Y-120295000D01*
X132607472Y-120295000D01*
X132892825Y-120238240D01*
X133161622Y-120126901D01*
X133403533Y-119965261D01*
X133609261Y-119759533D01*
X133732000Y-119575841D01*
X133854739Y-119759533D01*
X134060467Y-119965261D01*
X134302378Y-120126901D01*
X134571175Y-120238240D01*
X134856528Y-120295000D01*
X135147472Y-120295000D01*
X135432825Y-120238240D01*
X135701622Y-120126901D01*
X135943533Y-119965261D01*
X136149261Y-119759533D01*
X136272660Y-119574853D01*
X136346822Y-119699355D01*
X136541731Y-119915588D01*
X136775080Y-120089641D01*
X137037901Y-120214825D01*
X137185110Y-120259476D01*
X137415000Y-120138155D01*
X137415000Y-118945000D01*
X137395000Y-118945000D01*
X137395000Y-118691000D01*
X137415000Y-118691000D01*
X137415000Y-117497845D01*
X137185110Y-117376524D01*
X137037901Y-117421175D01*
X136775080Y-117546359D01*
X136541731Y-117720412D01*
X136346822Y-117936645D01*
X136272660Y-118061147D01*
X136149261Y-117876467D01*
X135943533Y-117670739D01*
X135701622Y-117509099D01*
X135432825Y-117397760D01*
X135147472Y-117341000D01*
X135073199Y-117341000D01*
X135962199Y-116452000D01*
X139240404Y-116452000D01*
X139410896Y-116622492D01*
X139615956Y-116759508D01*
X139843805Y-116853886D01*
X140085689Y-116902000D01*
X140332311Y-116902000D01*
X140574195Y-116853886D01*
X140802044Y-116759508D01*
X141007104Y-116622492D01*
X141181492Y-116448104D01*
X141318508Y-116243044D01*
X141412886Y-116015195D01*
X141461000Y-115773311D01*
X141461000Y-115526689D01*
X141412886Y-115284805D01*
X141318508Y-115056956D01*
X141283458Y-115004500D01*
X144167572Y-115004500D01*
X144180367Y-115015000D01*
X144087892Y-115090892D01*
X143979226Y-115223302D01*
X143898480Y-115374368D01*
X143848756Y-115538283D01*
X143831967Y-115708750D01*
X143831967Y-116196250D01*
X143848756Y-116366717D01*
X143898480Y-116530632D01*
X143979226Y-116681698D01*
X144087892Y-116814108D01*
X144220302Y-116922774D01*
X144360000Y-116997444D01*
X144360001Y-117577506D01*
X144220467Y-117670739D01*
X144014739Y-117876467D01*
X143892000Y-118060159D01*
X143769261Y-117876467D01*
X143563533Y-117670739D01*
X143321622Y-117509099D01*
X143052825Y-117397760D01*
X142767472Y-117341000D01*
X142476528Y-117341000D01*
X142191175Y-117397760D01*
X141922378Y-117509099D01*
X141680467Y-117670739D01*
X141474739Y-117876467D01*
X141352000Y-118060159D01*
X141229261Y-117876467D01*
X141023533Y-117670739D01*
X140781622Y-117509099D01*
X140512825Y-117397760D01*
X140227472Y-117341000D01*
X139936528Y-117341000D01*
X139651175Y-117397760D01*
X139382378Y-117509099D01*
X139140467Y-117670739D01*
X138934739Y-117876467D01*
X138811340Y-118061147D01*
X138737178Y-117936645D01*
X138542269Y-117720412D01*
X138308920Y-117546359D01*
X138046099Y-117421175D01*
X137898890Y-117376524D01*
X137669000Y-117497845D01*
X137669000Y-118691000D01*
X137689000Y-118691000D01*
X137689000Y-118945000D01*
X137669000Y-118945000D01*
X137669000Y-120138155D01*
X137898890Y-120259476D01*
X138046099Y-120214825D01*
X138308920Y-120089641D01*
X138542269Y-119915588D01*
X138737178Y-119699355D01*
X138811340Y-119574853D01*
X138934739Y-119759533D01*
X139140467Y-119965261D01*
X139382378Y-120126901D01*
X139651175Y-120238240D01*
X139936528Y-120295000D01*
X140227472Y-120295000D01*
X140512825Y-120238240D01*
X140781622Y-120126901D01*
X141023533Y-119965261D01*
X141229261Y-119759533D01*
X141352000Y-119575841D01*
X141474739Y-119759533D01*
X141680467Y-119965261D01*
X141922378Y-120126901D01*
X142191175Y-120238240D01*
X142476528Y-120295000D01*
X142767472Y-120295000D01*
X143052825Y-120238240D01*
X143321622Y-120126901D01*
X143563533Y-119965261D01*
X143769261Y-119759533D01*
X143892000Y-119575841D01*
X144014739Y-119759533D01*
X144220467Y-119965261D01*
X144462378Y-120126901D01*
X144731175Y-120238240D01*
X145016528Y-120295000D01*
X145307472Y-120295000D01*
X145592825Y-120238240D01*
X145861622Y-120126901D01*
X146103533Y-119965261D01*
X146309261Y-119759533D01*
X146432000Y-119575841D01*
X146554739Y-119759533D01*
X146760467Y-119965261D01*
X147002378Y-120126901D01*
X147271175Y-120238240D01*
X147556528Y-120295000D01*
X147847472Y-120295000D01*
X148012062Y-120262261D01*
X148012755Y-120262954D01*
X148012760Y-120262958D01*
X148115802Y-120366000D01*
X122652944Y-120366000D01*
X123089093Y-120074575D01*
X123538575Y-119625093D01*
X123891730Y-119096558D01*
X124134988Y-118509281D01*
X124259000Y-117885832D01*
X124259000Y-117250168D01*
X124134988Y-116626719D01*
X123891730Y-116039442D01*
X123538575Y-115510907D01*
X123089093Y-115061425D01*
X122560558Y-114708270D01*
X121973281Y-114465012D01*
X121349832Y-114341000D01*
X120714168Y-114341000D01*
X120090719Y-114465012D01*
X119503442Y-114708270D01*
X118974907Y-115061425D01*
X118525425Y-115510907D01*
X118234000Y-115947056D01*
X118234000Y-104952000D01*
X120117967Y-104952000D01*
X120117967Y-107552000D01*
X120130073Y-107674913D01*
X120165925Y-107793103D01*
X120224147Y-107902028D01*
X120302499Y-107997501D01*
X120397972Y-108075853D01*
X120506897Y-108134075D01*
X120625087Y-108169927D01*
X120748000Y-108182033D01*
X123348000Y-108182033D01*
X123470913Y-108169927D01*
X123589103Y-108134075D01*
X123698028Y-108075853D01*
X123793501Y-107997501D01*
X123871853Y-107902028D01*
X123930075Y-107793103D01*
X123965927Y-107674913D01*
X123978033Y-107552000D01*
X123978033Y-104952000D01*
X123965927Y-104829087D01*
X123930075Y-104710897D01*
X123871853Y-104601972D01*
X123793501Y-104506499D01*
X123698028Y-104428147D01*
X123589103Y-104369925D01*
X123470913Y-104334073D01*
X123348000Y-104321967D01*
X120748000Y-104321967D01*
X120625087Y-104334073D01*
X120506897Y-104369925D01*
X120397972Y-104428147D01*
X120302499Y-104506499D01*
X120224147Y-104601972D01*
X120165925Y-104710897D01*
X120130073Y-104829087D01*
X120117967Y-104952000D01*
X118234000Y-104952000D01*
X118234000Y-102601224D01*
X120878381Y-102601224D01*
X121010317Y-102896312D01*
X121351045Y-103067159D01*
X121718557Y-103168250D01*
X122098729Y-103195701D01*
X122476951Y-103148457D01*
X122838690Y-103028333D01*
X123085683Y-102896312D01*
X123217619Y-102601224D01*
X122048000Y-101431605D01*
X120878381Y-102601224D01*
X118234000Y-102601224D01*
X118234000Y-101302729D01*
X120104299Y-101302729D01*
X120151543Y-101680951D01*
X120271667Y-102042690D01*
X120403688Y-102289683D01*
X120698776Y-102421619D01*
X121868395Y-101252000D01*
X122227605Y-101252000D01*
X123397224Y-102421619D01*
X123692312Y-102289683D01*
X123863159Y-101948955D01*
X123964250Y-101581443D01*
X123991701Y-101201271D01*
X123944457Y-100823049D01*
X123824333Y-100461310D01*
X123692312Y-100214317D01*
X123397224Y-100082381D01*
X122227605Y-101252000D01*
X121868395Y-101252000D01*
X120698776Y-100082381D01*
X120403688Y-100214317D01*
X120232841Y-100555045D01*
X120131750Y-100922557D01*
X120104299Y-101302729D01*
X118234000Y-101302729D01*
X118234000Y-99902776D01*
X120878381Y-99902776D01*
X122048000Y-101072395D01*
X123217619Y-99902776D01*
X123085683Y-99607688D01*
X122744955Y-99436841D01*
X122377443Y-99335750D01*
X121997271Y-99308299D01*
X121619049Y-99355543D01*
X121257310Y-99475667D01*
X121010317Y-99607688D01*
X120878381Y-99902776D01*
X118234000Y-99902776D01*
X118234000Y-96188944D01*
X118525425Y-96625093D01*
X118974907Y-97074575D01*
X119503442Y-97427730D01*
X120090719Y-97670988D01*
X120714168Y-97795000D01*
X121349832Y-97795000D01*
X121973281Y-97670988D01*
X122560558Y-97427730D01*
X123089093Y-97074575D01*
X123538575Y-96625093D01*
X123891730Y-96096558D01*
X124134988Y-95509281D01*
X124259000Y-94885832D01*
X124259000Y-94250168D01*
X124134988Y-93626719D01*
X123891730Y-93039442D01*
X123538575Y-92510907D01*
X123089093Y-92061425D01*
X122652944Y-91770000D01*
X177411056Y-91770000D01*
X176974907Y-92061425D01*
G37*
X176974907Y-92061425D02*
X176525425Y-92510907D01*
X176172270Y-93039442D01*
X175929012Y-93626719D01*
X175878559Y-93880361D01*
X175606958Y-93608760D01*
X175606954Y-93608755D01*
X175606261Y-93608062D01*
X175639000Y-93443472D01*
X175639000Y-93152528D01*
X175582240Y-92867175D01*
X175470901Y-92598378D01*
X175309261Y-92356467D01*
X175103533Y-92150739D01*
X174861622Y-91989099D01*
X174592825Y-91877760D01*
X174307472Y-91821000D01*
X174016528Y-91821000D01*
X173731175Y-91877760D01*
X173462378Y-91989099D01*
X173220467Y-92150739D01*
X173014739Y-92356467D01*
X172892000Y-92540159D01*
X172769261Y-92356467D01*
X172563533Y-92150739D01*
X172321622Y-91989099D01*
X172052825Y-91877760D01*
X171767472Y-91821000D01*
X171476528Y-91821000D01*
X171191175Y-91877760D01*
X170922378Y-91989099D01*
X170680467Y-92150739D01*
X170474739Y-92356467D01*
X170352000Y-92540159D01*
X170229261Y-92356467D01*
X170023533Y-92150739D01*
X169781622Y-91989099D01*
X169512825Y-91877760D01*
X169227472Y-91821000D01*
X168936528Y-91821000D01*
X168651175Y-91877760D01*
X168382378Y-91989099D01*
X168140467Y-92150739D01*
X167934739Y-92356467D01*
X167811340Y-92541147D01*
X167737178Y-92416645D01*
X167542269Y-92200412D01*
X167308920Y-92026359D01*
X167046099Y-91901175D01*
X166898890Y-91856524D01*
X166669000Y-91977845D01*
X166669000Y-93171000D01*
X166689000Y-93171000D01*
X166689000Y-93425000D01*
X166669000Y-93425000D01*
X166669000Y-93445000D01*
X166415000Y-93445000D01*
X166415000Y-93425000D01*
X166395000Y-93425000D01*
X166395000Y-93171000D01*
X166415000Y-93171000D01*
X166415000Y-91977845D01*
X166185110Y-91856524D01*
X166037901Y-91901175D01*
X165775080Y-92026359D01*
X165541731Y-92200412D01*
X165346822Y-92416645D01*
X165272660Y-92541147D01*
X165149261Y-92356467D01*
X164943533Y-92150739D01*
X164701622Y-91989099D01*
X164432825Y-91877760D01*
X164147472Y-91821000D01*
X163856528Y-91821000D01*
X163571175Y-91877760D01*
X163302378Y-91989099D01*
X163060467Y-92150739D01*
X162854739Y-92356467D01*
X162731340Y-92541147D01*
X162657178Y-92416645D01*
X162462269Y-92200412D01*
X162228920Y-92026359D01*
X161966099Y-91901175D01*
X161818890Y-91856524D01*
X161589000Y-91977845D01*
X161589000Y-93171000D01*
X161609000Y-93171000D01*
X161609000Y-93425000D01*
X161589000Y-93425000D01*
X161589000Y-93445000D01*
X161335000Y-93445000D01*
X161335000Y-93425000D01*
X161315000Y-93425000D01*
X161315000Y-93171000D01*
X161335000Y-93171000D01*
X161335000Y-91977845D01*
X161105110Y-91856524D01*
X160957901Y-91901175D01*
X160695080Y-92026359D01*
X160461731Y-92200412D01*
X160266822Y-92416645D01*
X160192660Y-92541147D01*
X160069261Y-92356467D01*
X159863533Y-92150739D01*
X159621622Y-91989099D01*
X159352825Y-91877760D01*
X159067472Y-91821000D01*
X158776528Y-91821000D01*
X158491175Y-91877760D01*
X158222378Y-91989099D01*
X157980467Y-92150739D01*
X157774739Y-92356467D01*
X157652000Y-92540159D01*
X157529261Y-92356467D01*
X157323533Y-92150739D01*
X157081622Y-91989099D01*
X156812825Y-91877760D01*
X156527472Y-91821000D01*
X156236528Y-91821000D01*
X155951175Y-91877760D01*
X155682378Y-91989099D01*
X155440467Y-92150739D01*
X155234739Y-92356467D01*
X155112000Y-92540159D01*
X154989261Y-92356467D01*
X154783533Y-92150739D01*
X154541622Y-91989099D01*
X154272825Y-91877760D01*
X153987472Y-91821000D01*
X153696528Y-91821000D01*
X153411175Y-91877760D01*
X153142378Y-91989099D01*
X152900467Y-92150739D01*
X152694739Y-92356467D01*
X152572000Y-92540159D01*
X152449261Y-92356467D01*
X152243533Y-92150739D01*
X152001622Y-91989099D01*
X151732825Y-91877760D01*
X151447472Y-91821000D01*
X151156528Y-91821000D01*
X150871175Y-91877760D01*
X150602378Y-91989099D01*
X150360467Y-92150739D01*
X150154739Y-92356467D01*
X150031340Y-92541147D01*
X149957178Y-92416645D01*
X149762269Y-92200412D01*
X149528920Y-92026359D01*
X149266099Y-91901175D01*
X149118890Y-91856524D01*
X148889000Y-91977845D01*
X148889000Y-93171000D01*
X148909000Y-93171000D01*
X148909000Y-93425000D01*
X148889000Y-93425000D01*
X148889000Y-93445000D01*
X148635000Y-93445000D01*
X148635000Y-93425000D01*
X148615000Y-93425000D01*
X148615000Y-93171000D01*
X148635000Y-93171000D01*
X148635000Y-91977845D01*
X148405110Y-91856524D01*
X148257901Y-91901175D01*
X147995080Y-92026359D01*
X147761731Y-92200412D01*
X147566822Y-92416645D01*
X147492660Y-92541147D01*
X147369261Y-92356467D01*
X147163533Y-92150739D01*
X146921622Y-91989099D01*
X146652825Y-91877760D01*
X146367472Y-91821000D01*
X146076528Y-91821000D01*
X145791175Y-91877760D01*
X145522378Y-91989099D01*
X145280467Y-92150739D01*
X145074739Y-92356467D01*
X144952000Y-92540159D01*
X144829261Y-92356467D01*
X144623533Y-92150739D01*
X144381622Y-91989099D01*
X144112825Y-91877760D01*
X143827472Y-91821000D01*
X143536528Y-91821000D01*
X143251175Y-91877760D01*
X142982378Y-91989099D01*
X142740467Y-92150739D01*
X142534739Y-92356467D01*
X142411340Y-92541147D01*
X142337178Y-92416645D01*
X142142269Y-92200412D01*
X141908920Y-92026359D01*
X141646099Y-91901175D01*
X141498890Y-91856524D01*
X141269000Y-91977845D01*
X141269000Y-93171000D01*
X141289000Y-93171000D01*
X141289000Y-93425000D01*
X141269000Y-93425000D01*
X141269000Y-93445000D01*
X141015000Y-93445000D01*
X141015000Y-93425000D01*
X140995000Y-93425000D01*
X140995000Y-93171000D01*
X141015000Y-93171000D01*
X141015000Y-91977845D01*
X140785110Y-91856524D01*
X140637901Y-91901175D01*
X140375080Y-92026359D01*
X140141731Y-92200412D01*
X139946822Y-92416645D01*
X139872660Y-92541147D01*
X139749261Y-92356467D01*
X139543533Y-92150739D01*
X139301622Y-91989099D01*
X139032825Y-91877760D01*
X138747472Y-91821000D01*
X138456528Y-91821000D01*
X138171175Y-91877760D01*
X137902378Y-91989099D01*
X137660467Y-92150739D01*
X137454739Y-92356467D01*
X137332000Y-92540159D01*
X137209261Y-92356467D01*
X137003533Y-92150739D01*
X136761622Y-91989099D01*
X136492825Y-91877760D01*
X136207472Y-91821000D01*
X135916528Y-91821000D01*
X135631175Y-91877760D01*
X135362378Y-91989099D01*
X135120467Y-92150739D01*
X134914739Y-92356467D01*
X134792000Y-92540159D01*
X134669261Y-92356467D01*
X134463533Y-92150739D01*
X134221622Y-91989099D01*
X133952825Y-91877760D01*
X133667472Y-91821000D01*
X133376528Y-91821000D01*
X133091175Y-91877760D01*
X132822378Y-91989099D01*
X132580467Y-92150739D01*
X132374739Y-92356467D01*
X132251340Y-92541147D01*
X132177178Y-92416645D01*
X131982269Y-92200412D01*
X131748920Y-92026359D01*
X131486099Y-91901175D01*
X131338890Y-91856524D01*
X131109000Y-91977845D01*
X131109000Y-93171000D01*
X131129000Y-93171000D01*
X131129000Y-93425000D01*
X131109000Y-93425000D01*
X131109000Y-93445000D01*
X130855000Y-93445000D01*
X130855000Y-93425000D01*
X130835000Y-93425000D01*
X130835000Y-93171000D01*
X130855000Y-93171000D01*
X130855000Y-91977845D01*
X130625110Y-91856524D01*
X130477901Y-91901175D01*
X130215080Y-92026359D01*
X129981731Y-92200412D01*
X129786822Y-92416645D01*
X129712660Y-92541147D01*
X129589261Y-92356467D01*
X129383533Y-92150739D01*
X129141622Y-91989099D01*
X128872825Y-91877760D01*
X128587472Y-91821000D01*
X128296528Y-91821000D01*
X128011175Y-91877760D01*
X127742378Y-91989099D01*
X127500467Y-92150739D01*
X127294739Y-92356467D01*
X127172000Y-92540159D01*
X127049261Y-92356467D01*
X126843533Y-92150739D01*
X126601622Y-91989099D01*
X126332825Y-91877760D01*
X126047472Y-91821000D01*
X125756528Y-91821000D01*
X125471175Y-91877760D01*
X125202378Y-91989099D01*
X124960467Y-92150739D01*
X124754739Y-92356467D01*
X124593099Y-92598378D01*
X124481760Y-92867175D01*
X124425000Y-93152528D01*
X124425000Y-93443472D01*
X124481760Y-93728825D01*
X124593099Y-93997622D01*
X124754739Y-94239533D01*
X124895475Y-94380269D01*
X124810897Y-94405925D01*
X124701972Y-94464147D01*
X124606499Y-94542499D01*
X124528147Y-94637972D01*
X124469925Y-94746897D01*
X124434073Y-94865087D01*
X124421967Y-94988000D01*
X124421967Y-96688000D01*
X124434073Y-96810913D01*
X124469925Y-96929103D01*
X124528147Y-97038028D01*
X124606499Y-97133501D01*
X124701972Y-97211853D01*
X124810897Y-97270075D01*
X124929087Y-97305927D01*
X124972705Y-97310223D01*
X124975000Y-97333528D01*
X124975001Y-108282462D01*
X124975000Y-115842473D01*
X124970516Y-115888000D01*
X124975000Y-115933527D01*
X124975000Y-115933537D01*
X124988413Y-116069723D01*
X125024877Y-116189928D01*
X125041420Y-116244463D01*
X125127499Y-116405505D01*
X125214312Y-116511287D01*
X125243341Y-116546659D01*
X125278713Y-116575688D01*
X126162858Y-117459833D01*
X126086499Y-117522499D01*
X126008147Y-117617972D01*
X125949925Y-117726897D01*
X125914073Y-117845087D01*
X125901967Y-117968000D01*
X125901967Y-119668000D01*
X125914073Y-119790913D01*
X125949925Y-119909103D01*
X126008147Y-120018028D01*
X126086499Y-120113501D01*
X126181972Y-120191853D01*
X126290897Y-120250075D01*
X126409087Y-120285927D01*
X126532000Y-120298033D01*
X128232000Y-120298033D01*
X128354913Y-120285927D01*
X128473103Y-120250075D01*
X128582028Y-120191853D01*
X128677501Y-120113501D01*
X128755853Y-120018028D01*
X128814075Y-119909103D01*
X128839710Y-119824594D01*
X128921731Y-119915588D01*
X129155080Y-120089641D01*
X129417901Y-120214825D01*
X129565110Y-120259476D01*
X129795000Y-120138155D01*
X129795000Y-118945000D01*
X129775000Y-118945000D01*
X129775000Y-118691000D01*
X129795000Y-118691000D01*
X129795000Y-117497845D01*
X129565110Y-117376524D01*
X129417901Y-117421175D01*
X129155080Y-117546359D01*
X128921731Y-117720412D01*
X128839710Y-117811406D01*
X128814075Y-117726897D01*
X128755853Y-117617972D01*
X128677501Y-117522499D01*
X128601142Y-117459833D01*
X131056476Y-115004500D01*
X135152345Y-115004500D01*
X135060157Y-115080157D01*
X135035044Y-115110757D01*
X132772063Y-117373739D01*
X132607472Y-117341000D01*
X132316528Y-117341000D01*
X132031175Y-117397760D01*
X131762378Y-117509099D01*
X131520467Y-117670739D01*
X131314739Y-117876467D01*
X131191340Y-118061147D01*
X131117178Y-117936645D01*
X130922269Y-117720412D01*
X130688920Y-117546359D01*
X130426099Y-117421175D01*
X130278890Y-117376524D01*
X130049000Y-117497845D01*
X130049000Y-118691000D01*
X130069000Y-118691000D01*
X130069000Y-118945000D01*
X130049000Y-118945000D01*
X130049000Y-120138155D01*
X130278890Y-120259476D01*
X130426099Y-120214825D01*
X130688920Y-120089641D01*
X130922269Y-119915588D01*
X131117178Y-119699355D01*
X131191340Y-119574853D01*
X131314739Y-119759533D01*
X131520467Y-119965261D01*
X131762378Y-120126901D01*
X132031175Y-120238240D01*
X132316528Y-120295000D01*
X132607472Y-120295000D01*
X132892825Y-120238240D01*
X133161622Y-120126901D01*
X133403533Y-119965261D01*
X133609261Y-119759533D01*
X133732000Y-119575841D01*
X133854739Y-119759533D01*
X134060467Y-119965261D01*
X134302378Y-120126901D01*
X134571175Y-120238240D01*
X134856528Y-120295000D01*
X135147472Y-120295000D01*
X135432825Y-120238240D01*
X135701622Y-120126901D01*
X135943533Y-119965261D01*
X136149261Y-119759533D01*
X136272660Y-119574853D01*
X136346822Y-119699355D01*
X136541731Y-119915588D01*
X136775080Y-120089641D01*
X137037901Y-120214825D01*
X137185110Y-120259476D01*
X137415000Y-120138155D01*
X137415000Y-118945000D01*
X137395000Y-118945000D01*
X137395000Y-118691000D01*
X137415000Y-118691000D01*
X137415000Y-117497845D01*
X137185110Y-117376524D01*
X137037901Y-117421175D01*
X136775080Y-117546359D01*
X136541731Y-117720412D01*
X136346822Y-117936645D01*
X136272660Y-118061147D01*
X136149261Y-117876467D01*
X135943533Y-117670739D01*
X135701622Y-117509099D01*
X135432825Y-117397760D01*
X135147472Y-117341000D01*
X135073199Y-117341000D01*
X135962199Y-116452000D01*
X139240404Y-116452000D01*
X139410896Y-116622492D01*
X139615956Y-116759508D01*
X139843805Y-116853886D01*
X140085689Y-116902000D01*
X140332311Y-116902000D01*
X140574195Y-116853886D01*
X140802044Y-116759508D01*
X141007104Y-116622492D01*
X141181492Y-116448104D01*
X141318508Y-116243044D01*
X141412886Y-116015195D01*
X141461000Y-115773311D01*
X141461000Y-115526689D01*
X141412886Y-115284805D01*
X141318508Y-115056956D01*
X141283458Y-115004500D01*
X144167572Y-115004500D01*
X144180367Y-115015000D01*
X144087892Y-115090892D01*
X143979226Y-115223302D01*
X143898480Y-115374368D01*
X143848756Y-115538283D01*
X143831967Y-115708750D01*
X143831967Y-116196250D01*
X143848756Y-116366717D01*
X143898480Y-116530632D01*
X143979226Y-116681698D01*
X144087892Y-116814108D01*
X144220302Y-116922774D01*
X144360000Y-116997444D01*
X144360001Y-117577506D01*
X144220467Y-117670739D01*
X144014739Y-117876467D01*
X143892000Y-118060159D01*
X143769261Y-117876467D01*
X143563533Y-117670739D01*
X143321622Y-117509099D01*
X143052825Y-117397760D01*
X142767472Y-117341000D01*
X142476528Y-117341000D01*
X142191175Y-117397760D01*
X141922378Y-117509099D01*
X141680467Y-117670739D01*
X141474739Y-117876467D01*
X141352000Y-118060159D01*
X141229261Y-117876467D01*
X141023533Y-117670739D01*
X140781622Y-117509099D01*
X140512825Y-117397760D01*
X140227472Y-117341000D01*
X139936528Y-117341000D01*
X139651175Y-117397760D01*
X139382378Y-117509099D01*
X139140467Y-117670739D01*
X138934739Y-117876467D01*
X138811340Y-118061147D01*
X138737178Y-117936645D01*
X138542269Y-117720412D01*
X138308920Y-117546359D01*
X138046099Y-117421175D01*
X137898890Y-117376524D01*
X137669000Y-117497845D01*
X137669000Y-118691000D01*
X137689000Y-118691000D01*
X137689000Y-118945000D01*
X137669000Y-118945000D01*
X137669000Y-120138155D01*
X137898890Y-120259476D01*
X138046099Y-120214825D01*
X138308920Y-120089641D01*
X138542269Y-119915588D01*
X138737178Y-119699355D01*
X138811340Y-119574853D01*
X138934739Y-119759533D01*
X139140467Y-119965261D01*
X139382378Y-120126901D01*
X139651175Y-120238240D01*
X139936528Y-120295000D01*
X140227472Y-120295000D01*
X140512825Y-120238240D01*
X140781622Y-120126901D01*
X141023533Y-119965261D01*
X141229261Y-119759533D01*
X141352000Y-119575841D01*
X141474739Y-119759533D01*
X141680467Y-119965261D01*
X141922378Y-120126901D01*
X142191175Y-120238240D01*
X142476528Y-120295000D01*
X142767472Y-120295000D01*
X143052825Y-120238240D01*
X143321622Y-120126901D01*
X143563533Y-119965261D01*
X143769261Y-119759533D01*
X143892000Y-119575841D01*
X144014739Y-119759533D01*
X144220467Y-119965261D01*
X144462378Y-120126901D01*
X144731175Y-120238240D01*
X145016528Y-120295000D01*
X145307472Y-120295000D01*
X145592825Y-120238240D01*
X145861622Y-120126901D01*
X146103533Y-119965261D01*
X146309261Y-119759533D01*
X146432000Y-119575841D01*
X146554739Y-119759533D01*
X146760467Y-119965261D01*
X147002378Y-120126901D01*
X147271175Y-120238240D01*
X147556528Y-120295000D01*
X147847472Y-120295000D01*
X148012062Y-120262261D01*
X148012755Y-120262954D01*
X148012760Y-120262958D01*
X148115802Y-120366000D01*
X122652944Y-120366000D01*
X123089093Y-120074575D01*
X123538575Y-119625093D01*
X123891730Y-119096558D01*
X124134988Y-118509281D01*
X124259000Y-117885832D01*
X124259000Y-117250168D01*
X124134988Y-116626719D01*
X123891730Y-116039442D01*
X123538575Y-115510907D01*
X123089093Y-115061425D01*
X122560558Y-114708270D01*
X121973281Y-114465012D01*
X121349832Y-114341000D01*
X120714168Y-114341000D01*
X120090719Y-114465012D01*
X119503442Y-114708270D01*
X118974907Y-115061425D01*
X118525425Y-115510907D01*
X118234000Y-115947056D01*
X118234000Y-104952000D01*
X120117967Y-104952000D01*
X120117967Y-107552000D01*
X120130073Y-107674913D01*
X120165925Y-107793103D01*
X120224147Y-107902028D01*
X120302499Y-107997501D01*
X120397972Y-108075853D01*
X120506897Y-108134075D01*
X120625087Y-108169927D01*
X120748000Y-108182033D01*
X123348000Y-108182033D01*
X123470913Y-108169927D01*
X123589103Y-108134075D01*
X123698028Y-108075853D01*
X123793501Y-107997501D01*
X123871853Y-107902028D01*
X123930075Y-107793103D01*
X123965927Y-107674913D01*
X123978033Y-107552000D01*
X123978033Y-104952000D01*
X123965927Y-104829087D01*
X123930075Y-104710897D01*
X123871853Y-104601972D01*
X123793501Y-104506499D01*
X123698028Y-104428147D01*
X123589103Y-104369925D01*
X123470913Y-104334073D01*
X123348000Y-104321967D01*
X120748000Y-104321967D01*
X120625087Y-104334073D01*
X120506897Y-104369925D01*
X120397972Y-104428147D01*
X120302499Y-104506499D01*
X120224147Y-104601972D01*
X120165925Y-104710897D01*
X120130073Y-104829087D01*
X120117967Y-104952000D01*
X118234000Y-104952000D01*
X118234000Y-102601224D01*
X120878381Y-102601224D01*
X121010317Y-102896312D01*
X121351045Y-103067159D01*
X121718557Y-103168250D01*
X122098729Y-103195701D01*
X122476951Y-103148457D01*
X122838690Y-103028333D01*
X123085683Y-102896312D01*
X123217619Y-102601224D01*
X122048000Y-101431605D01*
X120878381Y-102601224D01*
X118234000Y-102601224D01*
X118234000Y-101302729D01*
X120104299Y-101302729D01*
X120151543Y-101680951D01*
X120271667Y-102042690D01*
X120403688Y-102289683D01*
X120698776Y-102421619D01*
X121868395Y-101252000D01*
X122227605Y-101252000D01*
X123397224Y-102421619D01*
X123692312Y-102289683D01*
X123863159Y-101948955D01*
X123964250Y-101581443D01*
X123991701Y-101201271D01*
X123944457Y-100823049D01*
X123824333Y-100461310D01*
X123692312Y-100214317D01*
X123397224Y-100082381D01*
X122227605Y-101252000D01*
X121868395Y-101252000D01*
X120698776Y-100082381D01*
X120403688Y-100214317D01*
X120232841Y-100555045D01*
X120131750Y-100922557D01*
X120104299Y-101302729D01*
X118234000Y-101302729D01*
X118234000Y-99902776D01*
X120878381Y-99902776D01*
X122048000Y-101072395D01*
X123217619Y-99902776D01*
X123085683Y-99607688D01*
X122744955Y-99436841D01*
X122377443Y-99335750D01*
X121997271Y-99308299D01*
X121619049Y-99355543D01*
X121257310Y-99475667D01*
X121010317Y-99607688D01*
X120878381Y-99902776D01*
X118234000Y-99902776D01*
X118234000Y-96188944D01*
X118525425Y-96625093D01*
X118974907Y-97074575D01*
X119503442Y-97427730D01*
X120090719Y-97670988D01*
X120714168Y-97795000D01*
X121349832Y-97795000D01*
X121973281Y-97670988D01*
X122560558Y-97427730D01*
X123089093Y-97074575D01*
X123538575Y-96625093D01*
X123891730Y-96096558D01*
X124134988Y-95509281D01*
X124259000Y-94885832D01*
X124259000Y-94250168D01*
X124134988Y-93626719D01*
X123891730Y-93039442D01*
X123538575Y-92510907D01*
X123089093Y-92061425D01*
X122652944Y-91770000D01*
X177411056Y-91770000D01*
X176974907Y-92061425D01*
G36*
X181830001Y-115947058D02*
G01*
X181538575Y-115510907D01*
X181089093Y-115061425D01*
X180560558Y-114708270D01*
X179973281Y-114465012D01*
X179349832Y-114341000D01*
X178714168Y-114341000D01*
X178090719Y-114465012D01*
X177503442Y-114708270D01*
X176974907Y-115061425D01*
X176525425Y-115510907D01*
X176172270Y-116039442D01*
X175929012Y-116626719D01*
X175805000Y-117250168D01*
X175805000Y-117885832D01*
X175929012Y-118509281D01*
X176172270Y-119096558D01*
X176525425Y-119625093D01*
X176974907Y-120074575D01*
X177411056Y-120366000D01*
X158852198Y-120366000D01*
X160560166Y-118658033D01*
X161281001Y-118658033D01*
X161452687Y-118641123D01*
X161617775Y-118591045D01*
X161769921Y-118509721D01*
X161903278Y-118400278D01*
X162012721Y-118266921D01*
X162094045Y-118114775D01*
X162144123Y-117949687D01*
X162161033Y-117778001D01*
X162161033Y-117077999D01*
X164992967Y-117077999D01*
X164992967Y-117778001D01*
X165009877Y-117949687D01*
X165059955Y-118114775D01*
X165141279Y-118266921D01*
X165250722Y-118400278D01*
X165384079Y-118509721D01*
X165536225Y-118591045D01*
X165701313Y-118641123D01*
X165872999Y-118658033D01*
X167123001Y-118658033D01*
X167294687Y-118641123D01*
X167459775Y-118591045D01*
X167611921Y-118509721D01*
X167745278Y-118400278D01*
X167854721Y-118266921D01*
X167936045Y-118114775D01*
X167962367Y-118028000D01*
X170826928Y-118028000D01*
X170839188Y-118152482D01*
X170875498Y-118272180D01*
X170934463Y-118382494D01*
X171013815Y-118479185D01*
X171110506Y-118558537D01*
X171220820Y-118617502D01*
X171340518Y-118653812D01*
X171465000Y-118666072D01*
X172054250Y-118663000D01*
X172213000Y-118504250D01*
X172213000Y-117555000D01*
X172467000Y-117555000D01*
X172467000Y-118504250D01*
X172625750Y-118663000D01*
X173215000Y-118666072D01*
X173339482Y-118653812D01*
X173459180Y-118617502D01*
X173569494Y-118558537D01*
X173666185Y-118479185D01*
X173745537Y-118382494D01*
X173804502Y-118272180D01*
X173840812Y-118152482D01*
X173853072Y-118028000D01*
X173850000Y-117713750D01*
X173691250Y-117555000D01*
X172467000Y-117555000D01*
X172213000Y-117555000D01*
X170988750Y-117555000D01*
X170830000Y-117713750D01*
X170826928Y-118028000D01*
X167962367Y-118028000D01*
X167986123Y-117949687D01*
X168003033Y-117778001D01*
X168003033Y-117077999D01*
X167986123Y-116906313D01*
X167936045Y-116741225D01*
X167854721Y-116589079D01*
X167745278Y-116455722D01*
X167611921Y-116346279D01*
X167605716Y-116342962D01*
X167736078Y-116211474D01*
X167870421Y-116008533D01*
X167962591Y-115783282D01*
X167966462Y-115745609D01*
X167841731Y-115555000D01*
X166625000Y-115555000D01*
X166625000Y-115575000D01*
X166371000Y-115575000D01*
X166371000Y-115555000D01*
X165154269Y-115555000D01*
X165029538Y-115745609D01*
X165033409Y-115783282D01*
X165125579Y-116008533D01*
X165259922Y-116211474D01*
X165390284Y-116342962D01*
X165384079Y-116346279D01*
X165250722Y-116455722D01*
X165141279Y-116589079D01*
X165059955Y-116741225D01*
X165009877Y-116906313D01*
X164992967Y-117077999D01*
X162161033Y-117077999D01*
X162144123Y-116906313D01*
X162094045Y-116741225D01*
X162012721Y-116589079D01*
X161903278Y-116455722D01*
X161769921Y-116346279D01*
X161763716Y-116342962D01*
X161894078Y-116211474D01*
X162028421Y-116008533D01*
X162120591Y-115783282D01*
X162124462Y-115745609D01*
X161999731Y-115555000D01*
X160783000Y-115555000D01*
X160783000Y-115575000D01*
X160529000Y-115575000D01*
X160529000Y-115555000D01*
X159312269Y-115555000D01*
X159187538Y-115745609D01*
X159191409Y-115783282D01*
X159283579Y-116008533D01*
X159417922Y-116211474D01*
X159548284Y-116342962D01*
X159542079Y-116346279D01*
X159408722Y-116455722D01*
X159299279Y-116589079D01*
X159217955Y-116741225D01*
X159167877Y-116906313D01*
X159150967Y-117077999D01*
X159150967Y-117778001D01*
X159152835Y-117796966D01*
X157402802Y-119547000D01*
X153761463Y-119547000D01*
X153871723Y-119488065D01*
X153993843Y-119387843D01*
X154018960Y-119357238D01*
X154718166Y-118658033D01*
X155439001Y-118658033D01*
X155610687Y-118641123D01*
X155775775Y-118591045D01*
X155927921Y-118509721D01*
X156061278Y-118400278D01*
X156170721Y-118266921D01*
X156252045Y-118114775D01*
X156302123Y-117949687D01*
X156319033Y-117778001D01*
X156319033Y-117077999D01*
X156302123Y-116906313D01*
X156252045Y-116741225D01*
X156170721Y-116589079D01*
X156061278Y-116455722D01*
X155927921Y-116346279D01*
X155921716Y-116342962D01*
X156052078Y-116211474D01*
X156186421Y-116008533D01*
X156278591Y-115783282D01*
X156282462Y-115745609D01*
X156157731Y-115555000D01*
X154941000Y-115555000D01*
X154941000Y-115575000D01*
X154687000Y-115575000D01*
X154687000Y-115555000D01*
X153470269Y-115555000D01*
X153345538Y-115745609D01*
X153349409Y-115783282D01*
X153441579Y-116008533D01*
X153575922Y-116211474D01*
X153706284Y-116342962D01*
X153700079Y-116346279D01*
X153566722Y-116455722D01*
X153457279Y-116589079D01*
X153375955Y-116741225D01*
X153325877Y-116906313D01*
X153308967Y-117077999D01*
X153308967Y-117778001D01*
X153310835Y-117796967D01*
X153091802Y-118016000D01*
X151482494Y-118016000D01*
X151389261Y-117876467D01*
X151183533Y-117670739D01*
X151044000Y-117577506D01*
X151044000Y-116997444D01*
X151183698Y-116922774D01*
X151316108Y-116814108D01*
X151424774Y-116681698D01*
X151505520Y-116530632D01*
X151555244Y-116366717D01*
X151572033Y-116196250D01*
X151572033Y-115708750D01*
X151555244Y-115538283D01*
X151505520Y-115374368D01*
X151424774Y-115223302D01*
X151316108Y-115090892D01*
X151223633Y-115015000D01*
X151236428Y-115004500D01*
X153377323Y-115004500D01*
X153349409Y-115072718D01*
X153345538Y-115110391D01*
X153470269Y-115301000D01*
X154687000Y-115301000D01*
X154687000Y-115281000D01*
X154941000Y-115281000D01*
X154941000Y-115301000D01*
X156157731Y-115301000D01*
X156282462Y-115110391D01*
X156278591Y-115072718D01*
X156250677Y-115004500D01*
X159219323Y-115004500D01*
X159191409Y-115072718D01*
X159187538Y-115110391D01*
X159312269Y-115301000D01*
X160529000Y-115301000D01*
X160529000Y-115281000D01*
X160783000Y-115281000D01*
X160783000Y-115301000D01*
X161999731Y-115301000D01*
X162124462Y-115110391D01*
X162120591Y-115072718D01*
X162092677Y-115004500D01*
X165061323Y-115004500D01*
X165033409Y-115072718D01*
X165029538Y-115110391D01*
X165154269Y-115301000D01*
X166371000Y-115301000D01*
X166371000Y-115281000D01*
X166625000Y-115281000D01*
X166625000Y-115301000D01*
X167841731Y-115301000D01*
X167966462Y-115110391D01*
X167962591Y-115072718D01*
X167934677Y-115004500D01*
X169240525Y-115004500D01*
X170287316Y-116051292D01*
X170316341Y-116086659D01*
X170351708Y-116115684D01*
X170351711Y-116115687D01*
X170457494Y-116202501D01*
X170543573Y-116248511D01*
X170618536Y-116288580D01*
X170793276Y-116341587D01*
X170929462Y-116355000D01*
X170929474Y-116355000D01*
X170974999Y-116359484D01*
X171020524Y-116355000D01*
X171040397Y-116355000D01*
X171013815Y-116376815D01*
X170934463Y-116473506D01*
X170875498Y-116583820D01*
X170839188Y-116703518D01*
X170826928Y-116828000D01*
X170830000Y-117142250D01*
X170988750Y-117301000D01*
X172213000Y-117301000D01*
X172213000Y-117281000D01*
X172467000Y-117281000D01*
X172467000Y-117301000D01*
X173691250Y-117301000D01*
X173850000Y-117142250D01*
X173853072Y-116828000D01*
X173840812Y-116703518D01*
X173804502Y-116583820D01*
X173745537Y-116473506D01*
X173666185Y-116376815D01*
X173569494Y-116297463D01*
X173513369Y-116267463D01*
X173640149Y-116112983D01*
X173754084Y-115899824D01*
X173824245Y-115668534D01*
X173847936Y-115428000D01*
X173824245Y-115187466D01*
X173754084Y-114956176D01*
X173640149Y-114743017D01*
X173486817Y-114556183D01*
X173330627Y-114428000D01*
X173486817Y-114299817D01*
X173640149Y-114112983D01*
X173754084Y-113899824D01*
X173824245Y-113668534D01*
X173847936Y-113428000D01*
X173824245Y-113187466D01*
X173754084Y-112956176D01*
X173640149Y-112743017D01*
X173486817Y-112556183D01*
X173299983Y-112402851D01*
X173086824Y-112288916D01*
X172855534Y-112218755D01*
X172675268Y-112201000D01*
X172004732Y-112201000D01*
X171824466Y-112218755D01*
X171593176Y-112288916D01*
X171380017Y-112402851D01*
X171193183Y-112556183D01*
X171039851Y-112743017D01*
X170925916Y-112956176D01*
X170855755Y-113187466D01*
X170832064Y-113428000D01*
X170855755Y-113668534D01*
X170925916Y-113899824D01*
X171039851Y-114112983D01*
X171193183Y-114299817D01*
X171349373Y-114428000D01*
X171314553Y-114456577D01*
X170312188Y-113454213D01*
X170283159Y-113418841D01*
X170142005Y-113302999D01*
X169980964Y-113216920D01*
X169806224Y-113163913D01*
X169670038Y-113150500D01*
X169670027Y-113150500D01*
X169624500Y-113146016D01*
X169578973Y-113150500D01*
X151236428Y-113150500D01*
X151183698Y-113107226D01*
X151032632Y-113026480D01*
X150868717Y-112976756D01*
X150698250Y-112959967D01*
X149785750Y-112959967D01*
X149615283Y-112976756D01*
X149451368Y-113026480D01*
X149300302Y-113107226D01*
X149247572Y-113150500D01*
X148696428Y-113150500D01*
X148643698Y-113107226D01*
X148492632Y-113026480D01*
X148328717Y-112976756D01*
X148158250Y-112959967D01*
X147245750Y-112959967D01*
X147075283Y-112976756D01*
X146911368Y-113026480D01*
X146760302Y-113107226D01*
X146707572Y-113150500D01*
X146156428Y-113150500D01*
X146103698Y-113107226D01*
X145952632Y-113026480D01*
X145788717Y-112976756D01*
X145618250Y-112959967D01*
X144705750Y-112959967D01*
X144535283Y-112976756D01*
X144371368Y-113026480D01*
X144220302Y-113107226D01*
X144167572Y-113150500D01*
X130718027Y-113150500D01*
X130672500Y-113146016D01*
X130626973Y-113150500D01*
X130626962Y-113150500D01*
X130490776Y-113163913D01*
X130319425Y-113215892D01*
X130316036Y-113216920D01*
X130154994Y-113302998D01*
X130049212Y-113389812D01*
X130049208Y-113389816D01*
X130013841Y-113418841D01*
X129984816Y-113454208D01*
X127382000Y-116057025D01*
X126829000Y-115504025D01*
X126829000Y-111836000D01*
X177176928Y-111836000D01*
X177189188Y-111960482D01*
X177225498Y-112080180D01*
X177284463Y-112190494D01*
X177363815Y-112287185D01*
X177460506Y-112366537D01*
X177570820Y-112425502D01*
X177690518Y-112461812D01*
X177815000Y-112474072D01*
X178404250Y-112471000D01*
X178563000Y-112312250D01*
X178563000Y-111363000D01*
X178817000Y-111363000D01*
X178817000Y-112312250D01*
X178975750Y-112471000D01*
X179565000Y-112474072D01*
X179689482Y-112461812D01*
X179809180Y-112425502D01*
X179919494Y-112366537D01*
X180016185Y-112287185D01*
X180095537Y-112190494D01*
X180154502Y-112080180D01*
X180190812Y-111960482D01*
X180203072Y-111836000D01*
X180200000Y-111521750D01*
X180041250Y-111363000D01*
X178817000Y-111363000D01*
X178563000Y-111363000D01*
X177338750Y-111363000D01*
X177180000Y-111521750D01*
X177176928Y-111836000D01*
X126829000Y-111836000D01*
X126829000Y-99525975D01*
X134244316Y-106941292D01*
X134273341Y-106976659D01*
X134308708Y-107005684D01*
X134308711Y-107005687D01*
X134414494Y-107092501D01*
X134481840Y-107128498D01*
X134575536Y-107178580D01*
X134750276Y-107231587D01*
X134886462Y-107245000D01*
X134886474Y-107245000D01*
X134931999Y-107249484D01*
X134977524Y-107245000D01*
X143866370Y-107245000D01*
X143874226Y-107259698D01*
X143982892Y-107392108D01*
X144115302Y-107500774D01*
X144266368Y-107581520D01*
X144430283Y-107631244D01*
X144600750Y-107648033D01*
X145088250Y-107648033D01*
X145258717Y-107631244D01*
X145422632Y-107581520D01*
X145573698Y-107500774D01*
X145706108Y-107392108D01*
X145782000Y-107299633D01*
X145857892Y-107392108D01*
X145990302Y-107500774D01*
X146141368Y-107581520D01*
X146305283Y-107631244D01*
X146475750Y-107648033D01*
X146963250Y-107648033D01*
X147133717Y-107631244D01*
X147297632Y-107581520D01*
X147448698Y-107500774D01*
X147581108Y-107392108D01*
X147689774Y-107259698D01*
X147764444Y-107120000D01*
X149116610Y-107120000D01*
X149155996Y-107123879D01*
X149191965Y-107120336D01*
X149153302Y-107159000D01*
X148912189Y-107159000D01*
X148670305Y-107207114D01*
X148442456Y-107301492D01*
X148237396Y-107438508D01*
X148063008Y-107612896D01*
X147925992Y-107817956D01*
X147831614Y-108045805D01*
X147783500Y-108287689D01*
X147783500Y-108534311D01*
X147831614Y-108776195D01*
X147925992Y-109004044D01*
X148063008Y-109209104D01*
X148179404Y-109325500D01*
X137115592Y-109325500D01*
X137070104Y-109280012D01*
X136865044Y-109142996D01*
X136637195Y-109048618D01*
X136395311Y-109000504D01*
X136148689Y-109000504D01*
X135906805Y-109048618D01*
X135678956Y-109142996D01*
X135473896Y-109280012D01*
X135299508Y-109454400D01*
X135162492Y-109659460D01*
X135068114Y-109887309D01*
X135020000Y-110129193D01*
X135020000Y-110375815D01*
X135068114Y-110617699D01*
X135162492Y-110845548D01*
X135299508Y-111050608D01*
X135473896Y-111224996D01*
X135678956Y-111362012D01*
X135906805Y-111456390D01*
X136148689Y-111504504D01*
X136395311Y-111504504D01*
X136637195Y-111456390D01*
X136865044Y-111362012D01*
X137070104Y-111224996D01*
X137115600Y-111179500D01*
X151176404Y-111179500D01*
X151221896Y-111224992D01*
X151426956Y-111362008D01*
X151654805Y-111456386D01*
X151896689Y-111504500D01*
X152143311Y-111504500D01*
X152385195Y-111456386D01*
X152613044Y-111362008D01*
X152818104Y-111224992D01*
X152992492Y-111050604D01*
X153129508Y-110845544D01*
X153223886Y-110617695D01*
X153272000Y-110375811D01*
X153272000Y-110129189D01*
X153223886Y-109887305D01*
X153129508Y-109659456D01*
X152992492Y-109454396D01*
X152914245Y-109376149D01*
X152964180Y-109361002D01*
X153074494Y-109302037D01*
X153171185Y-109222685D01*
X153250537Y-109125994D01*
X153309502Y-109015680D01*
X153345812Y-108895982D01*
X153358072Y-108771500D01*
X153355682Y-108614500D01*
X157793928Y-108614500D01*
X157806188Y-108738982D01*
X157842498Y-108858680D01*
X157901463Y-108968994D01*
X157980815Y-109065685D01*
X158077506Y-109145037D01*
X158187820Y-109204002D01*
X158307518Y-109240312D01*
X158432000Y-109252572D01*
X158846250Y-109249500D01*
X159005000Y-109090750D01*
X159005000Y-108254000D01*
X157955750Y-108254000D01*
X157797000Y-108412750D01*
X157793928Y-108614500D01*
X153355682Y-108614500D01*
X153355000Y-108569750D01*
X153196250Y-108411000D01*
X152147000Y-108411000D01*
X152147000Y-108431000D01*
X151893000Y-108431000D01*
X151893000Y-108411000D01*
X150843750Y-108411000D01*
X150685000Y-108569750D01*
X150681928Y-108771500D01*
X150694188Y-108895982D01*
X150730498Y-109015680D01*
X150789463Y-109125994D01*
X150868815Y-109222685D01*
X150965506Y-109302037D01*
X151009401Y-109325500D01*
X149891596Y-109325500D01*
X150007992Y-109209104D01*
X150145008Y-109004044D01*
X150239386Y-108776195D01*
X150287500Y-108534311D01*
X150287500Y-108293198D01*
X150683462Y-107897237D01*
X150685000Y-107998250D01*
X150843750Y-108157000D01*
X151893000Y-108157000D01*
X151893000Y-108137000D01*
X152147000Y-108137000D01*
X152147000Y-108157000D01*
X153196250Y-108157000D01*
X153355000Y-107998250D01*
X153356429Y-107904393D01*
X153440820Y-107949502D01*
X153560518Y-107985812D01*
X153685000Y-107998072D01*
X154274250Y-107995000D01*
X154433000Y-107836250D01*
X154433000Y-106887000D01*
X154687000Y-106887000D01*
X154687000Y-107836250D01*
X154845750Y-107995000D01*
X155435000Y-107998072D01*
X155559482Y-107985812D01*
X155679180Y-107949502D01*
X155789494Y-107890537D01*
X155886185Y-107811185D01*
X155965537Y-107714494D01*
X156024502Y-107604180D01*
X156060812Y-107484482D01*
X156073072Y-107360000D01*
X156070000Y-107045750D01*
X155911250Y-106887000D01*
X154687000Y-106887000D01*
X154433000Y-106887000D01*
X154413000Y-106887000D01*
X154413000Y-106633000D01*
X154433000Y-106633000D01*
X154433000Y-106613000D01*
X154687000Y-106613000D01*
X154687000Y-106633000D01*
X155911250Y-106633000D01*
X156070000Y-106474250D01*
X156073072Y-106160000D01*
X156060812Y-106035518D01*
X156024502Y-105915820D01*
X155965537Y-105805506D01*
X155886185Y-105708815D01*
X155789494Y-105629463D01*
X155733369Y-105599463D01*
X155860149Y-105444983D01*
X155974084Y-105231824D01*
X156044245Y-105000534D01*
X156067936Y-104760000D01*
X156044245Y-104519466D01*
X155974084Y-104288176D01*
X155860149Y-104075017D01*
X155706817Y-103888183D01*
X155550627Y-103760000D01*
X155706817Y-103631817D01*
X155860149Y-103444983D01*
X155974084Y-103231824D01*
X156044245Y-103000534D01*
X156067936Y-102760000D01*
X156044245Y-102519466D01*
X155974084Y-102288176D01*
X155860149Y-102075017D01*
X155706817Y-101888183D01*
X155550627Y-101760000D01*
X155706817Y-101631817D01*
X155860149Y-101444983D01*
X155974084Y-101231824D01*
X156044245Y-101000534D01*
X156067936Y-100760000D01*
X156044245Y-100519466D01*
X155974084Y-100288176D01*
X155924815Y-100196000D01*
X158330614Y-100196000D01*
X158370000Y-100199879D01*
X158409386Y-100196000D01*
X158409394Y-100196000D01*
X158527219Y-100184395D01*
X158678397Y-100138536D01*
X158817723Y-100064065D01*
X158939843Y-99963843D01*
X158964960Y-99933238D01*
X159346000Y-99552198D01*
X159346001Y-101471604D01*
X159342121Y-101511000D01*
X159348766Y-101578467D01*
X158675750Y-101578467D01*
X158505283Y-101595256D01*
X158341368Y-101644980D01*
X158190302Y-101725726D01*
X158057892Y-101834392D01*
X157949226Y-101966802D01*
X157868480Y-102117868D01*
X157818756Y-102281783D01*
X157801967Y-102452250D01*
X157801967Y-102939750D01*
X157818756Y-103110217D01*
X157868480Y-103274132D01*
X157949226Y-103425198D01*
X158057892Y-103557608D01*
X158150367Y-103633500D01*
X158057892Y-103709392D01*
X157949226Y-103841802D01*
X157868480Y-103992868D01*
X157818756Y-104156783D01*
X157801967Y-104327250D01*
X157801967Y-104814750D01*
X157818756Y-104985217D01*
X157868480Y-105149132D01*
X157949226Y-105300198D01*
X158040569Y-105411500D01*
X157949226Y-105522802D01*
X157868480Y-105673868D01*
X157818756Y-105837783D01*
X157801967Y-106008250D01*
X157801967Y-106495750D01*
X157818756Y-106666217D01*
X157868480Y-106830132D01*
X157949226Y-106981198D01*
X158057892Y-107113608D01*
X158064869Y-107119334D01*
X157980815Y-107188315D01*
X157901463Y-107285006D01*
X157842498Y-107395320D01*
X157806188Y-107515018D01*
X157793928Y-107639500D01*
X157797000Y-107841250D01*
X157955750Y-108000000D01*
X159005000Y-108000000D01*
X159005000Y-107980000D01*
X159259000Y-107980000D01*
X159259000Y-108000000D01*
X159279000Y-108000000D01*
X159279000Y-108254000D01*
X159259000Y-108254000D01*
X159259000Y-109090750D01*
X159417750Y-109249500D01*
X159832000Y-109252572D01*
X159956482Y-109240312D01*
X160076180Y-109204002D01*
X160186494Y-109145037D01*
X160283185Y-109065685D01*
X160362537Y-108968994D01*
X160421502Y-108858680D01*
X160457812Y-108738982D01*
X160460230Y-108714429D01*
X160569044Y-108823243D01*
X160594157Y-108853843D01*
X160716277Y-108954065D01*
X160803151Y-109000500D01*
X160855603Y-109028536D01*
X161006780Y-109074395D01*
X161020215Y-109075718D01*
X161124606Y-109086000D01*
X161124614Y-109086000D01*
X161164000Y-109089879D01*
X161203386Y-109086000D01*
X162902614Y-109086000D01*
X162942000Y-109089879D01*
X162981386Y-109086000D01*
X162981394Y-109086000D01*
X163099219Y-109074395D01*
X163250397Y-109028536D01*
X163389723Y-108954065D01*
X163511843Y-108853843D01*
X163536960Y-108823238D01*
X163667198Y-108693000D01*
X164905928Y-108693000D01*
X164918188Y-108817482D01*
X164954498Y-108937180D01*
X165013463Y-109047494D01*
X165092815Y-109144185D01*
X165189506Y-109223537D01*
X165299820Y-109282502D01*
X165419518Y-109318812D01*
X165544000Y-109331072D01*
X165958250Y-109328000D01*
X166117000Y-109169250D01*
X166117000Y-108332500D01*
X166371000Y-108332500D01*
X166371000Y-109169250D01*
X166529750Y-109328000D01*
X166944000Y-109331072D01*
X167068482Y-109318812D01*
X167188180Y-109282502D01*
X167298494Y-109223537D01*
X167395185Y-109144185D01*
X167474537Y-109047494D01*
X167533502Y-108937180D01*
X167569812Y-108817482D01*
X167582072Y-108693000D01*
X167579000Y-108491250D01*
X167420250Y-108332500D01*
X166371000Y-108332500D01*
X166117000Y-108332500D01*
X165067750Y-108332500D01*
X164909000Y-108491250D01*
X164905928Y-108693000D01*
X163667198Y-108693000D01*
X163989243Y-108370956D01*
X164019843Y-108345843D01*
X164120065Y-108223723D01*
X164194536Y-108084397D01*
X164240395Y-107933219D01*
X164252000Y-107815394D01*
X164252000Y-107815387D01*
X164255879Y-107776001D01*
X164252000Y-107736615D01*
X164252000Y-103791689D01*
X164277157Y-103822343D01*
X164307762Y-103847460D01*
X164913967Y-104453666D01*
X164913967Y-104893250D01*
X164930756Y-105063717D01*
X164980480Y-105227632D01*
X165061226Y-105378698D01*
X165152569Y-105490000D01*
X165061226Y-105601302D01*
X164980480Y-105752368D01*
X164930756Y-105916283D01*
X164913967Y-106086750D01*
X164913967Y-106574250D01*
X164930756Y-106744717D01*
X164980480Y-106908632D01*
X165061226Y-107059698D01*
X165169892Y-107192108D01*
X165176869Y-107197834D01*
X165092815Y-107266815D01*
X165013463Y-107363506D01*
X164954498Y-107473820D01*
X164918188Y-107593518D01*
X164905928Y-107718000D01*
X164909000Y-107919750D01*
X165067750Y-108078500D01*
X166117000Y-108078500D01*
X166117000Y-108058500D01*
X166371000Y-108058500D01*
X166371000Y-108078500D01*
X167420250Y-108078500D01*
X167579000Y-107919750D01*
X167579243Y-107903760D01*
X167664820Y-107949502D01*
X167784518Y-107985812D01*
X167909000Y-107998072D01*
X168498250Y-107995000D01*
X168657000Y-107836250D01*
X168657000Y-106887000D01*
X168911000Y-106887000D01*
X168911000Y-107836250D01*
X169069750Y-107995000D01*
X169659000Y-107998072D01*
X169783482Y-107985812D01*
X169903180Y-107949502D01*
X170013494Y-107890537D01*
X170110185Y-107811185D01*
X170189537Y-107714494D01*
X170248502Y-107604180D01*
X170284812Y-107484482D01*
X170297072Y-107360000D01*
X170294000Y-107045750D01*
X170135250Y-106887000D01*
X168911000Y-106887000D01*
X168657000Y-106887000D01*
X168637000Y-106887000D01*
X168637000Y-106633000D01*
X168657000Y-106633000D01*
X168657000Y-106613000D01*
X168911000Y-106613000D01*
X168911000Y-106633000D01*
X170135250Y-106633000D01*
X170294000Y-106474250D01*
X170297072Y-106160000D01*
X170284812Y-106035518D01*
X170248502Y-105915820D01*
X170189537Y-105805506D01*
X170110185Y-105708815D01*
X170013494Y-105629463D01*
X169957369Y-105599463D01*
X170084149Y-105444983D01*
X170198084Y-105231824D01*
X170268245Y-105000534D01*
X170291936Y-104760000D01*
X170268245Y-104519466D01*
X170198084Y-104288176D01*
X170084149Y-104075017D01*
X169930817Y-103888183D01*
X169774627Y-103760000D01*
X169930817Y-103631817D01*
X170084149Y-103444983D01*
X170198084Y-103231824D01*
X170268245Y-103000534D01*
X170291936Y-102760000D01*
X170268245Y-102519466D01*
X170198084Y-102288176D01*
X170084149Y-102075017D01*
X169930817Y-101888183D01*
X169774627Y-101760000D01*
X169829891Y-101714645D01*
X169891936Y-101830723D01*
X169953391Y-101905605D01*
X169992158Y-101952843D01*
X170022758Y-101977956D01*
X177190917Y-109146116D01*
X177182064Y-109236000D01*
X177205755Y-109476534D01*
X177275916Y-109707824D01*
X177389851Y-109920983D01*
X177516631Y-110075463D01*
X177460506Y-110105463D01*
X177363815Y-110184815D01*
X177284463Y-110281506D01*
X177225498Y-110391820D01*
X177189188Y-110511518D01*
X177176928Y-110636000D01*
X177180000Y-110950250D01*
X177338750Y-111109000D01*
X178563000Y-111109000D01*
X178563000Y-111089000D01*
X178817000Y-111089000D01*
X178817000Y-111109000D01*
X180041250Y-111109000D01*
X180200000Y-110950250D01*
X180203072Y-110636000D01*
X180190812Y-110511518D01*
X180154502Y-110391820D01*
X180095537Y-110281506D01*
X180016185Y-110184815D01*
X179919494Y-110105463D01*
X179863369Y-110075463D01*
X179990149Y-109920983D01*
X180104084Y-109707824D01*
X180174245Y-109476534D01*
X180197936Y-109236000D01*
X180174245Y-108995466D01*
X180104084Y-108764176D01*
X179990149Y-108551017D01*
X179836817Y-108364183D01*
X179680627Y-108236000D01*
X179836817Y-108107817D01*
X179990149Y-107920983D01*
X180104084Y-107707824D01*
X180174245Y-107476534D01*
X180197936Y-107236000D01*
X180174245Y-106995466D01*
X180104084Y-106764176D01*
X179990149Y-106551017D01*
X179836817Y-106364183D01*
X179680627Y-106236000D01*
X179836817Y-106107817D01*
X179990149Y-105920983D01*
X180104084Y-105707824D01*
X180174245Y-105476534D01*
X180197936Y-105236000D01*
X180174245Y-104995466D01*
X180104084Y-104764176D01*
X179990149Y-104551017D01*
X179836817Y-104364183D01*
X179680627Y-104236000D01*
X179836817Y-104107817D01*
X179990149Y-103920983D01*
X180104084Y-103707824D01*
X180174245Y-103476534D01*
X180197936Y-103236000D01*
X180174245Y-102995466D01*
X180104084Y-102764176D01*
X179990149Y-102551017D01*
X179836817Y-102364183D01*
X179680627Y-102236000D01*
X179836817Y-102107817D01*
X179990149Y-101920983D01*
X180104084Y-101707824D01*
X180174245Y-101476534D01*
X180197936Y-101236000D01*
X180174245Y-100995466D01*
X180104084Y-100764176D01*
X179990149Y-100551017D01*
X179836817Y-100364183D01*
X179649983Y-100210851D01*
X179436824Y-100096916D01*
X179205534Y-100026755D01*
X179025268Y-100009000D01*
X178354732Y-100009000D01*
X178174466Y-100026755D01*
X177943176Y-100096916D01*
X177730017Y-100210851D01*
X177543183Y-100364183D01*
X177389851Y-100551017D01*
X177275916Y-100764176D01*
X177229707Y-100916508D01*
X176444000Y-100130802D01*
X176444000Y-96503232D01*
X176525425Y-96625093D01*
X176974907Y-97074575D01*
X177503442Y-97427730D01*
X178090719Y-97670988D01*
X178714168Y-97795000D01*
X179349832Y-97795000D01*
X179973281Y-97670988D01*
X180560558Y-97427730D01*
X181089093Y-97074575D01*
X181538575Y-96625093D01*
X181830000Y-96188944D01*
X181830001Y-115947058D01*
G37*
X181830001Y-115947058D02*
X181538575Y-115510907D01*
X181089093Y-115061425D01*
X180560558Y-114708270D01*
X179973281Y-114465012D01*
X179349832Y-114341000D01*
X178714168Y-114341000D01*
X178090719Y-114465012D01*
X177503442Y-114708270D01*
X176974907Y-115061425D01*
X176525425Y-115510907D01*
X176172270Y-116039442D01*
X175929012Y-116626719D01*
X175805000Y-117250168D01*
X175805000Y-117885832D01*
X175929012Y-118509281D01*
X176172270Y-119096558D01*
X176525425Y-119625093D01*
X176974907Y-120074575D01*
X177411056Y-120366000D01*
X158852198Y-120366000D01*
X160560166Y-118658033D01*
X161281001Y-118658033D01*
X161452687Y-118641123D01*
X161617775Y-118591045D01*
X161769921Y-118509721D01*
X161903278Y-118400278D01*
X162012721Y-118266921D01*
X162094045Y-118114775D01*
X162144123Y-117949687D01*
X162161033Y-117778001D01*
X162161033Y-117077999D01*
X164992967Y-117077999D01*
X164992967Y-117778001D01*
X165009877Y-117949687D01*
X165059955Y-118114775D01*
X165141279Y-118266921D01*
X165250722Y-118400278D01*
X165384079Y-118509721D01*
X165536225Y-118591045D01*
X165701313Y-118641123D01*
X165872999Y-118658033D01*
X167123001Y-118658033D01*
X167294687Y-118641123D01*
X167459775Y-118591045D01*
X167611921Y-118509721D01*
X167745278Y-118400278D01*
X167854721Y-118266921D01*
X167936045Y-118114775D01*
X167962367Y-118028000D01*
X170826928Y-118028000D01*
X170839188Y-118152482D01*
X170875498Y-118272180D01*
X170934463Y-118382494D01*
X171013815Y-118479185D01*
X171110506Y-118558537D01*
X171220820Y-118617502D01*
X171340518Y-118653812D01*
X171465000Y-118666072D01*
X172054250Y-118663000D01*
X172213000Y-118504250D01*
X172213000Y-117555000D01*
X172467000Y-117555000D01*
X172467000Y-118504250D01*
X172625750Y-118663000D01*
X173215000Y-118666072D01*
X173339482Y-118653812D01*
X173459180Y-118617502D01*
X173569494Y-118558537D01*
X173666185Y-118479185D01*
X173745537Y-118382494D01*
X173804502Y-118272180D01*
X173840812Y-118152482D01*
X173853072Y-118028000D01*
X173850000Y-117713750D01*
X173691250Y-117555000D01*
X172467000Y-117555000D01*
X172213000Y-117555000D01*
X170988750Y-117555000D01*
X170830000Y-117713750D01*
X170826928Y-118028000D01*
X167962367Y-118028000D01*
X167986123Y-117949687D01*
X168003033Y-117778001D01*
X168003033Y-117077999D01*
X167986123Y-116906313D01*
X167936045Y-116741225D01*
X167854721Y-116589079D01*
X167745278Y-116455722D01*
X167611921Y-116346279D01*
X167605716Y-116342962D01*
X167736078Y-116211474D01*
X167870421Y-116008533D01*
X167962591Y-115783282D01*
X167966462Y-115745609D01*
X167841731Y-115555000D01*
X166625000Y-115555000D01*
X166625000Y-115575000D01*
X166371000Y-115575000D01*
X166371000Y-115555000D01*
X165154269Y-115555000D01*
X165029538Y-115745609D01*
X165033409Y-115783282D01*
X165125579Y-116008533D01*
X165259922Y-116211474D01*
X165390284Y-116342962D01*
X165384079Y-116346279D01*
X165250722Y-116455722D01*
X165141279Y-116589079D01*
X165059955Y-116741225D01*
X165009877Y-116906313D01*
X164992967Y-117077999D01*
X162161033Y-117077999D01*
X162144123Y-116906313D01*
X162094045Y-116741225D01*
X162012721Y-116589079D01*
X161903278Y-116455722D01*
X161769921Y-116346279D01*
X161763716Y-116342962D01*
X161894078Y-116211474D01*
X162028421Y-116008533D01*
X162120591Y-115783282D01*
X162124462Y-115745609D01*
X161999731Y-115555000D01*
X160783000Y-115555000D01*
X160783000Y-115575000D01*
X160529000Y-115575000D01*
X160529000Y-115555000D01*
X159312269Y-115555000D01*
X159187538Y-115745609D01*
X159191409Y-115783282D01*
X159283579Y-116008533D01*
X159417922Y-116211474D01*
X159548284Y-116342962D01*
X159542079Y-116346279D01*
X159408722Y-116455722D01*
X159299279Y-116589079D01*
X159217955Y-116741225D01*
X159167877Y-116906313D01*
X159150967Y-117077999D01*
X159150967Y-117778001D01*
X159152835Y-117796966D01*
X157402802Y-119547000D01*
X153761463Y-119547000D01*
X153871723Y-119488065D01*
X153993843Y-119387843D01*
X154018960Y-119357238D01*
X154718166Y-118658033D01*
X155439001Y-118658033D01*
X155610687Y-118641123D01*
X155775775Y-118591045D01*
X155927921Y-118509721D01*
X156061278Y-118400278D01*
X156170721Y-118266921D01*
X156252045Y-118114775D01*
X156302123Y-117949687D01*
X156319033Y-117778001D01*
X156319033Y-117077999D01*
X156302123Y-116906313D01*
X156252045Y-116741225D01*
X156170721Y-116589079D01*
X156061278Y-116455722D01*
X155927921Y-116346279D01*
X155921716Y-116342962D01*
X156052078Y-116211474D01*
X156186421Y-116008533D01*
X156278591Y-115783282D01*
X156282462Y-115745609D01*
X156157731Y-115555000D01*
X154941000Y-115555000D01*
X154941000Y-115575000D01*
X154687000Y-115575000D01*
X154687000Y-115555000D01*
X153470269Y-115555000D01*
X153345538Y-115745609D01*
X153349409Y-115783282D01*
X153441579Y-116008533D01*
X153575922Y-116211474D01*
X153706284Y-116342962D01*
X153700079Y-116346279D01*
X153566722Y-116455722D01*
X153457279Y-116589079D01*
X153375955Y-116741225D01*
X153325877Y-116906313D01*
X153308967Y-117077999D01*
X153308967Y-117778001D01*
X153310835Y-117796967D01*
X153091802Y-118016000D01*
X151482494Y-118016000D01*
X151389261Y-117876467D01*
X151183533Y-117670739D01*
X151044000Y-117577506D01*
X151044000Y-116997444D01*
X151183698Y-116922774D01*
X151316108Y-116814108D01*
X151424774Y-116681698D01*
X151505520Y-116530632D01*
X151555244Y-116366717D01*
X151572033Y-116196250D01*
X151572033Y-115708750D01*
X151555244Y-115538283D01*
X151505520Y-115374368D01*
X151424774Y-115223302D01*
X151316108Y-115090892D01*
X151223633Y-115015000D01*
X151236428Y-115004500D01*
X153377323Y-115004500D01*
X153349409Y-115072718D01*
X153345538Y-115110391D01*
X153470269Y-115301000D01*
X154687000Y-115301000D01*
X154687000Y-115281000D01*
X154941000Y-115281000D01*
X154941000Y-115301000D01*
X156157731Y-115301000D01*
X156282462Y-115110391D01*
X156278591Y-115072718D01*
X156250677Y-115004500D01*
X159219323Y-115004500D01*
X159191409Y-115072718D01*
X159187538Y-115110391D01*
X159312269Y-115301000D01*
X160529000Y-115301000D01*
X160529000Y-115281000D01*
X160783000Y-115281000D01*
X160783000Y-115301000D01*
X161999731Y-115301000D01*
X162124462Y-115110391D01*
X162120591Y-115072718D01*
X162092677Y-115004500D01*
X165061323Y-115004500D01*
X165033409Y-115072718D01*
X165029538Y-115110391D01*
X165154269Y-115301000D01*
X166371000Y-115301000D01*
X166371000Y-115281000D01*
X166625000Y-115281000D01*
X166625000Y-115301000D01*
X167841731Y-115301000D01*
X167966462Y-115110391D01*
X167962591Y-115072718D01*
X167934677Y-115004500D01*
X169240525Y-115004500D01*
X170287316Y-116051292D01*
X170316341Y-116086659D01*
X170351708Y-116115684D01*
X170351711Y-116115687D01*
X170457494Y-116202501D01*
X170543573Y-116248511D01*
X170618536Y-116288580D01*
X170793276Y-116341587D01*
X170929462Y-116355000D01*
X170929474Y-116355000D01*
X170974999Y-116359484D01*
X171020524Y-116355000D01*
X171040397Y-116355000D01*
X171013815Y-116376815D01*
X170934463Y-116473506D01*
X170875498Y-116583820D01*
X170839188Y-116703518D01*
X170826928Y-116828000D01*
X170830000Y-117142250D01*
X170988750Y-117301000D01*
X172213000Y-117301000D01*
X172213000Y-117281000D01*
X172467000Y-117281000D01*
X172467000Y-117301000D01*
X173691250Y-117301000D01*
X173850000Y-117142250D01*
X173853072Y-116828000D01*
X173840812Y-116703518D01*
X173804502Y-116583820D01*
X173745537Y-116473506D01*
X173666185Y-116376815D01*
X173569494Y-116297463D01*
X173513369Y-116267463D01*
X173640149Y-116112983D01*
X173754084Y-115899824D01*
X173824245Y-115668534D01*
X173847936Y-115428000D01*
X173824245Y-115187466D01*
X173754084Y-114956176D01*
X173640149Y-114743017D01*
X173486817Y-114556183D01*
X173330627Y-114428000D01*
X173486817Y-114299817D01*
X173640149Y-114112983D01*
X173754084Y-113899824D01*
X173824245Y-113668534D01*
X173847936Y-113428000D01*
X173824245Y-113187466D01*
X173754084Y-112956176D01*
X173640149Y-112743017D01*
X173486817Y-112556183D01*
X173299983Y-112402851D01*
X173086824Y-112288916D01*
X172855534Y-112218755D01*
X172675268Y-112201000D01*
X172004732Y-112201000D01*
X171824466Y-112218755D01*
X171593176Y-112288916D01*
X171380017Y-112402851D01*
X171193183Y-112556183D01*
X171039851Y-112743017D01*
X170925916Y-112956176D01*
X170855755Y-113187466D01*
X170832064Y-113428000D01*
X170855755Y-113668534D01*
X170925916Y-113899824D01*
X171039851Y-114112983D01*
X171193183Y-114299817D01*
X171349373Y-114428000D01*
X171314553Y-114456577D01*
X170312188Y-113454213D01*
X170283159Y-113418841D01*
X170142005Y-113302999D01*
X169980964Y-113216920D01*
X169806224Y-113163913D01*
X169670038Y-113150500D01*
X169670027Y-113150500D01*
X169624500Y-113146016D01*
X169578973Y-113150500D01*
X151236428Y-113150500D01*
X151183698Y-113107226D01*
X151032632Y-113026480D01*
X150868717Y-112976756D01*
X150698250Y-112959967D01*
X149785750Y-112959967D01*
X149615283Y-112976756D01*
X149451368Y-113026480D01*
X149300302Y-113107226D01*
X149247572Y-113150500D01*
X148696428Y-113150500D01*
X148643698Y-113107226D01*
X148492632Y-113026480D01*
X148328717Y-112976756D01*
X148158250Y-112959967D01*
X147245750Y-112959967D01*
X147075283Y-112976756D01*
X146911368Y-113026480D01*
X146760302Y-113107226D01*
X146707572Y-113150500D01*
X146156428Y-113150500D01*
X146103698Y-113107226D01*
X145952632Y-113026480D01*
X145788717Y-112976756D01*
X145618250Y-112959967D01*
X144705750Y-112959967D01*
X144535283Y-112976756D01*
X144371368Y-113026480D01*
X144220302Y-113107226D01*
X144167572Y-113150500D01*
X130718027Y-113150500D01*
X130672500Y-113146016D01*
X130626973Y-113150500D01*
X130626962Y-113150500D01*
X130490776Y-113163913D01*
X130319425Y-113215892D01*
X130316036Y-113216920D01*
X130154994Y-113302998D01*
X130049212Y-113389812D01*
X130049208Y-113389816D01*
X130013841Y-113418841D01*
X129984816Y-113454208D01*
X127382000Y-116057025D01*
X126829000Y-115504025D01*
X126829000Y-111836000D01*
X177176928Y-111836000D01*
X177189188Y-111960482D01*
X177225498Y-112080180D01*
X177284463Y-112190494D01*
X177363815Y-112287185D01*
X177460506Y-112366537D01*
X177570820Y-112425502D01*
X177690518Y-112461812D01*
X177815000Y-112474072D01*
X178404250Y-112471000D01*
X178563000Y-112312250D01*
X178563000Y-111363000D01*
X178817000Y-111363000D01*
X178817000Y-112312250D01*
X178975750Y-112471000D01*
X179565000Y-112474072D01*
X179689482Y-112461812D01*
X179809180Y-112425502D01*
X179919494Y-112366537D01*
X180016185Y-112287185D01*
X180095537Y-112190494D01*
X180154502Y-112080180D01*
X180190812Y-111960482D01*
X180203072Y-111836000D01*
X180200000Y-111521750D01*
X180041250Y-111363000D01*
X178817000Y-111363000D01*
X178563000Y-111363000D01*
X177338750Y-111363000D01*
X177180000Y-111521750D01*
X177176928Y-111836000D01*
X126829000Y-111836000D01*
X126829000Y-99525975D01*
X134244316Y-106941292D01*
X134273341Y-106976659D01*
X134308708Y-107005684D01*
X134308711Y-107005687D01*
X134414494Y-107092501D01*
X134481840Y-107128498D01*
X134575536Y-107178580D01*
X134750276Y-107231587D01*
X134886462Y-107245000D01*
X134886474Y-107245000D01*
X134931999Y-107249484D01*
X134977524Y-107245000D01*
X143866370Y-107245000D01*
X143874226Y-107259698D01*
X143982892Y-107392108D01*
X144115302Y-107500774D01*
X144266368Y-107581520D01*
X144430283Y-107631244D01*
X144600750Y-107648033D01*
X145088250Y-107648033D01*
X145258717Y-107631244D01*
X145422632Y-107581520D01*
X145573698Y-107500774D01*
X145706108Y-107392108D01*
X145782000Y-107299633D01*
X145857892Y-107392108D01*
X145990302Y-107500774D01*
X146141368Y-107581520D01*
X146305283Y-107631244D01*
X146475750Y-107648033D01*
X146963250Y-107648033D01*
X147133717Y-107631244D01*
X147297632Y-107581520D01*
X147448698Y-107500774D01*
X147581108Y-107392108D01*
X147689774Y-107259698D01*
X147764444Y-107120000D01*
X149116610Y-107120000D01*
X149155996Y-107123879D01*
X149191965Y-107120336D01*
X149153302Y-107159000D01*
X148912189Y-107159000D01*
X148670305Y-107207114D01*
X148442456Y-107301492D01*
X148237396Y-107438508D01*
X148063008Y-107612896D01*
X147925992Y-107817956D01*
X147831614Y-108045805D01*
X147783500Y-108287689D01*
X147783500Y-108534311D01*
X147831614Y-108776195D01*
X147925992Y-109004044D01*
X148063008Y-109209104D01*
X148179404Y-109325500D01*
X137115592Y-109325500D01*
X137070104Y-109280012D01*
X136865044Y-109142996D01*
X136637195Y-109048618D01*
X136395311Y-109000504D01*
X136148689Y-109000504D01*
X135906805Y-109048618D01*
X135678956Y-109142996D01*
X135473896Y-109280012D01*
X135299508Y-109454400D01*
X135162492Y-109659460D01*
X135068114Y-109887309D01*
X135020000Y-110129193D01*
X135020000Y-110375815D01*
X135068114Y-110617699D01*
X135162492Y-110845548D01*
X135299508Y-111050608D01*
X135473896Y-111224996D01*
X135678956Y-111362012D01*
X135906805Y-111456390D01*
X136148689Y-111504504D01*
X136395311Y-111504504D01*
X136637195Y-111456390D01*
X136865044Y-111362012D01*
X137070104Y-111224996D01*
X137115600Y-111179500D01*
X151176404Y-111179500D01*
X151221896Y-111224992D01*
X151426956Y-111362008D01*
X151654805Y-111456386D01*
X151896689Y-111504500D01*
X152143311Y-111504500D01*
X152385195Y-111456386D01*
X152613044Y-111362008D01*
X152818104Y-111224992D01*
X152992492Y-111050604D01*
X153129508Y-110845544D01*
X153223886Y-110617695D01*
X153272000Y-110375811D01*
X153272000Y-110129189D01*
X153223886Y-109887305D01*
X153129508Y-109659456D01*
X152992492Y-109454396D01*
X152914245Y-109376149D01*
X152964180Y-109361002D01*
X153074494Y-109302037D01*
X153171185Y-109222685D01*
X153250537Y-109125994D01*
X153309502Y-109015680D01*
X153345812Y-108895982D01*
X153358072Y-108771500D01*
X153355682Y-108614500D01*
X157793928Y-108614500D01*
X157806188Y-108738982D01*
X157842498Y-108858680D01*
X157901463Y-108968994D01*
X157980815Y-109065685D01*
X158077506Y-109145037D01*
X158187820Y-109204002D01*
X158307518Y-109240312D01*
X158432000Y-109252572D01*
X158846250Y-109249500D01*
X159005000Y-109090750D01*
X159005000Y-108254000D01*
X157955750Y-108254000D01*
X157797000Y-108412750D01*
X157793928Y-108614500D01*
X153355682Y-108614500D01*
X153355000Y-108569750D01*
X153196250Y-108411000D01*
X152147000Y-108411000D01*
X152147000Y-108431000D01*
X151893000Y-108431000D01*
X151893000Y-108411000D01*
X150843750Y-108411000D01*
X150685000Y-108569750D01*
X150681928Y-108771500D01*
X150694188Y-108895982D01*
X150730498Y-109015680D01*
X150789463Y-109125994D01*
X150868815Y-109222685D01*
X150965506Y-109302037D01*
X151009401Y-109325500D01*
X149891596Y-109325500D01*
X150007992Y-109209104D01*
X150145008Y-109004044D01*
X150239386Y-108776195D01*
X150287500Y-108534311D01*
X150287500Y-108293198D01*
X150683462Y-107897237D01*
X150685000Y-107998250D01*
X150843750Y-108157000D01*
X151893000Y-108157000D01*
X151893000Y-108137000D01*
X152147000Y-108137000D01*
X152147000Y-108157000D01*
X153196250Y-108157000D01*
X153355000Y-107998250D01*
X153356429Y-107904393D01*
X153440820Y-107949502D01*
X153560518Y-107985812D01*
X153685000Y-107998072D01*
X154274250Y-107995000D01*
X154433000Y-107836250D01*
X154433000Y-106887000D01*
X154687000Y-106887000D01*
X154687000Y-107836250D01*
X154845750Y-107995000D01*
X155435000Y-107998072D01*
X155559482Y-107985812D01*
X155679180Y-107949502D01*
X155789494Y-107890537D01*
X155886185Y-107811185D01*
X155965537Y-107714494D01*
X156024502Y-107604180D01*
X156060812Y-107484482D01*
X156073072Y-107360000D01*
X156070000Y-107045750D01*
X155911250Y-106887000D01*
X154687000Y-106887000D01*
X154433000Y-106887000D01*
X154413000Y-106887000D01*
X154413000Y-106633000D01*
X154433000Y-106633000D01*
X154433000Y-106613000D01*
X154687000Y-106613000D01*
X154687000Y-106633000D01*
X155911250Y-106633000D01*
X156070000Y-106474250D01*
X156073072Y-106160000D01*
X156060812Y-106035518D01*
X156024502Y-105915820D01*
X155965537Y-105805506D01*
X155886185Y-105708815D01*
X155789494Y-105629463D01*
X155733369Y-105599463D01*
X155860149Y-105444983D01*
X155974084Y-105231824D01*
X156044245Y-105000534D01*
X156067936Y-104760000D01*
X156044245Y-104519466D01*
X155974084Y-104288176D01*
X155860149Y-104075017D01*
X155706817Y-103888183D01*
X155550627Y-103760000D01*
X155706817Y-103631817D01*
X155860149Y-103444983D01*
X155974084Y-103231824D01*
X156044245Y-103000534D01*
X156067936Y-102760000D01*
X156044245Y-102519466D01*
X155974084Y-102288176D01*
X155860149Y-102075017D01*
X155706817Y-101888183D01*
X155550627Y-101760000D01*
X155706817Y-101631817D01*
X155860149Y-101444983D01*
X155974084Y-101231824D01*
X156044245Y-101000534D01*
X156067936Y-100760000D01*
X156044245Y-100519466D01*
X155974084Y-100288176D01*
X155924815Y-100196000D01*
X158330614Y-100196000D01*
X158370000Y-100199879D01*
X158409386Y-100196000D01*
X158409394Y-100196000D01*
X158527219Y-100184395D01*
X158678397Y-100138536D01*
X158817723Y-100064065D01*
X158939843Y-99963843D01*
X158964960Y-99933238D01*
X159346000Y-99552198D01*
X159346001Y-101471604D01*
X159342121Y-101511000D01*
X159348766Y-101578467D01*
X158675750Y-101578467D01*
X158505283Y-101595256D01*
X158341368Y-101644980D01*
X158190302Y-101725726D01*
X158057892Y-101834392D01*
X157949226Y-101966802D01*
X157868480Y-102117868D01*
X157818756Y-102281783D01*
X157801967Y-102452250D01*
X157801967Y-102939750D01*
X157818756Y-103110217D01*
X157868480Y-103274132D01*
X157949226Y-103425198D01*
X158057892Y-103557608D01*
X158150367Y-103633500D01*
X158057892Y-103709392D01*
X157949226Y-103841802D01*
X157868480Y-103992868D01*
X157818756Y-104156783D01*
X157801967Y-104327250D01*
X157801967Y-104814750D01*
X157818756Y-104985217D01*
X157868480Y-105149132D01*
X157949226Y-105300198D01*
X158040569Y-105411500D01*
X157949226Y-105522802D01*
X157868480Y-105673868D01*
X157818756Y-105837783D01*
X157801967Y-106008250D01*
X157801967Y-106495750D01*
X157818756Y-106666217D01*
X157868480Y-106830132D01*
X157949226Y-106981198D01*
X158057892Y-107113608D01*
X158064869Y-107119334D01*
X157980815Y-107188315D01*
X157901463Y-107285006D01*
X157842498Y-107395320D01*
X157806188Y-107515018D01*
X157793928Y-107639500D01*
X157797000Y-107841250D01*
X157955750Y-108000000D01*
X159005000Y-108000000D01*
X159005000Y-107980000D01*
X159259000Y-107980000D01*
X159259000Y-108000000D01*
X159279000Y-108000000D01*
X159279000Y-108254000D01*
X159259000Y-108254000D01*
X159259000Y-109090750D01*
X159417750Y-109249500D01*
X159832000Y-109252572D01*
X159956482Y-109240312D01*
X160076180Y-109204002D01*
X160186494Y-109145037D01*
X160283185Y-109065685D01*
X160362537Y-108968994D01*
X160421502Y-108858680D01*
X160457812Y-108738982D01*
X160460230Y-108714429D01*
X160569044Y-108823243D01*
X160594157Y-108853843D01*
X160716277Y-108954065D01*
X160803151Y-109000500D01*
X160855603Y-109028536D01*
X161006780Y-109074395D01*
X161020215Y-109075718D01*
X161124606Y-109086000D01*
X161124614Y-109086000D01*
X161164000Y-109089879D01*
X161203386Y-109086000D01*
X162902614Y-109086000D01*
X162942000Y-109089879D01*
X162981386Y-109086000D01*
X162981394Y-109086000D01*
X163099219Y-109074395D01*
X163250397Y-109028536D01*
X163389723Y-108954065D01*
X163511843Y-108853843D01*
X163536960Y-108823238D01*
X163667198Y-108693000D01*
X164905928Y-108693000D01*
X164918188Y-108817482D01*
X164954498Y-108937180D01*
X165013463Y-109047494D01*
X165092815Y-109144185D01*
X165189506Y-109223537D01*
X165299820Y-109282502D01*
X165419518Y-109318812D01*
X165544000Y-109331072D01*
X165958250Y-109328000D01*
X166117000Y-109169250D01*
X166117000Y-108332500D01*
X166371000Y-108332500D01*
X166371000Y-109169250D01*
X166529750Y-109328000D01*
X166944000Y-109331072D01*
X167068482Y-109318812D01*
X167188180Y-109282502D01*
X167298494Y-109223537D01*
X167395185Y-109144185D01*
X167474537Y-109047494D01*
X167533502Y-108937180D01*
X167569812Y-108817482D01*
X167582072Y-108693000D01*
X167579000Y-108491250D01*
X167420250Y-108332500D01*
X166371000Y-108332500D01*
X166117000Y-108332500D01*
X165067750Y-108332500D01*
X164909000Y-108491250D01*
X164905928Y-108693000D01*
X163667198Y-108693000D01*
X163989243Y-108370956D01*
X164019843Y-108345843D01*
X164120065Y-108223723D01*
X164194536Y-108084397D01*
X164240395Y-107933219D01*
X164252000Y-107815394D01*
X164252000Y-107815387D01*
X164255879Y-107776001D01*
X164252000Y-107736615D01*
X164252000Y-103791689D01*
X164277157Y-103822343D01*
X164307762Y-103847460D01*
X164913967Y-104453666D01*
X164913967Y-104893250D01*
X164930756Y-105063717D01*
X164980480Y-105227632D01*
X165061226Y-105378698D01*
X165152569Y-105490000D01*
X165061226Y-105601302D01*
X164980480Y-105752368D01*
X164930756Y-105916283D01*
X164913967Y-106086750D01*
X164913967Y-106574250D01*
X164930756Y-106744717D01*
X164980480Y-106908632D01*
X165061226Y-107059698D01*
X165169892Y-107192108D01*
X165176869Y-107197834D01*
X165092815Y-107266815D01*
X165013463Y-107363506D01*
X164954498Y-107473820D01*
X164918188Y-107593518D01*
X164905928Y-107718000D01*
X164909000Y-107919750D01*
X165067750Y-108078500D01*
X166117000Y-108078500D01*
X166117000Y-108058500D01*
X166371000Y-108058500D01*
X166371000Y-108078500D01*
X167420250Y-108078500D01*
X167579000Y-107919750D01*
X167579243Y-107903760D01*
X167664820Y-107949502D01*
X167784518Y-107985812D01*
X167909000Y-107998072D01*
X168498250Y-107995000D01*
X168657000Y-107836250D01*
X168657000Y-106887000D01*
X168911000Y-106887000D01*
X168911000Y-107836250D01*
X169069750Y-107995000D01*
X169659000Y-107998072D01*
X169783482Y-107985812D01*
X169903180Y-107949502D01*
X170013494Y-107890537D01*
X170110185Y-107811185D01*
X170189537Y-107714494D01*
X170248502Y-107604180D01*
X170284812Y-107484482D01*
X170297072Y-107360000D01*
X170294000Y-107045750D01*
X170135250Y-106887000D01*
X168911000Y-106887000D01*
X168657000Y-106887000D01*
X168637000Y-106887000D01*
X168637000Y-106633000D01*
X168657000Y-106633000D01*
X168657000Y-106613000D01*
X168911000Y-106613000D01*
X168911000Y-106633000D01*
X170135250Y-106633000D01*
X170294000Y-106474250D01*
X170297072Y-106160000D01*
X170284812Y-106035518D01*
X170248502Y-105915820D01*
X170189537Y-105805506D01*
X170110185Y-105708815D01*
X170013494Y-105629463D01*
X169957369Y-105599463D01*
X170084149Y-105444983D01*
X170198084Y-105231824D01*
X170268245Y-105000534D01*
X170291936Y-104760000D01*
X170268245Y-104519466D01*
X170198084Y-104288176D01*
X170084149Y-104075017D01*
X169930817Y-103888183D01*
X169774627Y-103760000D01*
X169930817Y-103631817D01*
X170084149Y-103444983D01*
X170198084Y-103231824D01*
X170268245Y-103000534D01*
X170291936Y-102760000D01*
X170268245Y-102519466D01*
X170198084Y-102288176D01*
X170084149Y-102075017D01*
X169930817Y-101888183D01*
X169774627Y-101760000D01*
X169829891Y-101714645D01*
X169891936Y-101830723D01*
X169953391Y-101905605D01*
X169992158Y-101952843D01*
X170022758Y-101977956D01*
X177190917Y-109146116D01*
X177182064Y-109236000D01*
X177205755Y-109476534D01*
X177275916Y-109707824D01*
X177389851Y-109920983D01*
X177516631Y-110075463D01*
X177460506Y-110105463D01*
X177363815Y-110184815D01*
X177284463Y-110281506D01*
X177225498Y-110391820D01*
X177189188Y-110511518D01*
X177176928Y-110636000D01*
X177180000Y-110950250D01*
X177338750Y-111109000D01*
X178563000Y-111109000D01*
X178563000Y-111089000D01*
X178817000Y-111089000D01*
X178817000Y-111109000D01*
X180041250Y-111109000D01*
X180200000Y-110950250D01*
X180203072Y-110636000D01*
X180190812Y-110511518D01*
X180154502Y-110391820D01*
X180095537Y-110281506D01*
X180016185Y-110184815D01*
X179919494Y-110105463D01*
X179863369Y-110075463D01*
X179990149Y-109920983D01*
X180104084Y-109707824D01*
X180174245Y-109476534D01*
X180197936Y-109236000D01*
X180174245Y-108995466D01*
X180104084Y-108764176D01*
X179990149Y-108551017D01*
X179836817Y-108364183D01*
X179680627Y-108236000D01*
X179836817Y-108107817D01*
X179990149Y-107920983D01*
X180104084Y-107707824D01*
X180174245Y-107476534D01*
X180197936Y-107236000D01*
X180174245Y-106995466D01*
X180104084Y-106764176D01*
X179990149Y-106551017D01*
X179836817Y-106364183D01*
X179680627Y-106236000D01*
X179836817Y-106107817D01*
X179990149Y-105920983D01*
X180104084Y-105707824D01*
X180174245Y-105476534D01*
X180197936Y-105236000D01*
X180174245Y-104995466D01*
X180104084Y-104764176D01*
X179990149Y-104551017D01*
X179836817Y-104364183D01*
X179680627Y-104236000D01*
X179836817Y-104107817D01*
X179990149Y-103920983D01*
X180104084Y-103707824D01*
X180174245Y-103476534D01*
X180197936Y-103236000D01*
X180174245Y-102995466D01*
X180104084Y-102764176D01*
X179990149Y-102551017D01*
X179836817Y-102364183D01*
X179680627Y-102236000D01*
X179836817Y-102107817D01*
X179990149Y-101920983D01*
X180104084Y-101707824D01*
X180174245Y-101476534D01*
X180197936Y-101236000D01*
X180174245Y-100995466D01*
X180104084Y-100764176D01*
X179990149Y-100551017D01*
X179836817Y-100364183D01*
X179649983Y-100210851D01*
X179436824Y-100096916D01*
X179205534Y-100026755D01*
X179025268Y-100009000D01*
X178354732Y-100009000D01*
X178174466Y-100026755D01*
X177943176Y-100096916D01*
X177730017Y-100210851D01*
X177543183Y-100364183D01*
X177389851Y-100551017D01*
X177275916Y-100764176D01*
X177229707Y-100916508D01*
X176444000Y-100130802D01*
X176444000Y-96503232D01*
X176525425Y-96625093D01*
X176974907Y-97074575D01*
X177503442Y-97427730D01*
X178090719Y-97670988D01*
X178714168Y-97795000D01*
X179349832Y-97795000D01*
X179973281Y-97670988D01*
X180560558Y-97427730D01*
X181089093Y-97074575D01*
X181538575Y-96625093D01*
X181830000Y-96188944D01*
X181830001Y-115947058D01*
G36*
X161799000Y-106633000D02*
G01*
X161819000Y-106633000D01*
X161819000Y-106887000D01*
X161799000Y-106887000D01*
X161799000Y-106907000D01*
X161545000Y-106907000D01*
X161545000Y-106887000D01*
X161525000Y-106887000D01*
X161525000Y-106633000D01*
X161545000Y-106633000D01*
X161545000Y-106613000D01*
X161799000Y-106613000D01*
X161799000Y-106633000D01*
G37*
X161799000Y-106633000D02*
X161819000Y-106633000D01*
X161819000Y-106887000D01*
X161799000Y-106887000D01*
X161799000Y-106907000D01*
X161545000Y-106907000D01*
X161545000Y-106887000D01*
X161525000Y-106887000D01*
X161525000Y-106633000D01*
X161545000Y-106633000D01*
X161545000Y-106613000D01*
X161799000Y-106613000D01*
X161799000Y-106633000D01*
G36*
X136189000Y-95711000D02*
G01*
X136209000Y-95711000D01*
X136209000Y-95965000D01*
X136189000Y-95965000D01*
X136189000Y-97158155D01*
X136418890Y-97279476D01*
X136566099Y-97234825D01*
X136828920Y-97109641D01*
X137062269Y-96935588D01*
X137257178Y-96719355D01*
X137331340Y-96594853D01*
X137454739Y-96779533D01*
X137660467Y-96985261D01*
X137902378Y-97146901D01*
X138171175Y-97258240D01*
X138456528Y-97315000D01*
X138747472Y-97315000D01*
X139032825Y-97258240D01*
X139301622Y-97146901D01*
X139543533Y-96985261D01*
X139749261Y-96779533D01*
X139872000Y-96595841D01*
X139994739Y-96779533D01*
X140200467Y-96985261D01*
X140442378Y-97146901D01*
X140711175Y-97258240D01*
X140996528Y-97315000D01*
X141287472Y-97315000D01*
X141572825Y-97258240D01*
X141841622Y-97146901D01*
X142083533Y-96985261D01*
X142289261Y-96779533D01*
X142412000Y-96595841D01*
X142534739Y-96779533D01*
X142740467Y-96985261D01*
X142982378Y-97146901D01*
X143251175Y-97258240D01*
X143536528Y-97315000D01*
X143827472Y-97315000D01*
X144112825Y-97258240D01*
X144381622Y-97146901D01*
X144623533Y-96985261D01*
X144829261Y-96779533D01*
X144952000Y-96595841D01*
X145074739Y-96779533D01*
X145280467Y-96985261D01*
X145522378Y-97146901D01*
X145791175Y-97258240D01*
X146076528Y-97315000D01*
X146367472Y-97315000D01*
X146652825Y-97258240D01*
X146921622Y-97146901D01*
X147163533Y-96985261D01*
X147369261Y-96779533D01*
X147492000Y-96595841D01*
X147614739Y-96779533D01*
X147820467Y-96985261D01*
X148062378Y-97146901D01*
X148331175Y-97258240D01*
X148616528Y-97315000D01*
X148907472Y-97315000D01*
X149192825Y-97258240D01*
X149461622Y-97146901D01*
X149703533Y-96985261D01*
X149909261Y-96779533D01*
X150032000Y-96595841D01*
X150154739Y-96779533D01*
X150360467Y-96985261D01*
X150602378Y-97146901D01*
X150871175Y-97258240D01*
X151156528Y-97315000D01*
X151447472Y-97315000D01*
X151732825Y-97258240D01*
X152001622Y-97146901D01*
X152243533Y-96985261D01*
X152449261Y-96779533D01*
X152572000Y-96595841D01*
X152623594Y-96673058D01*
X152588277Y-96691935D01*
X152588275Y-96691936D01*
X152588276Y-96691936D01*
X152496755Y-96767045D01*
X152496751Y-96767049D01*
X152466157Y-96792157D01*
X152441049Y-96822751D01*
X149623167Y-99640634D01*
X149622000Y-99378750D01*
X149463250Y-99220000D01*
X148814000Y-99220000D01*
X148814000Y-99240000D01*
X148560000Y-99240000D01*
X148560000Y-99220000D01*
X147544000Y-99220000D01*
X147544000Y-100544250D01*
X147702750Y-100703000D01*
X147717000Y-100706072D01*
X147841482Y-100693812D01*
X147961180Y-100657502D01*
X148052000Y-100608957D01*
X148142820Y-100657502D01*
X148262518Y-100693812D01*
X148387000Y-100706072D01*
X148401250Y-100703000D01*
X148559998Y-100544252D01*
X148559998Y-100703000D01*
X148560801Y-100703000D01*
X146908758Y-102355044D01*
X146878158Y-102380157D01*
X146853045Y-102410757D01*
X146777936Y-102502277D01*
X146738482Y-102576089D01*
X146730363Y-102569426D01*
X146595506Y-102497343D01*
X146449177Y-102452955D01*
X146297000Y-102437967D01*
X145997000Y-102437967D01*
X145844823Y-102452955D01*
X145698494Y-102497343D01*
X145563637Y-102569426D01*
X145512000Y-102611803D01*
X145460363Y-102569426D01*
X145325506Y-102497343D01*
X145179177Y-102452955D01*
X145027000Y-102437967D01*
X144727000Y-102437967D01*
X144574823Y-102452955D01*
X144428494Y-102497343D01*
X144293637Y-102569426D01*
X144175433Y-102666433D01*
X144078426Y-102784637D01*
X144006343Y-102919494D01*
X143961955Y-103065823D01*
X143946967Y-103218000D01*
X143946967Y-104868000D01*
X143950000Y-104898799D01*
X143950001Y-105283970D01*
X143874226Y-105376302D01*
X143866370Y-105391000D01*
X135315976Y-105391000D01*
X129992976Y-100068000D01*
X143938928Y-100068000D01*
X143951188Y-100192482D01*
X143987498Y-100312180D01*
X144046463Y-100422494D01*
X144125815Y-100519185D01*
X144222506Y-100598537D01*
X144332820Y-100657502D01*
X144452518Y-100693812D01*
X144577000Y-100706072D01*
X144591250Y-100703000D01*
X144750000Y-100544250D01*
X144750000Y-99220000D01*
X145004000Y-99220000D01*
X145004000Y-100544250D01*
X145162750Y-100703000D01*
X145177000Y-100706072D01*
X145301482Y-100693812D01*
X145421180Y-100657502D01*
X145512000Y-100608957D01*
X145602820Y-100657502D01*
X145722518Y-100693812D01*
X145847000Y-100706072D01*
X145861250Y-100703000D01*
X146020000Y-100544250D01*
X146020000Y-99220000D01*
X146274000Y-99220000D01*
X146274000Y-100544250D01*
X146432750Y-100703000D01*
X146447000Y-100706072D01*
X146571482Y-100693812D01*
X146691180Y-100657502D01*
X146782000Y-100608957D01*
X146872820Y-100657502D01*
X146992518Y-100693812D01*
X147117000Y-100706072D01*
X147131250Y-100703000D01*
X147290000Y-100544250D01*
X147290000Y-99220000D01*
X146274000Y-99220000D01*
X146020000Y-99220000D01*
X145004000Y-99220000D01*
X144750000Y-99220000D01*
X144100750Y-99220000D01*
X143942000Y-99378750D01*
X143938928Y-100068000D01*
X129992976Y-100068000D01*
X128042976Y-98118000D01*
X143938928Y-98118000D01*
X143942000Y-98807250D01*
X144100750Y-98966000D01*
X144750000Y-98966000D01*
X144750000Y-97641750D01*
X145004000Y-97641750D01*
X145004000Y-98966000D01*
X146020000Y-98966000D01*
X146020000Y-97641750D01*
X146274000Y-97641750D01*
X146274000Y-98966000D01*
X147290000Y-98966000D01*
X147290000Y-97641750D01*
X147544000Y-97641750D01*
X147544000Y-98966000D01*
X148560000Y-98966000D01*
X148560000Y-97641750D01*
X148814000Y-97641750D01*
X148814000Y-98966000D01*
X149463250Y-98966000D01*
X149622000Y-98807250D01*
X149625072Y-98118000D01*
X149612812Y-97993518D01*
X149576502Y-97873820D01*
X149517537Y-97763506D01*
X149438185Y-97666815D01*
X149341494Y-97587463D01*
X149231180Y-97528498D01*
X149111482Y-97492188D01*
X148987000Y-97479928D01*
X148972750Y-97483000D01*
X148814000Y-97641750D01*
X148560000Y-97641750D01*
X148401250Y-97483000D01*
X148387000Y-97479928D01*
X148262518Y-97492188D01*
X148142820Y-97528498D01*
X148052000Y-97577043D01*
X147961180Y-97528498D01*
X147841482Y-97492188D01*
X147717000Y-97479928D01*
X147702750Y-97483000D01*
X147544000Y-97641750D01*
X147290000Y-97641750D01*
X147131250Y-97483000D01*
X147117000Y-97479928D01*
X146992518Y-97492188D01*
X146872820Y-97528498D01*
X146782000Y-97577043D01*
X146691180Y-97528498D01*
X146571482Y-97492188D01*
X146447000Y-97479928D01*
X146432750Y-97483000D01*
X146274000Y-97641750D01*
X146020000Y-97641750D01*
X145861250Y-97483000D01*
X145847000Y-97479928D01*
X145722518Y-97492188D01*
X145602820Y-97528498D01*
X145512000Y-97577043D01*
X145421180Y-97528498D01*
X145301482Y-97492188D01*
X145177000Y-97479928D01*
X145162750Y-97483000D01*
X145004000Y-97641750D01*
X144750000Y-97641750D01*
X144591250Y-97483000D01*
X144577000Y-97479928D01*
X144452518Y-97492188D01*
X144332820Y-97528498D01*
X144222506Y-97587463D01*
X144125815Y-97666815D01*
X144046463Y-97763506D01*
X143987498Y-97873820D01*
X143951188Y-97993518D01*
X143938928Y-98118000D01*
X128042976Y-98118000D01*
X127121142Y-97196167D01*
X127197501Y-97133501D01*
X127275853Y-97038028D01*
X127334075Y-96929103D01*
X127359731Y-96844525D01*
X127500467Y-96985261D01*
X127742378Y-97146901D01*
X128011175Y-97258240D01*
X128296528Y-97315000D01*
X128587472Y-97315000D01*
X128872825Y-97258240D01*
X129141622Y-97146901D01*
X129383533Y-96985261D01*
X129589261Y-96779533D01*
X129712000Y-96595841D01*
X129834739Y-96779533D01*
X130040467Y-96985261D01*
X130282378Y-97146901D01*
X130551175Y-97258240D01*
X130836528Y-97315000D01*
X131127472Y-97315000D01*
X131412825Y-97258240D01*
X131681622Y-97146901D01*
X131923533Y-96985261D01*
X132129261Y-96779533D01*
X132252000Y-96595841D01*
X132374739Y-96779533D01*
X132580467Y-96985261D01*
X132822378Y-97146901D01*
X133091175Y-97258240D01*
X133376528Y-97315000D01*
X133667472Y-97315000D01*
X133952825Y-97258240D01*
X134221622Y-97146901D01*
X134463533Y-96985261D01*
X134669261Y-96779533D01*
X134792660Y-96594853D01*
X134866822Y-96719355D01*
X135061731Y-96935588D01*
X135295080Y-97109641D01*
X135557901Y-97234825D01*
X135705110Y-97279476D01*
X135935000Y-97158155D01*
X135935000Y-95965000D01*
X135915000Y-95965000D01*
X135915000Y-95711000D01*
X135935000Y-95711000D01*
X135935000Y-95691000D01*
X136189000Y-95691000D01*
X136189000Y-95711000D01*
G37*
X136189000Y-95711000D02*
X136209000Y-95711000D01*
X136209000Y-95965000D01*
X136189000Y-95965000D01*
X136189000Y-97158155D01*
X136418890Y-97279476D01*
X136566099Y-97234825D01*
X136828920Y-97109641D01*
X137062269Y-96935588D01*
X137257178Y-96719355D01*
X137331340Y-96594853D01*
X137454739Y-96779533D01*
X137660467Y-96985261D01*
X137902378Y-97146901D01*
X138171175Y-97258240D01*
X138456528Y-97315000D01*
X138747472Y-97315000D01*
X139032825Y-97258240D01*
X139301622Y-97146901D01*
X139543533Y-96985261D01*
X139749261Y-96779533D01*
X139872000Y-96595841D01*
X139994739Y-96779533D01*
X140200467Y-96985261D01*
X140442378Y-97146901D01*
X140711175Y-97258240D01*
X140996528Y-97315000D01*
X141287472Y-97315000D01*
X141572825Y-97258240D01*
X141841622Y-97146901D01*
X142083533Y-96985261D01*
X142289261Y-96779533D01*
X142412000Y-96595841D01*
X142534739Y-96779533D01*
X142740467Y-96985261D01*
X142982378Y-97146901D01*
X143251175Y-97258240D01*
X143536528Y-97315000D01*
X143827472Y-97315000D01*
X144112825Y-97258240D01*
X144381622Y-97146901D01*
X144623533Y-96985261D01*
X144829261Y-96779533D01*
X144952000Y-96595841D01*
X145074739Y-96779533D01*
X145280467Y-96985261D01*
X145522378Y-97146901D01*
X145791175Y-97258240D01*
X146076528Y-97315000D01*
X146367472Y-97315000D01*
X146652825Y-97258240D01*
X146921622Y-97146901D01*
X147163533Y-96985261D01*
X147369261Y-96779533D01*
X147492000Y-96595841D01*
X147614739Y-96779533D01*
X147820467Y-96985261D01*
X148062378Y-97146901D01*
X148331175Y-97258240D01*
X148616528Y-97315000D01*
X148907472Y-97315000D01*
X149192825Y-97258240D01*
X149461622Y-97146901D01*
X149703533Y-96985261D01*
X149909261Y-96779533D01*
X150032000Y-96595841D01*
X150154739Y-96779533D01*
X150360467Y-96985261D01*
X150602378Y-97146901D01*
X150871175Y-97258240D01*
X151156528Y-97315000D01*
X151447472Y-97315000D01*
X151732825Y-97258240D01*
X152001622Y-97146901D01*
X152243533Y-96985261D01*
X152449261Y-96779533D01*
X152572000Y-96595841D01*
X152623594Y-96673058D01*
X152588277Y-96691935D01*
X152588275Y-96691936D01*
X152588276Y-96691936D01*
X152496755Y-96767045D01*
X152496751Y-96767049D01*
X152466157Y-96792157D01*
X152441049Y-96822751D01*
X149623167Y-99640634D01*
X149622000Y-99378750D01*
X149463250Y-99220000D01*
X148814000Y-99220000D01*
X148814000Y-99240000D01*
X148560000Y-99240000D01*
X148560000Y-99220000D01*
X147544000Y-99220000D01*
X147544000Y-100544250D01*
X147702750Y-100703000D01*
X147717000Y-100706072D01*
X147841482Y-100693812D01*
X147961180Y-100657502D01*
X148052000Y-100608957D01*
X148142820Y-100657502D01*
X148262518Y-100693812D01*
X148387000Y-100706072D01*
X148401250Y-100703000D01*
X148559998Y-100544252D01*
X148559998Y-100703000D01*
X148560801Y-100703000D01*
X146908758Y-102355044D01*
X146878158Y-102380157D01*
X146853045Y-102410757D01*
X146777936Y-102502277D01*
X146738482Y-102576089D01*
X146730363Y-102569426D01*
X146595506Y-102497343D01*
X146449177Y-102452955D01*
X146297000Y-102437967D01*
X145997000Y-102437967D01*
X145844823Y-102452955D01*
X145698494Y-102497343D01*
X145563637Y-102569426D01*
X145512000Y-102611803D01*
X145460363Y-102569426D01*
X145325506Y-102497343D01*
X145179177Y-102452955D01*
X145027000Y-102437967D01*
X144727000Y-102437967D01*
X144574823Y-102452955D01*
X144428494Y-102497343D01*
X144293637Y-102569426D01*
X144175433Y-102666433D01*
X144078426Y-102784637D01*
X144006343Y-102919494D01*
X143961955Y-103065823D01*
X143946967Y-103218000D01*
X143946967Y-104868000D01*
X143950000Y-104898799D01*
X143950001Y-105283970D01*
X143874226Y-105376302D01*
X143866370Y-105391000D01*
X135315976Y-105391000D01*
X129992976Y-100068000D01*
X143938928Y-100068000D01*
X143951188Y-100192482D01*
X143987498Y-100312180D01*
X144046463Y-100422494D01*
X144125815Y-100519185D01*
X144222506Y-100598537D01*
X144332820Y-100657502D01*
X144452518Y-100693812D01*
X144577000Y-100706072D01*
X144591250Y-100703000D01*
X144750000Y-100544250D01*
X144750000Y-99220000D01*
X145004000Y-99220000D01*
X145004000Y-100544250D01*
X145162750Y-100703000D01*
X145177000Y-100706072D01*
X145301482Y-100693812D01*
X145421180Y-100657502D01*
X145512000Y-100608957D01*
X145602820Y-100657502D01*
X145722518Y-100693812D01*
X145847000Y-100706072D01*
X145861250Y-100703000D01*
X146020000Y-100544250D01*
X146020000Y-99220000D01*
X146274000Y-99220000D01*
X146274000Y-100544250D01*
X146432750Y-100703000D01*
X146447000Y-100706072D01*
X146571482Y-100693812D01*
X146691180Y-100657502D01*
X146782000Y-100608957D01*
X146872820Y-100657502D01*
X146992518Y-100693812D01*
X147117000Y-100706072D01*
X147131250Y-100703000D01*
X147290000Y-100544250D01*
X147290000Y-99220000D01*
X146274000Y-99220000D01*
X146020000Y-99220000D01*
X145004000Y-99220000D01*
X144750000Y-99220000D01*
X144100750Y-99220000D01*
X143942000Y-99378750D01*
X143938928Y-100068000D01*
X129992976Y-100068000D01*
X128042976Y-98118000D01*
X143938928Y-98118000D01*
X143942000Y-98807250D01*
X144100750Y-98966000D01*
X144750000Y-98966000D01*
X144750000Y-97641750D01*
X145004000Y-97641750D01*
X145004000Y-98966000D01*
X146020000Y-98966000D01*
X146020000Y-97641750D01*
X146274000Y-97641750D01*
X146274000Y-98966000D01*
X147290000Y-98966000D01*
X147290000Y-97641750D01*
X147544000Y-97641750D01*
X147544000Y-98966000D01*
X148560000Y-98966000D01*
X148560000Y-97641750D01*
X148814000Y-97641750D01*
X148814000Y-98966000D01*
X149463250Y-98966000D01*
X149622000Y-98807250D01*
X149625072Y-98118000D01*
X149612812Y-97993518D01*
X149576502Y-97873820D01*
X149517537Y-97763506D01*
X149438185Y-97666815D01*
X149341494Y-97587463D01*
X149231180Y-97528498D01*
X149111482Y-97492188D01*
X148987000Y-97479928D01*
X148972750Y-97483000D01*
X148814000Y-97641750D01*
X148560000Y-97641750D01*
X148401250Y-97483000D01*
X148387000Y-97479928D01*
X148262518Y-97492188D01*
X148142820Y-97528498D01*
X148052000Y-97577043D01*
X147961180Y-97528498D01*
X147841482Y-97492188D01*
X147717000Y-97479928D01*
X147702750Y-97483000D01*
X147544000Y-97641750D01*
X147290000Y-97641750D01*
X147131250Y-97483000D01*
X147117000Y-97479928D01*
X146992518Y-97492188D01*
X146872820Y-97528498D01*
X146782000Y-97577043D01*
X146691180Y-97528498D01*
X146571482Y-97492188D01*
X146447000Y-97479928D01*
X146432750Y-97483000D01*
X146274000Y-97641750D01*
X146020000Y-97641750D01*
X145861250Y-97483000D01*
X145847000Y-97479928D01*
X145722518Y-97492188D01*
X145602820Y-97528498D01*
X145512000Y-97577043D01*
X145421180Y-97528498D01*
X145301482Y-97492188D01*
X145177000Y-97479928D01*
X145162750Y-97483000D01*
X145004000Y-97641750D01*
X144750000Y-97641750D01*
X144591250Y-97483000D01*
X144577000Y-97479928D01*
X144452518Y-97492188D01*
X144332820Y-97528498D01*
X144222506Y-97587463D01*
X144125815Y-97666815D01*
X144046463Y-97763506D01*
X143987498Y-97873820D01*
X143951188Y-97993518D01*
X143938928Y-98118000D01*
X128042976Y-98118000D01*
X127121142Y-97196167D01*
X127197501Y-97133501D01*
X127275853Y-97038028D01*
X127334075Y-96929103D01*
X127359731Y-96844525D01*
X127500467Y-96985261D01*
X127742378Y-97146901D01*
X128011175Y-97258240D01*
X128296528Y-97315000D01*
X128587472Y-97315000D01*
X128872825Y-97258240D01*
X129141622Y-97146901D01*
X129383533Y-96985261D01*
X129589261Y-96779533D01*
X129712000Y-96595841D01*
X129834739Y-96779533D01*
X130040467Y-96985261D01*
X130282378Y-97146901D01*
X130551175Y-97258240D01*
X130836528Y-97315000D01*
X131127472Y-97315000D01*
X131412825Y-97258240D01*
X131681622Y-97146901D01*
X131923533Y-96985261D01*
X132129261Y-96779533D01*
X132252000Y-96595841D01*
X132374739Y-96779533D01*
X132580467Y-96985261D01*
X132822378Y-97146901D01*
X133091175Y-97258240D01*
X133376528Y-97315000D01*
X133667472Y-97315000D01*
X133952825Y-97258240D01*
X134221622Y-97146901D01*
X134463533Y-96985261D01*
X134669261Y-96779533D01*
X134792660Y-96594853D01*
X134866822Y-96719355D01*
X135061731Y-96935588D01*
X135295080Y-97109641D01*
X135557901Y-97234825D01*
X135705110Y-97279476D01*
X135935000Y-97158155D01*
X135935000Y-95965000D01*
X135915000Y-95965000D01*
X135915000Y-95711000D01*
X135935000Y-95711000D01*
X135935000Y-95691000D01*
X136189000Y-95691000D01*
X136189000Y-95711000D01*
M02*
